<svg xmlns="http://www.w3.org/2000/svg" width="795" height="530" fill="none" viewBox="0 0 795 530">
    <path fill="#E0E0E0" d="M629.535 444.501s.191-.181.573-.499l1.696-1.431 2.777-2.3 1.77-1.463c.625-.53 1.272-1.123 1.961-1.738l4.59-4.113c1.653-1.526 3.381-3.254 5.3-5.077 1.918-1.823 3.773-3.88 5.819-6s4.124-4.526 6.36-7.006c2.237-2.481 4.325-5.205 6.625-7.982 1.166-1.389 2.216-2.894 3.35-4.389 1.134-1.494 2.289-3.021 3.424-4.6 1.134-1.579 2.215-3.233 3.349-4.887.573-.837 1.156-1.664 1.717-2.512.562-.848 1.06-1.738 1.643-2.607 1.06-1.76 2.248-3.52 3.339-5.3l3.18-5.618c1.124-1.866 2.12-3.859 3.18-5.83 1.06-1.972 2.12-3.965 3.074-6.053l2.979-6.265c.912-2.12 1.844-4.314 2.777-6.508 7.564-18.153 12.648-37.242 15.116-56.752.275-2.354.551-4.693.827-7.018.18-2.332.349-4.632.53-6.921.18-2.29.243-4.537.339-6.774.095-2.236.212-4.452.169-6.635-.042-2.184 0-4.346 0-6.477 0-2.131-.169-4.24-.243-6.296l-.128-3.085c0-1.06-.159-2.025-.233-3.032-.169-2.007-.332-3.975-.487-5.904-.191-1.94-.456-3.837-.668-5.692-.212-1.855-.414-3.699-.732-5.48-.614-3.551-1.06-6.996-1.78-10.229-.721-3.233-1.23-6.36-1.993-9.212-.763-2.851-1.325-5.639-2.12-8.151-.795-2.512-1.378-4.887-2.057-7.038-.678-2.152-1.346-4.081-1.929-5.841-.297-.88-.562-1.707-.837-2.48-.276-.774-.551-1.484-.806-2.12-.498-1.336-.922-2.46-1.261-3.382l-.774-2.12c-.17-.466-.244-.721-.244-.721s.117.234.297.7l.816 2.056c.361.923.806 2.046 1.315 3.361.265.667.54 1.388.837 2.12.297.731.551 1.6.859 2.469l1.982 5.841c.689 2.12 1.346 4.505 2.12 7.028.774 2.523 1.399 5.3 2.12 8.151.721 2.852 1.357 5.979 2.046 9.222.689 3.244 1.187 6.678 1.812 10.24.329 1.781.498 3.625.742 5.48.244 1.855.488 3.763.689 5.703.202 1.94.329 3.922.498 5.925.085 1.007.181 2.014.244 3.032.064 1.017.096 2.056.138 3.084.085 2.12.201 4.24.254 6.36.053 2.12 0 4.293 0 6.488 0 2.194-.095 4.409-.159 6.646-.063 2.236-.116 4.515-.328 6.805-.212 2.29-.35 4.59-.53 6.932-.18 2.343-.551 4.664-.827 7.039-2.447 19.562-7.543 38.701-15.147 56.89-.944 2.194-1.866 4.367-2.788 6.519l-2.989 6.275c-.954 2.12-2.057 4.071-3.096 6.063-1.038 1.993-2.035 3.965-3.18 5.841l-3.254 5.618c-1.06 1.823-2.258 3.583-3.36 5.3l-1.654 2.618c-.551.848-1.144 1.675-1.717 2.512l-3.286 4.855c-1.145 1.58-2.311 3.095-3.434 4.601-1.124 1.505-2.205 2.999-3.382 4.377-2.31 2.788-4.409 5.555-6.656 7.993-2.248 2.438-4.24 4.865-6.36 6.985s-3.975 4.24-5.915 6.01c-1.94 1.771-3.647 3.53-5.3 5.057l-4.632 4.07c-.7.604-1.336 1.198-1.972 1.728l-1.791 1.441-2.809 2.258-1.739 1.389c-.424.307-.636.456-.636.456z"/>
    <path fill="#E0E0E0" d="M673.195 403.012c-8.999-6.805-12.275-19.355-10.324-30.464 1.95-11.109 8.321-20.967 15.603-29.585 6.668 8.48 10.738 20.713 9.19 31.376-1.547 10.664-7.621 19.483-14.469 28.673z"/>
    <path fill="#EBEBEB" d="M673.153 403.022c-1.558-11.172 5.014-22.366 14.246-28.842 9.233-6.477 20.713-8.947 31.959-9.89-1.272 10.695-7.07 22.26-15.688 28.684-8.618 6.423-19.165 8.395-30.517 10.048"/>
    <path fill="#E0E0E0" d="M703.915 344.076c-8.576-4.42-13.155-14.512-13.134-24.158.022-9.646 3.954-18.878 8.82-27.189 6.847 6.148 12.062 15.9 12.317 25.08.254 9.18-3.583 17.522-8.014 26.267"/>
    <path fill="#EBEBEB" d="M703.84 344.086c-2.925-9.179.975-19.557 7.802-26.362 6.826-6.805 16.144-10.547 25.44-12.985.487 9.19-2.714 19.759-9.042 26.447-6.328 6.689-14.925 9.858-24.242 12.9"/>
    <path fill="#E0E0E0" d="M716.984 284.886c-7.748-1.06-13.992-7.527-16.599-14.904-2.608-7.378-2.12-15.508-.626-23.193 6.901 2.841 13.526 8.872 16.218 15.836 2.693 6.965 2.025 14.374 1.007 22.261z"/>
    <path fill="#EBEBEB" d="M716.963 284.907c-4.738-6.233-4.579-15.221-1.198-22.26 3.381-7.038 9.476-12.455 15.9-16.843 2.873 6.89 3.297 15.847.276 22.673-3.021 6.827-8.735 11.586-15.031 16.451"/>
    <path fill="#E0E0E0" d="M714.048 229.914c-6.911.541-13.525-3.911-17.15-9.816-3.626-5.904-4.718-13.027-4.877-19.959 6.509 1.176 13.378 5.162 16.961 10.695 3.582 5.533 4.43 12.063 5.024 19.08"/>
    <path fill="#EBEBEB" d="M714.027 229.935c-5.3-4.505-6.795-12.327-5.183-19.08 1.611-6.752 5.883-12.55 10.674-17.553 3.774 5.427 5.809 13.101 4.463 19.578-1.347 6.477-5.406 11.66-9.954 17.045M703.406 189.337s7.643-25.503-18.285-29.68c0 .043-6.805 23.628 18.285 29.68z"/>
    <path fill="#F5F5F5" d="M372.113 21.317l16.25 113.059.456-.074 15.815 110.802 15.667-110.823h.244l15.603-111.194c-21.174-3.41-42.705-4.006-64.035-1.77zM551.581 75.663c-16.452-13.692-34.653-25.134-54.123-34.026l-46.152 101.707.243.106-46.629 102.576L551.581 75.663z"/>
    <path fill="#F5F5F5" d="M296.344 214.618l107.441 31.461h-.424l1.06.307h.074l.064-.074.085.064h-.149l.075.053h.127-.074l.434.19-.35-.222 108.057 31.63-.064.233 120.119 35.246c3.825-17.228 5.752-34.823 5.746-52.471 0-5.024-.181-10.017-.477-14.967H517.502v.191l-112.583.117v-.096l.499-.148-.403.265.996-.297h-.487l219.42-65.052c-7.262-20.628-17.3-40.171-29.839-58.088l-189.74 123.087h-.393l.159-.191-.286.191.106-.604-.212.456v.148l-.127.095-.053-.095h-.085v-.159l-.18-.382.074.499-.222-.149.116.138h-.371L203.975 117.31c-13.809 18.535-24.876 38.962-32.86 60.653l125.229 36.655zm108.385 31.8h.063-.063zm-.159-.042h-.053.053zm0 0v.074h-.053l-.35-.223.403.149z"/>
    <path fill="#F5F5F5" d="M330.624 160.919l73.723 85.075-46.756-102.459-48.782-106.7c-20.582 8.16-39.94 19.12-57.526 32.574l79.341 91.51zM499.599 307.527l-.063.106-94.446-60.812 73.649 84.959-.181.149 87.62 101.304c16.691-16.345 30.927-35.022 42.262-55.449l-108.841-70.257zM404.794 246.62l-.023-.011.012.023.011-.012zM404.518 246.408l-.011.032-.042-.032.01.085.011-.011v.011l.074-.021-.042-.022.032-.031h.021l-.011-.022.011-.01h-.106l.053.021zM404.432 246.514l.011-.117-.021-.01-.445.254.455-.127zM404.167 246.853l-94.202 61.12-.223-.34-119.154 77.147c12.527 20.903 28.141 39.793 46.311 56.032l108.12-125.26 59.148-68.699zM296.409 278.367l107.971-31.98-247.499.265c-.286 4.759-.445 9.54-.445 14.384-.006 19.088 2.25 38.11 6.72 56.668l133.253-39.326v-.011zM404.327 247.234L298.094 480.699c22.339 10.108 46.099 16.726 70.447 19.621l35.786-253.086zM404.817 246.439l-.034.023.023.022.011-.045zM404.92 247.213L440.737 498.2c23.733-4.299 46.68-12.162 68.063-23.32L404.92 247.213zM404.518 246.81l.127.848.116-.816-.127-.276-.116.244zM404.773 246.471h-.023l.023.012v-.012z"/>
    <path fill="#E0E0E0" d="M171.986 444.5s-.212-.148-.605-.455l-1.727-1.389-2.82-2.258-1.781-1.442c-.636-.53-1.282-1.123-1.982-1.727l-4.622-4.071c-1.664-1.526-3.402-3.243-5.3-5.056-1.897-1.812-3.837-3.869-5.914-6.01-2.078-2.141-4.156-4.516-6.36-6.986-2.205-2.469-4.357-5.204-6.668-7.992-1.166-1.378-2.236-2.883-3.371-4.378-1.134-1.494-2.3-3.021-3.434-4.6l-3.381-4.876c-.562-.837-1.156-1.664-1.718-2.512-.561-.848-1.06-1.739-1.653-2.618-1.06-1.76-2.258-3.52-3.36-5.3l-3.244-5.619c-1.134-1.876-2.12-3.868-3.18-5.84s-2.12-3.975-3.085-6.063l-2.989-6.276c-.919-2.12-1.848-4.292-2.788-6.518-7.601-18.191-12.7-37.329-15.158-56.891l-.816-7.038c-.177-2.339-.353-4.65-.53-6.933-.212-2.289-.244-4.557-.329-6.805-.084-2.247-.212-4.452-.159-6.646.053-2.194 0-4.357 0-6.487 0-2.131.17-4.24.255-6.36 0-1.06.085-2.056.138-3.085.053-1.028.159-2.024.233-3.031.17-2.004.34-3.986.498-5.926.16-1.94.467-3.826.69-5.702.222-1.877.423-3.7.752-5.481.625-3.561 1.06-7.006 1.812-10.239.753-3.233 1.262-6.36 2.046-9.222.784-2.862 1.346-5.639 2.12-8.152.774-2.512 1.41-4.886 2.12-7.028.71-2.141 1.389-4.08 1.993-5.84.297-.869.572-1.707.859-2.47l.826-2.12c.52-1.314.954-2.438 1.315-3.36.36-.922.625-1.58.816-2.057.191-.477.297-.699.297-.699s-.074.254-.244.721l-.763 2.12c-.339.922-.763 2.046-1.262 3.381l-.816 2.12c-.276.774-.53 1.601-.827 2.481l-1.94 5.84c-.667 2.12-1.314 4.516-2.045 7.038-.732 2.523-1.368 5.3-2.12 8.152-.753 2.851-1.336 5.978-2.004 9.211-.667 3.233-1.166 6.678-1.77 10.229-.329 1.781-.487 3.615-.731 5.48-.244 1.866-.477 3.753-.679 5.693l-.477 5.904c-.074 1.007-.18 2.014-.233 3.031-.053 1.018-.085 2.046-.138 3.085-.074 2.12-.19 4.166-.233 6.297v6.476c0 2.184.096 4.389.17 6.636.074 2.247.116 4.494.339 6.773l.53 6.922c.275 2.318.551 4.657.827 7.017 2.454 19.513 7.539 38.604 15.115 56.752l2.778 6.509 2.968 6.265c.943 2.12 2.056 4.059 3.084 6.052 1.028 1.993 2.025 3.965 3.18 5.83l3.233 5.618c1.06 1.823 2.247 3.583 3.35 5.3.551.869 1.06 1.739 1.643 2.608s1.145 1.675 1.706 2.512l3.361 4.886c1.134 1.58 2.3 3.096 3.413 4.601s2.194 3 3.36 4.388c2.29 2.778 4.388 5.544 6.625 7.982 2.237 2.438 4.24 4.887 6.36 7.007s3.954 4.24 5.872 6.031c1.919 1.792 3.626 3.551 5.3 5.078l4.59 4.112c.689.615 1.325 1.209 1.951 1.739l1.77 1.462 2.777 2.301 1.707 1.431c.286.307.477.487.477.487z"/>
    <path fill="#E0E0E0" d="M128.335 403.012c8.999-6.805 12.264-19.355 10.314-30.464-1.951-11.109-8.311-20.967-15.603-29.585-6.657 8.48-10.728 20.713-9.191 31.376 1.537 10.664 7.622 19.483 14.48 28.673"/>
    <path fill="#EBEBEB" d="M128.377 403.022c1.548-11.172-5.014-22.366-14.257-28.842-9.243-6.477-20.702-8.947-31.948-9.89 1.261 10.695 7.06 22.26 15.688 28.684 8.628 6.423 19.165 8.395 30.517 10.048"/>
    <path fill="#E0E0E0" d="M97.615 344.076c8.576-4.42 13.155-14.512 13.123-24.158-.032-9.646-3.943-18.878-8.83-27.189-6.847 6.148-12.052 15.9-12.306 25.08-.255 9.18 3.583 17.522 8.013 26.267z"/>
    <path fill="#EBEBEB" d="M97.647 344.086c2.937-9.179-.964-19.557-7.801-26.362s-16.144-10.547-25.44-12.985c-.488 9.19 2.713 19.759 9.031 26.447 6.318 6.689 14.925 9.858 24.242 12.9"/>
    <path fill="#E0E0E0" d="M84.546 284.886c7.749-1.06 13.992-7.527 16.589-14.904 2.597-7.378 2.12-15.508.636-23.193-6.9 2.841-13.536 8.872-16.229 15.836-2.692 6.965-2.014 14.374-.996 22.261z"/>
    <path fill="#EBEBEB" d="M84.568 284.907c4.738-6.233 4.569-15.222 1.187-22.26-3.381-7.039-9.434-12.487-15.942-16.865-2.873 6.89-3.297 15.847-.276 22.674 3.021 6.826 8.734 11.585 15.03 16.451z"/>
    <path fill="#E0E0E0" d="M87.482 229.914c6.912.541 13.526-3.911 17.151-9.816 3.625-5.904 4.707-13.027 4.866-19.959-6.509 1.176-13.367 5.162-16.96 10.695-3.594 5.533-4.42 12.063-5.014 19.08"/>
    <path fill="#EBEBEB" d="M87.492 229.935c5.3-4.505 6.805-12.327 5.194-19.08-1.612-6.752-5.894-12.55-10.675-17.553-3.773 5.427-5.808 13.101-4.462 19.578 1.346 6.477 5.395 11.66 9.943 17.045M98.114 189.337s-7.643-25.503 18.285-29.68c0 .043 6.816 23.628-18.285 29.68z"/>
    <path fill="#1A1B41" d="M550.746 193.323c-.597 3.789-.183 7.668 1.202 11.245 1.384 3.578 3.689 6.726 6.681 9.126 2.992 2.4 6.564 3.967 10.357 4.543 3.792.575 7.669.139 11.238-1.266 9.095-3.572 15.126-12.932 24.444-15.9 4.028-1.261 8.384-1.219 12.381-2.586 4.801-1.643 8.967-5.597 10.048-10.6 1.082-5.003-1.462-10.706-6.2-12.54-2.491-.964-5.597-1.06-7.177-3.18-2.289-3.084.541-7.218 1.219-10.981.976-5.396-3.18-10.887-8.48-12.36-5.3-1.473-11.108.53-15.221 4.155-3.519 3.095-7.039 6.053-11.66 6.752-2.371.331-4.785-.092-6.902-1.208-2.117-1.117-3.83-2.871-4.896-5.014"/>
    <path fill="#1A1B41" d="M588.672 148.983c.068.165.108.341.117.519.043.512.043 1.026 0 1.537-.113 1.91-.767 3.749-1.887 5.3-.76 1.067-1.726 1.972-2.841 2.661-1.286.78-2.739 1.245-4.24 1.357-1.675.125-3.357-.147-4.907-.795-1.663-.714-3.103-1.864-4.166-3.329-1.022-1.445-1.909-2.982-2.65-4.589-.677-1.486-1.49-2.905-2.428-4.24-1.659-2.177-3.986-3.748-6.625-4.474-1.779-.495-3.641-.618-5.469-.36-1.294.201-1.983.466-2.004.413.151-.096.315-.167.488-.212.48-.175.972-.313 1.473-.413 1.862-.341 3.775-.273 5.608.201 2.752.697 5.192 2.294 6.932 4.537 1.972 2.523 3.01 5.904 5.12 8.745.997 1.398 2.357 2.497 3.933 3.18 1.467.624 3.062.893 4.653.785 1.442-.091 2.842-.516 4.092-1.241 1.085-.646 2.029-1.504 2.777-2.522 1.109-1.474 1.795-3.222 1.982-5.057.117-1.272-.011-2.003.042-2.003z"/>
    <path fill="#936754" d="M612.374 141.478l-4.06 50.997-34.853 22.493s5.056 30.571 5.3 31.238l42.654-32.679c2.654-1.98 4.826-4.533 6.353-7.47 1.527-2.937 2.37-6.182 2.466-9.49l-1.791-58.926"/>
    <path fill="#936754" d="M608.111 117.989c-.297-.17-4.6 11.268-4.24 13.017.36 1.749 4.664 6.974 6.434 8.034 3.318 1.961 1.06 9.116 1.41 10.251l17.119.901-.466-13.25 1.134-9.01c.524-1.851.524-3.81 0-5.661-.573-2.003-1.548-4.24-3.032-3.964-2.692.413-2.883 1.187-2.883 1.187s-1.802-2.671-3.18-.413c0 0-2.491-2.958-4.632-.403 0 0-2.862-2.82-4.855 1.537l-1.06 3.042s1.272-3.604-1.749-5.268z"/>
    <path fill="#7C5142" d="M615.616 132.765c-.084 0-.487-.795-1.452-1.865-.621-.694-1.378-1.254-2.224-1.644-.846-.39-1.763-.603-2.694-.625-.297-.015-.594-.015-.891 0h-.371l.085-.339c.509-1.971.986-3.72 1.357-4.961.155-.684.386-1.349.689-1.982-.017.718-.127 1.431-.329 2.12-.275 1.272-.689 3.032-1.176 5.003l-.286-.339h.954c1.11.038 2.197.328 3.18.848.779.44 1.47 1.023 2.035 1.717.53.593.915 1.3 1.123 2.067zM626.174 123.374c-.076.255-.183.501-.318.731-.335.603-.472 1.297-.392 1.982.05.211.136.412.254.594.143.194.243.416.293.651.049.236.048.479-.004.714-.052.235-.154.456-.299.649-.145.192-.329.351-.541.466-.313.194-.663.321-1.028.372-.365.052-.737.027-1.092-.073-.354-.099-.685-.272-.969-.506-.285-.234-.518-.524-.684-.853-.285-.668-.362-1.407-.223-2.12.106-.678.265-1.293.413-1.887.285-1.047.639-2.074 1.06-3.074.244-.704.646-1.342 1.177-1.865.435-.35.753-.361.753-.329 0 .032-.265.127-.605.477-.439.554-.767 1.187-.964 1.866-.361 1-.665 2.019-.912 3.053-.233 1.144-.71 2.522-.191 3.678.132.259.316.488.54.673.224.186.484.323.763.403.279.081.572.103.861.066.288-.038.565-.134.815-.284.21-.128.385-.307.509-.519.124-.213.193-.454.201-.7 0-.413-.434-.837-.498-1.367-.064-.754.143-1.505.583-2.12.276-.488.466-.7.498-.678z"/>
    <path fill="#7C5142" d="M621.786 128.196s0 .244-.275.552c-.207.203-.455.36-.728.46-.272.101-.562.142-.852.123-.445-.027-.875-.171-1.247-.417-.372-.245-.673-.584-.873-.983-.479-.918-.64-1.969-.455-2.989.23-1.804.932-3.515 2.035-4.961.827-1.06 1.547-1.6 1.59-1.547.042.053-.551.646-1.272 1.77-.962 1.442-1.582 3.084-1.813 4.802-.167.909-.04 1.848.361 2.682.151.328.381.614.669.833.289.218.627.361.984.417.494.066.994-.059 1.399-.349.34-.223.435-.414.477-.393z"/>
    <path fill="#7C5142" d="M617.812 127.571s-.053.202-.34.445c-.415.318-.929.48-1.452.456-.396-.015-.785-.118-1.136-.301-.352-.183-.659-.442-.899-.759-.578-.755-.874-1.689-.837-2.639.053-.917.287-1.814.689-2.64.339-.752.699-1.388.996-1.929.274-.611.631-1.182 1.06-1.696-.138.654-.374 1.283-.7 1.866-.756 1.368-1.259 2.862-1.484 4.409-.037.826.206 1.641.689 2.311.195.263.443.482.728.643.285.16.6.259.926.29.621.052 1.242-.108 1.76-.456z"/>
    <path fill="#7C5142" d="M613.337 126.14s0 .233-.116.594c-.187.538-.504 1.023-.922 1.41-.328.304-.738.504-1.18.576-.441.071-.894.011-1.301-.174-.46-.303-.803-.753-.974-1.277-.172-.523-.161-1.089.031-1.606.412-1.749 1.031-3.443 1.844-5.045.285-.689.691-1.321 1.198-1.866-1.007 2.282-1.846 4.635-2.512 7.038-.155.405-.175.849-.056 1.265.118.417.369.784.713 1.046.323.15.682.204 1.035.157.353-.047.685-.193.958-.422.397-.328.725-.731.964-1.187.191-.339.287-.509.318-.509zM623.843 130.38c-1.395-.156-2.806-.106-4.187.148-1.345.42-2.623 1.03-3.795 1.813 0 0 .234-.466.859-.975.819-.661 1.775-1.132 2.798-1.378 1.025-.25 2.092-.275 3.127-.074.785.148 1.219.392 1.198.466z"/>
    <path fill="#1A1B41" d="M516.814 227.816c-10.272.954-19.303-6.583-20.798-11.088-.703-2.276-.722-4.709-.053-6.995.669-2.287 1.997-4.326 3.816-5.863 2.926-2.374 7.166-3.593 8.565-7.091 2.449-6.085-6.052-12.943-3.021-18.762 2.12-4.124 8.427-4.06 11.374-7.664 2.597-3.18 1.654-7.844 2.47-11.862 1.378-6.826 8.342-11.66 15.306-11.861 6.965-.201 13.611 3.413 18.423 8.48 4.812 5.067 7.992 11.31 10.801 17.67 2.279 5.162 4.378 10.749 3.424 16.303-1.42 8.226-8.988 13.78-16.165 18.02-11.66 6.964-20.585 21.762-34.142 20.638"/>
    <path fill="#1A1B41" d="M500.322 209.149h-.732c-.709-.082-1.394-.305-2.014-.658-1.005-.545-1.816-1.39-2.321-2.416-.319-.69-.496-1.436-.521-2.195-.026-.76.101-1.516.372-2.226.317-.813.822-1.539 1.474-2.12.714-.616 1.501-1.143 2.342-1.568.852-.464 1.673-.981 2.459-1.548.824-.587 1.478-1.38 1.898-2.3.859-1.908.604-4.24 0-6.466s-1.622-4.473-2.067-6.964c-.252-1.239-.299-2.51-.138-3.763.173-1.241.716-2.401 1.558-3.329.827-.864 1.848-1.518 2.979-1.908 1.04-.373 2.102-.685 3.18-.933 1.982-.344 3.845-1.182 5.416-2.438 1.278-1.193 2.255-2.671 2.852-4.314.801-2.429 1.178-4.979 1.113-7.536v-2.12c-.028-.243-.028-.489 0-.732.056.24.085.485.085.732 0 .477.074 1.187.106 2.12.155 2.595-.168 5.196-.954 7.674-.599 1.718-1.602 3.267-2.926 4.516-1.61 1.325-3.534 2.216-5.586 2.586-2.046.562-4.378 1.06-5.915 2.714-.765.854-1.26 1.917-1.42 3.052-.15 1.191-.103 2.397.137 3.573.424 2.416 1.463 4.632 2.046 6.943.583 2.31.848 4.717-.106 6.794-.45 1.003-1.164 1.864-2.067 2.491-.825.562-1.69 1.065-2.586 1.505-.815.409-1.58.91-2.279 1.495-.623.54-1.103 1.224-1.399 1.993-.488 1.168-.532 2.475-.124 3.673.408 1.199 1.24 2.207 2.339 2.835.857.488 1.814.774 2.799.838z"/>
    <path fill="#455A64" d="M593.696 403.447l20.214-9.36s16.313 17.395 20.214 16.027l-16.748-39.845-32.097 13.303 8.417 19.875z"/>
    <path fill="#000" d="M593.696 403.447l20.214-9.36s16.313 17.395 20.214 16.027l-16.748-39.845-32.097 13.303 8.417 19.875z" opacity=".3"/>
    <path fill="#E0E0E0" d="M607.011 382.49c-.054-.446.064-.895.33-1.257.266-.362.659-.61 1.101-.693.431-.06.868.048 1.223.3.355.252.599.63.685 1.057.046.458-.079.918-.351 1.289-.272.372-.672.63-1.123.725-.869 0-1.908-.774-1.823-1.633M617.377 370.269l-3.18 1.473 17.246 37.652s1.516 1.452 2.682.72l-16.748-39.845z"/>
    <path fill="#1A1B41" d="M613.985 394.818c.19-.095-.127-1.06.095-2.321.223-1.262.827-2.12.668-2.226-.159-.106-1.155.625-1.399 2.12-.244 1.494.477 2.544.636 2.427zM617.471 398.263c.201 0 .18-1.06.721-2.014.54-.954 1.335-1.568 1.251-1.759-.085-.191-1.241.148-1.898 1.41-.657 1.261-.265 2.438-.074 2.363zM623.472 398.56c0-.19-1.123-.053-1.982.891-.858.943-.89 2.035-.699 2.046.19.01.53-.785 1.25-1.548.721-.763 1.484-1.208 1.431-1.389zM609.14 396.44c.138-.159-.498-.933-.891-2.067-.392-1.134-.402-2.12-.614-2.12-.212 0-.552 1.06-.075 2.406.477 1.346 1.463 1.94 1.58 1.781zM605.027 398.253c-.099-.728-.392-1.417-.848-1.993-.433-.664-.946-1.273-1.527-1.812-.33-.324-.684-.621-1.06-.891-.219-.172-.462-.311-.721-.413-.19-.064-.397-.064-.588-.001-.191.063-.356.186-.472.351-.096.157-.154.335-.169.52-.014.184.015.369.085.54.108.255.25.494.424.71.28.382.596.737.943 1.06.586.544 1.255.991 1.982 1.325.637.384 1.379.559 2.12.498 0-.117-.763-.307-1.865-.954-1.026-.583-1.91-1.387-2.587-2.353-.297-.382-.445-.732-.307-.922.138-.191.085-.085.244-.053.19.073.368.173.53.296.367.25.721.519 1.06.806.565.491 1.083 1.034 1.547 1.622.732.986 1.103 1.706 1.209 1.664z"/>
    <path fill="#1A1B41" d="M605.197 397.882c-.719-.131-1.461-.03-2.12.286-.752.274-1.451.676-2.067 1.187-.371.315-.705.671-.996 1.06-.219.218-.377.489-.46.786-.084.297-.09.61-.017.91.082.174.211.323.371.429.161.106.348.167.54.175.276.001.55-.034.816-.106.475-.117.929-.307 1.347-.561.699-.426 1.285-1.015 1.706-1.718.7-1.219.594-2.12.52-2.12-.286.625-.605 1.233-.954 1.824-.431.582-.98 1.066-1.612 1.42-.367.2-.759.35-1.166.445-.455.117-.858.096-.89-.074-.013-.179.013-.358.075-.526.062-.169.159-.322.285-.449.266-.343.56-.662.88-.954.549-.488 1.163-.898 1.823-1.219 1.124-.583 1.983-.679 1.919-.795zM596.029 394.713l-6.488-14.332-13.43 6.329-12.603 24.92 32.521-16.917z"/>
    <path fill="#455A64" d="M616.179 411.853l20.489-8.745S652.441 421 656.384 419.76l-15.518-40.343-32.489 12.306 7.802 20.13z"/>
    <path fill="#E0E0E0" d="M630.128 391.31c-.031-.434.099-.864.365-1.208s.649-.578 1.076-.658c.433-.046.866.076 1.211.34.346.264.576.651.644 1.081.033.459-.106.914-.39 1.277-.284.362-.693.606-1.147.684-.869 0-1.876-.827-1.77-1.686M640.866 379.417l-3.233 1.367 16.091 38.16s1.473 1.495 2.66.806l-15.518-40.333z"/>
    <path fill="#1A1B41" d="M636.721 403.86c.191-.084-.095-1.06.159-2.321.254-1.261.89-2.046.742-2.194-.148-.149-1.166.572-1.463 2.056-.297 1.484.392 2.555.562 2.459zM640.092 407.401c.212 0 .223-1.007.795-1.993.572-.986 1.378-1.527 1.293-1.717-.085-.191-1.24.106-1.929 1.356-.689 1.251-.339 2.428-.159 2.354zM646.081 407.857c0-.191-1.06-.085-1.993.826-.933.912-.965 2.014-.763 2.036.201.021.551-.774 1.283-1.516.731-.742 1.537-1.103 1.473-1.346zM631.825 405.323c.148-.159-.466-.954-.816-2.12-.35-1.166-.339-2.12-.551-2.184-.212-.063-.583 1.06-.149 2.406.435 1.347 1.452 2.046 1.516 1.898zM627.658 407.04c-.072-.73-.343-1.427-.784-2.014-.41-.679-.901-1.306-1.463-1.865-.329-.335-.683-.643-1.06-.923-.212-.181-.452-.328-.71-.434-.187-.071-.393-.078-.584-.02-.192.057-.359.176-.476.338-.103.154-.168.331-.19.515-.022.184-.001.37.063.545.098.255.234.494.402.71.269.382.574.737.912 1.06.572.562 1.226 1.034 1.94 1.399.633.397 1.373.589 2.12.551 0-.116-.763-.328-1.845-1.06-.625-.396-1.198-.87-1.706-1.409-.298-.331-.567-.685-.806-1.06-.275-.382-.424-.742-.275-.923.148-.18.084-.084.243 0 .19.071.366.175.52.308.369.258.723.538 1.06.837.548.507 1.049 1.065 1.494 1.664.344.618.726 1.212 1.145 1.781z"/>
    <path fill="#1A1B41" d="M627.849 406.637c-.713-.146-1.453-.069-2.12.223-.764.253-1.481.633-2.12 1.123-.379.3-.734.63-1.06.986-.223.214-.387.481-.478.776-.091.294-.105.608-.041.91.078.175.202.325.359.435.156.11.34.176.531.19.274.015.549-.01.816-.074.481-.104.942-.283 1.368-.53.712-.401 1.313-.973 1.749-1.664.742-1.188.667-2.12.593-2.12-.074 0-.244.805-1.06 1.791-.444.572-1.008 1.039-1.653 1.367-.37.195-.767.334-1.177.414-.456.106-.858.074-.88-.106-.021-.18.106-.657.393-.954.267-.338.569-.647.901-.922.559-.481 1.188-.874 1.865-1.166 1.198-.488 2.025-.552 2.014-.679z"/>
    <path fill="#6C9B5E" d="M513.773 333.678s50.721-6.996 61.077-14.703c10.356-7.706 9.932-10.038 9.932-10.038s1.622-7.95-4.717-8.978c-6.339-1.028-36.284 7.197-36.284 7.197l-17.649-4.526-14.554 8.639-9.73 12.031s2.671 7.017 6.444 8.226c1.781.622 3.616 1.08 5.481 1.367"/>
    <path fill="#000" d="M513.773 333.678s50.721-6.996 61.077-14.703c10.356-7.706 9.932-10.038 9.932-10.038s1.622-7.95-4.717-8.978c-6.339-1.028-36.284 7.197-36.284 7.197l-17.649-4.526-14.554 8.639-9.73 12.031s2.671 7.017 6.444 8.226c1.781.622 3.616 1.08 5.481 1.367" opacity=".3"/>
    <path fill="#936754" d="M516.104 324.36c-.382-.985-.87-14.023-.87-14.023s3.583-5.83 10.6-5.915c7.018-.085 17.035 3.01 17.035 3.01l29.68-9.752 2.374 11.226s-22.26 18.91-34.164 18.857c-8.333-.039-16.623-1.184-24.655-3.403zM487.93 293.906c-3.234 1.1-6.749 1.04-9.943-.169-4.028-1.462-7.537-4.075-10.091-7.516l-2.587-3.392c-3.01-2.978-21.868-28.853-21.868-28.853l10.039-16.239 22.662 26.436 6.488-17.967 19.217 13.494-5.225 21.56c-1.272 5.65-3.286 10.706-8.692 12.646z"/>
    <path fill="#936754" d="M441.755 213.643s5.406 8.003 6.784 10.674c1.124 2.12 5.3 9.106 5.078 16.42l-10.176 13.239s-4.887-3.742-5.671-5.141c-.44-1.091-.462-2.306-.064-3.413-.701-.61-1.465-1.143-2.279-1.59 0 0 .467 2.501-1.41 2.968-1.876.466-8.109-6.085-8.109-6.085s-.476-2.809 1.241-2.968c0 0-1.24-3.9 0-4.992 0 0-1.4-3.18.318-4.526 0 0 .784-3.594 2.024-4.845 1.24-1.25 13.95 2.502 13.95 2.502s-3.011-6.689-3.318-8.554c-.307-1.866 1.632-3.689 1.632-3.689z"/>
    <path fill="#7C5142" d="M433.942 238.309s.202.096.509.361c.437.359.797.802 1.06 1.303.223.352.371.745.435 1.156.046.485-.035.975-.233 1.42-.116.265-.297.496-.527.67-.231.175-.502.287-.788.327-.59.074-1.188-.066-1.685-.393-.826-.613-1.605-1.286-2.332-2.014-.626-.614-1.23-1.187-1.792-1.717-.585-.497-1.108-1.063-1.558-1.685.663.39 1.275.86 1.823 1.399l1.877 1.622c.72.684 1.477 1.328 2.268 1.929.816.551 1.95.413 2.247-.36.177-.359.26-.756.244-1.156-.034-.372-.146-.733-.329-1.06-.227-.493-.535-.944-.911-1.335-.212-.276-.339-.446-.308-.467zM433.254 227.105c.84.587 1.625 1.25 2.342 1.982.339.329.742.657 1.124 1.06.443.428.803.935 1.06 1.495.127.361.166.748.113 1.127-.054.38-.198.741-.42 1.053-.223.312-.517.566-.859.74-.341.174-.719.263-1.103.26-.752-.139-1.441-.51-1.971-1.06l-1.442-1.325-2.427-2.258c-.773-.664-1.483-1.399-2.12-2.194.855.562 1.66 1.197 2.406 1.897l2.502 2.184 1.462 1.293c.448.47 1.029.792 1.665.922.291-.004.578-.077.837-.212.258-.135.482-.329.652-.566.17-.237.282-.511.327-.799.045-.288.022-.583-.067-.861-.528-.936-1.213-1.775-2.025-2.48-.75-.691-1.438-1.447-2.056-2.258z"/>
    <path fill="#7C5142" d="M435.353 234.832s.254-.063.646.128c.28.141.526.341.722.586.196.245.336.53.412.834.08.376.06.766-.056 1.133-.117.366-.326.696-.608.958-.281.261-.626.445-1 .534-.374.089-.765.079-1.134-.028-.552-.183-1.063-.471-1.505-.848-1.522-1.193-2.94-2.512-4.24-3.943-.574-.557-1.067-1.192-1.463-1.887.127-.117 2.512 2.639 6.021 5.395.381.336.824.595 1.304.764.21.069.432.094.653.074.221-.02.435-.085.629-.191.348-.16.634-.431.812-.77.178-.34.239-.729.174-1.106-.101-.535-.41-1.007-.859-1.315-.286-.222-.519-.275-.508-.318zM437.442 247.521c-.032-.161-.032-.327 0-.488.037-.463.134-.919.286-1.357.262-.785.69-1.506 1.256-2.111.565-.605 1.254-1.082 2.02-1.397l.074.508v-.519h.064v.519h-.181l-.074-.127c-.604-1.053-1.03-2.199-1.261-3.392-.489-2.443-.203-4.977.816-7.25.304-.68.688-1.32 1.145-1.908.339-.403.53-.615.562-.594.031.021-.679.944-1.347 2.661-.877 2.219-1.098 4.644-.636 6.985.226 1.115.623 2.187 1.177 3.18l-.223-.127v.519h-.053v-.519l1.241.053-1.166.456c-.714.28-1.364.701-1.91 1.238-.547.538-.979 1.18-1.27 1.889-.382 1.102-.435 1.802-.52 1.781zM478.632 275.028c-.89-1.7-1.502-3.533-1.812-5.427-.485-1.856-.674-3.777-.562-5.692.17 0 .445 2.522 1.06 5.575.615 3.053 1.463 5.491 1.314 5.544z"/>
    <path fill="#1A1B41" d="M516.104 324.36c-.308.933-3.085 24.38-3.085 24.38s-20.013 49.385-22.875 64.31c-2.862 14.925-.932 30.295 15.148 34.62 16.08 4.325 29.224-7.95 29.224-7.95s5.671 7.95 20.914 6.084c15.455-1.887 69.811-35.234 69.811-35.234l-9.275-24.02-42.4 15.985s21.306-41.965 22.26-52.862c.742-8.406-11.66-35.404-21.019-40.81 0 0-26.585 20.267-35.553 18.794-8.967-1.474-23.15-3.297-23.15-3.297z"/>
    <path fill="#455A64" d="M546.515 348.846c.014.088.014.177 0 .265 0 .202 0 .445-.064.753 0 .668-.19 1.653-.381 2.904-.606 3.545-1.482 7.039-2.618 10.452-1.389 4.335-3.424 9.37-5.809 14.84-2.66 5.937-5.009 12.008-7.039 18.189-1.06 3.286-1.918 6.551-2.607 9.742-.694 3.052-1.155 6.153-1.378 9.275-.406 5.302.387 10.628 2.321 15.582 1.366 3.303 3.299 6.342 5.714 8.978.869.922 1.558 1.622 2.056 2.067l.551.519c.069.06.129.127.18.202-.079-.041-.15-.095-.212-.159l-.593-.477c-.52-.424-1.24-1.06-2.12-2.004-2.499-2.609-4.503-5.651-5.915-8.978-2.025-4.979-2.881-10.357-2.502-15.72.201-3.15.652-6.28 1.347-9.359.707-3.307 1.581-6.576 2.618-9.795 2.032-6.198 4.399-12.28 7.091-18.221 2.406-5.502 4.473-10.494 5.904-14.84 1.163-3.388 2.091-6.852 2.778-10.367.222-1.251.392-2.215.477-2.883.053-.308.084-.551.127-.753.013-.074.038-.145.074-.212zM615.966 386.625c-.173.108-.358.193-.552.254l-1.611.626-5.968 2.204c-5.035 1.866-12.02 4.399-19.641 7.42-7.622 3.021-14.469 5.894-19.006 8.735l-1.558 1.06c-.446.392-.912.731-1.272 1.06-.635.627-1.177 1.341-1.612 2.12l-.816 1.516c-.087.186-.197.361-.328.519.056-.194.131-.382.222-.562.18-.36.392-.901.732-1.569.409-.831.941-1.596 1.579-2.268.36-.413.827-.763 1.272-1.177.445-.413 1.06-.742 1.558-1.144 4.548-2.958 11.406-5.905 19.08-8.915 7.675-3.01 14.639-5.491 19.706-7.261l6.031-2.046 1.643-.53c.178-.036.359-.05.541-.042z"/>
    <path fill="#455A64" d="M595.868 349.8c.023.197.023.397 0 .594-.053.445-.127 1.007-.223 1.696-.426 2.053-.978 4.078-1.653 6.063-2.266 6.504-4.874 12.883-7.813 19.112-3.37 7.356-6.635 13.907-9.052 18.613-1.208 2.354-2.215 4.24-2.915 5.544l-.837 1.495c-.086.178-.192.346-.318.498.049-.193.124-.378.222-.551.202-.403.445-.912.742-1.537.679-1.399 1.622-3.297 2.756-5.629 2.332-4.749 5.533-11.321 8.894-18.656 3.36-7.335 6.19-14.087 7.928-19.08.891-2.491 1.442-4.547 1.803-5.978l.328-1.664c.025-.178.071-.353.138-.52zM543.24 351.316c-.159 0-1.209-5.247-2.353-11.787-1.145-6.54-1.961-11.861-1.813-11.882.148-.022 1.208 5.247 2.353 11.787 1.145 6.54 1.961 11.861 1.813 11.882zM585.12 324.222c-.219.285-.48.535-.774.742-.77.604-1.61 1.113-2.502 1.516-2.974 1.397-6.355 1.664-9.512.754-3.157-.911-5.875-2.938-7.649-5.704-.544-.816-.986-1.695-1.314-2.618-.146-.337-.236-.695-.265-1.06.545 1.194 1.179 2.345 1.897 3.445 1.796 2.606 4.441 4.51 7.483 5.385 3.042.876 6.294.669 9.201-.584 1.189-.541 2.337-1.168 3.435-1.876zM530.605 327.54c.057.351.057.709 0 1.06-.045.928-.173 1.851-.382 2.756-.668 3.019-2.053 5.833-4.039 8.204-1.985 2.371-4.512 4.229-7.367 5.417-.859.356-1.745.643-2.65.859-.343.103-.701.153-1.06.148 0-.095 1.4-.392 3.498-1.367 2.741-1.255 5.166-3.104 7.101-5.415 1.935-2.31 3.329-5.023 4.082-7.941.679-2.322.721-3.721.817-3.721zM545.38 329.024c-.536.216-.997.585-1.325 1.06-.155.249-.244.534-.259.827-.015.293.045.585.174.848.145.329.385.606.691.796.305.189.66.282 1.019.266.359-.016.705-.14.992-.356.286-.216.501-.514.616-.854.104-.275.137-.571.096-.862-.04-.291-.154-.567-.329-.803-.37-.448-.864-.776-1.421-.943 0 0 .181-.085.52 0 .471.106.896.363 1.208.731.251.285.421.632.492 1.005.07.373.04.758-.089 1.115-.142.439-.414.824-.781 1.104-.366.28-.809.441-1.269.463-.461.022-.917-.097-1.308-.341-.391-.244-.699-.601-.882-1.024-.121-.281-.181-.584-.177-.89.004-.306.072-.608.2-.885.128-.278.313-.526.542-.728.23-.202.5-.353.792-.444.307-.148.498-.117.498-.085z"/>
    <path fill="#6C9B5E" d="M527.764 211.248l-21.73.689s-7.018 28.27-6.477 47.032c.318 11.48 7.42 27.74 9.148 33.718 1.198 4.166-3.053 9.837-4.24 14.003.005.06.005.12 0 .18-1.77 6.021-10.049 26.808 10.483 26.808 0 0-10.685-5.883-5.3-16.346 5.184-10.07 15.211-14.447 23.702-9.487 8.49 4.961 11.321 2.831 19.08-.36 7.759-3.191 35.383-11.321 31.8 2.83 0 0 4.24-8.141-4.24-14.151-6.456-4.568-11.883-17.055-12.105-29.786-.117-6.731 2.745-13.96 8.077-18.073l9.338-6.911s-9.709.572-6.879-14.289c2.83-14.861 4.823-17.818 4.823-17.818l-18.476 6.095c-.643.167-1.308.234-1.971.201l-9.371-.509-25.662-3.826z"/>
    <path fill="#6C9B5E" d="M480.711 247.69s10.07-25.842 14.31-30.051c3.816-3.826 11.024-5.702 11.024-5.702l-5.724 48.653-19.61-12.9z"/>
    <path fill="#1A1B41" d="M506.829 287.748c-.102-.15-.181-.314-.234-.487-.159-.393-.339-.87-.572-1.453-.466-1.272-1.208-3.084-1.961-5.385-2.157-5.945-3.743-12.081-4.738-18.327-.496-3.458-.585-6.962-.265-10.441.307-3.18.901-6.031 1.346-8.406.445-2.374.816-4.303 1.06-5.628.106-.615.191-1.124.265-1.537.02-.183.067-.361.138-.53.018.179.018.361 0 .54-.053.424-.106.933-.17 1.548-.148 1.346-.456 3.286-.869 5.671-.413 2.385-.944 5.215-1.219 8.385-.289 3.442-.186 6.905.307 10.324 1.001 6.209 2.526 12.322 4.558 18.274.7 2.311 1.389 4.145 1.792 5.438l.413 1.527c.073.154.123.318.149.487zM564.377 273.332c-.145-.411-.238-.838-.276-1.272-.199-1.172-.337-2.354-.413-3.541-.523-7.863.935-15.731 4.24-22.885.492-1.089 1.044-2.151 1.653-3.18.197-.379.435-.734.71-1.06.085.053-.826 1.664-2.003 4.399-3.091 7.157-4.54 14.915-4.24 22.705.148 2.989.424 4.823.329 4.834z"/>
    <path fill="#000" d="M564.525 269.399c.607-4.199 1.652-8.324 3.117-12.306 1.479-4.009 4.164-7.46 7.685-9.88.809-.442 1.564-.98 2.247-1.6.337-.315.585-.713.719-1.154.134-.441.149-.91.044-1.358-.477-1.474-2.491-1.728-3.996-1.325-1.511.486-2.911 1.267-4.117 2.299-1.207 1.032-2.196 2.293-2.911 3.711-1.407 2.846-2.339 5.904-2.756 9.052-.753 3.724-.942 7.54-.562 11.321" opacity=".3"/>
    <path fill="#1A1B41" d="M584.516 303.584s-.074 0-.18-.169c-.106-.17-.286-.318-.487-.53-.617-.667-1.275-1.294-1.972-1.877-2.587-2.141-5.671-3.599-8.968-4.24-2.262-.425-4.584-.425-6.847 0-2.574.558-5.067 1.438-7.42 2.619-2.544 1.187-5.152 2.597-8.014 3.741-1.463.588-2.973 1.049-4.515 1.378-1.607.303-3.247.389-4.876.255-3.286-.308-6.36-1.378-9.297-2.014-2.843-.665-5.79-.759-8.67-.276-2.613.443-5.125 1.348-7.42 2.671-1.993 1.158-3.783 2.634-5.3 4.368-2.211 2.522-3.824 5.512-4.717 8.745-.25.874-.448 1.763-.594 2.66 0 .286-.074.52-.106.711-.008.079-.026.157-.053.233.026-1.241.208-2.473.541-3.668.833-3.296 2.419-6.355 4.632-8.936 1.527-1.787 3.339-3.31 5.363-4.505 2.33-1.37 4.886-2.311 7.548-2.777 2.948-.513 5.969-.426 8.882.254 3.011.636 6.032 1.686 9.233 1.983 1.576.132 3.163.05 4.717-.244 1.509-.318 2.988-.765 4.42-1.336 2.82-1.134 5.438-2.523 8.003-3.71 2.411-1.191 4.965-2.064 7.6-2.597 2.322-.403 4.699-.367 7.007.106 3.342.668 6.454 2.191 9.031 4.42.932.805 1.758 1.724 2.459 2.735zM556.5 259.7c.025.169.025.34 0 .509v1.484c-.065 1.818-.288 3.627-.668 5.406-1.201 5.924-3.9 11.44-7.84 16.024-3.939 4.584-8.988 8.081-14.664 10.158-1.701.636-3.453 1.129-5.236 1.473-.626.128-1.124.181-1.463.223-.173.024-.347.024-.52 0 .639-.191 1.286-.351 1.94-.477 1.749-.423 3.466-.965 5.141-1.622 5.557-2.151 10.497-5.641 14.38-10.161 3.883-4.519 6.59-9.928 7.88-15.745.403-1.745.683-3.516.838-5.3.037-.661.108-1.319.212-1.972z"/>
    <path fill="#000" d="M554.751 270.491c-.593-.062-1.191.034-1.735.278-.543.244-1.013.627-1.361 1.11-.681.986-1.233 2.054-1.643 3.18-2.526 5.664-7.117 10.152-12.836 12.551-1.564.522-3.068 1.212-4.484 2.056-.705.432-1.286 1.038-1.687 1.761-.401.722-.609 1.536-.603 2.363 0 0 10.102-1.961 16.812-10.155 6.71-8.194 7.537-13.144 7.537-13.144z" opacity=".3"/>
    <path fill="#FAFAFA" d="M516.718 229.405c-.559-1.064-1.418-1.941-2.47-2.523-1.971-.752-4.017 1.06-6.137 1.06-2.491 0-4.24-2.363-6.222-3.858-2.619-1.95-6.053-2.502-9.286-2.979l-1.06 2.004c2.851 1.887 7.261-.742 10.144 1.06 1.293.837 1.929 2.364 2.65 3.731.721 1.367 1.781 2.777 3.318 2.957 1.537.181 2.809-.848 4.24-1.06 4.579-.742 7.833 6.053 12.413 5.3-3.051-1.08-5.698-3.066-7.59-5.692zM498.963 255.852c1.399-1.833 3.975-2.406 6.265-2.12 2.272.432 4.503 1.06 6.667 1.877 2.186.812 4.584.85 6.794.106.977-.554 1.999-1.025 3.053-1.41 1.506-.339 3.032.275 4.505.742 3.104.965 6.364 1.325 9.604 1.06 1.236-.168 2.484-.235 3.731-.202 1.265.033 2.466.558 3.35 1.463 1.557-.909 3.273-1.513 5.056-1.781-2.035 1.431-4.176 2.894-6.646 3.18-2.841.34-5.597-.932-8.395-1.526-7.611-1.601-15.604 1.855-23.225.318-1.74-.477-3.511-.831-5.3-1.06-.901-.112-1.814.006-2.657.341-.844.336-1.588.878-2.166 1.578M504.264 277.572c3.021.646 5.713-1.898 8.681-2.777 2.618-.764 5.427-.212 8.045.54 2.619.753 5.237 1.717 7.961 1.749 1.675 0 3.392-.318 5.003.138 1.224.481 2.408 1.059 3.541 1.728 3.879 1.823 8.416.837 12.571-.17-3.086 1.74-6.607 2.557-10.144 2.353-3.517-.219-7.006-.769-10.42-1.643l-8.331-1.865c-2.063-.604-4.226-.788-6.36-.541-3.573.668-6.625 3.731-10.24 3.382M536.287 292.21c2.216.212 4.42.371 6.646.477 1.772.153 3.557.053 5.3-.297 2.894-.71 5.459-2.692 8.48-2.893 3.021-.202 5.936 1.494 9 1.706 1.418.088 2.837-.145 4.153-.681 1.315-.536 2.494-1.361 3.447-2.414-4.451 1.304-9.166 1.418-13.674.329-2.12-.499-4.24-1.272-6.36-.795-1.675.392-3.063 1.526-4.59 2.342-3.731 1.993-8.172 1.982-12.402 1.919M554.146 253.849c.223-2.417 8.767-4.568 12.286-7.642-.179 1.239-.705 2.402-1.517 3.355-.813.953-1.878 1.656-3.073 2.029-1.34.287-2.701.468-4.07.541-1.387.075-2.689.692-3.626 1.717M538.861 236.783c1.431 1.06 3.477.795 5.205.233 1.728-.562 3.498-1.314 5.3-.943 1.802.371 3.042 1.749 4.643 2.512 1.082.481 2.258.713 3.441.678 1.184-.035 2.344-.335 3.396-.879 2.104-1.117 3.767-2.914 4.717-5.099.328-1.047.915-1.995 1.706-2.756.997-.721 2.343-.625 3.52-.996 1.876-.594 3.18-2.322 4.176-4.007.996-1.686 2.046-3.509 3.752-4.516-1.484-.445-3.031.551-4.059 1.707-1.029 1.155-1.877 2.544-3.233 3.307-1.357.763-3.021.763-4.389 1.484-2.438 1.283-3.18 4.335-4.908 6.508-1.908 2.47-5.522 3.806-8.289 2.375-1.494-.774-2.724-2.279-4.409-2.3-1.084.106-2.127.469-3.043 1.06-2.29 1.162-4.863 1.651-7.42 1.409l.573.117M501.286 321.339c-.095-1.443.33-2.872 1.198-4.028.785-1.198 1.76-2.268 2.459-3.519.807-1.842 1.487-3.736 2.035-5.671.711-1.876 1.94-3.753 3.859-4.346 1.304-.403 2.724-.159 4.049-.445 2.247-.467 4.007-2.364 6.265-2.788 1.834-.35 3.72.329 5.586.244 1.706-.095 3.315-.82 4.516-2.036-1.568.736-3.346.886-5.014.424-1.655-.462-3.386-.581-5.088-.349-1.06.265-2.12.858-3.18 1.155-2.035.541-4.24-.053-6.275.445-2.99.742-4.929 3.615-6.138 6.445-1.208 2.83-1.357 5.056-3.381 7.42.021-.042-1.527 6.01-.891 7.049zM519.284 214.915c-.864-.318-1.692-.727-2.47-1.219-.379-.217-.708-.513-.964-.868-.255-.355-.433-.76-.52-1.188l-3.18.106c.54 1.282 1.396 2.408 2.487 3.272 1.092.863 2.384 1.437 3.757 1.667.765.002 1.528.102 2.268.297.772.403 1.513.864 2.216 1.378.36.246.794.36 1.228.323.434-.037.843-.222 1.157-.524-1.882-1.274-3.885-2.361-5.979-3.244zM498.964 240.27c-1.291-.447-2.686-.498-4.007-.148-1.315.35-2.694.39-4.028.116-1.084-.425-2.099-1.011-3.01-1.738-.404-.372-.882-.654-1.402-.828-.521-.173-1.073-.234-1.619-.179l-.615 1.463c0 .625.573.307 1.177.487.627.077 1.218.339 1.696.753.273.451.487.935.636 1.442.281.46.688.83 1.172 1.066.485.237 1.027.33 1.563.269 1.075-.157 2.111-.516 3.052-1.06.943-.526 1.988-.844 3.064-.933.817-.001 1.614.247 2.287.711.672.464 1.187 1.122 1.476 1.886.668-1.176-.212-2.745-1.442-3.307z"/>
    <path fill="#1A1B41" d="M568.711 211.184c1.24 1.738 3.699 2.205 5.809 1.781 2.058-.589 4.048-1.396 5.936-2.406 1.908-1.022 4.119-1.326 6.232-.859 2.523.774 4.145 3.244 6.477 4.484 1.624.789 3.477.973 5.225.521 1.748-.453 3.278-1.513 4.315-2.991.899-1.675 1.586-3.455 2.046-5.3.625-1.813 1.632-3.657 3.371-4.441 2.045-.912 4.462-.117 6.614-.711 2.989-.826 4.643-4.091 5.067-7.155.795-5.607 3.932-16.822-17.956-18.306"/>
    <path fill="#936754" d="M561.09 167.48c.345-2.758.132-5.557-.626-8.232-.758-2.674-2.044-5.169-3.784-7.337-1.74-2.168-3.897-3.965-6.344-5.283-2.447-1.319-5.134-2.133-7.902-2.394-11.055-1.06-20.892 7.187-22.546 18.179-1.452 9.625-2.703 19.345-2.66 22.886.137 10.6 6.36 14.84 8.893 16.038.906.326 1.844.557 2.798.689 0 0 .075.053.064.084l-2.364 12.222c-1.06 8.014 3.392 15.158 11.395 16.324 8.003 1.166 14.289-4.982 15.519-12.995l7.557-50.181z"/>
    <path fill="#1A1B41" d="M521.721 168.71c.181.254 1.58-.509 3.382-.234 1.802.276 2.989 1.357 3.18 1.166.191-.19 0-.508-.562-1.007-.693-.63-1.562-1.034-2.491-1.155-.937-.14-1.894.02-2.735.456-.615.297-.858.668-.774.774zM538.481 171.477c.169.254 1.579-.499 3.381-.234 1.802.265 2.989 1.368 3.18 1.166.191-.201 0-.508-.562-1.06-.704-.653-1.592-1.075-2.544-1.208-.934-.143-1.89.021-2.724.466-.625.393-.88.764-.731.87zM531.515 180.646c-.899-.448-1.855-.772-2.84-.965-.456-.106-.88-.265-.912-.594.027-.481.205-.941.509-1.314l1.865-3.307c2.619-4.717 4.59-8.618 4.399-8.724-.19-.106-2.469 3.636-5.088 8.353-.636 1.155-1.24 2.268-1.812 3.328-.371.513-.551 1.139-.509 1.77.042.173.123.333.237.469.114.136.258.244.42.316.246.111.507.186.774.222.964.27 1.957.42 2.957.446z"/>
    <path fill="#7C5142" d="M528.994 202.047s6.879 1.59 16.345-2.375c0 0-4.092 8.798-16.96 5.671l.615-3.296zM531.654 185.097c.405-.382.901-.655 1.44-.792.54-.137 1.106-.134 1.644.008.393.094.763.266 1.087.506.324.241.597.544.8.893.197.336.287.725.256 1.113-.03.389-.179.758-.425 1.06-.339.278-.752.45-1.188.493-.436.043-.874-.043-1.261-.249-.815-.42-1.536-1.001-2.12-1.707-.181-.173-.328-.378-.435-.604-.05-.111-.067-.235-.048-.355.019-.121.073-.233.154-.323"/>
    <path fill="#1A1B41" d="M536.646 182.659c-.297 0-.583 1.898-2.459 3.042-1.876 1.145-3.933.626-3.986.901-.053.276.414.446 1.283.594 1.146.186 2.322-.039 3.318-.636.954-.569 1.647-1.49 1.929-2.565.201-.806.053-1.325-.085-1.336zM539.657 164.957c.106.509 1.94.541 4.017 1.06 2.078.52 3.71 1.389 4.05.997.159-.191-.075-.7-.689-1.272-.835-.719-1.823-1.237-2.888-1.514-1.066-.278-2.181-.307-3.26-.087-.817.244-1.272.573-1.23.816zM523.544 161.725c.255.455 1.559.212 3.053.402 1.495.191 2.724.679 3.074.297.159-.191 0-.625-.477-1.06-.664-.595-1.498-.966-2.385-1.06-.879-.11-1.771.052-2.555.467-.614.349-.826.731-.71.954z"/>
    <path fill="#1A1B41" d="M575.686 196.694c.668-1.526 1.251-2.936 1.547-3.858 1.188-3.604 1.198-9.318-.508-12.72-1.59-3.18-5.618-6.276-6.784-9.339-1.792-4.696-.467-5.925-1.845-15.73-.784-5.565-8.204-13.272-15.985-12.074-2.461-2.665-5.76-4.408-9.349-4.939-4.269-.829-8.687-.39-12.709 1.264s-7.471 4.45-9.922 8.042c-2.321 3.52-3.71 8.247-2.332 12.455 2.194 3.361 9.19 1.283 13.42-1.06 2.205 1.405 4.87 1.893 7.43 1.363 2.559-.531 4.811-2.039 6.276-4.203.406.518.915.947 1.495 1.259.58.312 1.219.5 1.875.553.138 1.24.287 2.29.382 2.958.424 3.063 5.035 7.504 5.088 10.6.095 5.83-4.378 6.116-5.618 11.819-.933 4.24 2.321 6.805 2.936 11.151.096.668-7.706 14.84 2.353 20.786 0 0 .265.212.668.615 1.707 1.757 2.753 4.051 2.959 6.491.207 2.441-.438 4.878-1.825 6.897-2.639 3.922-5.459 10.409 1.283 13.897 0 0 1.961-6.212 4.728-7.42 7.027-3.064 14.204-3.647 11.31-18.879-2.894-15.232.964-13.409 3.127-19.928z"/>
    <path fill="#FFBE9D" d="M229.861 133.91l4.929 57.113 28.62-2.29c.18-3.339 0-16.26 0-16.26s11.893-1.845 12.042-13.78c.074-5.777-.753-17.723-1.622-28.482-.461-5.739-3.152-11.068-7.495-14.846-4.343-3.779-9.993-5.706-15.74-5.369-2.948.162-5.834.916-8.485 2.215s-5.014 3.119-6.948 5.35c-1.935 2.23-3.4 4.827-4.311 7.636s-1.247 5.772-.99 8.713z"/>
    <path fill="#EB996E" d="M263.358 172.303c-5.496.106-10.899-1.429-15.518-4.409 0 0 3.667 8.564 15.539 7.494l-.021-3.085z"/>
    <path fill="#1A1B41" d="M269.57 138.15c.003.444-.167.871-.474 1.192-.306.32-.726.509-1.169.525-.216.016-.434-.011-.639-.08-.205-.069-.395-.178-.558-.321-.163-.143-.295-.318-.39-.512-.095-.195-.15-.407-.162-.624-.003-.441.165-.867.469-1.188.305-.32.722-.51 1.163-.529.217-.016.435.012.641.081.206.068.396.178.56.32.163.143.297.317.393.512.096.195.152.407.166.624zM271.212 136.242c-.212.223-1.495-.731-3.329-.731-1.833 0-3.18.922-3.36.699-.18-.222.117-.498.7-.922.79-.549 1.73-.841 2.692-.837.952-.004 1.881.297 2.65.858.562.435.795.827.647.933zM251.22 138.574c.003.444-.166.871-.473 1.192-.307.32-.726.509-1.17.525-.215.018-.432-.009-.638-.076-.205-.068-.395-.176-.558-.318-.163-.143-.296-.316-.391-.51-.095-.195-.15-.406-.162-.622-.006-.443.162-.87.467-1.191.305-.321.723-.51 1.166-.526.216-.019.434.006.641.073.206.067.398.175.562.317.164.143.298.317.393.512.096.195.151.407.163.624zM253.235 136.582c-.212.222-1.494-.732-3.328-.732-1.834 0-3.18.922-3.36.7-.181-.223.116-.499.699-.923.79-.548 1.73-.841 2.693-.837.951.001 1.878.302 2.65.859.561.434.752.837.646.933zM259.872 150.138c.968-.292 1.968-.47 2.978-.53.467 0 .901-.148.986-.466.037-.481-.074-.962-.318-1.378-.435-1.134-.89-2.321-1.378-3.562-1.919-5.056-3.307-9.222-3.095-9.296.212-.074 1.918 3.965 3.837 9.031l1.325 3.573c.294.564.38 1.213.244 1.833-.069.166-.174.315-.308.434s-.293.207-.466.255c-.256.067-.52.103-.784.106-1.003.128-2.018.128-3.021 0zM254.496 151.41c.297 0 .297 1.961 1.993 3.371 1.696 1.41 3.816 1.198 3.837 1.474.022.275-.477.381-1.367.402-1.152.032-2.278-.343-3.18-1.06-.86-.71-1.414-1.723-1.548-2.83-.095-.88.17-1.367.265-1.357zM253.712 129.416c-.18.498-2.003.265-4.155.519-2.152.255-3.879.838-4.166.392-.127-.212.181-.678.88-1.155.927-.598 1.986-.962 3.085-1.06 1.099-.131 2.215-.001 3.254.382.784.296 1.177.689 1.102.922zM270.545 130.942c-.328.424-1.579 0-3.095 0-1.516 0-2.798.276-3.095-.159-.127-.212.074-.625.636-1.06.753-.471 1.628-.707 2.515-.679.887.029 1.746.32 2.467.838.541.435.71.859.572 1.06zM242.74 120.84h-.063c-1.895 1.495-3.141 3.663-3.477 6.053-.004.081-.004.163 0 .244-.456 3.392-.382 6.847-.869 10.239-.488 3.392-1.675 6.837-4.24 9.169-1.06.965-2.851 1.622-3.699.499-.287-.469-.434-1.01-.424-1.559-.636-8.193-2.873-15.465-2.862-24.03-.003-1.148.268-2.28.79-3.303.521-1.023 1.279-1.907 2.209-2.58 1.802-1.282 3.986-2.618 5.979-1.675 1.992.944 4.579 4.675 6.126 6.254"/>
    <path fill="#FFBE9D" d="M233.88 139.284c-.212-.084-8.183-2.416-7.918 5.724.265 8.141 8.374 6.191 8.374 5.958 0-.234-.456-11.682-.456-11.682z"/>
    <path fill="#EB996E" d="M231.76 147.966s-.138.106-.382.222c-.339.14-.721.14-1.06 0-.869-.286-1.632-1.632-1.717-3.095-.028-.683.095-1.363.36-1.993.071-.26.205-.498.39-.694.185-.196.415-.343.67-.429.163-.049.338-.04.494.026.157.065.286.184.365.334.116.223.063.392.106.403.042.01.169-.149.095-.477-.052-.2-.172-.376-.339-.498-.228-.161-.509-.226-.784-.181-.332.077-.639.236-.891.465-.252.228-.442.517-.551.839-.324.714-.469 1.496-.424 2.279.106 1.643.996 3.18 2.184 3.456.221.055.453.06.676.014.224-.045.435-.141.617-.279.18-.191.212-.382.191-.392z"/>
    <path fill="#1A1B41" d="M235.034 116.505c-2.48-2.904 2.216-8.374 5.979-10.24 3.763-1.865 9.296-.763 13.451-.074 2.618.435 5.3 1.198 7.887.668 1.728-.46 3.379-1.174 4.897-2.12 1.519-.939 3.215-1.56 4.982-1.823.886-.116 1.787.011 2.607.367.82.357 1.527.93 2.046 1.657.922 1.516.318 3.901-1.388 4.421.51-.397 1.109-.664 1.746-.778.636-.114 1.291-.072 1.907.122.617.195 1.177.536 1.633.994.455.459.793 1.021.984 1.639.19.618.228 1.273.11 1.908-.118.636-.388 1.233-.788 1.742-.4.508-.917.911-1.507 1.175-.59.265-1.235.382-1.881.342 1.007-1.06 2.979.106 3.064 1.558-.049.726-.283 1.426-.68 2.035-.397.609-.944 1.106-1.589 1.442-3.116 2.003-7.102 2.12-10.759 1.516-3.657-.604-7.155-1.929-10.79-2.64-3.636-.71-9.752-2.056-13.007-.296-2.406 1.293-3.688 4.632-5.236 4.24-.729-.252-1.39-.671-1.929-1.223-.539-.552-.942-1.222-1.177-1.957-.437-1.493-.627-3.047-.562-4.601"/>
    <path fill="#455A64" d="M231.801 138.934s.35-.222.658-.869c.407-.925.55-1.945.413-2.947-.18-2.629-2.502-5.438-2.798-9.063-.205-1.672.11-3.367.901-4.855.695-1.175 1.756-2.09 3.021-2.607.855-.362 1.792-.49 2.713-.371.657.106 1.007.254 1.06.191.053-.064-.286-.287-.964-.499-.986-.251-2.024-.199-2.979.149-1.454.485-2.689 1.468-3.487 2.777-.917 1.606-1.289 3.465-1.06 5.3.199 1.79.731 3.526 1.568 5.12.659 1.24 1.148 2.562 1.453 3.932.225 1.269.051 2.577-.499 3.742z"/>
    <path fill="#1A1B41" d="M267.057 97.139s.127.095.318.328c.261.349.468.735.615 1.145.233.78.291 1.601.17 2.405-.121.804-.418 1.572-.87 2.248-.732.956-1.667 1.737-2.737 2.287-1.071.55-2.25.855-3.453.893-2.714.212-5.587-.593-8.48-1.346-1.413-.384-2.857-.643-4.315-.774-1.346-.114-2.702.008-4.006.361-1.86.514-3.583 1.431-5.049 2.686-1.465 1.255-2.637 2.817-3.431 4.575-.456 1.06-.573 1.611-.636 1.6-.064-.01 0-.159.063-.445.091-.423.219-.838.382-1.24.571-1.49 1.432-2.852 2.533-4.007 1.632-1.742 3.705-3.01 6-3.667 1.358-.378 2.771-.514 4.176-.403 1.491.128 2.967.391 4.41.784 2.947.753 5.745 1.548 8.331 1.368 1.138-.019 2.258-.289 3.28-.789 1.022-.5 1.922-1.219 2.635-2.105.436-.63.733-1.344.872-2.097.139-.753.116-1.527-.066-2.27-.182-.542-.431-1.058-.742-1.537z"/>
    <path fill="#455A64" d="M224.116 385.342l-16.048-20.479s-26.204 9.434-29.543 5.936l38.595-32.542 26.309 30.888-19.313 16.197z"/>
    <path fill="#E0E0E0" d="M221.414 356.478c.265-.43.369-.941.291-1.44-.078-.5-.331-.955-.715-1.284-.417-.29-.929-.41-1.432-.335-.502.075-.957.339-1.271.738-.289.452-.401.995-.315 1.525.086.53.364 1.01.781 1.348.465.262 1.013.333 1.529.199.516-.135.96-.465 1.238-.92M217.12 338.257l2.533 3.18-37.948 29.998s-2.353.699-3.18-.679l38.595-32.499z"/>
    <path fill="#1A1B41" d="M207.613 365.584c-.159-.191.71-1.06 1.134-2.459.424-1.399.233-2.597.477-2.661.244-.063.869 1.251.339 2.926-.53 1.675-1.802 2.406-1.95 2.194zM202.154 367.332c-.202-.148.339-1.155.307-2.501-.032-1.346-.551-2.332-.36-2.481.19-.148 1.219.817 1.219 2.481s-1.018 2.671-1.166 2.501zM195.763 364.418c.138-.18 1.198.54 1.579 1.982.382 1.442-.148 2.586-.36 2.502-.212-.085-.127-1.06-.467-2.279-.339-1.219-.922-1.983-.752-2.205zM211.778 369.856c-.064-.244 1.06-.711 2.025-1.686.964-.975 1.558-2.003 1.791-1.929.233.074 0 1.431-1.198 2.555-1.198 1.123-2.576 1.282-2.618 1.06zM215.096 373.926c-.064-.075.583-.827 1.94-1.622.8-.459 1.655-.815 2.544-1.06.528-.153 1.067-.269 1.611-.35.32-.045.645-.045.965 0 .238.027.459.134.629.304.169.169.276.391.303.629.018.211-.015.423-.096.618-.081.196-.208.369-.37.505-.241.213-.512.388-.806.52-.496.246-1.014.445-1.547.593-.899.256-1.833.371-2.767.34-.864.056-1.724-.158-2.459-.615 0-.138.965.085 2.449 0 .865-.056 1.719-.219 2.544-.488.482-.157.95-.355 1.399-.593.498-.234.848-.53.805-.795-.042-.265 0-.138-.233-.181-.235-.04-.475-.04-.71 0-.507.063-1.009.155-1.505.276-.852.207-1.683.494-2.481.859-.711.408-1.451.762-2.215 1.06z"/>
    <path fill="#1A1B41" d="M215.117 373.449c0-.085.986.275 2.12 1.431.64.687 1.157 1.479 1.527 2.342.216.513.383 1.046.498 1.59.108.344.126.709.054 1.061-.073.352-.233.68-.467.953-.175.143-.387.232-.611.256-.224.024-.45-.016-.651-.118-.292-.137-.56-.32-.795-.54-.418-.378-.775-.818-1.06-1.304-.502-.814-.797-1.738-.858-2.693-.085-1.632.508-2.522.582-2.469-.051.801-.051 1.605 0 2.406.136.835.45 1.63.923 2.332.274.397.602.753.975 1.06.403.36.837.562.954.381.112-.176.183-.375.209-.582.025-.207.005-.417-.061-.615-.091-.495-.226-.981-.402-1.453-.313-.802-.734-1.558-1.251-2.247-.975-1.145-1.77-1.675-1.686-1.791z"/>
    <path fill="#455A64" d="M184.208 398.942l-16.049-20.522s-26.203 9.424-29.542 5.937l38.595-32.543 26.309 30.931-19.313 16.197z"/>
    <path fill="#E0E0E0" d="M181.505 370.068c.276-.425.385-.937.307-1.438-.078-.501-.339-.955-.731-1.276-.416-.291-.927-.413-1.43-.34-.502.073-.958.335-1.273.732-.29.454-.403.999-.317 1.531.086.531.365 1.013.783 1.353.469.245 1.013.306 1.525.171.512-.135.955-.457 1.242-.903M177.212 351.856l2.533 3.18-37.948 29.998s-2.353.7-3.18-.667l38.595-32.511z"/>
    <path fill="#1A1B41" d="M167.703 379.184c-.159-.191.71-1.06 1.134-2.46.424-1.399.244-2.597.477-2.671.233-.074.869 1.251.339 2.926-.53 1.675-1.844 2.406-1.95 2.205zM162.245 380.922c-.202-.149.35-1.156.318-2.491-.032-1.336-.562-2.343-.371-2.491.191-.149 1.219.816 1.219 2.48 0 1.664-1.018 2.671-1.166 2.502zM155.821 378.017c.137-.19 1.197.53 1.579 1.972.381 1.442-.149 2.597-.361 2.502-.212-.096-.127-1.06-.466-2.279-.339-1.219-.89-2.025-.752-2.195zM171.88 383.445c-.074-.244 1.06-.71 2.014-1.675.954-.965 1.559-2.014 1.792-1.929.233.085 0 1.42-1.198 2.544-1.198 1.123-2.576 1.335-2.608 1.06zM175.187 387.515c-.063-.074.583-.816 1.94-1.621 1.278-.728 2.68-1.213 4.134-1.431.32-.049.645-.049.965 0 .236.026.457.132.626.299.169.167.277.387.307.623.015.211-.018.423-.097.62-.079.196-.202.372-.359.514-.249.204-.524.375-.816.509-.498.245-1.016.447-1.548.604-.899.253-1.833.364-2.767.329-.863.056-1.723-.159-2.459-.615 0-.127.965.095 2.449 0 .866-.05 1.721-.214 2.544-.488.483-.157.951-.356 1.399-.593.498-.234.848-.52.806-.795 0-.096 0-.128-.234-.181-.232-.03-.467-.03-.699 0-.51.062-1.017.154-1.516.276-.848.209-1.675.497-2.47.859-.707.417-1.444.782-2.205 1.091z"/>
    <path fill="#1A1B41" d="M175.208 387.038c0-.085.986.276 2.12 1.442.643.681 1.159 1.471 1.527 2.332.219.511.386 1.044.498 1.59.107.343.126.708.054 1.06-.073.353-.233.681-.468.954-.174.141-.385.231-.609.257-.223.026-.449-.012-.652-.109-.287-.145-.555-.326-.795-.54-.416-.38-.773-.82-1.06-1.304-.515-.793-.831-1.699-.922-2.64-.085-1.643.509-2.522.583-2.48-.051.801-.051 1.605 0 2.406.133.836.448 1.632.922 2.332.275.396.603.753.975 1.06.414.361.838.562.965.392.107-.18.175-.381.199-.589.024-.208.003-.419-.061-.619-.094-.491-.228-.973-.403-1.442-.31-.8-.731-1.553-1.251-2.236-.869-1.219-1.707-1.749-1.622-1.866z"/>
    <path fill="#FFBE9D" d="M202.365 58.735c.393-.106 2.12 14.162 1.219 16.059-.901 1.897-7.155 7.42-9.54 7.42-2.385 0-5.66 3.508-6.36 4.717l-15.666-3.19 3.508-8.64-.424-10.854c-.101-2.259.427-4.501 1.527-6.477 1.208-2.12 2.925-4.378 4.558-3.71 2.968 1.209 2.968 2.12 2.968 2.12s2.809-2.554 3.763.414c0 0 3.657-2.703 5.416.805 0 0 4.039-2.427 5.12 3.106l.403 3.774s-.403-4.463 3.508-5.544z"/>
    <path fill="#EB996E" d="M189.742 75.928c.426-.756.995-1.422 1.675-1.96 2.204-1.97 4.933-3.256 7.855-3.7l-.223.265c0-1.802-.201-3.35-.233-4.484-.055-.595-.022-1.195.095-1.78.144.575.225 1.165.244 1.759.224 1.489.366 2.99.424 4.494v.233h-.223c-.801.136-1.591.33-2.363.583-1.923.646-3.717 1.626-5.3 2.894-1.294 1.028-1.951 1.76-1.951 1.696zM180.201 59.922c.183.258.312.55.381.859.332.837.354 1.765.064 2.618-.212.572-.827.933-.954 1.43-.058.294-.042.597.047.882.089.285.248.543.462.751.252.239.55.424.875.545.326.122.672.176 1.019.162.347-.015.687-.1 1.001-.248.314-.149.594-.359.825-.618.444-.62.698-1.357.732-2.12.063-.752.074-1.505.074-2.205 0-1.254-.074-2.507-.223-3.752-.038-.834-.243-1.653-.604-2.406-.297-.498-.604-.668-.572-.71.032-.043.371.084.752.593.456.75.736 1.595.817 2.47.198 1.256.311 2.524.339 3.795.024.756.006 1.514-.053 2.268-.037.859-.325 1.688-.827 2.385-.279.322-.622.583-1.007.766-.385.183-.803.285-1.229.299-.426.013-.85-.06-1.246-.218s-.755-.396-1.055-.698c-.262-.279-.448-.62-.541-.991-.093-.371-.089-.76.011-1.13.125-.315.321-.598.573-.826.189-.181.347-.392.466-.626.281-.77.307-1.61.074-2.395-.098-.285-.165-.58-.201-.88z"/>
    <path fill="#EB996E" d="M183.91 66.653s.095.233.36.572c.381.459.924.751 1.516.817.432.036.866-.035 1.263-.207.398-.172.747-.44 1.016-.78.695-.846 1.1-1.894 1.156-2.988.22-2.038-.038-4.1-.753-6.021-.53-1.484-1.06-2.31-1.06-2.364.612.634 1.079 1.393 1.367 2.226.852 1.953 1.177 4.094.944 6.212-.068 1.213-.538 2.37-1.336 3.286-.323.394-.743.698-1.218.884-.475.186-.99.246-1.495.176-.332-.05-.65-.17-.931-.354-.282-.182-.521-.423-.702-.706-.18-.477-.159-.753-.127-.753z"/>
    <path fill="#EB996E" d="M188.681 67.024s.149.18.424.445c.401.365.905.598 1.442.668.389.058.785.033 1.163-.073s.729-.29 1.031-.542c.746-.641 1.254-1.515 1.442-2.48.392-2.12-.276-4.05-.498-5.459-.198-.762-.305-1.545-.318-2.332.321.715.556 1.466.699 2.237.181.71.414 1.526.594 2.49.23 1.046.251 2.127.064 3.18-.213 1.09-.802 2.07-1.665 2.767-.359.283-.776.483-1.221.586-.445.102-.908.105-1.355.008-.602-.11-1.147-.428-1.537-.901-.265-.34-.339-.583-.265-.594z"/>
    <path fill="#EB996E" d="M194.139 66.621s.095.233.212.668c.141.596.404 1.155.774 1.643.251.345.597.61.996.765.398.154.832.19 1.251.104.477-.205.873-.56 1.13-1.012.256-.452.358-.975.29-1.49-.004-2.075-.185-4.146-.54-6.19-.199-.845-.344-1.702-.435-2.565.394.782.669 1.617.816 2.48.478 2.058.716 4.163.711 6.275.072.636-.072 1.278-.408 1.822-.337.544-.847.959-1.447 1.178-.509.095-1.035.038-1.512-.164-.477-.201-.884-.539-1.17-.97-.368-.548-.597-1.178-.668-1.834-.055-.233-.055-.476 0-.71z"/>
    <path fill="#FFBE9D" d="M344.141 210.75s-5.3 7.843-6.657 10.472c-1.06 2.12-5.385 11.003-5.576 16.738l10.6 12.317s4.791-3.657 5.565-5.035c.409-1.079.409-2.271 0-3.35.689-.593 1.439-1.111 2.237-1.547 0 0-.456 2.448 1.378 2.904 1.834.456 7.96-5.968 7.96-5.968s.456-2.745-1.229-2.904c0 0 1.229-3.827 0-4.897 0 0 1.378-3.053-.308-4.431 0 0-.763-3.519-1.982-4.749-1.219-1.229-13.674 2.449-13.674 2.449s2.947-6.551 3.254-8.385c.308-1.834-1.568-3.614-1.568-3.614z"/>
    <path fill="#EB996E" d="M351.804 234.928s-.106.201-.35.498c-.366.387-.667.831-.891 1.315-.173.303-.281.638-.318.985-.02.396.06.789.234 1.145.286.742 1.399.88 2.194.339.781-.581 1.524-1.211 2.226-1.886l1.844-1.59c.536-.527 1.134-.986 1.781-1.368-.437.611-.946 1.166-1.516 1.654l-1.759 1.685c-.716.714-1.481 1.377-2.29 1.982-.488.321-1.076.452-1.654.371-.282-.035-.55-.143-.777-.314-.227-.171-.405-.399-.516-.661-.19-.436-.267-.914-.222-1.388.06-.404.204-.79.424-1.135.258-.497.619-.934 1.06-1.282.328-.255.498-.382.53-.35zM352.472 223.946c-.6.8-1.275 1.542-2.014 2.216-.793.691-1.463 1.512-1.982 2.427-.086.272-.107.561-.062.842.046.282.156.549.323.781.166.232.385.421.638.553.253.133.533.204.818.209.62-.129 1.185-.443 1.622-.901l1.431-1.272 2.459-2.12c.726-.689 1.514-1.31 2.353-1.855-.64.77-1.35 1.479-2.12 2.12l-2.385 2.226-1.409 1.293c-.52.548-1.199.919-1.94 1.06-.376.005-.748-.081-1.084-.251-.336-.17-.625-.419-.844-.725-.219-.306-.36-.661-.412-1.033-.052-.373-.013-.753.114-1.107.257-.554.617-1.054 1.06-1.474.371-.402.774-.731 1.06-1.06.731-.714 1.525-1.36 2.374-1.929z"/>
    <path fill="#EB996E" d="M350.416 231.515c0 .053-.212.095-.53.318-.434.306-.736.764-.848 1.283-.061.371.001.753.177 1.086.176.333.456.599.798.758.19.102.399.163.614.182.215.018.432-.008.637-.076.469-.167.903-.419 1.282-.742 3.435-2.703 5.777-5.395 5.894-5.3-.374.688-.854 1.314-1.421 1.855-1.265 1.401-2.648 2.692-4.134 3.858-.431.375-.932.663-1.473.848-.524.217-1.113.216-1.637-.002-.524-.217-.94-.634-1.156-1.158-.217-.525-.216-1.113.002-1.637.217-.524.634-.94 1.159-1.156.191-.115.416-.156.636-.117zM348.37 243.959c-.085 0-.148-.668-.562-1.696-.284-.688-.702-1.314-1.23-1.84-.527-.526-1.154-.941-1.844-1.223l-1.166-.445 1.23-.053v.519h-.064v-.509l-.212.138c.546-.995.936-2.067 1.156-3.18.442-2.292.225-4.663-.626-6.837-.657-1.685-1.409-2.544-1.325-2.608.085-.063.234.181.562.573.443.581.82 1.211 1.124 1.876.998 2.227 1.28 4.708.805 7.102-.226 1.172-.649 2.297-1.25 3.328l-.075.128h-.169v-.509h.053v.519l.074-.498c.746.31 1.416.778 1.965 1.37.548.593.963 1.297 1.215 2.064.152.428.248.873.286 1.325.046.148.064.302.053.456z"/>
    <path fill="#1A1B41" d="M214.599 311.195l-1.537 14.225c-.753 6.757-.732 13.578.063 20.331l6.212 52.671-19.864-23.574s-19.08 11.469-19.377 22.451c0 0 37.492 42.569 46.979 48.558 9.487 5.989 33.92 0 34.98-18.719 0 0 2.247 17.225 23.967 16.726 21.719-.498 21.973-52.438 21.973-52.438l-9.487-78.143-83.909-2.088z"/>
    <path fill="#455A64" d="M262.075 427.604c-.027-.243-.027-.488 0-.731v-2.067c.064-1.855.159-4.441.265-7.6.265-6.466.647-15.307 1.06-25.058.233-4.898.456-9.54.657-13.78.202-4.24.244-8.078.965-11.258.477-2.547 1.799-4.858 3.752-6.561.535-.444 1.136-.801 1.781-1.06.163-.078.333-.139.509-.18.117 0 .18-.053.18 0-.842.374-1.628.867-2.332 1.463-1.845 1.722-3.077 4-3.508 6.487-.668 3.116-.626 6.964-.838 11.204-.212 4.24-.392 8.904-.615 13.78-.466 9.752-.901 18.582-1.219 25.048-.18 3.18-.318 5.734-.424 7.589-.063.859-.116 1.537-.148 2.12-.018.203-.046.405-.085.604zM267.885 312.329c.147.411.247.838.297 1.272.148.827.339 2.025.551 3.509.424 2.978.901 7.102 1.24 11.66.339 4.558.456 8.724.466 11.723v3.562c.015.437-.017.874-.095 1.304-.087-.429-.126-.867-.117-1.304 0-.954-.084-2.12-.137-3.551-.106-2.989-.297-7.134-.626-11.66-.328-4.526-.752-8.681-1.06-11.66-.159-1.399-.286-2.586-.381-3.53-.088-.436-.134-.88-.138-1.325zM260.295 315.88s.148-.18.551-.265c.285-.053.578-.05.862.01.284.06.553.176.792.34.346.225.625.54.805.912.211.434.267.928.159 1.399-.12.538-.407 1.025-.82 1.39-.413.366-.931.591-1.48.645-.547.007-1.083-.15-1.54-.451-.457-.3-.814-.73-1.025-1.234-.17-.407-.23-.851-.174-1.288.055-.438.225-.852.492-1.203.325-.476.798-.83 1.346-1.007.382-.117.604-.096.604-.064-.658.258-1.225.704-1.632 1.283-.212.307-.34.665-.37 1.037-.03.372.04.746.2 1.083.182.396.473.732.839.969.366.236.793.364 1.228.366.435-.044.846-.221 1.176-.508.33-.286.564-.668.669-1.092.084-.346.062-.708-.063-1.041-.124-.333-.346-.62-.637-.825-.402-.313-.9-.478-1.41-.466-.36-.064-.561.01-.572.01zM219.728 398.242c.096 0-.328 1.601-.699 4.24-.482 3.378-.568 6.8-.255 10.197.337 3.397 1.078 6.742 2.205 9.964.869 2.47 1.58 3.944 1.495 3.986-.229-.311-.425-.645-.583-.996-.48-.926-.908-1.878-1.283-2.852-2.51-6.479-3.192-13.522-1.971-20.362.18-1.03.417-2.05.71-3.053.08-.389.208-.766.381-1.124z"/>
    <path fill="#455A64" d="M219.358 421.467c.361-.137.715-.292 1.06-.467.891-.591 1.574-1.447 1.95-2.448.609-1.588.928-3.271.944-4.972.095-1.992.201-4.24.212-6.784.063-5.024-.149-11.013-.732-17.627-.583-6.615-1.537-13.876-2.788-21.444-1.25-7.569-2.565-14.84-3.392-21.402-.814-5.85-1.186-11.753-1.113-17.659.053-3.983.44-7.954 1.156-11.872.233-1.389.551-2.438.71-3.18.085-.329.148-.594.201-.816.021-.096.053-.188.096-.276.01.099.01.198 0 .297 0 .212-.085.487-.149.827-.127.731-.402 1.78-.604 3.18-.633 3.915-.962 7.874-.986 11.84-.009 5.884.406 11.761 1.241 17.585.848 6.593 2.183 13.78 3.434 21.37 1.251 7.589 2.194 14.84 2.745 21.486.512 5.882.718 11.788.615 17.691 0 2.513-.169 4.792-.297 6.795-.049 1.728-.408 3.433-1.06 5.035-.417 1.033-1.162 1.901-2.12 2.47-.346.197-.728.323-1.123.371zM192.846 379.639c.429.282.83.605 1.198.965.731.646 1.78 1.611 3.021 2.862 3.239 3.251 6.186 6.78 8.808 10.547 1.548 2.194 2.915 4.356 4.134 6.36 1.022 1.767 2.208 3.435 3.541 4.982.911 1.024 2.017 1.857 3.254 2.448.89.382 1.431.477 1.42.53-.011.053-.138 0-.403 0-.361-.064-.715-.16-1.06-.286-1.309-.533-2.485-1.348-3.445-2.385-1.403-1.524-2.64-3.194-3.689-4.982-1.24-1.961-2.618-4.102-4.165-6.286-2.613-3.74-5.497-7.282-8.629-10.6-1.197-1.272-2.204-2.279-2.893-2.978-.402-.356-.768-.75-1.092-1.177z"/>
    <path fill="#D75948" d="M222.527 170.469s-12.232-4.589-17.84-9.169c-5.607-4.579-21.592-30.178-21.592-30.178l8.077-46.13-19.694-9.732s-22.875 54.898-20.331 65.084c2.544 10.187 43.894 66.854 43.894 66.854l10.155 40.28 10.706 36.178s-4.59 2.046-2.035 9.18c2.555 7.134 5.83 10.229 2.544 11.723-5.3 2.417-1.813 6.678-1.813 6.678l86.009 2.12s-11.014-69.822-9.116-82.574c1.929-13.006.063-35.181.063-35.181l-19.588-5.968-49.439-19.165z"/>
    <path fill="#D75948" d="M291.554 195.549c8.925 4.103 18.423 62.265 18.423 62.265l20.829-22.154 12.72 16.038s-18.02 31.598-22.122 34.821c-3.488 2.713-14.003 10.928-21.084 8.119-7.081-2.809-11.511-53.116-11.511-53.116l2.745-45.973zM231.76 175.483s-1.06-6.795 1.187-5.777c.095 0 31.588 9.943 31.365 12.137-.18 1.855.223 7.738.223 7.738h-20.734l-12.041-14.098z"/>
    <path fill="#1A1B41" d="M212.193 219.706c-.039-.561-.039-1.124 0-1.685v-1.982c0-.774 0-1.643-.053-2.608-.095-2.265-.314-4.522-.658-6.763-.433-2.739-1.042-5.448-1.823-8.109-.805-2.656-1.779-5.258-2.915-7.791-.953-2.061-2.014-4.071-3.18-6.02-.477-.838-.975-1.559-1.388-2.216-.414-.657-.785-1.198-1.06-1.643-.35-.445-.658-.92-.923-1.42.39.4.744.833 1.06 1.293.34.424.753.954 1.177 1.601.424.646.965 1.346 1.463 2.183 1.215 1.936 2.313 3.943 3.286 6.01 2.39 5.079 4.016 10.483 4.823 16.038.323 2.262.507 4.542.551 6.827v2.628c0 .774 0 1.431-.106 1.983-.031.565-.116 1.126-.254 1.674zM228.643 294.797c-.843-.243-1.649-.6-2.395-1.06-3.734-1.996-6.966-4.812-9.456-8.236-.554-.679-1.01-1.432-1.356-2.237 1.827 2.303 3.825 4.464 5.978 6.466 2.281 1.865 4.698 3.559 7.229 5.067zM254.995 304.708c-.444.206-.905.373-1.378.498-1.272.409-2.568.742-3.88.996-1.941.408-3.906.691-5.883.848-2.421.166-4.85.166-7.271 0-2.424-.191-4.832-.545-7.208-1.06-1.936-.422-3.844-.963-5.714-1.621-1.261-.43-2.496-.932-3.699-1.506-.455-.184-.892-.411-1.304-.678.478.116.943.28 1.389.488.869.349 2.12.816 3.742 1.325 1.868.603 3.768 1.102 5.692 1.494 2.359.472 4.745.794 7.144.965 2.397.154 4.801.154 7.198 0 1.958-.133 3.908-.374 5.84-.721 1.654-.297 2.979-.583 3.89-.816.474-.113.956-.184 1.442-.212zM283.646 251.697c.043.171.072.344.085.52 0 .328.106.837.127 1.484.1 1.828.044 3.661-.17 5.48-.676 6.055-2.926 11.828-6.527 16.743-3.6 4.915-8.425 8.802-13.994 11.273-1.672.756-3.406 1.366-5.184 1.823-.625.169-1.123.254-1.452.318-.169.049-.344.074-.519.074 0 0 .689-.223 1.918-.604 1.734-.531 3.428-1.186 5.067-1.961 6.242-2.984 11.501-7.689 15.159-13.561 3.658-5.873 5.563-12.667 5.49-19.585-.041-.667-.041-1.337 0-2.004zM291.681 214.65c.028.307.028.616 0 .923l-.127 2.65c-.074 1.144-.116 2.554-.138 4.187-.021 1.632-.074 3.487 0 5.543 0 4.113.234 9 .562 14.416.329 5.417.933 11.374 1.633 17.607 1.431 12.476 3.074 23.723 4.155 31.874.54 4.081.964 7.42 1.229 9.667.128 1.113.223 1.983.297 2.64.05.305.071.613.064.922-.082-.299-.142-.604-.18-.912-.096-.646-.223-1.515-.393-2.618-.339-2.332-.816-5.607-1.409-9.635-1.177-8.152-2.873-19.388-4.315-31.874-.699-6.244-1.24-12.201-1.59-17.628-.349-5.427-.498-10.346-.445-14.459 0-2.056.053-3.922.127-5.554.075-1.632.117-3.042.234-4.187.116-1.145.169-1.993.222-2.65.002-.305.027-.61.074-.912zM264.323 186.634c-.424.185-.869.317-1.325.392-1.23.269-2.484.411-3.742.424-1.872.023-3.741-.18-5.565-.604-2.229-.51-4.407-1.22-6.508-2.12-3.796-1.673-7.414-3.722-10.802-6.116-1.304-.901-2.342-1.643-3.063-2.173-.383-.252-.738-.543-1.06-.869.42.191.821.422 1.198.689l3.18 2.024c3.424 2.275 7.034 4.257 10.79 5.926 2.061.873 4.188 1.582 6.36 2.12 1.79.429 3.62.663 5.459.699 1.7-.017 3.396-.149 5.078-.392zM307.031 273.078c.223-2.69.634-5.361 1.23-7.993.409-2.666 1-5.301 1.77-7.886-.224 2.689-.635 5.36-1.23 7.992-.412 2.666-1.003 5.3-1.77 7.887z"/>
    <path fill="#000" d="M257.582 288.967c-2.902.933-5.893 1.559-8.926 1.865-1.319.27-2.692.036-3.847-.657-.534-.478-.905-1.111-1.061-1.811-.156-.699-.089-1.43.191-2.09.595-1.317 1.673-2.357 3.011-2.904 4.653-2.12 10.6.148 14.967-2.597 2.12-1.378 3.445-3.763 4.982-5.83 2.649-3.556 6.219-6.319 10.324-7.993.556-.294 1.201-.377 1.813-.233 1.314.498 1.06 2.438.435 3.7-4.41 9.349-11.756 16.525-21.889 18.55M291.438 230.869c6.36 15.486 4.103 33.835 12.275 48.442 1.548 2.777 3.498 5.48 3.859 8.628.36 3.148-1.707 6.89-4.876 6.869-1.006-.025-1.988-.311-2.85-.829-.863-.518-1.575-1.252-2.069-2.129-.901-1.749-.827-3.996-1.06-5.946-1.378-11.957-3.36-23.935-4.462-35.924-.583-6.36-.393-12.72-.901-19.08M233.541 176.511c4.812 5.615 10.584 10.331 17.045 13.929 1.557.95 3.257 1.645 5.035 2.056 1.812.416 3.715.104 5.3-.869.693-.422 1.209-1.081 1.452-1.855.111-.385.101-.794-.028-1.173s-.371-.71-.693-.947c-.499-.25-1.053-.37-1.611-.35-9.54-.519-18.762-5.523-26.5-10.791" opacity=".3"/>
    <path fill="#1A1B41" d="M241.999 181.631c-.745-1.357-1.108-2.892-1.05-4.439.058-1.547.534-3.05 1.378-4.348-.402 1.429-.678 2.89-.826 4.367.037 1.485.203 2.964.498 4.42zM252.726 185.988c-.159 0 .329-2.12.265-4.791-.063-2.671-.636-4.717-.477-4.77 1.292 3.035 1.368 6.45.212 9.54v.021zM260.295 187.768c-.148-.063.499-1.674.615-3.763.117-2.088-.307-3.773-.148-3.816.623 1.181.868 2.524.699 3.848.013 1.336-.395 2.641-1.166 3.731zM234.707 177.349c-.378-.513-.649-1.096-.798-1.715-.15-.618-.174-1.261-.071-1.889.034-.92.34-1.809.879-2.555.093-.118.208-.216.339-.289.131-.073.276-.119.425-.135.212 0 .318.064.307.096-.011.031-.435 0-.763.572-.381.729-.598 1.532-.636 2.353-.021 1.195.086 2.389.318 3.562zM174.434 134.483c1.229-1.139 2.7-1.983 4.303-2.47 1.537-.667 3.202-.982 4.876-.922 0 .169-2.12.498-4.685 1.431-2.565.932-4.399 2.098-4.494 1.961z"/>
    <path fill="#FAFAFA" d="M290.441 235.119l-.891-.212-2.554-.626c-1.06-.286-2.459-.625-4.039-.975-1.579-.35-3.371-.795-5.374-1.187-3.986-.869-8.756-1.749-14.087-2.597-5.332-.848-11.205-1.569-17.406-2.12-6.201-.551-12.126-.816-17.511-.943-5.385-.128-10.25 0-14.331.095-2.035 0-3.88.17-5.491.244-1.611.074-3.01.169-4.155.254l-2.618.18h-.912s5.014-.551 13.176-.869c4.07-.18 8.936-.233 14.331-.148 5.396.085 11.321.392 17.533.922 6.211.53 12.084 1.314 17.415 2.12 5.332.806 10.102 1.76 14.088 2.639 8.024 1.802 12.826 3.223 12.826 3.223zM281.739 266.633s-.244 0-.721-.096l-2.035-.286c-.891-.148-1.983-.265-3.244-.413-1.261-.149-2.703-.308-4.293-.446-6.36-.604-15.232-.985-25.016-.954-9.784.032-18.624.446-25.016.87-3.18.201-5.788.402-7.568.551l-2.057.169h-.721l.711-.084 2.056-.212c1.781-.17 4.367-.403 7.568-.626 6.36-.456 15.243-.89 25.027-.933 9.784-.042 18.645.382 25.027 1.06 6.381.679 10.282 1.4 10.282 1.4zM294.459 273.014c-.197.016-.396.016-.593 0l-1.601-.096-5.3-.413-5.3-.477-1.59-.17-.583-.095c.198-.021.396-.021.594 0l1.59.106 5.3.413 5.3.477 1.59.17c.2.003.4.031.593.085zM299.281 308.736l-.858-.17c-.562-.106-1.378-.307-2.449-.466-3.024-.5-6.082-.773-9.148-.816-4.54-.041-9.08.157-13.599.593-5.11.446-10.717 1.06-16.632 1.378-10.108.541-20.242.318-30.316-.667-7.727-.785-12.455-1.665-12.455-1.665l.869.106 2.47.35c2.12.286 5.3.689 9.137 1.06 10.063.944 20.182 1.146 30.274.604 5.915-.296 11.522-.922 16.642-1.356 4.527-.433 9.074-.613 13.621-.541 3.068.052 6.126.347 9.148.88 1.06.169 1.887.381 2.448.509l.848.201zM296.8 209.552l-.943-.265-2.682-.795-9.869-2.937c-8.342-2.459-19.896-5.766-32.701-9.232-12.804-3.466-24.454-6.413-32.86-8.48l-9.995-2.449-2.725-.657-.943-.244.954.202 2.724.614 10.028 2.375c8.48 2.046 20.14 4.971 32.923 8.48 12.784 3.508 24.38 6.794 32.68 9.296l9.848 3 2.671.837c.54.138.89.255.89.255zM209.139 192.56l-.191.063-.54.159-2.004.53-6.646 1.728c-1.293.339-2.544.615-3.657.933-.984.261-1.913.695-2.745 1.282-.759.533-1.354 1.267-1.717 2.12.047-.253.137-.497.265-.72.333-.618.796-1.157 1.356-1.58.841-.613 1.786-1.069 2.788-1.346 1.113-.339 2.353-.625 3.657-.954l6.657-1.622 2.025-.466.551-.117.201-.01zM199.567 156.573h-.35l-.986.085c-.848 0-2.12.19-3.604.402-7.937 1.128-15.533 3.971-22.26 8.332-1.282.837-2.311 1.548-2.989 2.12l-.795.583c-.086.076-.182.141-.286.191 1.265-1.072 2.596-2.063 3.985-2.968 6.699-4.459 14.334-7.317 22.313-8.353 1.648-.231 3.308-.362 4.972-.392zM184.303 125.801c-.096-.04-.185-.093-.265-.159l-.742-.487c-.626-.446-1.58-1.06-2.767-1.739-3.112-1.798-6.453-3.167-9.932-4.07-3.487-.879-7.081-1.258-10.674-1.124-1.378 0-2.502.138-3.265.244l-.88.106h-.307c1.465-.283 2.95-.457 4.441-.519 3.612-.181 7.231.176 10.738 1.06 3.499.909 6.85 2.312 9.953 4.165 1.289.757 2.525 1.599 3.7 2.523zM188.013 94.213s-.063 0-.169-.148l-.456-.477c-.382-.414-.975-.986-1.738-1.665-1.976-1.769-4.179-3.266-6.551-4.452-2.378-1.178-4.902-2.037-7.505-2.554-.996-.191-1.813-.318-2.374-.371l-.658-.085h-.222.89c.804.061 1.604.167 2.396.318 2.628.471 5.177 1.314 7.568 2.502 2.389 1.197 4.598 2.724 6.562 4.536.599.542 1.165 1.12 1.696 1.728l.424.498c.106.106.148.17.137.17zM307.686 247.521c-.206.041-.415.066-.625.074-.403 0-.975.085-1.685.191-3.716.527-7.253 1.925-10.325 4.081-.583.413-1.06.763-1.357 1.06-.158.141-.328.269-.508.381.133-.166.286-.316.455-.445.421-.378.864-.732 1.325-1.06 1.521-1.113 3.178-2.028 4.929-2.724 1.752-.698 3.587-1.165 5.459-1.389.567-.071 1.136-.11 1.707-.116.206-.043.415-.061.625-.053zM331.112 271.223c-1.203-.451-2.355-1.031-3.434-1.728-1.18-.751-2.287-1.609-3.307-2.565-1.234-1.19-2.345-2.501-3.318-3.912-.952-1.424-1.752-2.945-2.385-4.537-.509-1.303-.892-2.652-1.145-4.028-.25-1.263-.36-2.55-.328-3.837.01.088.01.177 0 .265 0 .244 0 .488.053.763.053.276.053.742.127 1.209.058.527.142 1.05.254 1.569.275 1.361.672 2.695 1.187 3.985.641 1.573 1.437 3.079 2.375 4.495.964 1.395 2.061 2.694 3.275 3.879 1.008.952 2.097 1.814 3.254 2.576.44.302.896.578 1.368.827.339.213.693.4 1.06.562l.678.339c.212.085.297.127.286.138z"/>
    <path fill="#FFA62B" d="M478.505 181.376l.339 1.06c.074.252.21.48.395.665.185.185.414.321.665.395l1.06.34-1.06.381c-.223.075-.426.2-.593.365-.168.165-.295.367-.372.589l-.392 1.124-.435-1.177c-.081-.217-.209-.414-.376-.575-.167-.162-.368-.284-.588-.358l-1.06-.349 1.06-.35c.214-.074.41-.194.573-.351.163-.158.289-.349.37-.561l.414-1.198zM443.176 131.44l.349 1.06c.071.253.206.483.391.669.186.186.417.32.669.391l1.06.339-1.06.382c-.221.076-.423.202-.59.367-.167.165-.295.366-.374.587l-.392 1.123-.424-1.166c-.082-.22-.212-.419-.381-.582-.168-.164-.372-.287-.594-.361l-1.06-.35 1.06-.35c.214-.071.409-.188.572-.344.163-.156.29-.346.371-.557l.403-1.208zM322.802 347.68l.339 1.06c.07.253.205.484.391.669.185.186.416.321.669.391l1.06.339-1.06.382c-.222.077-.424.202-.591.367-.167.165-.295.366-.374.587l-.381 1.124-.435-1.166c-.082-.221-.212-.42-.38-.583-.169-.163-.372-.287-.595-.361l-1.06-.35 1.06-.349c.216-.073.413-.193.578-.35.165-.158.293-.35.376-.562l.403-1.198zM443.176 312.795l.349 1.06c.071.253.206.484.391.67.186.185.417.32.669.39l1.06.34-1.06.381c-.221.077-.423.202-.59.368-.167.165-.295.365-.374.586l-.392 1.124-.424-1.166c-.082-.22-.212-.42-.381-.583-.168-.163-.372-.286-.594-.361l-1.06-.349 1.06-.35c.214-.071.409-.189.572-.345.163-.156.29-.346.371-.556l.403-1.209zM468.52 138.362l1.4 4.484c.297.993.833 1.899 1.561 2.638.728.739 1.626 1.289 2.615 1.602l4.505 1.399-4.526 1.547c-.917.311-1.75.827-2.437 1.508-.687.682-1.21 1.511-1.528 2.425l-1.59 4.6-1.823-4.865c-.331-.897-.861-1.708-1.549-2.373-.688-.664-1.517-1.165-2.426-1.464l-4.335-1.463 4.24-1.442c.879-.299 1.682-.787 2.352-1.43.67-.643 1.191-1.424 1.527-2.29l2.014-4.876zM364.917 396.663l1.388 4.494c.306.985.847 1.881 1.577 2.611.729.729 1.625 1.27 2.61 1.576l4.495 1.399-4.516 1.537c-.918.312-1.752.829-2.439 1.513-.687.683-1.209 1.515-1.525 2.43l-1.59 4.601-1.781-4.802c-.329-.898-.856-1.711-1.543-2.377-.686-.666-1.514-1.169-2.422-1.471l-4.335-1.431 4.24-1.441c.881-.298 1.686-.786 2.358-1.429.672-.643 1.195-1.425 1.532-2.292l1.951-4.918zM346.375 179.596l.572 1.855c.128.405.352.774.653 1.075.301.3.669.524 1.075.653l1.855.572-1.866.636c-.377.131-.72.346-1.003.629-.283.283-.498.626-.629 1.003l-.657 1.898-.732-1.982c-.138-.371-.357-.706-.642-.981-.284-.275-.626-.483-1.001-.609l-1.791-.594 1.77-.594c.363-.124.693-.326.97-.592.276-.265.492-.588.631-.945l.795-2.024zM395.243 387.409l.572 1.855c.127.405.351.772.652 1.071.301.3.67.521 1.076.646l1.855.583-1.898.636c-.378.13-.722.344-1.005.627-.283.283-.497.627-.627 1.005l-.657 1.898-.732-1.993c-.138-.369-.358-.703-.642-.976-.284-.274-.626-.48-1.001-.604l-1.791-.593 1.77-.594c.362-.124.693-.326.97-.592.276-.265.491-.588.631-.945l.827-2.024z"/>
    <path fill="#FAD207" d="M445.993 227.388c-.066-.037-.101.017-.144.047-.032-.507-.109-1.019.144-1.499v1.452zM445.828 227.986c.044.306.085.611-.171.854v-.598c-.006-.12.037-.22.171-.256zM445.64 229.182c.042.276.026.539-.171.76-.007-.265-.09-.55.171-.76zM445.27 231.061c.057.249-.033.453-.199.632-.003-.235-.115-.503.199-.632zM445.453 230.292c.02.171.029.331-.157.423-.073-.192-.022-.331.157-.423zM445.053 231.915c.06.17.015.289-.155.356-.016-.145-.045-.299.155-.356z"/>
    <path fill="#FED843" d="M445.993 216.029c-.311-.88-.926-1.616-1.817-1.955-4.932-.473-10.004-.024-14.983-.17-.443-.028-.854.149-.751-.459-.007-1.938.476-4.283-1.784-5.145-.106-.042-.182-.081-.139-.211h-59.701c-.019.115-.103.154-.203.191-.879.331-1.498.906-1.802 1.823-.095.28-.143.574-.142.869.006.655.021 1.31.027 1.965.001.227.037.454.105.671.052.171-.026.278-.209.289-.141.007-.284.007-.427.007-4.639 0-9.279.012-13.921-.01-.827-.021-1.633.265-2.261.802-.336.284-.555.67-.729 1.075-.058.134-.127.181-.256.091v10.246c.065.029.121.077.158.138.038.061.057.132.055.203 0 .1.018.2.012.299-.046.83.132 1.64.257 2.448.071.466.143.949.31 1.408.109.298.127.63.209.946.171.642.356 1.275.565 1.906.19.574.401 1.14.609 1.708.297.807.677 1.574 1.05 2.344.5 1.023 1.066 2.011 1.696 2.959.379.574.769 1.143 1.196 1.688.537.683 1.081 1.366 1.666 2.015.887.987 1.836 1.917 2.839 2.786 1.25 1.073 2.584 2.044 3.99 2.903 1.149.705 2.343 1.334 3.573 1.885.804.372 1.628.698 2.468.977.736.233 1.472.475 2.225.663.725.183 1.452.356 2.184.502.546.108 1.103.229 1.674.256.705.03 1.401.214 2.115.179.19-.009.264.16.358.269.221.257.415.535.616.807 1.129 1.518 2.439 2.872 3.815 4.166.948.88 1.961 1.688 3.03 2.417 1.068.729 2.191 1.373 3.359 1.928.19.092.385.171.578.261.193.091.234.212.199.375-.156.729-.074 1.479-.186 2.206-.127.824-.189 1.66-.379 2.471-.113.482-.178.972-.295 1.452-.092.378-.212.759-.248 1.156-.028.294-.136.581-.225.855-.171.535-.317 1.079-.477 1.616-.202.676-.452 1.333-.671 2.001-.19.586-.473 1.141-.687 1.72-.293.793-.67 1.549-1.025 2.314-.378.817-.801 1.61-1.24 2.392-.831 1.485-1.744 2.923-2.734 4.307-.812 1.151-1.7 2.247-2.658 3.28-.193.206-.38.427-.389.733.156.007.313.019.468.019h19.053c.142 0 .284-.009.427-.014 6.673.009 13.4.153 20.061-.051-.208-.611-.722-.99-1.13-1.445-.848-.966-1.639-1.98-2.37-3.038-3.28-4.758-5.686-10.134-6.909-15.774-.379-2.05-.801-4.111-.786-6.21.008-.179.036-.286.237-.383 1.087-.508 2.142-1.08 3.16-1.713 3.049-1.991 5.713-4.516 7.864-7.454.363-.518.759-.769 1.397-.692.512.127.99-.181 1.509-.171.353.018.707-.04 1.036-.17 3.637-.472 7.151-1.946 10.344-3.716 0-.246.71-.546.939-.584.218-.4.769-.63 1.191-.79.053-.291.256-.358.521-.383.002-.026.01-.053.023-.076.013-.024.03-.045.052-.061.021-.017.045-.029.071-.035.027-.007.054-.008.08-.004l.021-.012c.041-.304.277-.362.524-.396.016-.106.069-.171.186-.171.298-.297.503-.732 1.005-.801.238-.399.586-.721 1.003-.927.164-.366.402-.633.786-.776.001-.048.012-.096.031-.14.02-.044.048-.083.084-.116.42-.373.758-.882 1.226-1.179.48-.489.881-1.044 1.301-1.583 1.136-1.472 2.115-3.059 2.921-4.734.032-.184-.014-.387.224-.427.064-.282.075-.598.361-.768.058-.199-.092-.464.207-.521.012-.057.025-.115.039-.17-.085-.171.035-.214.161-.251l.021-.17c-.091-.182 0-.275.163-.338.041-.156-.047-.381.171-.423.078-.221-.127-.521.207-.609l.028-.176c-.086-.201-.049-.347.176-.416.018-.261-.074-.513.19-.677.065-.21-.104-.512.177-.598.09-.304-.171-.679.221-.859.077-.273-.141-.619.184-.769.076-.377-.155-.808.187-1.11.099-.366-.182-.982.187-1.196.247-3.946.162-7.968.171-11.96zm-75.318 31.625c-.278-.081-.564-.171-.841-.256-.256-.081-.505-.179-.755-.271-.84-.316-1.663-.675-2.465-1.076-1.997-.984-3.85-2.236-5.509-3.72-.812-.717-1.574-1.489-2.28-2.311-1.104-1.279-2.074-2.668-2.892-4.146-.441-.803-.844-1.623-1.21-2.459-.171-.398-.334-.803-.476-1.215-.2-.583-.391-1.172-.558-1.766-.072-.256-.138-.522-.186-.782-.085-.472-.198-.939-.289-1.412-.126-.64-.082-1.299-.277-1.926-.022-.097-.031-.196-.027-.296-.071-1.992-.027-3.983-.035-5.979 0-.322.013-.332.342-.333h11.486c.321.011.312.012.342.342.085.877.158 1.757.265 2.629.063.507.046 1.03.171 1.517.156.624.053 1.281.284 1.883.01.027.015.056.013.085-.021.69.175 1.353.291 2.02.085.512.125 1.033.275 1.541.118.399.123.835.225 1.25.138.563.25 1.132.362 1.699.079.401.227.786.256 1.196.021.309.136.611.226.905.177.578.309 1.169.471 1.75.163.58.331 1.166.486 1.752.177.665.417 1.311.633 1.965.159.479.309.961.492 1.431.297.759.569 1.527.881 2.282.341.83.711 1.649 1.064 2.476.22.513.529.984.729 1.551-.568.023-1.024-.188-1.494-.326zm23.21-24.72c-.347.647-.66 1.311-.987 1.964.311-.641.611-1.347.987-1.964zm-6.245 5.053c.026-.005.053-.005.079 0 .279-.043.558-.079.837-.109.291-.062.584-.12.887-.077-.294.021-.59.046-.887.077-.271.073-.551.109-.832.109h-.005l-.154.024.075-.024zm-3.615 3.596c-.087-.347-.083-.71.011-1.055l.029-.096c-.125.563-.074 1.151.146 1.684-.078-.17-.14-.348-.186-.53v-.003zm.609-2.315c.256-.381.617-.629 1.005-.813.314-.135.647-.223.987-.263-.335.075-.665.162-.987.263-.387.2-.729.476-1.005.813zm1.786 5.359l.769.768c.15.149.296.303.443.456.224.22.45.437.683.649.164.117.234.223.257.327.018.065.021.133.009.199-.012.067-.039.13-.079.184-.04.11-.064.225-.069.342-.014-.108.004-.218.054-.315l.015-.024c.046-.138.093-.256.07-.384-.053-.131-.142-.244-.257-.327-.24-.202-.468-.419-.683-.649-.411-.404-.81-.816-1.212-1.226zm1.971 3.566c-.012.057-.031.112-.056.164.024-.052.043-.107.056-.164zm-.135.58c-.011.168-.036.335-.076.498-.015.114-.032.225-.051.333-.037.271-.085.538-.143.804.053-.266.1-.534.143-.804l.017-.128c.008-.067.021-.136.034-.205.028-.18.053-.36.075-.538 0-.103-.011-.217.035-.293.016-.026.03-.053.043-.08-.012.027-.027.054-.042.08l-.035.293v.04zm-.416 2.323c-.008.14-.027.278-.056.415.012-.139.031-.278.057-.415h-.001zm-.176 1.595c-.045-.205-.042-.416.006-.62-.039.205-.04.415-.005.62h-.001zm.035-.724c-.011.032-.02.065-.028.1.03-.186.076-.37.113-.556-.013.155-.041.307-.084.456h-.001zm.054.998c.097.215.146.446.227.672-.1-.215-.175-.44-.225-.672h-.002zm.289.828c-.023-.051-.043-.102-.061-.154.169.37.412.701.713.975-.282-.216-.505-.498-.65-.821h-.002zm1.367 1.274c-.26-.109-.5-.261-.709-.449.213.162.439.307.676.432l.033.017c.159.068.326.118.498.148-.173-.02-.341-.07-.498-.146v-.002zm.484-17.411c.202-.015.405-.02.607-.014.105-.008.208-.033.304-.075.104-.075.232-.107.359-.09.16-.016.305-.015.427-.078-.125.079-.275.107-.42.079h-.008c-.124.009-.245.039-.359.089-.085.054-.184.08-.284.076h-.02c-.194.018-.404-.004-.605.013h-.001zm.381 17.595c.374.03.751.001 1.116-.086-.363.098-.741.127-1.115.087l-.001-.001zm2.545-.699c.448-.256.888-.525 1.362-.738-.459.216-.908.486-1.361.742l-.001-.004zm2.312-22.946c.431-.249.922-.372 1.42-.355-.492.025-.974.145-1.42.355zm1.409-1.038v-1.384c0 .689.003 1.377.01 2.066-.002-.228-.01-.455-.01-.682zm43.716 4.076c0 .529-.092 1.044-.151 1.565-.065.562-.086 1.124-.188 1.688-.085.496-.181 1-.275 1.495-.066.37-.155.737-.266 1.096-.107.332-.229.663-.307 1.008-.107.418-.246.827-.417 1.223-.219.544-.458 1.082-.701 1.615-.304.676-.646 1.334-1.025 1.971-.392.656-.804 1.302-1.259 1.918-.716.985-1.497 1.921-2.337 2.802-.965.994-2.01 1.908-3.124 2.733-.922.678-1.886 1.296-2.886 1.851-.738.416-1.5.787-2.283 1.111-.598.249-1.218.482-1.848.677-.534.165-1.086.274-1.605.489-.052.023-.107.038-.164.045-.096.008-.208.046-.275-.054-.025-.044-.037-.094-.035-.145.003-.05.019-.099.047-.141.235-.415.414-.854.612-1.289.238-.518.467-1.042.701-1.562.256-.572.45-1.168.71-1.74.179-.393.295-.814.442-1.22.176-.486.363-.967.53-1.452.081-.222.149-.449.202-.679.073-.301.169-.597.286-.883.111-.302.18-.621.279-.923.099-.302.234-.598.25-.929.014-.287.157-.544.244-.806.121-.362.178-.738.275-1.101.098-.363.221-.721.265-1.104.051-.407.144-.807.275-1.196.057-.177.078-.356.122-.531.119-.462.132-.946.302-1.396.014-.027.022-.056.025-.086-.019-.504.202-.969.243-1.463.018-.213.026-.427.127-.622.068-.132.054-.277.061-.419.013-.268-.008-.539.141-.787.033-.079.046-.164.04-.25.02-.382.108-.761.14-1.133.06-.724.283-1.423.272-2.152-.007-.271.035-.541.123-.797.086-.231.047-.48.058-.72.016-.383.026-.758.13-1.138.086-.321.051-.678.058-1.019.013-.491.01-.494.487-.494h11.274c.427 0 .432 0 .432.412-.005 1.514-.016 3.024-.006 4.532h-.001z"/>
    <path fill="#FABE2D" d="M387.185 235.394l-.769-.768c.401.41.801.822 1.209 1.224-.14-.152-.29-.307-.44-.456zm.486 6.672c.008-.034.018-.068.028-.1.043-.149.072-.301.085-.455-.036.185-.083.369-.113.555zm.047-14.08h.005c.281 0 .56-.036.832-.109-.279.032-.558.068-.837.109zm.036 14.976c.05.232.126.458.226.673-.08-.225-.13-.456-.226-.671v-.002zm.232-2.557c.055-.265.107-.533.143-.803-.042.27-.09.539-.143.805v-.002zm.268-1.673c-.022.179-.047.358-.074.538.039-.163.065-.33.075-.498l-.001-.04zm.035-.295c.016-.025.03-.052.043-.08-.013.028-.027.055-.042.08h-.001zm.044-.081c.024-.052.043-.107.056-.164-.013.057-.032.112-.056.164zm.23-1.53c.024.124-.024.246-.069.383.04-.054.067-.117.079-.183.012-.067.009-.135-.009-.2h-.001zm.812 8.223c-.237-.125-.464-.27-.677-.432.21.188.449.34.709.449l-.032-.017zm1.124-17.405h.02c.1.005.2-.022.285-.075-.097.042-.2.068-.305.075zm-.226 17.61c.374.041.753.012 1.116-.085-.365.085-.742.113-1.116.082v.003zm.889-17.781h.008c.145.029.295.001.42-.078-.123.066-.268.065-.428.078zm1.735-2.575c.326-.657.64-1.32.986-1.964-.375.617-.675 1.322-.986 1.967v-.003zm-.079 19.657c.454-.25.901-.522 1.363-.738-.474.21-.915.482-1.363.738zm2.312-22.95c.445-.21.927-.33 1.419-.355-.497-.017-.989.106-1.419.355z"/>
    <path fill="#474F54" d="M417.248 301.28h2.562c.992-.005 1.767.427 2.334 1.212.358.487.547 1.078.539 1.683-.004 1.016-.412 1.794-1.206 2.392-.205.154-.412.329-.692.35-.05.007-.098.025-.14.053-.042.027-.078.063-.105.106h-47.915c-.001-.036-.013-.07-.035-.097-.023-.027-.054-.046-.088-.053-.953-.287-1.561-.904-1.879-1.852-.114-.319-.164-.656-.15-.993.052-1.041.541-1.844 1.427-2.374.482-.298 1.042-.447 1.609-.427.768.028 1.537.006 2.306.006.156.012.313.002.466-.031.156.005.313.014.469.014h19.201"/>
    <path fill="#646D73" d="M417.211 300.328c.003.134-.022.267-.071.392-.05.124-.124.237-.218.333-.094.095-.206.171-.329.223-.124.051-.257.078-.391.077-26.637-.091-38.586-.085-38.938 0-.029.007-.318 0-.683-.009-.166 0-.298-.069-.298-.15-.007-1.301-.018-2.601-.019-3.901 0-1.737.004-3.473 0-5.21 0-.364.124-.706.586-.996.078-.042.167-.061.256-.056.307.008.459-.05.815.017.357.066 11.958.085 38.118.04.264-.001.517.102.705.286.189.184.297.435.303.698l.164 8.256z"/>
    <path fill="#FAD207" d="M438.702 243.787c-.378.543-.801 1.046-1.341 1.438.001-.048.012-.095.032-.139.019-.044.047-.084.083-.117.371-.376.74-.755 1.11-1.131.035-.024.075-.041.116-.051zM436.572 245.998c-.256.394-.643.645-1.002.928.239-.399.586-.721 1.002-.928zM432.961 248.895c-.017.038-.024.092-.053.113-.325.231-.635.489-1.01.643.005-.035.016-.069.033-.099.017-.031.04-.058.068-.08.306-.219.61-.437.962-.577zM435.493 246.951c-.224.312-.519.567-.86.742.212-.334.442-.646.86-.742zM437.35 245.232c-.18.317-.443.577-.762.752.063-.174.164-.332.296-.462.132-.13.291-.229.466-.29zM431.784 249.67c-.023.05-.036.132-.073.146-.276.098-.471.342-.756.419.006-.071.015-.15.085-.182.256-.117.466-.316.744-.383zM443.508 236.271c-.106.223-.098.505-.342.657.058-.248.087-.511.342-.657zM434.329 247.906c-.046.095-.112.179-.194.245s-.177.114-.28.139c.044-.268.228-.365.474-.384zM444.872 232.517c.059.208-.025.367-.175.501-.07-.213.015-.371.175-.501zM433.541 248.495c-.077.214-.272.281-.453.366.055-.24.199-.371.453-.366zM444.68 233.196c.044.182-.056.304-.176.417-.09-.205-.051-.351.176-.417zM444.479 233.786c.063.201-.098.309-.186.448 0-.175-.082-.384.186-.448zM443.713 235.751c.056.182-.08.267-.185.367-.019-.162-.036-.325.185-.367zM444.098 234.818c.017.067.01.137-.02.199s-.08.111-.143.139c-.091-.183.008-.276.163-.338zM442.918 237.467c.066.165-.065.205-.171.264-.006-.13.022-.236.171-.264zM443.912 235.332c.023.133-.019.223-.161.25-.085-.175.035-.216.161-.25zM443.146 237.039c.034.171-.076.242-.201.305-.01-.033-.012-.068-.007-.103.006-.034.018-.067.038-.096.019-.028.044-.053.073-.071.03-.019.063-.03.097-.035zM444.271 234.392c.072.159-.072.188-.153.256-.011-.119.008-.224.153-.256zM433.834 248.302c-.073.064-.111.171-.227.176.003-.026.01-.053.023-.076.013-.024.031-.045.052-.061.021-.017.046-.029.072-.035.026-.007.053-.008.08-.004zM434.566 247.727c-.067.049-.085.155-.185.171.016-.11.069-.176.185-.171z"/>
    <path fill="#EA830B" d="M445.988 215.941c-.311-.881-.926-1.616-1.817-1.955-4.931-.474-10.004-.024-14.982-.171-.444-.028-.854.149-.752-.459-.007-1.938.477-4.282-1.784-5.145-.106-.042-.182-.081-.139-.211h-3.928c.826 7.071.274 14.235-1.623 21.096-2.178 7.865-5.682 13.18-9.224 18.62-3.823 5.864-8.261 11.303-13.239 16.225.308 2.192.765 4.361 1.367 6.491 1.525 5.403 4.14 14.664 11.872 18.79 1.501.797 3.113 1.367 4.782 1.691h.074c-.208-.61-.723-.989-1.131-1.444-.847-.967-1.637-1.982-2.367-3.04-3.281-4.758-5.687-10.134-6.91-15.774-.378-2.05-.8-4.111-.786-6.21.008-.179.036-.285.238-.383 1.086-.508 2.141-1.08 3.16-1.713 3.048-1.991 5.712-4.516 7.863-7.454.363-.517.76-.769 1.397-.692.512.128.991-.181 1.509-.17.354.017.707-.041 1.036-.171 3.638-.472 7.151-1.946 10.344-3.716 0-.246.711-.546.94-.584.217-.4.768-.63 1.19-.79.053-.291.256-.358.521-.382.002-.027.01-.053.023-.077s.03-.045.052-.061c.021-.017.046-.029.072-.035.026-.007.053-.008.08-.003l.02-.013c.041-.303.277-.362.524-.396.017-.106.07-.171.186-.171.298-.297.504-.732 1.005-.801.239-.399.587-.72 1.003-.927.164-.366.402-.633.786-.776.001-.048.012-.095.032-.139.019-.044.048-.084.083-.117.42-.373.758-.882 1.226-1.179.48-.489.881-1.044 1.301-1.583 1.136-1.472 2.115-3.058 2.921-4.734.032-.184-.013-.387.224-.427.064-.281.075-.597.361-.768.058-.198-.092-.464.207-.52l.039-.171c-.085-.171.035-.214.162-.25l.02-.171c-.09-.182 0-.275.163-.338.041-.156-.047-.381.171-.422.078-.222-.126-.521.208-.609l.027-.176c-.085-.202-.049-.348.176-.417.018-.261-.074-.513.19-.677.065-.21-.104-.512.177-.598.091-.304-.171-.679.221-.859.077-.273-.141-.619.184-.768.076-.378-.155-.808.187-1.111.099-.366-.182-.982.187-1.195.247-3.947.162-7.968.171-11.96zm-5.735 8.614c0 .53-.092 1.045-.152 1.566-.064.562-.085 1.124-.187 1.687-.085.496-.181 1-.275 1.495-.066.371-.155.737-.266 1.097-.107.331-.229.662-.308 1.007-.106.418-.245.827-.416 1.224-.219.544-.458 1.081-.701 1.615-.304.675-.646 1.333-1.025 1.97-.392.656-.804 1.302-1.259 1.918-.716.985-1.497 1.921-2.337 2.802-.965.994-2.01 1.908-3.124 2.733-.922.678-1.886 1.296-2.887 1.852-.737.415-1.5.786-2.282 1.11-.598.249-1.218.482-1.848.677-.534.165-1.086.274-1.605.49-.052.022-.107.037-.164.044-.096.009-.208.046-.275-.054-.025-.044-.037-.094-.035-.145.002-.05.019-.099.047-.141.235-.415.414-.854.612-1.289.238-.518.467-1.042.701-1.562.256-.572.45-1.168.71-1.74.179-.393.295-.814.442-1.22.176-.486.363-.967.53-1.452.081-.222.149-.449.202-.679.073-.301.168-.596.284-.883.111-.302.18-.62.279-.923.099-.302.234-.598.25-.929.014-.287.157-.544.244-.805.122-.363.178-.739.275-1.102.098-.363.222-.721.265-1.104.052-.406.144-.807.275-1.195.057-.178.078-.357.122-.532.119-.462.133-.946.302-1.396.014-.027.023-.056.025-.086-.018-.504.202-.969.243-1.463.018-.213.027-.427.127-.622.068-.132.054-.277.061-.419.013-.268-.008-.539.142-.786.032-.08.045-.165.039-.251.021-.381.108-.761.14-1.133.061-.723.283-1.423.273-2.152-.008-.271.034-.541.123-.797.085-.231.046-.479.057-.72.016-.383.026-.758.13-1.138.086-.321.051-.678.059-1.019.012-.491.009-.494.486-.494h11.274c.428 0 .433 0 .433.412-.005 1.514-.017 3.024-.006 4.532z" opacity=".2"/>
    <path fill="#FABE2C" d="M396.945 221.704l3.309 6.758c.134.275.396.466.7.509l7.434 1.069c.761.109 1.066 1.044.515 1.58l-5.392 5.251c-.219.213-.319.52-.267.821l1.285 7.425c.131.758-.666 1.336-1.346.976l-6.636-3.516c-.271-.144-.596-.144-.867 0l-6.636 3.516c-.68.361-1.477-.218-1.346-.976l1.285-7.425c.052-.301-.048-.608-.267-.821l-5.392-5.251c-.551-.536-.246-1.471.515-1.58l7.434-1.069c.303-.043.566-.234.7-.509l3.309-6.758c.338-.692 1.325-.692 1.663 0z"/>
</svg>
