<svg width="128" height="133" xmlns="http://www.w3.org/2000/svg" fill="none">
 <defs>
  <clipPath id="clip0">
   <path id="svg_1" transform="rotate(5.943 -1.918 141.829)" d="m0,0l105.803,0l0,111.372l-105.803,0l0,-111.372z" fill="#fff"/>
  </clipPath>
  <filter id="svg_2_blur">
   <feGaussianBlur stdDeviation="0" in="SourceGraphic"/>
  </filter>
 </defs>
 <g>
  <title>Layer 1</title>
  <g transform="rotate(-26.6163 61.1859 62.0069)" filter="url(#svg_2_blur)" id="svg_2" clip-path="url(#clip0)">
   <path id="svg_3" d="m78.054,9.524c-0.05,-0.443 -0.104,-0.929 0.137,-1.31c0.439,-0.696 1.466,-0.552 2.242,-0.319l2.415,0.724c1.234,0.369 2.734,1.126 2.586,2.424c-0.084,0.728 -0.688,1.263 -1.16,1.825c-1.13,1.353 -1.594,3.128 -2.128,4.81c-1.67,5.256 -4.337,10.2 -7.81,14.477c-0.464,0.571 -3.117,-1.525 -3.398,-1.934c5.666,-4.967 7.95,-13.381 7.116,-20.697z" fill="#54422E"/>
   <path id="svg_4" d="m80.83,109.333c-7.618,5.358 -17.505,7.395 -27.774,6.908c-3.425,-0.156 -6.897,-0.603 -10.338,-1.295c-4.299,-0.866 -8.75,0.84 -11.421,-0.663c-3.053,-1.719 -2.907,-5.567 -6.085,-8.401c-5.503,-4.908 -13.583,-15.696 -16.006,-22.723c-3.05,-8.86 -2.055,-17.89 1.704,-25.679c6.064,-12.6 19.331,-21.95 34.313,-22.075c9.382,-0.072 18.358,3.342 26.07,8.274c10.905,6.966 20.33,13.475 23.004,26.22c2.683,12.737 -2.407,31.659 -13.467,39.434z" fill="#B94D27"/>
   <path id="svg_5" d="m109.783,75.264c-1.793,3.137 -3.942,6.082 -6.255,8.644c-0.194,0.217 -0.396,0.437 -0.597,0.643c-0.151,0.16 -0.298,0.318 -0.451,0.47c-0.889,0.933 -1.799,1.8 -2.723,2.597c-0.215,0.192 -0.436,0.382 -0.66,0.564c-2.512,2.077 -5.715,3.909 -8.832,3.109c-2.281,-0.59 -7.388,-6.735 -19.886,-14.956c-0.383,-0.253 -0.775,-0.505 -1.177,-0.76c-0.98,-0.633 -2.006,-1.277 -3.076,-1.935c-0.524,-0.314 -1.06,-0.642 -1.608,-0.96c-2.078,-1.237 -4.319,-2.503 -6.729,-3.787c-0.598,-0.324 -1.215,-0.647 -1.837,-0.973c-0.544,-0.281 -1.077,-0.558 -1.607,-0.824c-21.775,-10.976 -32.945,-10.042 -37.1,-13.037c-6.469,-4.662 -5.25,-8.731 -2.849,-17.13c0.298,-1.04 0.61,-2.15 0.933,-3.328c0.058,-0.226 0.127,-0.451 0.196,-0.676c0.59,-2.013 1.388,-3.97 2.367,-5.835c1.873,-3.585 4.401,-6.832 7.387,-9.513c0.429,-0.388 0.87,-0.767 1.315,-1.131c2.587,-2.083 5.464,-3.743 8.521,-4.842c0.474,-0.177 0.948,-0.334 1.44,-0.475c2.542,-0.76 5.202,-1.126 7.898,-1.024c1.195,0.044 2.369,0.163 3.51,0.349l0.002,-0.005c0.432,0.071 0.86,0.145 1.29,0.233c10.42,2.099 18.486,9.201 22.585,12.911c0.66,0.6 1.22,1.112 1.665,1.497c0.452,0.39 0.794,0.657 1.016,0.758c9.356,4.343 32.191,2.425 39.605,26.43c0.24,0.781 0.43,1.578 0.565,2.393c0.065,0.399 0.119,0.81 0.162,1.223c0.13,1.268 0.148,2.562 0.054,3.877c-0.162,2.46 -0.695,4.975 -1.512,7.471c-0.079,0.251 -0.164,0.498 -0.254,0.748c-0.609,1.736 -1.354,3.465 -2.207,5.15c-0.366,0.714 -0.746,1.43 -1.151,2.124z" fill="#6D422E"/>
   <path id="svg_6" opacity="0.7" d="m114.857,55.898c-2.049,0.496 -4.005,0.429 -5.028,-0.134c-1.655,-0.901 -3.693,-3.727 -3.493,-7.99c-2.937,1.792 -6.811,2.123 -8.412,1.246c-1.612,-0.878 -3.59,-3.587 -3.502,-7.673c-2.962,1.931 -7.02,2.302 -8.66,1.402c-1.706,-0.928 -3.812,-3.904 -3.466,-8.385c-2.847,1.503 -6.348,1.739 -7.847,0.918c-1.612,-0.878 -3.585,-3.584 -3.502,-7.673c-2.957,1.934 -7.014,2.302 -8.661,1.402c-1.655,-0.901 -3.693,-3.727 -3.493,-7.99c-2.934,1.795 -6.81,2.123 -8.412,1.246c-1.611,-0.878 -3.59,-3.587 -3.501,-7.673c-2.962,1.931 -7.02,2.301 -8.662,1.402c-1.13,-0.617 -2.444,-2.134 -3.099,-4.388c0.474,-0.178 0.948,-0.334 1.44,-0.475c0.085,1.987 0.732,3.432 2.047,4.148c2.602,1.421 7.118,-1.341 8.89,-4.379c0.118,-0.198 0.28,-0.347 0.473,-0.442l0.003,-0.005c0.316,-0.154 0.694,-0.157 1.018,0.018c0.013,0.007 0.026,0.008 0.033,0.02c0.091,0.052 0.175,0.117 0.24,0.195c0.25,0.264 0.353,0.643 0.273,1.003c-0.005,0.04 -0.009,0.082 -0.021,0.123c-1.307,4.84 -1.09,8.456 1.257,9.738c2.607,1.425 7.12,-1.338 8.896,-4.378c0.306,-0.528 0.968,-0.716 1.493,-0.431l0.033,0.019c0.522,0.31 0.7,0.996 0.386,1.535c-0.048,0.078 -0.106,0.144 -0.154,0.222l-0.004,0.04c-1.307,4.839 -1.094,8.451 1.257,9.737c2.602,1.422 7.12,-1.338 8.89,-4.378c0.073,-0.126 0.167,-0.234 0.28,-0.316c0,0 1.279,1.217 1.665,1.498c-1.223,4.701 -0.978,8.21 1.327,9.47c2.607,1.425 7.124,-1.343 8.897,-4.38c0.306,-0.524 0.965,-0.711 1.49,-0.43l0.033,0.02c0.528,0.308 0.7,0.996 0.386,1.535c-0.22,0.374 -0.487,0.718 -0.767,1.044c-1.288,4.807 -1.073,8.403 1.271,9.678c2.602,1.421 7.118,-1.341 8.891,-4.379c0.307,-0.528 0.969,-0.716 1.49,-0.43c0.013,0.008 0.027,0.009 0.033,0.02c0.425,0.245 0.614,0.74 0.513,1.199c-0.004,0.04 -0.009,0.082 -0.02,0.123c-1.308,4.84 -1.09,8.456 1.256,9.738c2.602,1.422 7.12,-1.338 8.896,-4.378c0.307,-0.529 0.969,-0.716 1.494,-0.432l0.032,0.02c0.522,0.31 0.7,0.996 0.387,1.535c-0.048,0.078 -0.106,0.144 -0.154,0.221l-0.005,0.04c-1.307,4.84 -1.094,8.452 1.257,9.738c1.226,0.672 2.889,0.413 4.476,-0.372c0.063,0.396 0.117,0.807 0.16,1.218z" fill="#4C2B18"/>
   <path id="svg_7" opacity="0.7" d="m113.143,67.996c-0.429,-0.077 -0.802,-0.199 -1.098,-0.36c-1.612,-0.878 -3.59,-3.588 -3.507,-7.677c-2.957,1.935 -7.015,2.305 -8.661,1.402c-1.655,-0.9 -3.693,-3.726 -3.493,-7.99c-2.934,1.795 -6.81,2.123 -8.412,1.247c-1.609,-0.875 -3.584,-3.585 -3.501,-7.674c-2.957,1.935 -7.015,2.305 -8.665,1.407c-1.702,-0.932 -3.807,-3.91 -3.462,-8.39c-2.845,1.506 -6.342,1.74 -7.842,0.922c-1.612,-0.878 -3.59,-3.588 -3.502,-7.674c-2.961,1.931 -7.02,2.302 -8.666,1.4c-1.655,-0.902 -3.693,-3.728 -3.492,-7.991c-2.935,1.795 -6.811,2.123 -8.412,1.246c-1.61,-0.875 -3.585,-3.584 -3.502,-7.673c-2.957,1.934 -7.014,2.302 -8.664,1.407c-1.064,-0.58 -2.291,-1.965 -2.977,-4.02c0.428,-0.388 0.87,-0.767 1.315,-1.131c0.035,2.128 0.677,3.68 2.053,4.428c2.607,1.425 7.12,-1.338 8.896,-4.378c0.307,-0.528 0.969,-0.716 1.49,-0.43l0.033,0.02c0.425,0.245 0.614,0.74 0.513,1.199c-0.01,0.039 -0.009,0.082 -0.021,0.123c-1.307,4.84 -1.097,8.457 1.257,9.738c2.602,1.422 7.118,-1.34 8.89,-4.378c0.307,-0.529 0.97,-0.716 1.494,-0.432l0.033,0.02c0.524,0.313 0.7,0.996 0.386,1.534c-0.045,0.081 -0.1,0.147 -0.149,0.225c-0.001,0.01 -0.003,0.03 -0.01,0.04c-1.306,4.839 -1.092,8.46 1.258,9.737c2.607,1.425 7.12,-1.338 8.896,-4.378c0.306,-0.528 0.968,-0.716 1.493,-0.431l0.033,0.019c0.421,0.25 0.61,0.744 0.512,1.204c-0.01,0.039 -0.009,0.082 -0.02,0.123c-1.308,4.84 -1.095,8.452 1.256,9.738c2.602,1.422 7.118,-1.341 8.894,-4.383c0.306,-0.524 0.97,-0.708 1.49,-0.43l0.033,0.02c0.528,0.308 0.7,0.996 0.387,1.535c-0.216,0.375 -0.482,0.718 -0.768,1.044c-1.287,4.807 -1.068,8.407 1.272,9.678c2.602,1.421 7.12,-1.338 8.895,-4.378c0.307,-0.529 0.97,-0.716 1.491,-0.43l0.033,0.02c0.424,0.244 0.614,0.739 0.507,1.195c-0.004,0.04 -0.003,0.085 -0.015,0.127c-1.313,4.836 -1.098,8.457 1.252,9.734c2.607,1.425 7.12,-1.338 8.895,-4.378c0.307,-0.528 0.97,-0.716 1.494,-0.431l0.033,0.019c0.524,0.314 0.7,0.996 0.386,1.535c-0.046,0.08 -0.1,0.147 -0.149,0.225c-0.006,0.01 -0.003,0.029 -0.01,0.039c-1.306,4.84 -1.092,8.46 1.258,9.738c2.607,1.425 7.12,-1.338 8.896,-4.378c0.306,-0.529 0.968,-0.716 1.493,-0.432l0.033,0.02c0.421,0.249 0.611,0.744 0.512,1.203c-0.01,0.04 -0.009,0.082 -0.021,0.124c-1.307,4.84 -1.094,8.452 1.257,9.738c0.296,0.162 0.623,0.27 0.965,0.327c-0.09,0.247 -0.175,0.495 -0.265,0.747z" fill="#4C2B18"/>
   <path id="svg_8" opacity="0.7" d="m109.783,75.264c-0.445,-1.149 -0.725,-2.529 -0.693,-4.119c-2.959,1.929 -7.017,2.297 -8.661,1.402c-1.652,-0.903 -3.693,-3.727 -3.493,-7.99c-2.937,1.792 -6.808,2.118 -8.412,1.246c-1.611,-0.88 -3.59,-3.587 -3.502,-7.673c-2.961,1.931 -7.016,2.297 -8.66,1.402c-1.706,-0.928 -3.812,-3.904 -3.462,-8.39c-2.851,1.508 -6.348,1.74 -7.851,0.923c-1.612,-0.88 -3.582,-3.59 -3.502,-7.673c-2.953,1.93 -7.011,2.3 -8.661,1.402c-1.652,-0.906 -3.693,-3.727 -3.493,-7.99c-2.934,1.795 -6.807,2.118 -8.412,1.246c-1.611,-0.88 -3.59,-3.587 -3.501,-7.673c-2.962,1.931 -7.017,2.296 -8.661,1.402c-2.02,-1.1 -4.622,-5.067 -3.012,-11.02c0.162,-0.603 0.775,-0.961 1.365,-0.809c0.593,0.16 0.94,0.77 0.778,1.373c-1.304,4.835 -1.094,8.452 1.257,9.738c2.605,1.417 7.118,-1.346 8.893,-4.383c0.307,-0.524 0.974,-0.713 1.491,-0.43l0.033,0.02c0.421,0.249 0.614,0.739 0.512,1.198c-0.007,0.045 -0.011,0.087 -0.02,0.123c-1.308,4.84 -1.093,8.46 1.257,9.739c2.607,1.424 7.12,-1.339 8.896,-4.379c0.306,-0.528 0.968,-0.715 1.49,-0.429l0.033,0.02c0.522,0.307 0.7,0.996 0.386,1.535c-0.047,0.072 -0.106,0.143 -0.15,0.216c-0.005,0.016 -0.004,0.03 -0.005,0.04c-1.307,4.84 -1.097,8.457 1.257,9.738c2.602,1.421 7.12,-1.338 8.89,-4.379c0.313,-0.525 0.975,-0.712 1.496,-0.426l0.028,0.016c0.421,0.25 0.614,0.74 0.513,1.199c-0.008,0.044 -0.012,0.087 -0.021,0.123c-1.307,4.84 -1.092,8.46 1.257,9.738c2.607,1.425 7.12,-1.338 8.896,-4.378c0.306,-0.529 0.969,-0.716 1.49,-0.43l0.033,0.02c0.528,0.309 0.7,0.997 0.39,1.53c-0.224,0.38 -0.487,0.718 -0.767,1.044c-1.291,4.81 -1.073,8.404 1.27,9.684c2.605,1.416 7.119,-1.347 8.894,-4.384c0.306,-0.523 0.969,-0.716 1.49,-0.43l0.034,0.02c0.42,0.25 0.613,0.74 0.512,1.199c-0.007,0.044 -0.012,0.086 -0.02,0.123c-1.308,4.84 -1.093,8.46 1.256,9.738c2.602,1.421 7.12,-1.338 8.896,-4.378c0.307,-0.529 0.969,-0.716 1.49,-0.43l0.034,0.02c0.522,0.308 0.699,0.996 0.386,1.535c-0.048,0.072 -0.106,0.144 -0.151,0.217c-0.004,0.015 -0.003,0.029 -0.004,0.04c-1.307,4.839 -1.098,8.456 1.257,9.737c2.602,1.422 7.12,-1.338 8.89,-4.378c0.307,-0.529 0.974,-0.713 1.496,-0.427l0.028,0.017c0.421,0.25 0.614,0.739 0.512,1.198c-0.007,0.045 -0.011,0.087 -0.021,0.123c-0.482,1.779 -0.754,3.39 -0.792,4.784c-0.375,0.72 -0.755,1.435 -1.159,2.13zm-45.356,-2.818c0.547,0.249 1.064,0.554 1.563,0.883c-0.731,-1.798 -0.56,-4.521 0.324,-7.82c0.28,-0.328 0.543,-0.666 0.767,-1.043c0.31,-0.534 0.138,-1.22 -0.39,-1.53l-0.032,-0.02c-0.522,-0.286 -1.184,-0.099 -1.49,0.43c-1.774,3.037 -6.29,5.8 -8.897,4.378c-2.349,-1.278 -2.563,-4.901 -1.257,-9.738c0.01,-0.04 0.014,-0.08 0.021,-0.124c0.102,-0.459 -0.091,-0.949 -0.512,-1.198l-0.028,-0.017c-0.522,-0.286 -1.184,-0.099 -1.496,0.427c-1.768,3.04 -6.288,5.8 -8.89,4.378c-2.355,-1.28 -2.564,-4.9 -1.257,-9.738l0.004,-0.04c0.047,-0.072 0.106,-0.143 0.15,-0.216c0.314,-0.539 0.137,-1.227 -0.386,-1.535l-0.032,-0.02c-0.522,-0.286 -1.184,-0.099 -1.491,0.43c-1.773,3.037 -6.289,5.8 -8.896,4.378c-2.35,-1.278 -2.564,-4.901 -1.257,-9.738c0.01,-0.04 0.014,-0.079 0.021,-0.123c0.101,-0.46 -0.091,-0.95 -0.513,-1.199l-0.032,-0.02c-0.517,-0.285 -1.188,-0.094 -1.491,0.43c-1.773,3.038 -6.289,5.8 -8.894,4.384c-2.35,-1.286 -2.56,-4.906 -1.257,-9.738c0.162,-0.603 -0.187,-1.213 -0.778,-1.373c-0.592,-0.155 -1.202,0.203 -1.364,0.808c-1.61,5.953 0.991,9.921 3.011,11.02c1.645,0.895 5.7,0.532 8.661,-1.402c-0.088,4.086 1.89,6.793 3.502,7.674c1.604,0.872 5.477,0.549 8.412,-1.247c-0.198,4.264 1.841,7.084 3.492,7.99c1.65,0.898 5.708,0.53 8.662,-1.402c-0.057,2.81 0.778,4.87 1.887,6.224c1.613,0.764 3.617,1.89 3.617,1.89c1.715,0.09 3.887,-0.326 5.846,-1.366c-0.149,1.938 0.164,3.591 0.7,4.923zm38.134,12.29c0.01,-0.039 0.014,-0.078 0.021,-0.123c0.101,-0.46 -0.091,-0.95 -0.513,-1.198l-0.027,-0.017c-0.522,-0.286 -1.189,-0.102 -1.496,0.427c-1.768,3.04 -6.289,5.8 -8.89,4.378c-2.355,-1.28 -2.565,-4.901 -1.258,-9.738l0.005,-0.04c0.047,-0.072 0.106,-0.143 0.15,-0.216c0.314,-0.539 0.136,-1.227 -0.386,-1.535l-0.033,-0.02c-0.521,-0.286 -1.184,-0.099 -1.49,0.43c-1.773,3.037 -6.294,5.796 -8.896,4.378c-2.35,-1.278 -2.564,-4.901 -1.257,-9.738c0.01,-0.04 0.013,-0.079 0.02,-0.124c0.102,-0.459 -0.09,-0.949 -0.512,-1.198l-0.033,-0.02c-0.521,-0.286 -1.187,-0.094 -1.49,0.43c-1.427,2.44 -4.621,4.7 -7.174,4.763c0.394,0.22 0.792,0.464 1.115,0.762c1.736,-0.142 3.763,-0.732 5.438,-1.826c-0.088,4.086 1.89,6.793 3.501,7.674c1.605,0.871 5.473,0.545 8.413,-1.247c-0.198,4.264 1.84,7.084 3.492,7.99c1.617,0.879 5.557,0.536 8.499,-1.304c0.923,-0.798 1.833,-1.664 2.723,-2.597c0.023,-0.099 0.052,-0.195 0.078,-0.29l0,-0.001z" fill="#4C2B18"/>
   <path id="svg_9" opacity="0.7" d="m103.531,83.909c-0.194,0.217 -0.396,0.436 -0.597,0.642c-0.106,-0.04 -0.201,-0.082 -0.289,-0.131c-1.611,-0.88 -3.59,-3.588 -3.507,-7.677c-2.957,1.935 -7.011,2.3 -8.66,1.402c-1.653,-0.903 -3.694,-3.726 -3.494,-7.99c-2.934,1.796 -6.807,2.118 -8.411,1.247c-1.607,-0.88 -3.585,-3.585 -3.502,-7.674c-2.957,1.935 -7.011,2.3 -8.661,1.402c-1.706,-0.927 -3.811,-3.904 -3.462,-8.39c-2.846,1.511 -6.346,1.745 -7.846,0.927c-1.611,-0.88 -3.59,-3.588 -3.501,-7.674c-2.962,1.932 -7.017,2.297 -8.666,1.4c-1.652,-0.904 -3.693,-3.727 -3.493,-7.991c-2.934,1.795 -6.808,2.118 -8.412,1.246c-1.606,-0.88 -3.585,-3.584 -3.502,-7.673c-2.957,1.935 -7.011,2.3 -8.66,1.402c-1.304,-0.707 -2.841,-2.602 -3.337,-5.451c0.59,-2.013 1.387,-3.97 2.366,-5.835c0.139,0.239 0.182,0.54 0.1,0.833c-1.303,4.835 -1.088,8.455 1.258,9.738c2.608,1.42 7.123,-1.343 8.896,-4.38c0.306,-0.524 0.966,-0.711 1.49,-0.43l0.034,0.02c0.42,0.249 0.613,0.739 0.511,1.203c-0.009,0.04 -0.008,0.082 -0.02,0.123c-1.304,4.835 -1.095,8.453 1.257,9.739c2.605,1.416 7.118,-1.347 8.893,-4.384c0.307,-0.529 0.97,-0.716 1.491,-0.43l0.033,0.02c0.527,0.309 0.7,0.996 0.386,1.535c-0.046,0.08 -0.1,0.147 -0.149,0.225c-0.001,0.01 -0.002,0.024 -0.006,0.034c-1.307,4.84 -1.093,8.46 1.257,9.738c2.607,1.425 7.12,-1.338 8.896,-4.378c0.307,-0.529 0.969,-0.716 1.49,-0.43l0.033,0.02c0.421,0.25 0.614,0.74 0.513,1.199c-0.013,0.04 -0.012,0.086 -0.021,0.123c-1.307,4.84 -1.097,8.457 1.257,9.738c2.602,1.421 7.118,-1.341 8.89,-4.379c0.307,-0.528 0.974,-0.712 1.491,-0.43l0.033,0.02c0.527,0.309 0.7,0.997 0.386,1.535c-0.215,0.376 -0.482,0.72 -0.764,1.042c-1.29,4.81 -1.068,8.407 1.27,9.683c2.606,1.417 7.124,-1.343 8.897,-4.38c0.306,-0.524 0.966,-0.711 1.49,-0.43l0.033,0.02c0.421,0.25 0.614,0.74 0.507,1.2c-0.004,0.04 -0.003,0.083 -0.016,0.127c-1.309,4.831 -1.094,8.452 1.252,9.735c2.608,1.42 7.124,-1.343 8.897,-4.38c0.306,-0.53 0.968,-0.717 1.49,-0.43l0.033,0.02c0.527,0.308 0.7,0.996 0.386,1.534c-0.046,0.08 -0.1,0.147 -0.149,0.225c-0.006,0.01 -0.002,0.024 -0.006,0.034c-1.307,4.84 -1.092,8.46 1.257,9.738c2.607,1.425 7.12,-1.338 8.896,-4.378c0.307,-0.529 0.969,-0.716 1.49,-0.43l0.033,0.02c0.421,0.25 0.614,0.74 0.513,1.199c-0.013,0.041 -0.012,0.087 -0.021,0.123c-1.307,4.84 -1.097,8.457 1.257,9.738c0.152,0.085 0.319,0.153 0.49,0.206z" fill="#4C2B18"/>
  </g>
 </g>
</svg>