<svg xmlns="http://www.w3.org/2000/svg" width="457" height="376" fill="none" viewBox="0 0 457 376">
    <g filter="url(#filter0_d)">
        <g clip-path="url(#clip0)">
            <path fill="#BA4D27" d="M359.511 232.08s-12.86-8.917-24.864-14.263c-5.975-2.66-16.191-3.244-19.138-.074-9.161 9.848-.877 28.737 28.038 34.58 0 0 51.119 10.861 49.592-4.469-1.047-10.473-27.256-13.643-33.628-15.774zM369.446 353.587c-3.546-.96-8.193-.832-13.125-.116 7.866-10.357 10.212-23.647 10.625-34.306.923-23.582-15.806-52.418-60.821-61.116-40.431-7.812-65.398 12.5-71.841 32.474-8.288 25.679-3.058 61.496 52.943 75.61 11.76 2.963 21.811 4.212 30.401 4.129 19.013 3.666 61.393 1.395 64.016-1.651 2.797-3.244-2.392-12.376-12.198-15.024zM199.771 325.537c-74.245.298-102.014-67.69-102.304-94.979-.099.012-.202.021-.302.033-75.813 8.342-89.823-42.429-89.629-71.539.03-4.08.335-7.725.79-10.733C11.868 124.915 32.43 91.945 70.6 71.314c17.487-9.45 38.664-16.307 63.599-18.48 50.758-4.41 112.155 50.995 72.502 110.306-39.747 59.999-42.975 96.18-31.6 118.172 8.863 17.127 26.577 25.651 42.793 30.107 5.694 11.449-4.924 14.536-18.123 14.118z"/>
            <path fill="#DE6C3A" d="M206.702 163.149c-39.748 59.998-42.976 96.179-31.601 118.171-12.239-3.119-31.195-21.57-26.912-66.722 2.524-26.61 15.364-51.11 21.148-86.72 5.644-34.737-30.706-76.053-98.74-56.556 17.486-9.45 38.663-16.307 63.598-18.479 50.763-4.415 112.159 50.99 72.507 110.306z"/>
            <path fill="#924D27" d="M125.567 169.165c-7.605 24.529-26.643 36.268-28.282 61.132 0 0-.041.104-.124.29-75.809 8.346-89.82-42.425-89.625-71.534 3.19 11.42 11.57 22.083 21.65 28.795 16.306 10.853 38.075 14.528 55.91 6.422 17.833-8.106 29.746-29.23 24.491-48.098-2.214-7.949-5.661-16.005-14.88-18.84-7.886-2.42-18.57-1.299-19.534 8.367-3.211-7.188 5.751-16.493 13.365-18.484 12.343-3.215 23.619-.869 32.399 11.412 8.776 12.29 9.625 24.418 4.63 40.538z" opacity=".6"/>
            <path fill="#DE6C3A" d="M333.319 198.369c26.912 11.722 24.082 129.104-37.58 149.056-77.547 22.179-108.15-33.359-71.555-75.072 30.284-35.039 70.09-90.99 109.135-73.984zM267.498 54.481c-1.721-9.194-48.032-10.299-51.545-5.08-2.337 3.47 9.737 38.977 24.823 46.765 7.444 1.117 28.443-32.494 26.722-41.685z"/>
            <path fill="#A4381A" d="M256.653 62.733c-1.01-5.392-28.17-6.041-30.231-2.98-1.374 2.036 5.71 22.862 14.557 27.426 4.369.654 16.684-19.055 15.674-24.446z"/>
            <path fill="#DE6C3A" d="M339.157 37.463c-3.778-8.557 33.806-35.64 39.652-33.322 3.894 1.543 13.999 37.658 5.947 52.608-5.508 5.131-41.825-10.733-45.599-19.286z"/>
            <path fill="#A4381A" d="M352.766 38.141c-2.214-5.019 19.829-20.9 23.255-19.542 2.284.906 8.209 22.087 3.488 30.855-3.232 3.008-24.529-6.297-26.743-11.313z"/>
            <path fill="#F7DAB2" d="M348.268 216.72c-92.182 21.409-124.176-10.017-129.352-40.087-4.026-23.387 19.038-58.707 83.977-76.466 72.304-19.775 116.525-2.314 131.148 21.111 15.401 24.657 25.079 69.697-85.773 95.442z"/>
            <path fill="#DE6C3A" d="M234.474 139.844c.166-32.13 3.836-90.994 66.184-107.058 65.874-16.969 96.825 34.24 113.579 72.636.451 1.58-66.337-9.195-63.114 73.744l-12.496 3.682c-48.897-63.697-104.186-37.223-104.153-43.004z"/>
            <path fill="#4F301A" d="M361.004 198c-.703-.331-1.547-.029-1.878.675-1.006 2.135-3.542 3.57-5.951 3.066-3.653-.77-4.373-3.82-4.559-4.548-.17-.666-.468-1.547-1.105-1.502-.745.182-.584 1.113-.505 1.796.087.745.488 3.856-2.661 5.863-2.073 1.32-4.953.873-6.645-.769-.559-.542-1.452-.53-1.994.029-.543.558-.53 1.452.029 1.994 1.87 1.812 4.27 2.532 6.666 2.098.918-.166 1.833-.505 2.722-1.014 1.916-1.101 2.971-2.615 3.451-4.163.993 1.275 2.52 2.322 4.701 2.678 1.009.161 1.986.153 2.904-.013 2.4-.438 4.391-1.957 5.5-4.316.331-.699.029-1.539-.675-1.874z"/>
            <path fill="#F7A788" d="M266.795 190.925c-8.082 1.767-12.07 7.129-11.367 13.253.525 4.568 5.987 9.985 15.773 7.953 8.686-1.804 11.516-8.859 10.005-14.073-1.837-6.364-6.517-8.859-14.411-7.133zM412.677 154.835c7.85-2.611 14.019-.033 16.543 5.586 1.883 4.196-.049 11.644-9.5 14.892-8.387 2.884-14.425-1.734-15.79-6.989-1.668-6.405 1.08-10.94 8.747-13.489z"/>
            <path fill="#4F301A" d="M290.585 186.229c5.103-2.737 7.021-9.093 4.284-14.196-2.738-5.103-9.093-7.021-14.196-4.283-5.103 2.737-7.021 9.093-4.284 14.196 2.738 5.103 9.094 7.02 14.196 4.283zM402.18 155.721c1.712-5.151-1.075-10.714-6.226-12.426-5.151-1.712-10.714 1.076-12.426 6.227-1.712 5.15 1.076 10.713 6.227 12.425 5.15 1.712 10.714-1.076 12.425-6.226z"/>
            <path fill="#83301A" d="M341.937 171.444c-7.353 1.489-8.83 4.58-7.655 7.233 1.647 3.711 4.651 7.295 10.572 6.595 4.713-.554 8.243-7.03 7.775-10.981-.298-2.533-3-4.403-10.692-2.847z"/>
            <path fill="#924D27" d="M348.123 237.116s-20.896-2.024-36.33-6.554c-6.273-1.842-15.876.711-18.823 3.881-9.161 9.848-.877 28.733 28.038 34.579 0 0 51.119 10.862 49.592-4.468-1.043-10.473-16.1-25.303-22.477-27.438z" opacity=".6"/>
            <path fill="#DE6C3A" d="M335.896 244.497s-12.86-8.917-24.864-14.263c-5.975-2.66-16.191-3.244-19.137-.074-9.161 9.848-.877 28.733 28.038 34.58 0 0 51.118 10.861 49.591-4.469-1.047-10.469-27.251-13.638-33.628-15.774zM245.427 377.16c-63.573-16.021-69.511-56.684-60.102-85.834 7.316-22.671 35.66-45.731 81.557-36.864 51.102 9.873 74.166 81.469 63.432 97.036-9.024 21.479-31.43 39.135-84.887 25.662z"/>
            <path fill="#DE6C3A" d="M288.965 372.927s34.212-14.218 49.799-10.01c11.131 3.009 17.019 13.374 13.845 17.057-3.174 3.682-57.648 6.376-76.583.955l12.939-8.002z"/>
            <path fill="#924D27" d="M328.316 316.496c1.461-9.211-3.095-22.944-8.123-31.294-11.83-19.659-32.225-28.266-55.144-29.35-3.079-.145-14.727-8.11-15.583-3.848-.94 4.676 7.866 5.731 10.688 6.625 10.212 3.219 59.895 21.148 68.162 57.867z" opacity=".6"/>
        </g>
    </g>
    <defs>
        <clipPath id="clip0">
            <path fill="#fff" d="M0 0H435.769V380H0z" transform="translate(7.536 4)"/>
        </clipPath>
        <filter id="filter0_d" width="455.769" height="400" x=".536" y="0" color-interpolation-filters="sRGB" filterUnits="userSpaceOnUse">
            <feFlood flood-opacity="0" result="BackgroundImageFix"/>
            <feColorMatrix in="SourceAlpha" values="0 0 0 0 0 0 0 0 0 0 0 0 0 0 0 0 0 0 127 0"/>
            <feOffset dx="3" dy="6"/>
            <feGaussianBlur stdDeviation="5"/>
            <feColorMatrix values="0 0 0 0 0 0 0 0 0 0 0 0 0 0 0 0 0 0 0.4 0"/>
            <feBlend in2="BackgroundImageFix" result="effect1_dropShadow"/>
            <feBlend in="SourceGraphic" in2="effect1_dropShadow" result="shape"/>
        </filter>
    </defs>
</svg>
