<svg xmlns="http://www.w3.org/2000/svg" viewBox="0 0 167.48 132.02"><defs><style>.cls-1{fill:#783b25;}.cls-2{fill:#61301d;}.cls-3{fill:#87422a;}.cls-4{fill:#5c2c1b;}.cls-5{fill:#452014;}.cls-6{fill:#a8804c;}.cls-7{fill:#87673d;}.cls-8{fill:#878787;}.cls-9{fill:#636363;}.cls-10{fill:#4c631c;}.cls-11{fill:#709129;}.cls-12{fill:#90ad1a;}.cls-13{opacity:0.3;}.cls-14{fill:#121212;}.cls-15{fill:#912222;}.cls-16{fill:#b52a2a;}.cls-17{fill:#fa3c3c;}.cls-18{fill:#a1a1a1;}.cls-19{fill:#3b3b3b;}.cls-20{fill:#787878;}.cls-21{fill:#575757;}.cls-22{fill:#242424;}.cls-23{fill:#333;}.cls-24{fill:#1c1c1c;}.cls-25{fill:#b38750;}.cls-26{fill:#947042;}.cls-27{fill:#f0b56c;}.cls-28,.cls-50{opacity:0.1;}.cls-29{fill:#4a4a4a;}.cls-30{fill:#2b2b2b;}.cls-31{fill:#b3b3b3;}.cls-32{fill:#f6871f;}.cls-33{fill:#cc6118;}.cls-34{fill:#e76e1b;}.cls-35{fill:#ff921e;}.cls-36{fill:#fa4b4b;}.cls-37{fill:#ffb205;}.cls-38{fill:#ffc600;}.cls-39{fill:#424242;}.cls-40{fill:#ed9215;}.cls-41{fill:#996726;}.cls-42{fill:gray;}.cls-43{fill:#737373;}.cls-44{fill:#454545;}.cls-45{fill:#262626;}.cls-46{fill:#363636;}.cls-47{fill:#303030;}.cls-48{fill:#26577d;}.cls-49{fill:#2b82c7;}.cls-50{fill:#fff;}.cls-51{fill:#275980;}.cls-52{fill:#369ff2;}.cls-53{fill:#fb0;}.cls-54{fill:#d49c00;}.cls-55{fill:#ffd666;}.cls-56{fill:#663f30;}.cls-57{fill:#965d47;}.cls-58{fill:#a62626;}.cls-59{fill:#d63a3a;}.cls-60{fill:#f2f2f2;}.cls-61{fill:#cc8a33;}.cls-62{fill:#593628;}.cls-63{fill:#3b1c11;}.cls-64{fill:#1c0d08;}.cls-65{fill:#d99336;}.cls-66{fill:#ffad40;}.cls-67{fill:#ffb95c;}.cls-68{fill:#543428;}.cls-69{fill:#593f34;}.cls-70{fill:#795547;}.cls-71{fill:#8c6352;}.cls-72{fill:#ccc;}.cls-73{fill:#dba563;}</style></defs><title>Asset 11s</title><g id="Layer_2" data-name="Layer 2"><g id="Layer_1-2" data-name="Layer 1"><polygon class="cls-1" points="62.81 26.97 83.74 39.06 104.68 26.97 83.74 14.88 62.81 26.97"/><path class="cls-2" d="M73,28a4.85,4.85,0,0,1-4.36,0,1.33,1.33,0,0,1,0-2.52,4.79,4.79,0,0,1,4.36,0A1.33,1.33,0,0,1,73,28Z"/><ellipse class="cls-3" cx="83.37" cy="19.36" rx="3.09" ry="1.78"/><path class="cls-2" d="M99.56,27.6a3.31,3.31,0,0,1-3,0,.91.91,0,0,1,0-1.73,3.3,3.3,0,0,1,3,0A.91.91,0,0,1,99.56,27.6Z"/><path class="cls-2" d="M80.56,31.09a3.3,3.3,0,0,1-3,0,.91.91,0,0,1,0-1.73,3.3,3.3,0,0,1,3,0A.92.92,0,0,1,80.56,31.09Z"/><path class="cls-2" d="M90.54,29.87a3.37,3.37,0,0,1-3,0,.92.92,0,0,1,0-1.74,3.37,3.37,0,0,1,3,0A.92.92,0,0,1,90.54,29.87Z"/><path class="cls-3" d="M91.43,24.23a2.61,2.61,0,0,1-2.34,0,.71.71,0,0,1,0-1.35,2.61,2.61,0,0,1,2.34,0A.71.71,0,0,1,91.43,24.23Z"/><path class="cls-3" d="M83.11,25.63a2.61,2.61,0,0,1-2.34,0,.71.71,0,0,1,0-1.35,2.61,2.61,0,0,1,2.34,0A.71.71,0,0,1,83.11,25.63Z"/><path class="cls-3" d="M86.19,35.09a2.61,2.61,0,0,1-2.34,0,.71.71,0,0,1,0-1.35,2.61,2.61,0,0,1,2.34,0A.71.71,0,0,1,86.19,35.09Z"/><polygon class="cls-4" points="62.81 34.2 83.74 46.28 83.74 39.06 62.81 26.97 62.81 34.2"/><polygon class="cls-5" points="104.68 34.2 83.74 46.28 83.74 39.06 104.68 26.97 104.68 34.2"/><polygon class="cls-6" points="62.81 42.68 83.74 54.76 83.74 46.28 62.81 34.2 62.81 42.68"/><polygon class="cls-7" points="104.68 42.68 83.74 54.76 83.74 46.28 104.68 34.2 104.68 42.68"/><polygon class="cls-8" points="62.81 47.41 83.74 59.49 83.74 54.76 62.81 42.68 62.81 47.41"/><polygon class="cls-9" points="104.68 47.41 83.74 59.49 83.74 54.76 104.68 42.68 104.68 47.41"/><polygon class="cls-1" points="41.87 39.06 62.81 51.15 83.74 39.06 62.81 26.97 41.87 39.06"/><path class="cls-2" d="M52.07,40.08a4.81,4.81,0,0,1-4.37,0,1.33,1.33,0,0,1,0-2.52,4.87,4.87,0,0,1,4.37,0A1.33,1.33,0,0,1,52.07,40.08Z"/><path class="cls-3" d="M64.62,32.71a4.81,4.81,0,0,1-4.37,0,1.33,1.33,0,0,1,0-2.52,4.81,4.81,0,0,1,4.37,0A1.33,1.33,0,0,1,64.62,32.71Z"/><path class="cls-2" d="M78.62,39.69a3.28,3.28,0,0,1-3,0,.91.91,0,0,1,0-1.73,3.28,3.28,0,0,1,3,0A.91.91,0,0,1,78.62,39.69Z"/><path class="cls-2" d="M59.62,43.18a3.3,3.3,0,0,1-3,0,.91.91,0,0,1,0-1.73,3.3,3.3,0,0,1,3,0A.91.91,0,0,1,59.62,43.18Z"/><path class="cls-2" d="M69.6,42a3.3,3.3,0,0,1-3,0,.92.92,0,0,1,0-1.73,3.3,3.3,0,0,1,3,0A.91.91,0,0,1,69.6,42Z"/><path class="cls-3" d="M70.49,36.32a2.61,2.61,0,0,1-2.34,0,.71.71,0,0,1,0-1.35,2.54,2.54,0,0,1,2.34,0C71.14,35.34,71.14,35.94,70.49,36.32Z"/><path class="cls-3" d="M62.17,37.72a2.61,2.61,0,0,1-2.34,0,.72.72,0,0,1,0-1.36,2.61,2.61,0,0,1,2.34,0A.72.72,0,0,1,62.17,37.72Z"/><path class="cls-3" d="M65.26,47.18a2.61,2.61,0,0,1-2.34,0,.72.72,0,0,1,0-1.36,2.61,2.61,0,0,1,2.34,0A.72.72,0,0,1,65.26,47.18Z"/><polygon class="cls-4" points="41.87 46.28 62.81 58.37 62.81 51.15 41.87 39.06 41.87 46.28"/><polygon class="cls-5" points="83.74 46.28 62.81 58.37 62.81 51.15 83.74 39.06 83.74 46.28"/><polygon class="cls-6" points="41.87 54.76 62.81 66.85 62.81 58.37 41.87 46.28 41.87 54.76"/><polygon class="cls-7" points="83.74 54.76 62.81 66.85 62.81 58.37 83.74 46.28 83.74 54.76"/><polygon class="cls-8" points="41.87 59.49 62.81 71.58 62.81 66.85 41.87 54.76 41.87 59.49"/><polygon class="cls-9" points="83.74 59.49 62.81 71.58 62.81 66.85 83.74 54.76 83.74 59.49"/><polygon class="cls-1" points="20.93 51.15 41.87 63.23 62.81 51.15 41.87 39.06 20.93 51.15"/><path class="cls-2" d="M31.13,52.17a4.81,4.81,0,0,1-4.37,0,1.33,1.33,0,0,1,0-2.52,4.81,4.81,0,0,1,4.37,0A1.33,1.33,0,0,1,31.13,52.17Z"/><ellipse class="cls-3" cx="41.5" cy="43.54" rx="3.09" ry="1.78"/><path class="cls-2" d="M57.69,51.78a3.37,3.37,0,0,1-3,0,.92.92,0,0,1,0-1.74,3.37,3.37,0,0,1,3,0A.92.92,0,0,1,57.69,51.78Z"/><path class="cls-2" d="M38.68,55.26a3.3,3.3,0,0,1-3,0,.92.92,0,0,1,0-1.73,3.3,3.3,0,0,1,3,0A.91.91,0,0,1,38.68,55.26Z"/><path class="cls-2" d="M48.67,54a3.31,3.31,0,0,1-3,0,.91.91,0,0,1,0-1.73,3.3,3.3,0,0,1,3,0A.91.91,0,0,1,48.67,54Z"/><path class="cls-3" d="M49.56,48.4a2.54,2.54,0,0,1-2.34,0c-.65-.37-.65-1,0-1.35a2.61,2.61,0,0,1,2.34,0A.71.71,0,0,1,49.56,48.4Z"/><path class="cls-3" d="M41.23,49.8a2.54,2.54,0,0,1-2.34,0,.71.71,0,0,1,0-1.35,2.61,2.61,0,0,1,2.34,0A.71.71,0,0,1,41.23,49.8Z"/><path class="cls-3" d="M44.32,59.26a2.54,2.54,0,0,1-2.34,0,.71.71,0,0,1,0-1.35,2.61,2.61,0,0,1,2.34,0A.71.71,0,0,1,44.32,59.26Z"/><polygon class="cls-4" points="20.93 58.37 41.87 70.46 41.87 63.23 20.93 51.15 20.93 58.37"/><polygon class="cls-5" points="62.81 58.37 41.87 70.46 41.87 63.23 62.81 51.15 62.81 58.37"/><polygon class="cls-6" points="20.93 66.85 41.87 78.94 41.87 70.46 20.93 58.37 20.93 66.85"/><polygon class="cls-7" points="62.81 66.85 41.87 78.94 41.87 70.46 62.81 58.37 62.81 66.85"/><polygon class="cls-8" points="20.93 71.58 41.87 83.67 41.87 78.94 20.93 66.85 20.93 71.58"/><polygon class="cls-9" points="62.81 71.58 41.87 83.67 41.87 78.94 62.81 66.85 62.81 71.58"/><polygon class="cls-1" points="0 63.23 20.93 75.32 41.87 63.23 20.93 51.15 0 63.23"/><path class="cls-2" d="M10.2,64.26a4.87,4.87,0,0,1-4.37,0,1.33,1.33,0,0,1,0-2.52,4.81,4.81,0,0,1,4.37,0A1.33,1.33,0,0,1,10.2,64.26Z"/><ellipse class="cls-3" cx="20.56" cy="55.62" rx="3.09" ry="1.78"/><path class="cls-2" d="M36.75,63.86a3.3,3.3,0,0,1-3,0,.92.92,0,0,1,0-1.73,3.3,3.3,0,0,1,3,0A.91.91,0,0,1,36.75,63.86Z"/><path class="cls-2" d="M17.75,67.35a3.3,3.3,0,0,1-3,0,.91.91,0,0,1,0-1.73,3.3,3.3,0,0,1,3,0A.91.91,0,0,1,17.75,67.35Z"/><ellipse class="cls-2" cx="26.23" cy="65.26" rx="2.12" ry="1.22"/><path class="cls-3" d="M28.62,60.49a2.61,2.61,0,0,1-2.34,0,.71.71,0,0,1,0-1.35,2.61,2.61,0,0,1,2.34,0A.71.71,0,0,1,28.62,60.49Z"/><path class="cls-3" d="M20.3,61.89a2.61,2.61,0,0,1-2.34,0,.71.71,0,0,1,0-1.35,2.61,2.61,0,0,1,2.34,0A.71.71,0,0,1,20.3,61.89Z"/><path class="cls-3" d="M23.39,71.35a2.61,2.61,0,0,1-2.34,0,.71.71,0,0,1,0-1.35,2.61,2.61,0,0,1,2.34,0A.71.71,0,0,1,23.39,71.35Z"/><polygon class="cls-4" points="0 70.46 20.93 82.55 20.93 75.32 0 63.23 0 70.46"/><polygon class="cls-5" points="41.87 70.46 20.93 82.55 20.93 75.32 41.87 63.23 41.87 70.46"/><polygon class="cls-6" points="0 78.94 20.93 91.03 20.93 82.55 0 70.46 0 78.94"/><polygon class="cls-7" points="41.87 78.94 20.93 91.03 20.93 82.55 41.87 70.46 41.87 78.94"/><polygon class="cls-8" points="0 83.67 20.93 95.76 20.93 91.03 0 78.94 0 83.67"/><polygon class="cls-9" points="41.87 83.67 20.93 95.76 20.93 91.03 41.87 78.94 41.87 83.67"/><polygon class="cls-4" points="83.74 46.28 104.68 58.37 104.68 52.71 83.74 40.62 83.74 46.28"/><polygon class="cls-5" points="125.61 46.28 104.68 58.37 104.68 52.71 125.61 40.62 125.61 46.28"/><polygon class="cls-10" points="125.61 40.62 104.68 52.71 104.68 51.14 125.61 39.06 125.61 40.62"/><polygon class="cls-11" points="83.74 40.62 104.68 52.71 104.68 51.14 83.74 39.06 83.74 40.62"/><polygon class="cls-6" points="83.74 54.76 104.68 66.85 104.68 58.37 83.74 46.28 83.74 54.76"/><polygon class="cls-7" points="125.61 54.76 104.68 66.85 104.68 58.37 125.61 46.28 125.61 54.76"/><polygon class="cls-8" points="83.74 59.49 104.68 71.58 104.68 66.85 83.74 54.76 83.74 59.49"/><polygon class="cls-9" points="125.61 59.49 104.68 71.58 104.68 66.85 125.61 54.76 125.61 59.49"/><polygon class="cls-12" points="83.74 39.06 104.68 51.14 125.61 39.06 104.68 26.97 83.74 39.06"/><polygon class="cls-4" points="62.81 58.37 83.74 70.46 83.74 64.8 62.81 52.71 62.81 58.37"/><polygon class="cls-5" points="104.68 58.37 83.74 70.46 83.74 64.8 104.68 52.71 104.68 58.37"/><polygon class="cls-10" points="104.68 52.71 83.74 64.8 83.74 63.23 104.68 51.14 104.68 52.71"/><polygon class="cls-11" points="62.81 52.71 83.74 64.8 83.74 63.23 62.81 51.14 62.81 52.71"/><polygon class="cls-6" points="62.81 66.85 83.74 78.94 83.74 70.46 62.81 58.37 62.81 66.85"/><polygon class="cls-7" points="104.68 66.85 83.74 78.94 83.74 70.46 104.68 58.37 104.68 66.85"/><polygon class="cls-8" points="62.81 71.58 83.74 83.67 83.74 78.94 62.81 66.85 62.81 71.58"/><polygon class="cls-9" points="104.68 71.58 83.74 83.67 83.74 78.94 104.68 66.85 104.68 71.58"/><polygon class="cls-12" points="62.81 51.14 83.74 63.23 104.68 51.14 83.74 39.06 62.81 51.14"/><polygon class="cls-4" points="41.87 70.46 62.81 82.55 62.81 76.89 41.87 64.8 41.87 70.46"/><polygon class="cls-5" points="83.74 70.46 62.81 82.55 62.81 76.89 83.74 64.8 83.74 70.46"/><polygon class="cls-10" points="83.74 64.8 62.81 76.89 62.81 75.32 83.74 63.23 83.74 64.8"/><polygon class="cls-11" points="41.87 64.8 62.81 76.89 62.81 75.32 41.87 63.23 41.87 64.8"/><polygon class="cls-6" points="41.87 78.94 62.81 91.02 62.81 82.55 41.87 70.46 41.87 78.94"/><polygon class="cls-7" points="83.74 78.94 62.81 91.02 62.81 82.55 83.74 70.46 83.74 78.94"/><polygon class="cls-8" points="41.87 83.67 62.81 95.76 62.81 91.02 41.87 78.94 41.87 83.67"/><polygon class="cls-9" points="83.74 83.67 62.81 95.76 62.81 91.02 83.74 78.94 83.74 83.67"/><polygon class="cls-12" points="41.87 63.23 62.81 75.32 83.74 63.23 62.81 51.15 41.87 63.23"/><polygon class="cls-4" points="20.93 82.55 41.87 94.63 41.87 88.97 20.93 76.89 20.93 82.55"/><polygon class="cls-5" points="62.81 82.55 41.87 94.63 41.87 88.97 62.81 76.89 62.81 82.55"/><polygon class="cls-10" points="62.81 76.89 41.87 88.97 41.87 87.41 62.81 75.32 62.81 76.89"/><polygon class="cls-11" points="20.93 76.89 41.87 88.97 41.87 87.41 20.93 75.32 20.93 76.89"/><polygon class="cls-6" points="20.93 91.02 41.87 103.11 41.87 94.63 20.93 82.55 20.93 91.02"/><polygon class="cls-7" points="62.81 91.02 41.87 103.11 41.87 94.63 62.81 82.55 62.81 91.02"/><polygon class="cls-8" points="20.93 95.76 41.87 107.84 41.87 103.11 20.93 91.02 20.93 95.76"/><polygon class="cls-9" points="62.81 95.76 41.87 107.84 41.87 103.11 62.81 91.02 62.81 95.76"/><polygon class="cls-12" points="20.93 75.32 41.87 87.41 62.81 75.32 41.87 63.23 20.93 75.32"/><polygon class="cls-4" points="104.68 58.37 125.61 70.46 125.61 64.8 104.68 52.71 104.68 58.37"/><polygon class="cls-5" points="146.55 58.37 125.61 70.46 125.61 64.8 146.55 52.71 146.55 58.37"/><polygon class="cls-10" points="146.55 52.71 125.61 64.8 125.61 63.23 146.55 51.14 146.55 52.71"/><polygon class="cls-11" points="104.68 52.71 125.61 64.8 125.61 63.23 104.68 51.14 104.68 52.71"/><polygon class="cls-6" points="104.68 66.85 125.61 78.94 125.61 70.46 104.68 58.37 104.68 66.85"/><polygon class="cls-7" points="146.55 66.85 125.61 78.94 125.61 70.46 146.55 58.37 146.55 66.85"/><polygon class="cls-8" points="104.68 71.58 125.61 83.67 125.61 78.94 104.68 66.85 104.68 71.58"/><polygon class="cls-9" points="146.55 71.58 125.61 83.67 125.61 78.94 146.55 66.85 146.55 71.58"/><polygon class="cls-12" points="104.68 51.14 125.61 63.23 146.55 51.14 125.61 39.06 104.68 51.14"/><polygon class="cls-4" points="83.74 70.46 104.68 82.55 104.68 76.89 83.74 64.8 83.74 70.46"/><polygon class="cls-5" points="125.61 70.46 104.68 82.55 104.68 76.89 125.61 64.8 125.61 70.46"/><polygon class="cls-10" points="125.61 64.8 104.68 76.89 104.68 75.32 125.61 63.23 125.61 64.8"/><polygon class="cls-11" points="83.74 64.8 104.68 76.89 104.68 75.32 83.74 63.23 83.74 64.8"/><polygon class="cls-6" points="83.74 78.94 104.68 91.02 104.68 82.55 83.74 70.46 83.74 78.94"/><polygon class="cls-7" points="125.61 78.94 104.68 91.02 104.68 82.55 125.61 70.46 125.61 78.94"/><polygon class="cls-8" points="83.74 83.67 104.68 95.76 104.68 91.02 83.74 78.94 83.74 83.67"/><polygon class="cls-9" points="125.61 83.67 104.68 95.76 104.68 91.02 125.61 78.94 125.61 83.67"/><polygon class="cls-12" points="83.74 63.23 104.68 75.32 125.61 63.23 104.68 51.15 83.74 63.23"/><polygon class="cls-4" points="62.81 82.55 83.74 94.63 83.74 88.97 62.81 76.89 62.81 82.55"/><polygon class="cls-5" points="104.68 82.55 83.74 94.63 83.74 88.97 104.68 76.89 104.68 82.55"/><polygon class="cls-10" points="104.68 76.89 83.74 88.97 83.74 87.41 104.68 75.32 104.68 76.89"/><polygon class="cls-11" points="62.81 76.89 83.74 88.97 83.74 87.41 62.81 75.32 62.81 76.89"/><polygon class="cls-6" points="62.81 91.02 83.74 103.11 83.74 94.63 62.81 82.55 62.81 91.02"/><polygon class="cls-7" points="104.68 91.02 83.74 103.11 83.74 94.63 104.68 82.55 104.68 91.02"/><polygon class="cls-8" points="62.81 95.76 83.74 107.84 83.74 103.11 62.81 91.02 62.81 95.76"/><polygon class="cls-9" points="104.68 95.76 83.74 107.84 83.74 103.11 104.68 91.02 104.68 95.76"/><polygon class="cls-12" points="62.81 75.32 83.74 87.41 104.68 75.32 83.74 63.23 62.81 75.32"/><polygon class="cls-4" points="41.87 94.63 62.81 106.72 62.81 101.06 41.87 88.97 41.87 94.63"/><polygon class="cls-5" points="83.74 94.63 62.81 106.72 62.81 101.06 83.74 88.97 83.74 94.63"/><polygon class="cls-10" points="83.74 88.97 62.81 101.06 62.81 99.49 83.74 87.41 83.74 88.97"/><polygon class="cls-11" points="41.87 88.97 62.81 101.06 62.81 99.49 41.87 87.41 41.87 88.97"/><polygon class="cls-6" points="41.87 103.11 62.81 115.2 62.81 106.72 41.87 94.63 41.87 103.11"/><polygon class="cls-7" points="83.74 103.11 62.81 115.2 62.81 106.72 83.74 94.63 83.74 103.11"/><polygon class="cls-8" points="41.87 107.84 62.81 119.93 62.81 115.2 41.87 103.11 41.87 107.84"/><polygon class="cls-9" points="83.74 107.84 62.81 119.93 62.81 115.2 83.74 103.11 83.74 107.84"/><polygon class="cls-12" points="41.87 87.41 62.81 99.49 83.74 87.41 62.81 75.32 41.87 87.41"/><polygon class="cls-4" points="125.61 70.46 146.55 82.55 146.55 76.89 125.61 64.8 125.61 70.46"/><polygon class="cls-5" points="167.49 70.46 146.55 82.55 146.55 76.89 167.49 64.8 167.49 70.46"/><polygon class="cls-10" points="167.49 64.8 146.55 76.89 146.55 75.32 167.49 63.23 167.49 64.8"/><polygon class="cls-11" points="125.61 64.8 146.55 76.89 146.55 75.32 125.61 63.23 125.61 64.8"/><polygon class="cls-6" points="125.61 78.94 146.55 91.02 146.55 82.55 125.61 70.46 125.61 78.94"/><polygon class="cls-7" points="167.49 78.94 146.55 91.02 146.55 82.55 167.49 70.46 167.49 78.94"/><polygon class="cls-8" points="125.61 83.67 146.55 95.76 146.55 91.02 125.61 78.94 125.61 83.67"/><polygon class="cls-9" points="167.49 83.67 146.55 95.76 146.55 91.02 167.49 78.94 167.49 83.67"/><polygon class="cls-12" points="125.61 63.23 146.55 75.32 167.49 63.23 146.55 51.15 125.61 63.23"/><polygon class="cls-4" points="104.68 82.55 125.61 94.63 125.61 88.97 104.68 76.89 104.68 82.55"/><polygon class="cls-5" points="146.55 82.55 125.61 94.63 125.61 88.97 146.55 76.89 146.55 82.55"/><polygon class="cls-10" points="146.55 76.89 125.61 88.97 125.61 87.41 146.55 75.32 146.55 76.89"/><polygon class="cls-11" points="104.68 76.89 125.61 88.97 125.61 87.41 104.68 75.32 104.68 76.89"/><polygon class="cls-6" points="104.68 91.02 125.61 103.11 125.61 94.63 104.68 82.55 104.68 91.02"/><polygon class="cls-7" points="146.55 91.02 125.61 103.11 125.61 94.63 146.55 82.55 146.55 91.02"/><polygon class="cls-8" points="104.68 95.76 125.61 107.84 125.61 103.11 104.68 91.02 104.68 95.76"/><polygon class="cls-9" points="146.55 95.76 125.61 107.84 125.61 103.11 146.55 91.02 146.55 95.76"/><polygon class="cls-12" points="104.68 75.32 125.61 87.41 146.55 75.32 125.61 63.23 104.68 75.32"/><polygon class="cls-4" points="83.74 94.63 104.68 106.72 104.68 101.06 83.74 88.97 83.74 94.63"/><polygon class="cls-5" points="125.61 94.63 104.68 106.72 104.68 101.06 125.61 88.97 125.61 94.63"/><polygon class="cls-10" points="125.61 88.97 104.68 101.06 104.68 99.49 125.61 87.41 125.61 88.97"/><polygon class="cls-11" points="83.74 88.97 104.68 101.06 104.68 99.49 83.74 87.41 83.74 88.97"/><polygon class="cls-6" points="83.74 103.11 104.68 115.2 104.68 106.72 83.74 94.63 83.74 103.11"/><polygon class="cls-7" points="125.61 103.11 104.68 115.2 104.68 106.72 125.61 94.63 125.61 103.11"/><polygon class="cls-8" points="83.74 107.84 104.68 119.93 104.68 115.2 83.74 103.11 83.74 107.84"/><polygon class="cls-9" points="125.61 107.84 104.68 119.93 104.68 115.2 125.61 103.11 125.61 107.84"/><polygon class="cls-12" points="83.74 87.41 104.68 99.49 125.61 87.41 104.68 75.32 83.74 87.41"/><polygon class="cls-4" points="62.81 106.72 83.74 118.81 83.74 113.15 62.81 101.06 62.81 106.72"/><polygon class="cls-5" points="104.68 106.72 83.74 118.81 83.74 113.15 104.68 101.06 104.68 106.72"/><polygon class="cls-10" points="104.68 101.06 83.74 113.15 83.74 111.58 104.68 99.49 104.68 101.06"/><polygon class="cls-11" points="62.81 101.06 83.74 113.15 83.74 111.58 62.81 99.49 62.81 101.06"/><polygon class="cls-6" points="62.81 115.2 83.74 127.29 83.74 118.81 62.81 106.72 62.81 115.2"/><polygon class="cls-7" points="104.68 115.2 83.74 127.29 83.74 118.81 104.68 106.72 104.68 115.2"/><polygon class="cls-8" points="62.81 119.93 83.74 132.02 83.74 127.29 62.81 115.2 62.81 119.93"/><polygon class="cls-9" points="104.68 119.93 83.74 132.02 83.74 127.29 104.68 115.2 104.68 119.93"/><polygon class="cls-12" points="62.81 99.49 83.74 111.58 104.68 99.49 83.74 87.41 62.81 99.49"/><path class="cls-13" d="M100.22,27.43,82.35,17.11,45.47,38.4l5,2.89L40.08,48.22,42,49.33l-1,.55L34.38,46,4.44,63.29,20.35,72.5,50.29,55.21,43.8,51.46l1-.55,1.81,1,11.88-6.06,4.91,2.83L82.21,37.83l2.31,1.33L93,34.3,90.64,33Zm-53.43,23-4.14-2.39,9.21-6,5.2,3Z"/><path class="cls-14" d="M90.59,32.92a.55.55,0,0,1-.3-.09L80.35,27.1a.62.62,0,0,1-.22-.84A.61.61,0,0,1,81,26l9.94,5.74a.61.61,0,0,1-.31,1.14Z"/><path class="cls-14" d="M85.52,35.84a.54.54,0,0,1-.3-.08L75.28,30A.61.61,0,1,1,75.89,29l9.94,5.73a.61.61,0,0,1-.31,1.14Z"/><path class="cls-15" d="M45.47,31.45v2.3L63.35,44.07v-2.3Z"/><path class="cls-16" d="M100.22,20.48,63.35,41.77v2.3l36.87-21.3Z"/><path class="cls-17" d="M82.35,10.16,45.47,31.45,63.35,41.77l36.87-21.29Z"/><polygon class="cls-18" points="54.85 34.73 49.28 31.52 82.78 12.21 88.34 15.43 54.85 34.73"/><polygon class="cls-18" points="63.22 39.57 57.66 36.35 91.15 17.05 96.72 20.26 63.22 39.57"/><polygon class="cls-19" points="83.15 21.35 80.92 20.06 81.29 18.32 82.78 19.18 83.15 21.35"/><polygon class="cls-20" points="82.78 19.18 81.29 18.32 84.23 16.62 85.72 17.48 82.78 19.18"/><polygon class="cls-21" points="86.09 19.65 83.15 21.35 82.78 19.18 85.72 17.48 86.09 19.65"/><polygon class="cls-19" points="75.2 25.93 72.98 24.65 73.35 22.91 74.83 23.77 75.2 25.93"/><polygon class="cls-20" points="74.83 23.77 73.35 22.91 76.29 21.21 77.78 22.07 74.83 23.77"/><polygon class="cls-21" points="78.14 24.23 75.2 25.93 74.83 23.77 77.78 22.07 78.14 24.23"/><polygon class="cls-19" points="67.13 30.59 64.9 29.31 65.27 27.57 66.76 28.43 67.13 30.59"/><polygon class="cls-20" points="66.76 28.43 65.27 27.57 68.22 25.87 69.7 26.73 66.76 28.43"/><polygon class="cls-21" points="70.07 28.9 67.13 30.59 66.76 28.43 69.7 26.73 70.07 28.9"/><polygon class="cls-19" points="59.04 35.27 56.81 33.98 57.18 32.24 58.67 33.1 59.04 35.27"/><polygon class="cls-20" points="58.67 33.1 57.18 32.24 60.12 30.54 61.61 31.4 58.67 33.1"/><polygon class="cls-21" points="61.98 33.57 59.04 35.27 58.67 33.1 61.61 31.4 61.98 33.57"/><polygon class="cls-19" points="52 24.82 51.23 24.38 50.53 24.78 51.3 25.23 52.33 29.76 53.02 29.35 52 24.82"/><polygon class="cls-22" points="51.3 25.23 50.53 24.78 51.56 29.31 52.33 29.76 51.3 25.23"/><polygon class="cls-19" points="60.89 19.69 60.12 19.24 59.42 19.65 60.2 20.09 61.22 24.62 61.92 24.22 60.89 19.69"/><polygon class="cls-22" points="60.2 20.09 59.42 19.65 60.45 24.18 61.22 24.62 60.2 20.09"/><polygon class="cls-19" points="68.61 15.23 67.84 14.79 67.15 15.19 67.92 15.63 68.94 20.16 69.64 19.76 68.61 15.23"/><polygon class="cls-22" points="67.92 15.63 67.15 15.19 68.17 19.72 68.94 20.16 67.92 15.63"/><polygon class="cls-19" points="75.77 11.1 75 10.65 74.31 11.05 75.08 11.5 76.1 16.03 76.8 15.63 75.77 11.1"/><polygon class="cls-22" points="75.08 11.5 74.31 11.05 75.33 15.59 76.1 16.03 75.08 11.5"/><path class="cls-23" d="M80.92,8.08a1.15,1.15,0,0,0-.51-.89.34.34,0,0,0-.36,0h0L49.57,24.75,50.3,26,80.75,8.41l0,0h0A.38.38,0,0,0,80.92,8.08Z"/><path class="cls-24" d="M50.44,25.67c0,.32-.23.45-.51.29a1.11,1.11,0,0,1-.51-.88c0-.32.23-.46.51-.29A1.11,1.11,0,0,1,50.44,25.67Z"/><path class="cls-19" d="M89.36,9.4a11.14,11.14,0,0,0-5-8.71A3.88,3.88,0,0,0,81.27.12a.05.05,0,0,0,0,0l-.94.54,1.14.19A18.09,18.09,0,0,1,84,2c2,1.22,3.78,5.11,4.1,7.15.46,2.87-1.29,4.05-3.8,2.6a6.77,6.77,0,0,1-1-.72c-.08-.07-.17-.09-.22,0h0l-1,.56.62.77.61.55v1.37l1-.56V13c.92.53,1.78.1,2.52,0l0,0,0,.23.94-.55.19-.11h0A3.61,3.61,0,0,0,89.36,9.4Z"/><path class="cls-22" d="M83.35,1.25A3.92,3.92,0,0,0,80.29.68c-.1,0-.12.19,0,.36s.23.27.33.24a3.48,3.48,0,0,1,2.77.52,10.09,10.09,0,0,1,4.56,7.89c0,2.9-2,4.08-4.56,2.63a7.32,7.32,0,0,1-1-.72c-.12-.11-.25-.09-.28,0a.48.48,0,0,0,.18.43V13.6l1.12.64V12.87c2.78,1.6,5,.3,5-2.91A11.11,11.11,0,0,0,83.35,1.25Z"/><path class="cls-19" d="M97.47,9.47a9.83,9.83,0,0,0-3.06-3,3.55,3.55,0,0,0-3.57-.35h0l-1.11.65.18.31a3.86,3.86,0,0,0-1.26,2.56c-.37,3.18,2.31,7.21,5.09,8.81l.82,2.22,1-.56V18.63c.13,0,.21-.06.18-.23a.51.51,0,0,0-.29-.37,4.68,4.68,0,0,1-1-.45,10.07,10.07,0,0,1-4.56-7.9A3.25,3.25,0,0,1,91.1,6.79c1.67-.69,4.45,2.28,4.45,2.28l1,1.37.93-.54,0,0C97.59,9.81,97.57,9.62,97.47,9.47Z"/><path class="cls-22" d="M96.49,10a9.73,9.73,0,0,0-3.06-3c-2.77-1.6-5-.3-5,2.9a11.14,11.14,0,0,0,5,8.72v1.37l1.13.65V19.19c.12,0,.2-.06.17-.22a.48.48,0,0,0-.28-.37,5.66,5.66,0,0,1-1-.46,10.09,10.09,0,0,1-4.56-7.89c0-2.9,2-4.08,4.56-2.63A8.77,8.77,0,0,1,96.2,10.3c.11.15.26.22.34.14S96.6,10.19,96.49,10Z"/><path class="cls-19" d="M81.32,13.93a11.11,11.11,0,0,0-5-8.71,3.91,3.91,0,0,0-3.06-.57l0,0-.93.53,1.13.2A17.94,17.94,0,0,1,76,6.54c2,1.23,3.77,5.11,4.1,7.16.46,2.86-1.29,4-3.81,2.59a8,8,0,0,1-1-.72.18.18,0,0,0-.21-.05h0l-1,.56.63.77.61.55v1.38l1-.57v-.67c.92.53,1.79.1,2.53,0l0,0,0,.23.94-.54.19-.11h0A3.62,3.62,0,0,0,81.32,13.93Z"/><path class="cls-22" d="M75.32,5.78a3.92,3.92,0,0,0-3.06-.57c-.1,0-.12.2-.05.36s.23.28.34.24a3.52,3.52,0,0,1,2.77.52,10.09,10.09,0,0,1,4.56,7.89c0,2.9-2,4.08-4.56,2.63a6.12,6.12,0,0,1-1-.72c-.13-.1-.25-.08-.28.05a.51.51,0,0,0,.17.43v1.52l1.13.65V17.4c2.77,1.6,5,.3,5-2.9A11.14,11.14,0,0,0,75.32,5.78Z"/><path class="cls-25" d="M70.47,9.29A9.9,9.9,0,0,0,75,17.06c2.48,1.43,4.49.27,4.49-2.59A9.91,9.91,0,0,0,75,6.7C72.47,5.26,70.47,6.42,70.47,9.29Z"/><path class="cls-26" d="M74.72,11.24l-.27.37a.53.53,0,0,0-.1.24,1.05,1.05,0,0,0,0,.38c0,.07.06.15.09.23a1.35,1.35,0,0,0,.14.22l0,.06s0,0,0,0l0,0,.1.11L75,13a.39.39,0,0,0,.39,0l.07-.06a.31.31,0,0,1,0-.1,2.58,2.58,0,0,1,.08-.26l0-.14,0-.14a1.06,1.06,0,0,0,0-.31,2.25,2.25,0,0,0-.19-.74,2.55,2.55,0,0,0-.47-.72l0,0,0,0s0,0,0,0h0l-.09-.07c-.06-.05-.12-.12-.18-.16a2.46,2.46,0,0,0-.32-.19A2.13,2.13,0,0,0,74,10a.82.82,0,0,0-.31,0,.35.35,0,0,0-.13,0l-.12.08-.1.12,0,0s0,0,0,0v0l0,.09a2.28,2.28,0,0,0,.09,1.78,4.16,4.16,0,0,0,.57,1l.18.22.21.22c.13.11.27.23.41.33a1.88,1.88,0,0,0,.87.33.9.9,0,0,0,.71-.22,1.14,1.14,0,0,0,.23-.33,2,2,0,0,0,.1-.21c0-.07.06-.15.08-.22a2.9,2.9,0,0,0,.06-1.08,5.29,5.29,0,0,0-1.09-2.52,3.29,3.29,0,0,0-2-1.37,1.14,1.14,0,0,0-.86.21,1,1,0,0,0-.29.33,2.26,2.26,0,0,0-.11.22l-.1.25a3.63,3.63,0,0,0-.29,1,4,4,0,0,0,.09,1.27,6.43,6.43,0,0,0,1.31,2.59l.24.28.24.27a5.34,5.34,0,0,0,.5.46,4.57,4.57,0,0,0,1,.66,2,2,0,0,0,1.81,0,1.56,1.56,0,0,0,.59-.58l.12-.2.08-.21a3.09,3.09,0,0,0,.14-.46A5.2,5.2,0,0,0,78,12.21a7.77,7.77,0,0,0-1.13-2.29,2.27,2.27,0,0,0-.18-.25l-.19-.24L76.09,9l-.42-.42c-.14-.14-.29-.28-.42-.39S75,8,74.84,7.85a3.54,3.54,0,0,0-.41-.26c-.13-.08-.26-.13-.4-.2a2.72,2.72,0,0,0-.38-.11,1.75,1.75,0,0,0-1.26.2l-.24.17-.22.2c-.06.07-.14.14-.19.21l-.15.25a3.85,3.85,0,0,0-.36,1.15,4.31,4.31,0,0,0,0,1.19,5.82,5.82,0,0,0,.62,1.87c.11.22.22.37.28.48l.09.17,0,0-.1-.16c-.07-.11-.18-.27-.3-.48a6.3,6.3,0,0,1-.72-2,4.39,4.39,0,0,1,.27-2.53c0-.1.09-.19.15-.29l.2-.25c.06-.07.14-.14.22-.22l.25-.19a1.85,1.85,0,0,1,1.37-.26A2.38,2.38,0,0,1,74,7a4.43,4.43,0,0,1,.45.2,4.34,4.34,0,0,1,.46.28c.16.12.31.22.47.36a5.76,5.76,0,0,1,.44.41l.44.43.45.48.21.27a1.86,1.86,0,0,1,.21.28,7.19,7.19,0,0,1,1.48,5.12,2.86,2.86,0,0,1-.16.52c0,.08-.07.17-.11.24l-.12.2a1.81,1.81,0,0,1-.68.64,2.29,2.29,0,0,1-2-.1,5.09,5.09,0,0,1-1.13-.76A5.49,5.49,0,0,1,73.8,15l-.26-.29-.24-.29a7,7,0,0,1-1.37-2.85,3.92,3.92,0,0,1-.06-1.35,3.18,3.18,0,0,1,.33-1L72.3,9c0-.08.07-.16.11-.23a1.38,1.38,0,0,1,.33-.35,1.26,1.26,0,0,1,.91-.21,2.69,2.69,0,0,1,1.09.45,3.64,3.64,0,0,1,.53.44,6.51,6.51,0,0,1,.51.54A5.84,5.84,0,0,1,77,12.28a3.08,3.08,0,0,1,0,1.22,1.49,1.49,0,0,1-.07.25c0,.09-.06.15-.09.23a1.33,1.33,0,0,1-.26.39c-.41.45-1.13.4-1.82-.06a3.67,3.67,0,0,1-.51-.41L74,13.67l-.22-.26a4.72,4.72,0,0,1-.69-1.21A2.72,2.72,0,0,1,73,10.06L73,10l0,0,0,0,.13-.14a.78.78,0,0,1,.15-.1.49.49,0,0,1,.17-.06,1,1,0,0,1,.39,0,1.81,1.81,0,0,1,.41.14,2.94,2.94,0,0,1,.42.27c.07,0,.12.11.18.16l.08.08,0,0,0,0,0,.05a2.9,2.9,0,0,1,.57.91,2.65,2.65,0,0,1,.21.9,1.71,1.71,0,0,1,0,.36l0,.16s0,.08,0,.13l-.1.25-.07.12a.43.43,0,0,1-.1.09.55.55,0,0,1-.51,0,1.31,1.31,0,0,1-.27-.21l-.1-.11,0,0,0,0,0-.07a1.33,1.33,0,0,1-.16-.28,1,1,0,0,1-.09-.27.68.68,0,0,1,.1-.68l.3-.33Z"/><path class="cls-27" d="M79.44,14.47a3.66,3.66,0,0,1-.71,2.37s-.07.16-.48.46a2.07,2.07,0,0,0,.8-.56,3.65,3.65,0,0,0,.82-2.53,10.09,10.09,0,0,0-4.56-7.89,3.74,3.74,0,0,0-2.38-.6l-1.05.61a2.49,2.49,0,0,1,.47-.17A3.52,3.52,0,0,1,75,6.7,9.91,9.91,0,0,1,79.44,14.47Z"/><path class="cls-27" d="M82.24,2.49a3.16,3.16,0,0,0-3.17-.32h0L74.83,4.62a5.33,5.33,0,0,1,1.46.59,11.14,11.14,0,0,1,5,8.71A5,5,0,0,1,81,15.7l4.26-2.46h0a3.08,3.08,0,0,0,1.45-3A9.91,9.91,0,0,0,82.24,2.49Z"/><path class="cls-28" d="M80.74,10.9a9,9,0,0,1,.58,3A5,5,0,0,1,81,15.7l4.26-2.46h0a3.08,3.08,0,0,0,1.45-3,8.09,8.09,0,0,0-.46-2.55Z"/><path class="cls-19" d="M89.43,14a9.73,9.73,0,0,0-3.06-3,3.53,3.53,0,0,0-3.56-.34h0l-1.11.65.18.3a3.86,3.86,0,0,0-1.26,2.57c-.37,3.18,2.31,7.2,5.08,8.8l.82,2.22,1-.56V23.16c.12,0,.2-.06.17-.22a.48.48,0,0,0-.28-.37,5.66,5.66,0,0,1-1-.46,10.08,10.08,0,0,1-4.55-7.89,3.28,3.28,0,0,1,1.24-2.9c1.68-.69,4.46,2.29,4.46,2.29l1,1.36.94-.53,0,0C89.56,14.34,89.54,14.16,89.43,14Z"/><path class="cls-22" d="M88.46,14.57a9.77,9.77,0,0,0-3.06-3c-2.77-1.6-5-.3-5,2.91a11.14,11.14,0,0,0,5,8.71V24.6l1.12.64V23.72c.13,0,.21-.06.18-.22a.5.5,0,0,0-.28-.37,4.59,4.59,0,0,1-1-.46,10.09,10.09,0,0,1-4.56-7.89c0-2.9,2-4.08,4.56-2.63a8.77,8.77,0,0,1,2.77,2.68c.1.16.25.22.33.14S88.56,14.72,88.46,14.57Z"/><path class="cls-19" d="M73.38,18.52a11.13,11.13,0,0,0-5-8.72,3.86,3.86,0,0,0-3.06-.56l0,0-.93.54,1.13.19a19.25,19.25,0,0,1,2.61,1.13c2,1.23,3.77,5.12,4.1,7.16.46,2.87-1.29,4-3.81,2.6a9.09,9.09,0,0,1-1-.72c-.08-.07-.16-.09-.21-.06h0l-1,.56.63.78.61.54v1.38l1-.56v-.67c.92.53,1.79.1,2.53,0l0,0,0,.24.93-.55.2-.11h0A3.61,3.61,0,0,0,73.38,18.52Z"/><path class="cls-22" d="M67.38,10.37a3.88,3.88,0,0,0-3.06-.57c-.1,0-.12.19,0,.36s.22.27.33.24a3.52,3.52,0,0,1,2.77.51,10.1,10.1,0,0,1,4.56,7.9c0,2.9-2,4.08-4.56,2.63a6.77,6.77,0,0,1-1-.72c-.13-.11-.25-.09-.28,0a.49.49,0,0,0,.18.43v1.52l1.12.65V22c2.77,1.6,5,.3,5-2.9A11.14,11.14,0,0,0,67.38,10.37Z"/><path class="cls-25" d="M62.52,13.87A9.91,9.91,0,0,0,67,21.64c2.47,1.43,4.48.27,4.48-2.59A9.93,9.93,0,0,0,67,11.28C64.53,9.85,62.52,11,62.52,13.87Z"/><path class="cls-26" d="M66.77,15.83l-.27.37a.61.61,0,0,0-.1.23.89.89,0,0,0,0,.38,1,1,0,0,0,.08.23,1.76,1.76,0,0,0,.14.23l0,.05s0,0,0,0l0,0a1.14,1.14,0,0,1,.11.11.69.69,0,0,0,.2.13.37.37,0,0,0,.38,0l.07-.07,0-.1.09-.26,0-.13,0-.14a1.12,1.12,0,0,0,0-.31,2.19,2.19,0,0,0-.19-.74,2.49,2.49,0,0,0-.47-.72l0,0,0,0h0L66.92,15l-.17-.15a1.79,1.79,0,0,0-.32-.19,1.12,1.12,0,0,0-.34-.11.75.75,0,0,0-.3,0,.34.34,0,0,0-.14,0s-.08.05-.12.09l-.1.12,0,0s0,0,0,0v0l0,.08a2.34,2.34,0,0,0,.08,1.79,4.1,4.1,0,0,0,.57,1l.19.23.21.21a2.2,2.2,0,0,0,.41.33,1.8,1.8,0,0,0,.86.34.89.89,0,0,0,.71-.23,1,1,0,0,0,.24-.33,1.76,1.76,0,0,0,.09-.2,1,1,0,0,0,.08-.23,2.69,2.69,0,0,0,.06-1.08,5.16,5.16,0,0,0-1.09-2.51,3.32,3.32,0,0,0-2-1.38,1.14,1.14,0,0,0-.86.21,1.41,1.41,0,0,0-.3.34c0,.07-.07.15-.11.22l-.09.24a3.41,3.41,0,0,0-.29,1,4.09,4.09,0,0,0,.09,1.28,6.37,6.37,0,0,0,1.3,2.58l.24.29.25.26a5.25,5.25,0,0,0,.49.46,4.24,4.24,0,0,0,1,.66,2,2,0,0,0,1.81.06,1.52,1.52,0,0,0,.59-.59l.12-.2a1.89,1.89,0,0,0,.09-.21,3.09,3.09,0,0,0,.13-.46,4.94,4.94,0,0,0-.19-2.28,7.69,7.69,0,0,0-1.12-2.28,2.35,2.35,0,0,0-.19-.25L68.55,14c-.13-.15-.26-.3-.4-.44l-.42-.43c-.15-.14-.29-.28-.42-.39s-.28-.22-.41-.33-.28-.19-.41-.26-.27-.13-.4-.19a3.18,3.18,0,0,0-.38-.11,1.69,1.69,0,0,0-1.26.2,2.2,2.2,0,0,0-.25.17,1.9,1.9,0,0,0-.21.19l-.2.21a2.15,2.15,0,0,0-.14.26A3.53,3.53,0,0,0,63.29,14a4.82,4.82,0,0,0,0,1.2,6,6,0,0,0,.63,1.87c.11.21.21.37.27.48l.1.16,0,0-.11-.16c-.06-.11-.17-.26-.3-.48a6.66,6.66,0,0,1-.72-1.94,4.42,4.42,0,0,1,.28-2.54,1.51,1.51,0,0,1,.15-.28,2.71,2.71,0,0,1,.19-.25L64,11.9l.25-.19a1.81,1.81,0,0,1,1.37-.27,3.89,3.89,0,0,1,.43.11,4.54,4.54,0,0,1,.45.21,4.73,4.73,0,0,1,.46.28,4.82,4.82,0,0,1,.46.36c.16.13.3.26.45.4l.43.43.45.49L69,14l.21.28a7.17,7.17,0,0,1,1.47,5.13,3.13,3.13,0,0,1-.16.52l-.1.24-.13.19a1.59,1.59,0,0,1-.67.64,2.29,2.29,0,0,1-2-.1,4.82,4.82,0,0,1-1.14-.76c-.18-.15-.37-.34-.55-.52l-.25-.29-.25-.3A6.83,6.83,0,0,1,64,16.16a4.14,4.14,0,0,1-.07-1.34,3.81,3.81,0,0,1,.33-1.05l.1-.24a2.39,2.39,0,0,1,.12-.22,1.08,1.08,0,0,1,.32-.35,1.18,1.18,0,0,1,.91-.21,2.4,2.4,0,0,1,1.09.45,3.59,3.59,0,0,1,.54.44,5.23,5.23,0,0,1,.5.54,5.81,5.81,0,0,1,1.23,2.69,3.28,3.28,0,0,1,0,1.22,1.35,1.35,0,0,1-.08.24c0,.09-.06.15-.09.23a1.36,1.36,0,0,1-.25.4,1.41,1.41,0,0,1-1.82-.06,3.73,3.73,0,0,1-.52-.41l-.22-.24L65.83,18a5.08,5.08,0,0,1-.7-1.21,2.76,2.76,0,0,1-.08-2.14l0-.08,0-.05,0,0,.13-.15a1.29,1.29,0,0,1,.16-.09.35.35,0,0,1,.17-.06,1,1,0,0,1,.38,0,1.66,1.66,0,0,1,.41.14,2.47,2.47,0,0,1,.42.27c.07,0,.12.11.18.16l.09.09,0,0,0,0,0,.05a3.65,3.65,0,0,1,.57.91,2.45,2.45,0,0,1,.2.9,1.38,1.38,0,0,1,0,.37s0,.09-.05.15a.5.5,0,0,1,0,.13l-.09.26a.75.75,0,0,0-.07.12l-.1.08a.52.52,0,0,1-.52,0,1.21,1.21,0,0,1-.26-.2l-.1-.12,0,0,0,0,0-.07c-.06-.09-.11-.19-.16-.28s-.07-.19-.09-.28a.7.7,0,0,1,.11-.68l.3-.33Z"/><path class="cls-27" d="M71.49,19.05a3.75,3.75,0,0,1-.7,2.38,1.58,1.58,0,0,1-.49.45,2,2,0,0,0,.8-.56,3.6,3.6,0,0,0,.82-2.53,10.08,10.08,0,0,0-4.55-7.89A3.9,3.9,0,0,0,65,10.3l-1.05.61a2.86,2.86,0,0,1,.47-.17,3.58,3.58,0,0,1,2.61.54A9.93,9.93,0,0,1,71.49,19.05Z"/><path class="cls-27" d="M74.3,7.07a3.16,3.16,0,0,0-3.17-.31h0L66.89,9.2a5.4,5.4,0,0,1,1.45.59,11.14,11.14,0,0,1,5,8.71,5,5,0,0,1-.3,1.78l4.27-2.46h0a3.07,3.07,0,0,0,1.44-3A9.93,9.93,0,0,0,74.3,7.07Z"/><path class="cls-28" d="M72.79,15.49a8.86,8.86,0,0,1,.58,3,5,5,0,0,1-.3,1.78l4.27-2.46h0a3.07,3.07,0,0,0,1.44-3,8,8,0,0,0-.46-2.54Z"/><path class="cls-19" d="M81.49,18.59a9.66,9.66,0,0,0-3.06-3,3.53,3.53,0,0,0-3.56-.34h0l-1.11.65.18.3a3.88,3.88,0,0,0-1.26,2.57C72.31,22,75,26,77.77,27.61l.81,2.22,1-.56V27.74c.12,0,.2-.06.17-.22a.5.5,0,0,0-.28-.37,5.58,5.58,0,0,1-1-.45,10.12,10.12,0,0,1-4.55-7.9,3.25,3.25,0,0,1,1.24-2.89c1.68-.69,4.46,2.28,4.46,2.28l1,1.37L81.5,19l0,0C81.62,18.92,81.6,18.74,81.49,18.59Z"/><path class="cls-22" d="M80.52,19.15a9.73,9.73,0,0,0-3.06-3c-2.77-1.6-5-.3-5,2.9a11.14,11.14,0,0,0,5,8.71v1.38l1.12.65V28.31c.13,0,.21-.06.18-.23a.52.52,0,0,0-.28-.37,4.75,4.75,0,0,1-1-.45,10.1,10.1,0,0,1-4.56-7.9c0-2.9,2-4.08,4.56-2.63a8.92,8.92,0,0,1,2.77,2.69c.1.15.25.21.33.14S80.62,19.3,80.52,19.15Z"/><path class="cls-19" d="M65.34,23.16a11.14,11.14,0,0,0-5-8.71,3.88,3.88,0,0,0-3.06-.57l0,0-.94.54,1.14.2A17.55,17.55,0,0,1,60,15.77c2,1.22,3.78,5.11,4.11,7.16.46,2.86-1.3,4-3.81,2.59a6.77,6.77,0,0,1-1-.72.2.2,0,0,0-.22-.05h0l-1,.56.63.77.6.55V28l1-.56v-.67c.92.53,1.78.1,2.52,0l0,0,0,.23.94-.55a1.18,1.18,0,0,0,.19-.11h0A3.6,3.6,0,0,0,65.34,23.16Z"/><path class="cls-22" d="M59.33,15a3.91,3.91,0,0,0-3.06-.57c-.1,0-.12.2,0,.36s.23.27.33.24a3.48,3.48,0,0,1,2.77.52,10.07,10.07,0,0,1,4.56,7.89c0,2.9-2,4.08-4.56,2.63a7.24,7.24,0,0,1-1-.72c-.13-.1-.26-.09-.29,0a.48.48,0,0,0,.18.43v1.53l1.12.64V26.63c2.78,1.6,5,.3,5-2.91A11.11,11.11,0,0,0,59.33,15Z"/><path class="cls-25" d="M54.45,18.51a9.93,9.93,0,0,0,4.48,7.77c2.48,1.43,4.49.27,4.49-2.59a9.91,9.91,0,0,0-4.49-7.77C56.46,14.49,54.45,15.65,54.45,18.51Z"/><path class="cls-26" d="M58.52,20.26l-.27.37a.61.61,0,0,0-.1.23.87.87,0,0,0,0,.38,1,1,0,0,0,.08.23,1.76,1.76,0,0,0,.14.23l0,.05s0,0,0,0l0,0,.11.11a.69.69,0,0,0,.2.13.37.37,0,0,0,.38,0l.07-.07,0-.09.09-.27,0-.13,0-.14a1.09,1.09,0,0,0,0-.31,2.19,2.19,0,0,0-.19-.74,2.63,2.63,0,0,0-.47-.72l0,0,0,0h0l-.09-.08-.17-.15a2.69,2.69,0,0,0-.32-.19,1.12,1.12,0,0,0-.34-.11,1,1,0,0,0-.3,0,.25.25,0,0,0-.14.06.62.62,0,0,0-.12.08l-.1.12,0,0h0v0l0,.08a2.34,2.34,0,0,0,.08,1.79,4.36,4.36,0,0,0,.57,1l.19.22.21.21a2.74,2.74,0,0,0,.41.34,1.89,1.89,0,0,0,.86.33.89.89,0,0,0,.71-.23,1.12,1.12,0,0,0,.24-.32c0-.07.07-.15.09-.21a1,1,0,0,0,.08-.23,2.67,2.67,0,0,0,.06-1.08,5.16,5.16,0,0,0-1.09-2.51,3.37,3.37,0,0,0-2-1.38,1.19,1.19,0,0,0-.86.21,1.41,1.41,0,0,0-.3.34c0,.07-.07.15-.11.22l-.09.24a3.5,3.5,0,0,0-.29,1,4.07,4.07,0,0,0,.09,1.28,6.37,6.37,0,0,0,1.3,2.58l.24.29.25.27c.16.16.32.32.49.46a4.51,4.51,0,0,0,1,.65,2,2,0,0,0,1.81.06,1.56,1.56,0,0,0,.59-.58l.12-.21a1.33,1.33,0,0,0,.09-.21A2.78,2.78,0,0,0,62,23.5a4.94,4.94,0,0,0-.19-2.28,7.81,7.81,0,0,0-1.12-2.28,2.35,2.35,0,0,0-.19-.25l-.19-.24L59.9,18l-.42-.43c-.15-.13-.29-.28-.42-.39s-.28-.22-.41-.33a3.77,3.77,0,0,0-.41-.25,3,3,0,0,0-.4-.2,3.18,3.18,0,0,0-.38-.11,1.74,1.74,0,0,0-1.26.2,2.2,2.2,0,0,0-.25.17,1.9,1.9,0,0,0-.21.19l-.2.22a1.48,1.48,0,0,0-.14.25A3.53,3.53,0,0,0,55,18.47a4.82,4.82,0,0,0,0,1.2,5.88,5.88,0,0,0,.63,1.87c.11.21.21.37.27.48l.1.16,0,0L55.91,22c-.06-.11-.17-.26-.3-.47a6.86,6.86,0,0,1-.72-1.95,4.43,4.43,0,0,1,.28-2.54,1.51,1.51,0,0,1,.15-.28,2.71,2.71,0,0,1,.19-.25c.07-.08.15-.15.22-.22l.25-.19a1.81,1.81,0,0,1,1.37-.27,3.89,3.89,0,0,1,.43.11,4.54,4.54,0,0,1,.45.21,4.73,4.73,0,0,1,.46.28,4.82,4.82,0,0,1,.46.36c.16.13.3.26.45.4l.43.44q.22.22.45.48l.22.27a3.17,3.17,0,0,1,.21.27,7.17,7.17,0,0,1,1.47,5.13,3.13,3.13,0,0,1-.16.52l-.1.24-.13.2a1.62,1.62,0,0,1-.67.63,2.29,2.29,0,0,1-2-.1,5.08,5.08,0,0,1-1.14-.75c-.18-.16-.37-.35-.55-.53l-.25-.29-.25-.3a6.85,6.85,0,0,1-1.36-2.84,4.21,4.21,0,0,1-.07-1.35,3.63,3.63,0,0,1,.33-1l.1-.24a1.67,1.67,0,0,1,.12-.23,1.08,1.08,0,0,1,.32-.35,1.22,1.22,0,0,1,.91-.21,2.4,2.4,0,0,1,1.09.45,4.34,4.34,0,0,1,.54.44,5.23,5.23,0,0,1,.5.54,5.81,5.81,0,0,1,1.23,2.69,3.28,3.28,0,0,1,0,1.22,1.35,1.35,0,0,1-.08.24c0,.09-.06.16-.09.23a1.36,1.36,0,0,1-.25.4,1.39,1.39,0,0,1-1.82-.06,3.73,3.73,0,0,1-.52-.41l-.22-.23-.22-.27a4.89,4.89,0,0,1-.7-1.21,2.76,2.76,0,0,1-.08-2.14l.05-.08,0,0,0,0,.13-.14a.7.7,0,0,1,.16-.1.35.35,0,0,1,.17-.06,1,1,0,0,1,.38,0,1.7,1.7,0,0,1,.41.15,1.92,1.92,0,0,1,.42.26l.18.17.09.08,0,0,0,0,0,.05a3.65,3.65,0,0,1,.57.91,2.45,2.45,0,0,1,.2.9,1.35,1.35,0,0,1,0,.37s0,.09,0,.15l-.05.13-.09.26a.75.75,0,0,0-.07.12l-.1.08a.52.52,0,0,1-.52,0,1.21,1.21,0,0,1-.26-.2l-.1-.11,0,0,0,0-.05-.07c-.06-.09-.11-.19-.16-.28s-.07-.19-.09-.27a.72.72,0,0,1,.11-.69l.3-.33Z"/><path class="cls-27" d="M63.42,23.69a3.69,3.69,0,0,1-.71,2.38,1.59,1.59,0,0,1-.48.45A2,2,0,0,0,63,26a3.81,3.81,0,0,0,.86-2.6,9.82,9.82,0,0,0-4.53-7.77,4.06,4.06,0,0,0-2.45-.65l-1,.61a4.53,4.53,0,0,1,.47-.17,3.56,3.56,0,0,1,2.6.54A9.91,9.91,0,0,1,63.42,23.69Z"/><path class="cls-27" d="M66.22,11.71a3.15,3.15,0,0,0-3.17-.31h0l-4.23,2.44a5.75,5.75,0,0,1,1.45.59,11.14,11.14,0,0,1,5,8.72,5,5,0,0,1-.3,1.77l4.26-2.46h0a3.07,3.07,0,0,0,1.45-3A9.92,9.92,0,0,0,66.22,11.71Z"/><path class="cls-28" d="M64.73,20.14a9.09,9.09,0,0,1,.57,3,5,5,0,0,1-.3,1.77l4.26-2.46h0a3.07,3.07,0,0,0,1.45-3A8,8,0,0,0,70.25,17Z"/><path class="cls-19" d="M73.45,23.23a9.73,9.73,0,0,0-3.06-3,3.53,3.53,0,0,0-3.56-.35h0l-1.12.65.19.31a3.82,3.82,0,0,0-1.26,2.56c-.37,3.18,2.31,7.21,5.08,8.81l.82,2.22,1-.56V32.39c.13,0,.21-.06.18-.23a.49.49,0,0,0-.28-.36,5.36,5.36,0,0,1-1-.46,10.09,10.09,0,0,1-4.56-7.89,3.28,3.28,0,0,1,1.25-2.9c1.67-.69,4.45,2.28,4.45,2.28l1,1.37.93-.54a.05.05,0,0,0,0,0C73.57,23.57,73.55,23.38,73.45,23.23Z"/><path class="cls-22" d="M72.47,23.8a9.66,9.66,0,0,0-3.06-3c-2.77-1.6-5-.3-5,2.91a11.14,11.14,0,0,0,5,8.71v1.37l1.13.65V33c.12,0,.2-.06.18-.22a.49.49,0,0,0-.29-.37,5.66,5.66,0,0,1-1-.46A10.08,10.08,0,0,1,64.86,24c0-2.9,2-4.08,4.55-2.63a8.7,8.7,0,0,1,2.78,2.68c.1.15.25.22.33.14S72.58,24,72.47,23.8Z"/><path class="cls-19" d="M57.48,27.7a11.14,11.14,0,0,0-5-8.71,3.88,3.88,0,0,0-3.06-.57.05.05,0,0,0,0,0l-.94.54,1.14.19a18.09,18.09,0,0,1,2.6,1.14c2,1.22,3.78,5.11,4.1,7.16.46,2.86-1.29,4-3.8,2.59a6.77,6.77,0,0,1-1-.72c-.08-.07-.17-.09-.22-.05h0l-1,.56.62.77.61.55v1.37l1-.56v-.67c.92.53,1.78.1,2.52,0l0,0,0,.23.94-.55.19-.11h0A3.61,3.61,0,0,0,57.48,27.7Z"/><path class="cls-22" d="M51.47,19.55A3.92,3.92,0,0,0,48.41,19c-.1,0-.12.19,0,.36s.23.27.33.24a3.48,3.48,0,0,1,2.77.52A10.09,10.09,0,0,1,56,28c0,2.9-2.05,4.08-4.56,2.63a8,8,0,0,1-1-.72c-.12-.11-.25-.09-.28,0a.48.48,0,0,0,.18.43V31.9l1.12.64V31.17c2.78,1.6,5,.3,5-2.91A11.11,11.11,0,0,0,51.47,19.55Z"/><path class="cls-25" d="M46.63,23.06a9.93,9.93,0,0,0,4.48,7.78c2.48,1.43,4.49.27,4.49-2.59a9.93,9.93,0,0,0-4.49-7.78C48.64,19,46.63,20.2,46.63,23.06Z"/><path class="cls-26" d="M51,25.14l-.27.37a.53.53,0,0,0-.1.24,1.05,1.05,0,0,0,0,.38c0,.07.06.15.09.23a1.35,1.35,0,0,0,.14.22l0,.06s0,0,0,0l0,0,.1.11a1.21,1.21,0,0,0,.2.14.39.39,0,0,0,.39,0l.07-.06.05-.1a2.58,2.58,0,0,1,.08-.26l0-.14,0-.14a1.06,1.06,0,0,0,0-.31,2.25,2.25,0,0,0-.19-.74,2.55,2.55,0,0,0-.47-.72l0,0,0,0s0,0,0,0h0l-.09-.07a2,2,0,0,0-.17-.15,2.23,2.23,0,0,0-.33-.2,2.13,2.13,0,0,0-.33-.11,1,1,0,0,0-.3,0,.34.34,0,0,0-.14.05,1.25,1.25,0,0,0-.12.08l-.1.12,0,0s0,0,0,0v0l0,.08a2.28,2.28,0,0,0,.09,1.78,4.16,4.16,0,0,0,.57,1l.18.22.21.22a3.39,3.39,0,0,0,.42.33,1.71,1.71,0,0,0,.86.33.9.9,0,0,0,.71-.22,1.14,1.14,0,0,0,.23-.33,1,1,0,0,0,.1-.21c0-.07.06-.15.08-.22a2.9,2.9,0,0,0,.06-1.08A5.29,5.29,0,0,0,52,23.59a3.29,3.29,0,0,0-2-1.37,1.14,1.14,0,0,0-.86.21,1,1,0,0,0-.29.33,1.13,1.13,0,0,0-.11.22l-.1.25a3.63,3.63,0,0,0-.29,1,4,4,0,0,0,.09,1.27,6.43,6.43,0,0,0,1.31,2.59l.24.28.24.27a5.34,5.34,0,0,0,.5.46,4.57,4.57,0,0,0,1,.66,2,2,0,0,0,1.81.05,1.56,1.56,0,0,0,.59-.58l.12-.2.08-.21a3.09,3.09,0,0,0,.14-.46,5.21,5.21,0,0,0-.19-2.28,7.77,7.77,0,0,0-1.13-2.29,2.27,2.27,0,0,0-.18-.25l-.19-.24-.41-.44L52,22.47c-.14-.14-.29-.28-.42-.39s-.27-.22-.41-.33a3.54,3.54,0,0,0-.41-.26,2.93,2.93,0,0,0-.4-.19,1.27,1.27,0,0,0-.38-.11,1.7,1.7,0,0,0-1.26.19l-.24.17-.22.2c-.06.07-.14.14-.19.21l-.15.25a3.57,3.57,0,0,0-.35,1.15,4,4,0,0,0,0,1.2,5.83,5.83,0,0,0,.62,1.86c.11.22.22.37.28.48l.09.17,0,0a1.43,1.43,0,0,0-.1-.16c-.07-.11-.18-.27-.3-.48a6.3,6.3,0,0,1-.72-1.95A4.39,4.39,0,0,1,47.64,22l.15-.29.2-.25c.06-.07.14-.14.22-.22l.25-.19a1.85,1.85,0,0,1,1.37-.26,2.38,2.38,0,0,1,.42.11,4.43,4.43,0,0,1,.45.2c.16.08.31.19.46.28s.31.22.47.36a5.76,5.76,0,0,1,.44.41l.44.43L53,23l.21.27a1.86,1.86,0,0,1,.21.28,7.2,7.2,0,0,1,1.48,5.12,2.64,2.64,0,0,1-.16.52c0,.08-.07.17-.11.24l-.12.2a1.81,1.81,0,0,1-.68.64,2.29,2.29,0,0,1-2-.1,5.09,5.09,0,0,1-1.13-.76,5.49,5.49,0,0,1-.55-.53l-.26-.29c-.08-.1-.16-.18-.24-.29a7,7,0,0,1-1.37-2.85,4.17,4.17,0,0,1-.06-1.35,3.18,3.18,0,0,1,.33-1l.1-.24a1.67,1.67,0,0,1,.12-.23,1.2,1.2,0,0,1,.32-.35,1.26,1.26,0,0,1,.91-.21,2.69,2.69,0,0,1,1.09.45,3.64,3.64,0,0,1,.53.44,6.51,6.51,0,0,1,.51.54,5.83,5.83,0,0,1,1.22,2.7,3.09,3.09,0,0,1,0,1.22,1.68,1.68,0,0,1-.07.24c0,.09-.06.15-.09.23a1.21,1.21,0,0,1-.26.39c-.41.45-1.13.4-1.82-.06a3.67,3.67,0,0,1-.51-.41l-.23-.23-.22-.26a4.72,4.72,0,0,1-.69-1.21A2.72,2.72,0,0,1,49.28,24l0-.09,0,0,0,0,.13-.14a.78.78,0,0,1,.15-.1.49.49,0,0,1,.17-.06,1,1,0,0,1,.39,0,1.81,1.81,0,0,1,.41.14,2.94,2.94,0,0,1,.42.27c.07.05.12.11.18.16l.08.08,0,0,0,0,0,0a2.9,2.9,0,0,1,.57.91,2.65,2.65,0,0,1,.21.9,1.71,1.71,0,0,1,0,.36c0,.05,0,.09,0,.16s0,.08,0,.13L52,27s-.05.08-.07.13l-.1.08a.5.5,0,0,1-.51,0,1.71,1.71,0,0,1-.27-.2l-.1-.12,0,0s0,0,0,0l0-.07a1.33,1.33,0,0,1-.16-.28,1,1,0,0,1-.09-.27.7.7,0,0,1,.1-.68L51,25.1Z"/><path class="cls-27" d="M55.6,28.25a3.66,3.66,0,0,1-.71,2.37s-.07.16-.48.46a2.07,2.07,0,0,0,.8-.56A3.62,3.62,0,0,0,56,28a10.09,10.09,0,0,0-4.56-7.89,3.74,3.74,0,0,0-2.38-.6L48,20.11a2.86,2.86,0,0,1,.47-.17,3.55,3.55,0,0,1,2.6.53A9.93,9.93,0,0,1,55.6,28.25Z"/><path class="cls-27" d="M58.4,16.27A3.16,3.16,0,0,0,55.23,16h0L51,18.4a5.4,5.4,0,0,1,1.45.59,11.14,11.14,0,0,1,5,8.71,5,5,0,0,1-.3,1.78L61.44,27h0a3.06,3.06,0,0,0,1.45-3A9.91,9.91,0,0,0,58.4,16.27Z"/><path class="cls-28" d="M56.9,24.67a9.27,9.27,0,0,1,.58,3,5,5,0,0,1-.3,1.78L61.44,27h0a3.06,3.06,0,0,0,1.45-3,8,8,0,0,0-.47-2.57Z"/><path class="cls-19" d="M65.59,27.77a9.83,9.83,0,0,0-3.06-3A3.55,3.55,0,0,0,59,24.46h0l-1.11.65.18.31A3.86,3.86,0,0,0,56.77,28c-.37,3.18,2.32,7.21,5.09,8.81L62.68,39l1-.56V36.93c.13,0,.21-.06.18-.23a.51.51,0,0,0-.29-.37,4.68,4.68,0,0,1-1-.45A10.07,10.07,0,0,1,58,28a3.26,3.26,0,0,1,1.25-2.9c1.67-.69,4.45,2.28,4.45,2.28l1,1.37.93-.54,0,0C65.71,28.11,65.69,27.92,65.59,27.77Z"/><path class="cls-22" d="M64.61,28.33a9.73,9.73,0,0,0-3.06-3c-2.77-1.6-5-.3-5,2.9a11.14,11.14,0,0,0,5,8.72v1.37l1.13.65V37.49c.12,0,.2-.06.17-.22a.48.48,0,0,0-.28-.37,5.66,5.66,0,0,1-1-.46A10.08,10.08,0,0,1,57,28.55c0-2.9,2-4.08,4.55-2.63a8.77,8.77,0,0,1,2.77,2.68c.11.15.26.22.34.14S64.72,28.49,64.61,28.33Z"/><path class="cls-25" d="M80.63,15.2a8.34,8.34,0,0,0,.66,3.09s.38.41.3.66a9.48,9.48,0,0,0,3.53,4c2.48,1.43,4.48.27,4.48-2.59a9.9,9.9,0,0,0-4.48-7.77C82.64,11.18,80.63,12.34,80.63,15.2Z"/><path class="cls-26" d="M84.8,17.21l-.27.37a.49.49,0,0,0-.1.23,1,1,0,0,0,0,.38,2.18,2.18,0,0,0,.09.23,1.09,1.09,0,0,0,.14.23l0,.05s0,0,0,0l0,0,.1.11a1.13,1.13,0,0,0,.2.13.39.39,0,0,0,.39,0l.07-.07,0-.1c0-.08,0-.17.08-.26s0-.09,0-.13l0-.14a1.08,1.08,0,0,0,0-.31,2.19,2.19,0,0,0-.19-.74,2.63,2.63,0,0,0-.47-.72l0,0,0,0s0,0,0,0h0L85,16.38c-.06-.05-.12-.11-.18-.15a1.29,1.29,0,0,0-.32-.19,1.07,1.07,0,0,0-.33-.11.81.81,0,0,0-.31,0,.25.25,0,0,0-.13.06.32.32,0,0,0-.12.08l-.1.12s0,0,0,0,0,0,0,0v0l0,.08a2.31,2.31,0,0,0,.09,1.79,4.36,4.36,0,0,0,.57,1l.18.22.21.21a3.12,3.12,0,0,0,.41.33,1.8,1.8,0,0,0,.87.34.9.9,0,0,0,.71-.23,1.09,1.09,0,0,0,.23-.32c0-.07.08-.15.1-.21s.06-.15.08-.23a2.87,2.87,0,0,0,.06-1.08,5.26,5.26,0,0,0-1.09-2.51,3.36,3.36,0,0,0-2-1.38,1.14,1.14,0,0,0-.86.21,1.19,1.19,0,0,0-.29.34,2.26,2.26,0,0,0-.11.22l-.1.24a3.73,3.73,0,0,0-.29,1,4.07,4.07,0,0,0,.09,1.28,6.39,6.39,0,0,0,1.31,2.58c.07.1.16.19.24.29l.24.26c.17.17.32.32.5.47a4.51,4.51,0,0,0,1,.65,2,2,0,0,0,1.81.06,1.67,1.67,0,0,0,.59-.59l.12-.2.08-.21a2.77,2.77,0,0,0,.14-.46,5.22,5.22,0,0,0-.19-2.28A7.84,7.84,0,0,0,87,15.89a2.27,2.27,0,0,0-.18-.25l-.19-.24L86.17,15l-.42-.43c-.14-.13-.29-.28-.42-.39s-.27-.22-.41-.33a3.54,3.54,0,0,0-.41-.26,2.93,2.93,0,0,0-.4-.19,2.72,2.72,0,0,0-.38-.11,1.74,1.74,0,0,0-1.26.2l-.24.17-.22.19c-.06.08-.14.15-.19.22a2.75,2.75,0,0,0-.15.25,3.79,3.79,0,0,0-.36,1.14,4.38,4.38,0,0,0,0,1.2,5.9,5.9,0,0,0,.62,1.87c.11.21.22.37.28.48l.09.16,0,0-.1-.16c-.07-.11-.18-.26-.3-.47a6.3,6.3,0,0,1-.72-1.95A4.42,4.42,0,0,1,81.44,14l.15-.28a2.73,2.73,0,0,1,.2-.25,1.52,1.52,0,0,1,.22-.22l.25-.19a1.81,1.81,0,0,1,1.37-.27,3.74,3.74,0,0,1,.42.11,4.54,4.54,0,0,1,.45.21,3.14,3.14,0,0,1,.46.28,4.91,4.91,0,0,1,.47.36,5.66,5.66,0,0,1,.44.4l.44.44.45.48.21.26a1.86,1.86,0,0,1,.21.28,7.23,7.23,0,0,1,1.48,5.13,3.13,3.13,0,0,1-.16.52c0,.08-.07.17-.11.24l-.12.2a1.71,1.71,0,0,1-.68.63,2.29,2.29,0,0,1-2-.1,5,5,0,0,1-1.13-.75,6.88,6.88,0,0,1-.55-.53l-.26-.29c-.08-.1-.16-.19-.24-.3A7,7,0,0,1,82,17.54,3.86,3.86,0,0,1,82,16.2a3.1,3.1,0,0,1,.33-1l.1-.24a1.67,1.67,0,0,1,.12-.23,1.08,1.08,0,0,1,.32-.35,1.17,1.17,0,0,1,.91-.21,2.44,2.44,0,0,1,1.09.45,3.64,3.64,0,0,1,.53.44,4.38,4.38,0,0,1,.51.54,5.79,5.79,0,0,1,1.22,2.69,3.08,3.08,0,0,1,0,1.22,1.37,1.37,0,0,1-.07.24c0,.09-.06.15-.09.23a1.38,1.38,0,0,1-.26.4c-.41.44-1.13.4-1.82-.06a3.67,3.67,0,0,1-.51-.41l-.23-.23-.22-.27a4.56,4.56,0,0,1-.69-1.21A2.72,2.72,0,0,1,83.08,16l0-.08,0,0,0,0,.13-.14a.49.49,0,0,1,.15-.1.35.35,0,0,1,.17-.06,1,1,0,0,1,.39,0,1.47,1.47,0,0,1,.41.15,2.18,2.18,0,0,1,.42.26l.18.17.08.08,0,0,0,0,0,.05a3.15,3.15,0,0,1,.57.91,2.71,2.71,0,0,1,.21.9,1.9,1.9,0,0,1,0,.37,1.13,1.13,0,0,1,0,.15c0,.05,0,.09,0,.13s-.07.17-.1.26l-.07.12a.39.39,0,0,1-.1.08.5.5,0,0,1-.51,0,1.26,1.26,0,0,1-.27-.2l-.1-.11,0,0s0,0,0,0l0-.07a1.33,1.33,0,0,1-.16-.28,1.22,1.22,0,0,1-.09-.27.72.72,0,0,1,.1-.69l.31-.33Z"/><path class="cls-27" d="M92.41,8.4a3.19,3.19,0,0,0-3.17-.32h0l-4.18,2.4a5.55,5.55,0,0,1,1.32.55,9.73,9.73,0,0,1,3.06,3c.11.16.13.34,0,.41l0,0L88.5,15h0c-.08.08-.23,0-.33-.14a8.77,8.77,0,0,0-2.77-2.68,4,4,0,0,0-2.14-.61l-1.22.7a2.76,2.76,0,0,1,.48-.17,3.57,3.57,0,0,1,2.6.54,9.9,9.9,0,0,1,4.48,7.77,3.15,3.15,0,0,1-1.29,2.89l7.14-4.12h0a3.08,3.08,0,0,0,1.44-3A9.9,9.9,0,0,0,92.41,8.4Z"/><path class="cls-25" d="M72.69,19.78a9.91,9.91,0,0,0,4.49,7.77c2.48,1.43,4.48.27,4.48-2.59a9.9,9.9,0,0,0-4.48-7.77C74.7,15.76,72.69,16.92,72.69,19.78Z"/><path class="cls-26" d="M76.87,21.79l-.27.37a.53.53,0,0,0-.1.24.89.89,0,0,0,0,.38,1.27,1.27,0,0,0,.08.23,1.35,1.35,0,0,0,.14.22l0,.06,0,0,0,0,.11.11a.8.8,0,0,0,.19.13.39.39,0,0,0,.39,0l.07-.07.05-.09.09-.26c0-.05,0-.09,0-.14l0-.14a1.08,1.08,0,0,0,0-.31,2.21,2.21,0,0,0-.18-.74,2.83,2.83,0,0,0-.48-.72l0,0,0,0s0,0,0,0h0L77,21c-.06,0-.12-.11-.17-.15s-.21-.14-.32-.19a2.67,2.67,0,0,0-.34-.11,1,1,0,0,0-.3,0,.59.59,0,0,0-.14.06l-.12.08-.1.12,0,0s0,0,0,0v0l0,.09a2.33,2.33,0,0,0,.09,1.78,4.16,4.16,0,0,0,.57,1l.19.22.21.22a3.47,3.47,0,0,0,.41.33,1.89,1.89,0,0,0,.86.33.9.9,0,0,0,.71-.22,1.17,1.17,0,0,0,.24-.33,1.89,1.89,0,0,0,.09-.21,1,1,0,0,0,.08-.22A2.7,2.7,0,0,0,79,22.76a5.19,5.19,0,0,0-1.09-2.52,3.29,3.29,0,0,0-2-1.37,1.13,1.13,0,0,0-.85.21,1.06,1.06,0,0,0-.3.33c0,.07-.07.15-.11.22l-.09.24a3.81,3.81,0,0,0-.3,1,4.05,4.05,0,0,0,.1,1.27,6.28,6.28,0,0,0,1.3,2.59l.24.28.25.27a5.25,5.25,0,0,0,.49.46,5,5,0,0,0,1,.66,2.06,2.06,0,0,0,1.81,0,1.49,1.49,0,0,0,.59-.58l.12-.2a1.89,1.89,0,0,0,.09-.21,2.91,2.91,0,0,0,.13-.47,5,5,0,0,0-.19-2.27A7.74,7.74,0,0,0,79,20.47a2.35,2.35,0,0,0-.19-.25L78.65,20l-.4-.44-.43-.42a4.83,4.83,0,0,0-.41-.39c-.14-.13-.28-.23-.41-.33s-.28-.19-.41-.26a3,3,0,0,0-.4-.2,3.18,3.18,0,0,0-.38-.11,1.78,1.78,0,0,0-1.27.2l-.24.17-.22.2-.19.21a2,2,0,0,0-.14.25A3.51,3.51,0,0,0,73.39,20a4.74,4.74,0,0,0,0,1.19A5.8,5.8,0,0,0,74,23.07c.11.22.21.37.27.48l.1.16,0,0-.1-.17c-.07-.1-.18-.26-.3-.47a6.3,6.3,0,0,1-.72-2,4.31,4.31,0,0,1,.28-2.53,1.59,1.59,0,0,1,.15-.29c.06-.09.12-.16.19-.25l.22-.22.25-.19a1.85,1.85,0,0,1,1.37-.26,1.82,1.82,0,0,1,.43.11,3,3,0,0,1,.45.2c.15.08.3.18.46.28s.3.22.46.36.3.27.44.4l.44.44c.15.15.3.32.45.48l.22.27.21.28a7.13,7.13,0,0,1,1.47,5.12,2.86,2.86,0,0,1-.16.52,1.75,1.75,0,0,1-.11.24l-.12.2a1.86,1.86,0,0,1-.67.64,2.33,2.33,0,0,1-2-.1,5.14,5.14,0,0,1-1.14-.76c-.18-.15-.37-.35-.55-.53l-.25-.29L75.45,25a7,7,0,0,1-1.37-2.85A4.49,4.49,0,0,1,74,20.78a3.63,3.63,0,0,1,.33-1l.1-.24a1.67,1.67,0,0,1,.12-.23,1.2,1.2,0,0,1,.32-.35,1.27,1.27,0,0,1,.91-.21,2.64,2.64,0,0,1,1.09.45,4.34,4.34,0,0,1,.54.44c.17.17.34.35.5.54a6,6,0,0,1,1.23,2.69,3.51,3.51,0,0,1,0,1.22,1.83,1.83,0,0,1-.08.25c0,.09-.06.15-.09.22a1.44,1.44,0,0,1-.25.4,1.41,1.41,0,0,1-1.83-.06,3.67,3.67,0,0,1-.51-.41l-.22-.23c-.08-.08-.15-.17-.23-.26a5.4,5.4,0,0,1-.69-1.21,2.79,2.79,0,0,1-.08-2.15l0-.08,0,0,0,0,.13-.14.16-.1a.35.35,0,0,1,.17-.06,1.18,1.18,0,0,1,.38,0,1.7,1.7,0,0,1,.41.15,1.65,1.65,0,0,1,.42.27c.07.05.12.11.18.16l.09.08,0,0,0,0,.05.06a3.42,3.42,0,0,1,.57.9,2.5,2.5,0,0,1,.2.91,1,1,0,0,1,0,.36c0,.05,0,.09,0,.16a1.12,1.12,0,0,1,0,.13,2.6,2.6,0,0,1-.1.25.75.75,0,0,1-.07.12.76.76,0,0,1-.09.09.55.55,0,0,1-.52,0,1,1,0,0,1-.26-.2l-.11-.11,0,0,0,0,0-.07a2,2,0,0,1-.16-.28,1,1,0,0,1-.09-.27.7.7,0,0,1,.11-.69l.3-.32Z"/><path class="cls-27" d="M84.47,13a3.16,3.16,0,0,0-3.17-.31h0l-4.18,2.4a5.55,5.55,0,0,1,1.32.55,9.66,9.66,0,0,1,3.06,3c.11.15.13.33.05.41l0,0-.94.54h0c-.08.07-.23,0-.33-.14a8.92,8.92,0,0,0-2.77-2.69,4,4,0,0,0-2.14-.61l-1.22.7a4.23,4.23,0,0,1,.48-.17,3.57,3.57,0,0,1,2.6.54A9.9,9.9,0,0,1,81.66,25a3.15,3.15,0,0,1-1.29,2.89l7.14-4.12h0a3.06,3.06,0,0,0,1.44-3A9.91,9.91,0,0,0,84.47,13Z"/><path class="cls-25" d="M64.65,24.43a8.06,8.06,0,0,0,.54,2.78s.8.88.42,1a9.49,9.49,0,0,0,3.52,4c2.48,1.43,4.49.27,4.49-2.59a10,10,0,0,0-4.49-7.78C66.66,20.4,64.65,21.56,64.65,24.43Z"/><path class="cls-26" d="M69,26.43l-.27.37a.67.67,0,0,0-.09.24.74.74,0,0,0,0,.38c0,.07,0,.15.08.23l.14.22,0,.06,0,0,0,0a.52.52,0,0,0,.1.11.9.9,0,0,0,.2.14.41.41,0,0,0,.39,0l.06-.06,0-.1.09-.26.05-.14,0-.14a1.56,1.56,0,0,0,0-.31,2.25,2.25,0,0,0-.19-.74,2.79,2.79,0,0,0-.47-.72l0,0,0,0h0l-.08-.07a1.19,1.19,0,0,0-.18-.15,1.73,1.73,0,0,0-.32-.2,2.13,2.13,0,0,0-.33-.11.78.78,0,0,0-.31,0,.29.29,0,0,0-.13.05l-.12.08-.1.12,0,0s0,0,0,0v0l0,.08a2.32,2.32,0,0,0,.08,1.78,4.52,4.52,0,0,0,.57,1l.19.22.21.22c.13.11.27.23.41.33a1.89,1.89,0,0,0,.86.33.88.88,0,0,0,.71-.22,1.17,1.17,0,0,0,.24-.33l.1-.21c0-.07.06-.15.08-.22A2.9,2.9,0,0,0,71,27.4,5.29,5.29,0,0,0,70,24.88a3.32,3.32,0,0,0-2-1.37,1.14,1.14,0,0,0-.86.21,1.2,1.2,0,0,0-.3.33,2.14,2.14,0,0,0-.1.22l-.1.25a3.33,3.33,0,0,0-.29,1,4,4,0,0,0,.09,1.27,6.43,6.43,0,0,0,1.31,2.59l.24.28.24.27a5.34,5.34,0,0,0,.5.46,4.17,4.17,0,0,0,1,.66,2,2,0,0,0,1.81.05,1.56,1.56,0,0,0,.59-.58l.11-.2a1.89,1.89,0,0,0,.09-.21,3.09,3.09,0,0,0,.14-.46,5.08,5.08,0,0,0-.2-2.28,7.74,7.74,0,0,0-1.12-2.29l-.18-.25-.2-.24-.4-.44-.42-.42c-.14-.14-.29-.28-.42-.39s-.27-.22-.41-.33a4.65,4.65,0,0,0-.41-.26,3.62,3.62,0,0,0-.4-.19,2.07,2.07,0,0,0-.38-.12,1.74,1.74,0,0,0-1.26.2,2.49,2.49,0,0,0-.24.17l-.22.2a1.8,1.8,0,0,0-.19.21,1.65,1.65,0,0,0-.15.25,3.58,3.58,0,0,0-.36,1.15,4.38,4.38,0,0,0,0,1.2,5.83,5.83,0,0,0,.62,1.86,4.82,4.82,0,0,0,.28.48l.09.17,0,0-.11-.16c-.06-.11-.17-.27-.29-.48a6.54,6.54,0,0,1-.73-1.95,4.48,4.48,0,0,1,.28-2.53c.05-.1.09-.19.15-.29s.13-.16.19-.25.15-.14.22-.22l.25-.19a1.86,1.86,0,0,1,1.37-.26,2.26,2.26,0,0,1,.43.11,4.43,4.43,0,0,1,.45.2c.15.08.31.19.46.28s.31.22.46.36.3.27.45.41l.44.43.44.48.22.27a2.92,2.92,0,0,1,.21.28A7.13,7.13,0,0,1,72.81,30a2.86,2.86,0,0,1-.16.52,1.73,1.73,0,0,1-.1.24l-.12.2a1.81,1.81,0,0,1-.68.64,2.29,2.29,0,0,1-2-.1,5.38,5.38,0,0,1-1.14-.76A6.72,6.72,0,0,1,68,30.2l-.26-.29c-.08-.1-.16-.18-.24-.29a6.73,6.73,0,0,1-1.37-2.85,4.19,4.19,0,0,1-.07-1.35,3.44,3.44,0,0,1,.34-1l.09-.24.12-.23a1.2,1.2,0,0,1,.32-.35,1.28,1.28,0,0,1,.91-.21A2.59,2.59,0,0,1,69,23.8a3.25,3.25,0,0,1,.54.44,5.08,5.08,0,0,1,.5.54,5.76,5.76,0,0,1,1.23,2.69,3.13,3.13,0,0,1,0,1.23c0,.09,0,.16-.07.24s-.06.15-.09.23a1.21,1.21,0,0,1-.26.39c-.41.45-1.14.4-1.82-.06a3.67,3.67,0,0,1-.51-.41l-.23-.23L68,28.6a4.72,4.72,0,0,1-.69-1.21,2.73,2.73,0,0,1-.09-2.14l0-.09,0,0s0,0,0,0l.13-.14a.78.78,0,0,1,.15-.1.49.49,0,0,1,.17-.06,1,1,0,0,1,.38,0,1.39,1.39,0,0,1,.42.14,2.94,2.94,0,0,1,.42.27l.18.16.08.08,0,0,0,0,0,.05a3.1,3.1,0,0,1,.57.91,2.65,2.65,0,0,1,.21.9,1.71,1.71,0,0,1,0,.36c0,.05,0,.09,0,.16A.5.5,0,0,0,70,28a2.6,2.6,0,0,0-.1.25l-.07.13-.1.08a.55.55,0,0,1-.51,0A1.31,1.31,0,0,1,69,28.2l-.1-.11,0,0,0,0,0-.07c-.06-.09-.11-.19-.16-.28s-.07-.18-.09-.27a.7.7,0,0,1,.11-.68l.3-.33Z"/><path class="cls-27" d="M76.42,17.63a3.16,3.16,0,0,0-3.17-.32h0l-4.19,2.4a5.08,5.08,0,0,1,1.33.55,9.73,9.73,0,0,1,3.06,3c.1.15.12.34,0,.41a.05.05,0,0,1,0,0l-.93.54h0c-.08.08-.23,0-.33-.14a8.7,8.7,0,0,0-2.78-2.68,3.93,3.93,0,0,0-2.14-.61l-1.21.7a2.86,2.86,0,0,1,.47-.17,3.55,3.55,0,0,1,2.6.53,10,10,0,0,1,4.49,7.78,3.15,3.15,0,0,1-1.29,2.89l7.13-4.12h0a3.08,3.08,0,0,0,1.45-3A9.91,9.91,0,0,0,76.42,17.63Z"/><path class="cls-25" d="M56.78,29a9.92,9.92,0,0,0,4.49,7.78c2.48,1.43,4.49.27,4.49-2.59a9.92,9.92,0,0,0-4.49-7.78C58.79,24.94,56.78,26.1,56.78,29Z"/><path class="cls-26" d="M61.14,31.14l-.27.37a.48.48,0,0,0-.09.23.77.77,0,0,0,0,.39,2,2,0,0,0,.08.22c0,.08.09.16.14.23l0,.05,0,0,0,0,.1.11a.86.86,0,0,0,.2.13.39.39,0,0,0,.39,0l.06-.07a.41.41,0,0,0,.05-.09L62,32.5l.05-.13,0-.14a1.62,1.62,0,0,0,0-.31,2.25,2.25,0,0,0-.19-.74,2.63,2.63,0,0,0-.47-.72l0,0,0,0h0l-.08-.08c-.06,0-.12-.11-.18-.15A1.69,1.69,0,0,0,60.8,30a1.42,1.42,0,0,0-.33-.11,1,1,0,0,0-.31,0,.26.26,0,0,0-.13.06s-.09,0-.12.08l-.1.12s0,0,0,0,0,0,0,0v0l0,.09a2.32,2.32,0,0,0,.08,1.78,4.52,4.52,0,0,0,.57,1,2,2,0,0,1,.19.22l.21.21a4.35,4.35,0,0,0,.41.34,1.89,1.89,0,0,0,.86.33.88.88,0,0,0,.71-.23,1.12,1.12,0,0,0,.24-.32l.1-.21c0-.08.06-.15.08-.23a2.87,2.87,0,0,0,.06-1.08,5.22,5.22,0,0,0-1.1-2.51,3.34,3.34,0,0,0-2-1.38,1.17,1.17,0,0,0-1.16.55c0,.07-.07.15-.11.22l-.09.24a3.5,3.5,0,0,0-.29,1,4.07,4.07,0,0,0,.09,1.28,6.39,6.39,0,0,0,1.31,2.58c.07.1.16.19.24.29l.24.27c.17.16.32.32.5.46a4.12,4.12,0,0,0,1,.65,2,2,0,0,0,1.8.06,1.67,1.67,0,0,0,.6-.58l.11-.21a1.33,1.33,0,0,0,.09-.21,2.78,2.78,0,0,0,.13-.46,4.94,4.94,0,0,0-.19-2.28,7.81,7.81,0,0,0-1.12-2.28l-.18-.25-.2-.24-.4-.44-.42-.42c-.15-.14-.29-.29-.42-.39a3.12,3.12,0,0,0-.41-.33,4.65,4.65,0,0,0-.41-.26,2.49,2.49,0,0,0-.4-.2,3.18,3.18,0,0,0-.38-.11,1.74,1.74,0,0,0-1.26.2,1.46,1.46,0,0,0-.24.17l-.22.19c-.07.08-.14.15-.19.22a1,1,0,0,0-.15.25,3.51,3.51,0,0,0-.36,1.15,4.74,4.74,0,0,0,0,1.19,6,6,0,0,0,.63,1.87c.11.21.21.37.27.48l.1.16,0,0-.11-.16c-.06-.1-.17-.26-.29-.47a6.54,6.54,0,0,1-.73-2A4.38,4.38,0,0,1,57.79,28a1.59,1.59,0,0,1,.15-.29c.06-.1.13-.16.19-.25l.22-.22L58.6,27A1.9,1.9,0,0,1,60,26.75a2.3,2.3,0,0,1,.43.12,3,3,0,0,1,.45.2c.15.08.31.18.46.28s.31.22.46.36.3.26.45.4.29.29.44.44.3.31.44.48l.22.27a2.78,2.78,0,0,1,.21.27A7.17,7.17,0,0,1,65,34.7a3.13,3.13,0,0,1-.16.52,1.73,1.73,0,0,1-.1.24l-.12.2a1.71,1.71,0,0,1-.68.63,2.26,2.26,0,0,1-2-.1,5.08,5.08,0,0,1-1.14-.75c-.18-.16-.37-.35-.54-.53L60,34.62l-.24-.3a6.75,6.75,0,0,1-1.37-2.84,4.21,4.21,0,0,1-.07-1.35,3.35,3.35,0,0,1,.34-1l.09-.24.12-.23a1.08,1.08,0,0,1,.32-.35,1.23,1.23,0,0,1,.91-.21,2.35,2.35,0,0,1,1.09.45,3.71,3.71,0,0,1,.54.44,5.16,5.16,0,0,1,.5.54,5.81,5.81,0,0,1,1.23,2.69,3.08,3.08,0,0,1,0,1.22c0,.1,0,.16-.07.24a1,1,0,0,1-.1.23,1.09,1.09,0,0,1-.25.4,1.39,1.39,0,0,1-1.82-.06,3.67,3.67,0,0,1-.51-.41l-.23-.23-.22-.27a4.51,4.51,0,0,1-.69-1.2A2.75,2.75,0,0,1,59.42,30l0-.08,0,0s0,0,0,0a.86.86,0,0,1,.13-.14.49.49,0,0,1,.15-.1.35.35,0,0,1,.17-.06,1.2,1.2,0,0,1,.38,0,1.77,1.77,0,0,1,.42.15,1.85,1.85,0,0,1,.42.27l.18.16.08.08,0,0,0,0,0,.06a3.18,3.18,0,0,1,.57.9,2.71,2.71,0,0,1,.21.9,1.82,1.82,0,0,1,0,.37c0,.05,0,.09,0,.15a1.12,1.12,0,0,0,0,.13c0,.09-.07.18-.1.26l-.07.12-.1.09a.53.53,0,0,1-.51,0,1,1,0,0,1-.27-.2l-.1-.11,0,0,0,0,0-.07c-.06-.09-.11-.19-.16-.28s-.07-.19-.09-.27a.72.72,0,0,1,.11-.69l.3-.32Z"/><path class="cls-27" d="M68.56,22.17a3.16,3.16,0,0,0-3.17-.32h0L61.2,24.26a5.08,5.08,0,0,1,1.33.55,9.83,9.83,0,0,1,3.06,3c.1.15.12.34,0,.41l0,0-.93.54h0c-.08.08-.23,0-.34-.14a8.77,8.77,0,0,0-2.77-2.68,3.93,3.93,0,0,0-2.14-.61L58.2,26a2.49,2.49,0,0,1,.47-.17,3.56,3.56,0,0,1,2.6.53,9.92,9.92,0,0,1,4.49,7.78A3.17,3.17,0,0,1,64.46,37l7.14-4.12h0a3.06,3.06,0,0,0,1.45-3A9.91,9.91,0,0,0,68.56,22.17Z"/><polygon class="cls-17" points="46.29 24.36 45.47 24.84 63.34 35.16 63.34 36.11 64.17 35.64 64.17 34.68 46.29 24.36"/><polygon class="cls-16" points="61.46 34.08 60.64 34.55 60.64 39.31 61.46 38.83 61.46 34.08"/><polygon class="cls-16" points="49.62 27.24 48.79 27.71 48.79 32.47 49.62 31.99 49.62 27.24"/><polygon class="cls-15" points="45.47 24.84 45.47 25.79 47.85 27.16 47.85 31.92 48.79 32.47 48.79 27.71 59.69 34 59.69 38.76 60.64 39.31 60.64 34.55 63.34 36.11 63.34 35.16 45.47 24.84"/><polygon class="cls-19" points="68.79 34.52 68.02 34.07 67.32 34.47 68.09 34.92 67.07 38.26 67.76 37.86 68.79 34.52"/><polygon class="cls-22" points="68.09 34.92 67.32 34.47 66.3 37.82 67.07 38.26 68.09 34.92"/><polygon class="cls-19" points="77.68 29.38 76.91 28.94 76.22 29.34 76.99 29.78 75.96 33.13 76.66 32.73 77.68 29.38"/><polygon class="cls-22" points="76.99 29.78 76.22 29.34 75.19 32.68 75.96 33.13 76.99 29.78"/><polygon class="cls-19" points="85.41 24.92 84.64 24.48 83.94 24.88 84.71 25.32 83.68 28.67 84.38 28.27 85.41 24.92"/><polygon class="cls-22" points="84.71 25.32 83.94 24.88 82.91 28.22 83.68 28.67 84.71 25.32"/><polygon class="cls-19" points="92.56 20.79 91.79 20.34 91.1 20.75 91.87 21.19 90.84 24.54 91.54 24.14 92.56 20.79"/><polygon class="cls-22" points="91.87 21.19 91.1 20.75 90.07 24.09 90.84 24.54 91.87 21.19"/><path class="cls-23" d="M97.79,17.8a1.1,1.1,0,0,0-.51-.88.34.34,0,0,0-.36,0h0L66.44,34.48l.74,1.24L97.62,18.14l0,0h0A.39.39,0,0,0,97.79,17.8Z"/><path class="cls-24" d="M67.31,35.4c0,.32-.22.45-.5.29a1.1,1.1,0,0,1-.51-.88c0-.33.22-.46.51-.29A1.1,1.1,0,0,1,67.31,35.4Z"/><polygon class="cls-29" points="92.83 29.96 92.92 29.86 92.6 29.7 92.83 29.96"/><polygon class="cls-29" points="93.11 30.86 93.2 30.76 92.88 30.59 93.11 30.86"/><polygon class="cls-29" points="93.02 32.03 93.11 31.93 92.78 31.76 93.02 32.03"/><polygon class="cls-29" points="91.44 34.82 91.53 34.72 91.17 34.66 91.44 34.82"/><polygon class="cls-29" points="90.48 35.47 90.63 35.28 90.21 35.32 90.48 35.47"/><polygon class="cls-29" points="89.55 35.67 89.7 35.48 89.05 35.38 89.55 35.67"/><path class="cls-30" d="M91.35,30.31l.29-.53-.12-.06c0-.15.16-.07.12-.2l.67,0-1.11-.66-.23.1a1.25,1.25,0,0,0-.23-.27l.07-.13-.36-.21-.08.12a1.21,1.21,0,0,0-.34-.06l0-.14-.47.05,0,.13a2.21,2.21,0,0,0-.41.14v-.12l-.52.3v.12a4.12,4.12,0,0,0-.4.33l0-.09-.48.5,0,.09a4,4,0,0,0-.34.47l-.08,0-.37.63.08.05a4.77,4.77,0,0,0-.22.52h-.11l-.2.66h.11a5.06,5.06,0,0,0-.08.52l-.12.07v.59l.12-.07a2.48,2.48,0,0,0,.08.41l-.11.12.19.44.12-.12a1,1,0,0,0,.23.26l-.09.16.36.21.09-.16a1.21,1.21,0,0,0,.33.07l.19.4,1.08.48-.33-.74c.13,0-.2-.26-.06-.32l.1.16.41-.31V34a3,3,0,0,0,.4-.32l0,.11.47-.5,0-.1c.12-.15.23-.3.34-.46l.09,0,.36-.63-.08-.05c.08-.17.16-.35.23-.52h.11l.19-.67h-.1a3,3,0,0,0,.08-.51Z"/><polygon class="cls-24" points="90.37 28.43 92.23 29.48 92.31 29.36 90.45 28.31 90.37 28.43"/><polygon class="cls-24" points="86.95 34.34 88.81 35.38 88.91 35.23 87.05 34.18 86.95 34.34"/><path class="cls-23" d="M93.2,31.36v-.6l-.1.07a2.24,2.24,0,0,0-.08-.42l.1-.11-.2-.44-.09.1a1.47,1.47,0,0,0-.23-.26l.07-.13-.36-.21-.08.12a1.21,1.21,0,0,0-.34-.07l0-.13-.47,0,0,.13a2.21,2.21,0,0,0-.41.14v-.12l-.52.3v.12a3,3,0,0,0-.4.32l0-.09-.48.5,0,.09a5.09,5.09,0,0,0-.34.47l-.08,0-.37.63.08,0c-.08.18-.16.35-.22.53h-.11l-.2.66h.11a3,3,0,0,0-.08.51l-.12.07v.6l.12-.07a2.48,2.48,0,0,0,.08.41l-.12.12.2.44.12-.12a1.13,1.13,0,0,0,.23.26l-.1.15.37.21.09-.15a1.14,1.14,0,0,0,.33.06l0,.17.48-.05,0-.16a2.4,2.4,0,0,0,.4-.14v.15l.51-.3V35a4,4,0,0,0,.4-.32l0,.11.47-.5,0-.11a5.48,5.48,0,0,0,.34-.46l.09,0,.36-.63-.08-.05c.08-.17.16-.34.23-.52h.1l.2-.66H93a3.12,3.12,0,0,0,.08-.52Z"/><path class="cls-24" d="M92.28,31.57a3.38,3.38,0,0,1-1.53,2.66,1,1,0,0,1-1.27,0,1.14,1.14,0,0,0,1-.14A3.41,3.41,0,0,0,92,31.39a1.21,1.21,0,0,0-.26-.84A1,1,0,0,1,92.28,31.57Z"/><path class="cls-21" d="M92,31.39a3.41,3.41,0,0,1-1.53,2.66,1.14,1.14,0,0,1-1,.14h0a1.24,1.24,0,0,1-.27-.84,3.43,3.43,0,0,1,1.54-2.67,1.13,1.13,0,0,1,1-.13h0A1.21,1.21,0,0,1,92,31.39Z"/><path class="cls-19" d="M91.46,32.05a1.57,1.57,0,0,1-.71,1.23c-.25.15-.46.13-.59,0a.54.54,0,0,0,.37-.09,1.57,1.57,0,0,0,.72-1.24.57.57,0,0,0-.13-.39C91.33,31.57,91.46,31.75,91.46,32.05Z"/><path class="cls-31" d="M91.25,31.93a1.57,1.57,0,0,1-.72,1.24.54.54,0,0,1-.37.09.55.55,0,0,1-.13-.39,1.59,1.59,0,0,1,.72-1.24.69.69,0,0,1,.37-.09A.57.57,0,0,1,91.25,31.93Z"/><polygon class="cls-29" points="86.51 31.97 88.37 33.02 88.57 32.36 86.71 31.31 86.51 31.97"/><polygon class="cls-29" points="86.42 33.14 88.28 34.19 88.28 33.59 86.42 32.55 86.42 33.14"/><polygon class="cls-29" points="86.7 34.04 88.56 35.09 88.36 34.65 86.5 33.6 86.7 34.04"/><polygon class="cls-29" points="86.96 30.73 88.82 31.78 89.19 31.15 87.33 30.1 86.96 30.73"/><polygon class="cls-29" points="87.71 29.59 89.57 30.63 90.05 30.13 88.19 29.09 87.71 29.59"/><polygon class="cls-29" points="88.63 28.73 90.49 29.78 91 29.48 89.15 28.43 88.63 28.73"/><polygon class="cls-29" points="89.6 28.28 91.45 29.33 91.93 29.28 90.07 28.23 89.6 28.28"/><polygon class="cls-24" points="87.75 29.68 89.61 30.72 89.57 30.63 87.71 29.59 87.75 29.68"/><polygon class="cls-24" points="86.82 31.3 88.68 32.35 88.57 32.36 86.71 31.31 86.82 31.3"/><polygon class="cls-24" points="86.42 32.55 88.28 33.59 88.4 33.52 86.54 32.48 86.42 32.55"/><polygon class="cls-24" points="86.5 33.6 88.36 34.65 88.48 34.53 86.62 33.48 86.5 33.6"/><polygon class="cls-24" points="88.63 28.85 90.49 29.9 90.49 29.78 88.63 28.73 88.63 28.85"/><polygon class="cls-24" points="89.56 28.41 91.42 29.46 91.45 29.33 89.6 28.28 89.56 28.41"/><polygon class="cls-29" points="87.76 32.89 87.85 32.79 87.52 32.62 87.76 32.89"/><polygon class="cls-29" points="88.04 33.79 88.13 33.69 87.81 33.52 88.04 33.79"/><polygon class="cls-29" points="87.94 34.96 88.04 34.86 87.71 34.69 87.94 34.96"/><polygon class="cls-29" points="86.37 37.75 86.46 37.65 86.1 37.59 86.37 37.75"/><polygon class="cls-29" points="85.41 38.4 85.56 38.21 85.14 38.24 85.41 38.4"/><polygon class="cls-29" points="84.48 38.6 84.63 38.41 83.97 38.31 84.48 38.6"/><path class="cls-30" d="M86.27,33.24l.3-.53-.12-.06c0-.15.16-.08.12-.21l.66,0-1.1-.66-.23.1a1.05,1.05,0,0,0-.24-.27l.08-.13-.37-.21-.07.12a1.7,1.7,0,0,0-.34-.07l0-.13-.48.05,0,.13a2.58,2.58,0,0,0-.42.14v-.12l-.51.3v.12c-.14.1-.27.21-.4.32l0-.09-.48.5,0,.1a5.55,5.55,0,0,0-.35.46l-.07,0-.37.63.08.05a4.77,4.77,0,0,0-.22.52h-.11l-.2.66h.11a3.17,3.17,0,0,0-.08.51l-.12.07v.6l.12-.07a2.48,2.48,0,0,0,.08.41l-.12.12.2.44.12-.12a1.38,1.38,0,0,0,.22.26l-.09.16.37.21.09-.16a1.6,1.6,0,0,0,.33.07l.19.4,1.08.47-.34-.73c.13,0-.19-.27,0-.33l.1.17.41-.32v-.14a3,3,0,0,0,.4-.32l.05.11.47-.5,0-.1c.12-.15.23-.31.34-.47l.09,0,.36-.63-.08,0c.08-.17.16-.35.23-.52H86l.2-.67h-.1a3.12,3.12,0,0,0,.08-.52Z"/><polygon class="cls-24" points="85.3 31.36 87.16 32.41 87.23 32.28 85.37 31.24 85.3 31.36"/><polygon class="cls-24" points="81.88 37.27 83.74 38.31 83.83 38.16 81.97 37.11 81.88 37.27"/><path class="cls-23" d="M88.13,34.29v-.6l-.1.06c0-.15,0-.29-.08-.42l.1-.1-.2-.44-.09.1a1.55,1.55,0,0,0-.24-.27l.08-.12-.37-.21-.07.12a1.21,1.21,0,0,0-.34-.07l0-.13-.48,0,0,.14a2,2,0,0,0-.41.14v-.12l-.51.3v.12a3,3,0,0,0-.4.32l0-.09-.48.5,0,.09c-.12.15-.24.31-.35.47l-.07,0-.37.63.08,0c-.08.17-.16.35-.23.52h-.1l-.2.67h.11a3,3,0,0,0-.08.51l-.12.07v.6l.12-.07a2.7,2.7,0,0,0,.08.41l-.12.12.2.43.12-.12a1.12,1.12,0,0,0,.22.26l-.09.16.37.21.09-.15a1.14,1.14,0,0,0,.33.06l0,.17.48-.05.05-.16a2.4,2.4,0,0,0,.4-.14v.15l.51-.3V38a4,4,0,0,0,.4-.32l.05.11.47-.5,0-.11a5.48,5.48,0,0,0,.34-.46l.09,0,.36-.63-.08-.05a4.77,4.77,0,0,0,.22-.52h.11l.2-.66h-.1a4.67,4.67,0,0,0,.08-.52Z"/><path class="cls-24" d="M87.21,34.5a3.41,3.41,0,0,1-1.53,2.66,1,1,0,0,1-1.27,0,1.12,1.12,0,0,0,1-.14A3.39,3.39,0,0,0,87,34.32a1.26,1.26,0,0,0-.26-.84A1,1,0,0,1,87.21,34.5Z"/><path class="cls-21" d="M87,34.32A3.39,3.39,0,0,1,85.43,37a1.12,1.12,0,0,1-1,.14h0a1.31,1.31,0,0,1-.26-.85,3.39,3.39,0,0,1,1.54-2.66,1.08,1.08,0,0,1,1-.13h0A1.26,1.26,0,0,1,87,34.32Z"/><path class="cls-19" d="M86.39,35a1.59,1.59,0,0,1-.71,1.24c-.25.14-.46.13-.59,0a.55.55,0,0,0,.37-.09,1.57,1.57,0,0,0,.72-1.24.55.55,0,0,0-.13-.39C86.25,34.49,86.39,34.68,86.39,35Z"/><path class="cls-31" d="M86.18,34.86a1.57,1.57,0,0,1-.72,1.24.29.29,0,0,1-.5-.3,1.57,1.57,0,0,1,.72-1.24.54.54,0,0,1,.37-.09A.55.55,0,0,1,86.18,34.86Z"/><polygon class="cls-29" points="81.44 34.9 83.3 35.95 83.5 35.28 81.64 34.24 81.44 34.9"/><polygon class="cls-29" points="81.35 36.07 83.21 37.12 83.21 36.52 81.35 35.47 81.35 36.07"/><polygon class="cls-29" points="81.63 36.97 83.49 38.02 83.29 37.58 81.43 36.53 81.63 36.97"/><polygon class="cls-29" points="81.89 33.66 83.75 34.71 84.11 34.08 82.26 33.03 81.89 33.66"/><polygon class="cls-29" points="82.64 32.52 84.5 33.56 84.97 33.06 83.12 32.01 82.64 32.52"/><polygon class="cls-29" points="83.56 31.66 85.42 32.71 85.93 32.41 84.08 31.36 83.56 31.66"/><polygon class="cls-29" points="84.53 31.21 86.38 32.26 86.86 32.21 85 31.16 84.53 31.21"/><polygon class="cls-24" points="82.68 32.6 84.54 33.65 84.5 33.56 82.64 32.52 82.68 32.6"/><polygon class="cls-24" points="81.75 34.23 83.6 35.27 83.5 35.28 81.64 34.24 81.75 34.23"/><polygon class="cls-24" points="81.35 35.47 83.21 36.52 83.33 36.45 81.47 35.41 81.35 35.47"/><polygon class="cls-24" points="81.43 36.53 83.29 37.58 83.41 37.46 81.55 36.41 81.43 36.53"/><polygon class="cls-24" points="83.56 31.78 85.42 32.83 85.42 32.71 83.56 31.66 83.56 31.78"/><polygon class="cls-24" points="84.49 31.34 86.34 32.39 86.38 32.26 84.53 31.21 84.49 31.34"/><polygon class="cls-15" points="46.79 45.6 42.65 43.21 51.94 37.08 51.94 35.72 42.65 41.85 40.08 41.98 40.08 43.35 42.02 44.46 42.02 44.46 39.28 44.67 39.28 46.04 42.02 47.62 44.75 46.04 46.56 47.08 46.56 47.08 58.67 40.97 58.67 39.6 46.79 45.6"/><polygon class="cls-17" points="57.27 38.79 46.79 44.24 42.65 41.85 51.94 35.72 50.54 34.91 40.08 41.98 42.02 43.1 42.02 43.1 39.28 44.67 42.02 46.25 44.75 44.67 46.56 45.72 46.56 45.72 58.67 39.6 57.27 38.79"/><path class="cls-15" d="M42.86,45.16a1.84,1.84,0,0,1-1.68,0,.51.51,0,0,1,0-1,1.84,1.84,0,0,1,1.68,0A.51.51,0,0,1,42.86,45.16Z"/><path class="cls-19" d="M35.34,27.09l-.85,1.81v8.83l1.2-.35V29.94l.62-1.18C36.75,28,36,26.62,35.34,27.09Z"/><path class="cls-32" d="M31,36.12c-.6-.43-1.55-.17-2.41.68l-7.88,7.74,4.13,2.39,8.88-7.71L35,38.44Z"/><polygon class="cls-33" points="13.47 50.68 11.27 57.38 15.46 59.8 17.6 53.07 13.47 50.68"/><path class="cls-34" d="M16.92,59l1.25-5.1L32.41,40.61c.87-.81,1.81-1,2.39-.56l1.68,1.37h0A2.23,2.23,0,0,0,36,39.26l-.82-.7c-.6-.51-1.59-.26-2.49.62l-7.88,7.75-5.6,3.23-.09,1.51-1.53,1.4L15.46,59.8Z"/><polygon class="cls-35" points="19.21 50.16 15.09 47.78 20.69 44.54 24.82 46.93 19.21 50.16"/><polygon class="cls-33" points="19.14 51.67 15.01 49.29 15.09 47.78 19.21 50.16 19.14 51.67"/><polygon class="cls-35" points="17.6 53.07 13.47 50.68 15.01 49.29 19.14 51.67 17.6 53.07"/><polygon class="cls-36" points="11.54 60.6 13.12 52.88 22.34 44.26 22.29 50.61 18.17 54.52 17.29 57.28 11.54 60.6"/><polygon class="cls-37" points="35.23 48.86 35.28 45.37 42.39 41.26 44.21 43.72 35.23 48.86"/><polygon class="cls-38" points="42.39 41.26 39.89 42.7 39.31 39.48 42.39 41.26"/><polygon class="cls-20" points="17.08 65.14 18.24 64.47 11.54 60.6 10.38 61.27 17.08 65.14"/><polygon class="cls-21" points="17.08 66.49 27.76 60.35 27.76 59 26.12 58.23 25.86 60.1 17.08 65.14 17.08 66.49"/><polygon class="cls-39" points="27.76 59 26.12 58.23 25.86 60.1 27.76 59"/><polygon class="cls-37" points="18.24 64.47 19.82 56.75 29.04 48.13 28.99 54.48 26.2 57.58 25.86 60.1 18.24 64.47"/><polygon class="cls-38" points="19.82 56.75 13.12 52.88 22.34 44.26 29.04 48.13 19.82 56.75"/><polygon class="cls-40" points="18.24 64.47 11.54 60.6 13.12 52.88 19.82 56.75 18.24 64.47"/><polygon class="cls-41" points="18.06 62.81 17.88 63.69 12.13 60.37 13.49 53.75 14.08 54.09 12.91 59.83 18.06 62.81"/><polygon class="cls-42" points="19.23 57.07 18.06 62.81 12.91 59.83 14.08 54.09 19.23 57.07"/><polygon class="cls-19" points="17.08 66.49 10.38 62.62 10.38 61.27 17.08 65.14 17.08 66.49"/><path d="M44.89,48.27c2.84-1.64,5.46,2.52,5.28,4.48,0,1.34-1.34,3-3,3.89-.87.51-14.3,8-14.3,8l-.16.09c-.54.32-2.26,1.13-2.26-1.22a5.08,5.08,0,0,1,1.59-3s11.36-11.09,12.2-11.8a3.85,3.85,0,0,1,.62-.45Z"/><path class="cls-21" d="M46,50.14a4,4,0,0,1-1.83,3.16c-1,.59-1.82.11-1.82-1a4,4,0,0,1,1.82-3.16C45.18,48.51,46,49,46,50.14Z"/><path class="cls-43" d="M45,50.73a1.8,1.8,0,0,1-.82,1.41c-.45.26-.82,0-.82-.47a1.82,1.82,0,0,1,.82-1.42C44.62,50,45,50.2,45,50.73Z"/><path class="cls-44" d="M47.12,55.86l2.39-4.49-4-2.34h0a1.24,1.24,0,0,0-1.31.1,4,4,0,0,0-1.8,3.12,1.3,1.3,0,0,0,.46,1.12h0l.13.08Z"/><path class="cls-21" d="M50.08,52.55a4,4,0,0,1-1.81,3.12c-1,.58-1.8.11-1.8-1a4,4,0,0,1,1.8-3.12C49.27,50.94,50.08,51.4,50.08,52.55Z"/><path class="cls-45" d="M49.08,53.13a1.79,1.79,0,0,1-.81,1.4c-.33.19-.63.12-.74-.16a.66.66,0,0,0,.4-.11,1.78,1.78,0,0,0,.81-1.4.75.75,0,0,0-.06-.31C48.92,52.58,49.08,52.78,49.08,53.13Z"/><path class="cls-43" d="M48.74,52.86a1.78,1.78,0,0,1-.81,1.4.66.66,0,0,1-.4.11.75.75,0,0,1-.06-.31,1.79,1.79,0,0,1,.8-1.4.77.77,0,0,1,.41-.11A.75.75,0,0,1,48.74,52.86Z"/><path class="cls-46" d="M44.54,57.83l1.61-3L42,52.67h0a.86.86,0,0,0-.89.07,2.69,2.69,0,0,0-1.21,2.1.88.88,0,0,0,.31.75h0l.08.06Z"/><path class="cls-21" d="M46.53,55.61a2.69,2.69,0,0,1-1.21,2.1c-.67.38-1.21.07-1.21-.7a2.69,2.69,0,0,1,1.21-2.1C46,54.52,46.53,54.84,46.53,55.61Z"/><path class="cls-45" d="M45.86,56a1.22,1.22,0,0,1-.54.94c-.24.13-.44.07-.51-.13a.49.49,0,0,0,.27-.07,1.2,1.2,0,0,0,.54-.94.54.54,0,0,0,0-.19C45.75,55.62,45.86,55.76,45.86,56Z"/><path class="cls-43" d="M45.62,55.8a1.2,1.2,0,0,1-.54.94.49.49,0,0,1-.27.07.54.54,0,0,1,0-.19,1.22,1.22,0,0,1,.54-.94.49.49,0,0,1,.27-.07A.54.54,0,0,1,45.62,55.8Z"/><path class="cls-44" d="M42,59.25l1.61-3L39.5,54.1h0a.81.81,0,0,0-.88.06,2.7,2.7,0,0,0-1.22,2.1.87.87,0,0,0,.31.75h0l.09,0Z"/><path class="cls-21" d="M44,57a2.69,2.69,0,0,1-1.21,2.1c-.67.38-1.21.07-1.21-.7a2.69,2.69,0,0,1,1.21-2.1C43.45,55.94,44,56.26,44,57Z"/><path class="cls-45" d="M43.32,57.42a1.22,1.22,0,0,1-.54.94c-.23.13-.44.07-.51-.13a.42.42,0,0,0,.27-.07,1.2,1.2,0,0,0,.54-.94.58.58,0,0,0,0-.19C43.22,57,43.32,57.18,43.32,57.42Z"/><path class="cls-43" d="M43.08,57.22a1.2,1.2,0,0,1-.54.94.42.42,0,0,1-.27.07.54.54,0,0,1,0-.19,1.22,1.22,0,0,1,.54-.94.49.49,0,0,1,.27-.07A.58.58,0,0,1,43.08,57.22Z"/><path class="cls-46" d="M39.49,60.65l1.61-3L37,55.49h0a.84.84,0,0,0-.88.07,2.69,2.69,0,0,0-1.21,2.1.87.87,0,0,0,.31.75h0l.09,0Z"/><path class="cls-21" d="M41.48,58.43a2.69,2.69,0,0,1-1.21,2.1c-.67.38-1.21.07-1.21-.7a2.69,2.69,0,0,1,1.21-2.1C40.94,57.34,41.48,57.66,41.48,58.43Z"/><path class="cls-45" d="M40.81,58.82a1.18,1.18,0,0,1-.54.93c-.24.14-.44.08-.51-.12a.42.42,0,0,0,.27-.07,1.22,1.22,0,0,0,.54-.94.54.54,0,0,0,0-.19C40.7,58.44,40.81,58.58,40.81,58.82Z"/><path class="cls-43" d="M40.57,58.62a1.22,1.22,0,0,1-.54.94.42.42,0,0,1-.27.07.54.54,0,0,1,0-.19,1.22,1.22,0,0,1,.54-.94.49.49,0,0,1,.27-.07A.54.54,0,0,1,40.57,58.62Z"/><path class="cls-44" d="M37,62.05l1.6-3-4.11-2.14h0a.84.84,0,0,0-.88.07,2.67,2.67,0,0,0-1.22,2.1.9.9,0,0,0,.31.75h0l.09,0Z"/><path class="cls-21" d="M39,59.83a2.65,2.65,0,0,1-1.21,2.09c-.67.39-1.21.08-1.21-.69a2.66,2.66,0,0,1,1.21-2.1C38.43,58.74,39,59.05,39,59.83Z"/><path class="cls-45" d="M38.31,60.21a1.2,1.2,0,0,1-.55.94c-.23.14-.44.08-.51-.12a.49.49,0,0,0,.27-.07,1.22,1.22,0,0,0,.54-1,.48.48,0,0,0,0-.18C38.2,59.84,38.31,60,38.31,60.21Z"/><path class="cls-43" d="M38.06,60a1.22,1.22,0,0,1-.54,1,.49.49,0,0,1-.27.07.58.58,0,0,1,0-.19,1.19,1.19,0,0,1,.54-.94.42.42,0,0,1,.27-.07A.48.48,0,0,1,38.06,60Z"/><path class="cls-46" d="M34.46,63.44l1.6-3L32,58.28h0a.84.84,0,0,0-.88.07,2.69,2.69,0,0,0-1.21,2.1.87.87,0,0,0,.3.75h0l.09.06Z"/><path class="cls-21" d="M36.44,61.22a2.69,2.69,0,0,1-1.21,2.1c-.67.38-1.21.07-1.21-.7a2.69,2.69,0,0,1,1.21-2.1C35.9,60.13,36.44,60.45,36.44,61.22Z"/><path class="cls-45" d="M35.78,61.61a1.23,1.23,0,0,1-.55.94c-.23.13-.44.07-.51-.13a.42.42,0,0,0,.27-.07,1.2,1.2,0,0,0,.54-.94.58.58,0,0,0,0-.19C35.67,61.23,35.78,61.37,35.78,61.61Z"/><path class="cls-43" d="M35.53,61.41a1.2,1.2,0,0,1-.54.94.42.42,0,0,1-.27.07.54.54,0,0,1,0-.19,1.22,1.22,0,0,1,.54-.94.49.49,0,0,1,.27-.07A.58.58,0,0,1,35.53,61.41Z"/><polygon class="cls-39" points="31.2 57.81 34.3 59.6 44.56 52.29 41.47 50.5 31.2 56.43 31.2 57.81"/><polygon class="cls-9" points="34.3 59.6 44.56 53.67 44.56 52.29 34.3 58.22 34.3 59.6"/><path class="cls-46" d="M43.78,52.94l2.51-4.72L42,45.76h0a1.28,1.28,0,0,0-1.38.11,4.17,4.17,0,0,0-1.9,3.28,1.4,1.4,0,0,0,.49,1.18h0l.14.08Z"/><path class="cls-21" d="M46.89,49.47A4.17,4.17,0,0,1,45,52.75c-1,.61-1.89.12-1.89-1.09A4.22,4.22,0,0,1,45,48.37C46,47.77,46.89,48.26,46.89,49.47Z"/><path class="cls-45" d="M45.84,50.07A1.87,1.87,0,0,1,45,51.54c-.35.21-.65.13-.78-.15a.64.64,0,0,0,.44-.11,1.87,1.87,0,0,0,.85-1.47.86.86,0,0,0-.06-.34C45.68,49.5,45.84,49.72,45.84,50.07Z"/><path class="cls-43" d="M45.5,49.81a1.87,1.87,0,0,1-.85,1.47.64.64,0,0,1-.44.11.83.83,0,0,1-.06-.34A1.89,1.89,0,0,1,45,49.58a.73.73,0,0,1,.45-.11A.86.86,0,0,1,45.5,49.81Z"/><path class="cls-44" d="M31.13,65l2.42-4.55L29.45,58h0a1.23,1.23,0,0,0-1.33.1A4,4,0,0,0,26.3,61.3a1.35,1.35,0,0,0,.46,1.13h0l.13.08Z"/><path class="cls-21" d="M34.13,61.6a4,4,0,0,1-1.83,3.16c-1,.58-1.82.11-1.82-1.05a4,4,0,0,1,1.82-3.16C33.31,60,34.13,60.44,34.13,61.6Z"/><path class="cls-45" d="M33.12,62.19a1.8,1.8,0,0,1-.82,1.41c-.34.2-.63.12-.75-.15a.69.69,0,0,0,.41-.11,1.82,1.82,0,0,0,.82-1.42.79.79,0,0,0-.06-.32C33,61.63,33.12,61.84,33.12,62.19Z"/><path class="cls-43" d="M32.78,61.92A1.82,1.82,0,0,1,32,63.34a.69.69,0,0,1-.41.11.79.79,0,0,1-.07-.32,1.82,1.82,0,0,1,.82-1.42.73.73,0,0,1,.42-.11A.79.79,0,0,1,32.78,61.92Z"/><path class="cls-24" d="M42.74,45.39a1.43,1.43,0,0,0-1.12-.27,3.32,3.32,0,0,0-.91.36A4.54,4.54,0,0,0,40,46c-.89.75-11.7,11.31-12.23,11.82-.14.13-1.81,1.75-1.81,3.48,0,.93.25,1.45.64,1.69h0L31,65.48l-.7-1.77.18-1.09.72-1.39L32.38,60l1.31-1.26,10.3-10,1.48-.88.81-.12,1.83.92a12.55,12.55,0,0,0-1.59-1.07ZM26.3,62.32a3,3,0,0,0,.19.43A3,3,0,0,1,26.3,62.32Zm.28.58,0,.07Z"/><polygon points="40.39 52.03 36.21 49.62 36.53 49.31 40.71 51.73 40.39 52.03"/><polygon points="39.11 53.28 34.93 50.87 35.25 50.56 39.43 52.98 39.11 53.28"/><polygon points="37.75 54.61 33.57 52.2 33.89 51.89 38.06 54.3 37.75 54.61"/><polygon points="36.47 55.85 32.29 53.44 32.61 53.14 36.79 55.55 36.47 55.85"/><polygon points="44.45 48.19 40.27 45.78 40.65 45.52 44.82 47.93 44.45 48.19"/><path d="M46.25,47.6,41.9,45.09a1.16,1.16,0,0,1,.36.07,2.12,2.12,0,0,1,.41.2l4.13,2.38c.34.2.77.5.77.5A3.9,3.9,0,0,0,46.25,47.6Z"/><polygon points="43.04 49.49 38.86 47.08 39.18 46.77 43.35 49.18 43.04 49.49"/><polygon points="41.76 50.74 37.58 48.33 37.9 48.02 42.08 50.43 41.76 50.74"/><polygon points="35.26 57.01 31.08 54.6 31.4 54.3 35.57 56.71 35.26 57.01"/><polygon points="33.98 58.26 29.8 55.85 30.12 55.54 34.3 57.96 33.98 58.26"/><polygon points="32.62 59.59 28.44 57.18 28.75 56.87 32.93 59.28 32.62 59.59"/><polygon points="31.37 60.88 27.19 58.47 27.49 58.13 31.67 60.54 31.37 60.88"/><polygon points="30.48 62.28 26.3 59.87 26.51 59.48 30.68 61.9 30.48 62.28"/><polygon points="30.17 64.09 25.99 61.68 25.98 61.16 30.16 63.58 30.17 64.09"/><path class="cls-47" d="M44.89,48.27c1.77-1.19,5.46,2.52,5.28,4.48,0,1.34-1.34,3-3,3.89-.87.51-14.3,8-14.3,8l-.16.09c-.54.32-2.26,1.13-2.26-1.22a5.08,5.08,0,0,1,1.59-3s11.36-11.09,12.2-11.8a3.85,3.85,0,0,1,.62-.45Zm0-.38a4.54,4.54,0,0,0-.69.51c-.89.75-11.7,11.31-12.23,11.83-.14.13-1.82,1.74-1.82,3.47,0,2.14,1.34,2.13,2.59,1.41l.17-.11L47.2,57a8.21,8.21,0,0,0,2.26-2,4.34,4.34,0,0,0,1-2.49c.11-1.42-1.38-3.24-2.75-4.21-1.06-.75-1.78-1.1-2.86-.48Z"/><polygon class="cls-33" points="25.71 57.71 26.25 58.58 28.53 59.9 28.68 59.43 25.71 57.71"/><path class="cls-32" d="M42.67,42.83c-.61-.43-1.55-.16-2.41.68l-7.88,7.75,4.13,2.38,8.88-7.7,1.31-.79Z"/><polygon class="cls-34" points="25.71 57.71 23.57 64.44 25.02 63.61 26.25 58.58 25.71 57.71"/><polygon class="cls-32" points="28.16 61.99 25.02 60.17 25.65 59.63 28.8 61.45 28.16 61.99"/><polygon class="cls-32" points="27.69 63.43 24.55 61.62 25.18 61.08 28.33 62.89 27.69 63.43"/><polygon class="cls-32" points="27.27 64.9 24.13 63.08 24.77 62.55 27.91 64.36 27.27 64.9"/><polygon class="cls-33" points="28.68 59.43 26.54 66.16 27.15 66.51 29.29 59.78 28.68 59.43"/><polygon class="cls-33" points="25.16 57.4 22.96 64.09 23.57 64.44 25.71 57.71 25.16 57.4"/><path class="cls-34" d="M28.6,65.67l1.25-5.1L44.1,47.32c.87-.8,1.8-1,2.38-.55l1.69,1.36h0c.24-1.19,0-1.78-.47-2.15l-.82-.7c-.6-.51-1.6-.26-2.49.62l-7.88,7.75L30.9,56.88l-.08,1.5-1.53,1.4-2.14,6.73Z"/><polygon class="cls-35" points="30.9 56.88 26.77 54.49 32.38 51.26 36.51 53.64 30.9 56.88"/><polygon class="cls-33" points="30.82 58.38 26.69 56 26.77 54.49 30.9 56.88 30.82 58.38"/><polygon class="cls-35" points="29.29 59.78 25.16 57.4 26.69 56 30.82 58.38 29.29 59.78"/><polygon class="cls-19" points="22.34 44.26 29.04 48.13 30.49 42.09 23.79 38.22 22.34 44.26"/><polygon class="cls-48" points="28.83 47.17 28.75 47.49 22.8 44.05 24.08 38.68 24.37 38.84 23.16 43.9 28.83 47.17"/><polygon class="cls-49" points="30.04 42.12 28.83 47.17 23.16 43.9 24.37 38.84 30.04 42.12"/><polygon class="cls-50" points="23.37 44.02 25.7 40.64 27.15 41.48 23.97 44.37 23.37 44.02"/><polygon class="cls-50" points="24.54 44.7 28 41.97 29 42.54 25.61 45.31 24.54 44.7"/><polygon class="cls-21" points="35.28 45.37 39.89 42.7 38.9 37.23 30.49 42.09 29.04 48.13 29 53.21 32.38 51.26 35.24 48.44 35.28 45.37"/><polygon class="cls-19" points="30.68 42.26 34.71 39.91 34.71 48.24 32.34 50.69 29.46 52.35 29.46 47.22 30.68 42.26"/><polygon class="cls-51" points="34.47 40.36 34.47 44.34 29.73 47.08 29.8 46.77 34.2 44.22 34.2 40.51 34.47 40.36"/><polygon class="cls-52" points="34.2 40.51 34.2 44.22 29.8 46.77 30.84 42.45 34.2 40.51"/><polygon class="cls-50" points="30.19 46.54 32 41.78 33.53 40.9 32.36 45.28 30.19 46.54"/><polygon class="cls-51" points="39.03 41.25 34.93 43.62 34.93 43.35 38.77 41.13 38.22 38.19 38.44 38.06 39.03 41.25"/><polygon class="cls-52" points="38.77 41.13 34.93 43.35 34.93 40.09 38.22 38.19 38.77 41.13"/><polygon class="cls-50" points="35.33 43.12 36.44 39.22 37.24 38.76 36.74 42.3 35.33 43.12"/><path class="cls-24" d="M34,45.71l-.55.32c-.1.06-.17,0-.17-.1h0a.36.36,0,0,1,.17-.3l.55-.32c.1-.06.17,0,.17.1h0A.36.36,0,0,1,34,45.71Z"/><polygon class="cls-38" points="33.36 32.25 22.65 37.73 29.35 41.6 40.06 36.12 33.36 32.25"/><polygon class="cls-37" points="40.06 36.12 29.35 41.6 29.35 42.75 40.06 36.56 40.06 36.12"/><polygon class="cls-40" points="29.35 42.75 22.65 38.88 22.65 37.73 29.35 41.6 29.35 42.75"/><polygon class="cls-13" points="105.38 27.39 21.65 75.73 20.93 75.32 104.67 26.97 105.38 27.39"/><polygon class="cls-53" points="103.95 27.39 104.67 27.8 104.67 17.95 103.95 17.54 103.95 27.39"/><polygon class="cls-54" points="104.67 27.8 105.38 27.39 105.38 17.54 104.67 17.95 104.67 27.8"/><polygon class="cls-55" points="103.95 17.54 104.67 17.95 105.38 17.54 104.67 17.12 103.95 17.54"/><polygon class="cls-54" points="91.45 28.87 104.53 21.32 104.53 20.42 91.45 27.97 91.45 28.87"/><polygon class="cls-55" points="91.06 27.74 91.45 27.97 104.53 20.42 104.14 20.19 91.06 27.74"/><polygon class="cls-53" points="91.06 28.65 91.45 28.87 91.45 27.97 91.06 27.74 91.06 28.65"/><polygon class="cls-54" points="91.45 32.99 104.53 25.44 104.53 24.53 91.45 32.08 91.45 32.99"/><polygon class="cls-55" points="91.06 31.86 91.45 32.08 104.53 24.53 104.14 24.31 91.06 31.86"/><polygon class="cls-53" points="91.06 32.76 91.45 32.99 91.45 32.08 91.06 31.86 91.06 32.76"/><polygon class="cls-53" points="90.13 35.37 90.85 35.78 90.85 25.93 90.13 25.52 90.13 35.37"/><polygon class="cls-54" points="90.85 35.78 91.56 35.37 91.56 25.52 90.85 25.93 90.85 35.78"/><polygon class="cls-55" points="90.13 25.52 90.85 25.93 91.56 25.52 90.85 25.1 90.13 25.52"/><polygon class="cls-54" points="77.6 36.87 90.68 29.32 90.68 28.41 77.6 35.96 77.6 36.87"/><polygon class="cls-55" points="77.21 35.73 77.6 35.96 90.68 28.41 90.29 28.18 77.21 35.73"/><polygon class="cls-53" points="77.21 36.64 77.6 36.87 77.6 35.96 77.21 35.73 77.21 36.64"/><polygon class="cls-54" points="77.6 40.98 90.68 33.43 90.68 32.52 77.6 40.08 77.6 40.98"/><polygon class="cls-55" points="77.21 39.85 77.6 40.08 90.68 32.52 90.29 32.3 77.21 39.85"/><polygon class="cls-53" points="77.21 40.76 77.6 40.98 77.6 40.08 77.21 39.85 77.21 40.76"/><polygon class="cls-53" points="76.28 43.36 77 43.77 77 33.92 76.28 33.51 76.28 43.36"/><polygon class="cls-54" points="77 43.77 77.71 43.36 77.71 33.51 77 33.92 77 43.77"/><polygon class="cls-55" points="76.28 33.51 77 33.92 77.71 33.51 77 33.1 76.28 33.51"/><polygon class="cls-54" points="63.78 44.85 76.86 37.3 76.86 36.39 63.78 43.94 63.78 44.85"/><polygon class="cls-55" points="63.39 43.72 63.78 43.94 76.86 36.39 76.47 36.17 63.39 43.72"/><polygon class="cls-53" points="63.39 44.62 63.78 44.85 63.78 43.94 63.39 43.72 63.39 44.62"/><polygon class="cls-54" points="63.78 48.97 76.86 41.41 76.86 40.51 63.78 48.06 63.78 48.97"/><polygon class="cls-55" points="63.39 47.83 63.78 48.06 76.86 40.51 76.47 40.28 63.39 47.83"/><polygon class="cls-53" points="63.39 48.74 63.78 48.97 63.78 48.06 63.39 47.83 63.39 48.74"/><polygon class="cls-53" points="62.46 51.34 63.17 51.76 63.17 41.91 62.46 41.49 62.46 51.34"/><polygon class="cls-54" points="63.17 51.76 63.89 51.34 63.89 41.49 63.17 41.91 63.17 51.76"/><polygon class="cls-55" points="62.46 41.49 63.17 41.91 63.89 41.49 63.17 41.08 62.46 41.49"/><polygon class="cls-54" points="49.93 52.84 63.01 45.29 63.01 44.38 49.93 51.94 49.93 52.84"/><polygon class="cls-55" points="49.54 51.71 49.93 51.94 63.01 44.38 62.62 44.16 49.54 51.71"/><polygon class="cls-53" points="49.54 52.62 49.93 52.84 49.93 51.94 49.54 51.71 49.54 52.62"/><polygon class="cls-54" points="49.93 56.96 63.01 49.41 63.01 48.5 49.93 56.05 49.93 56.96"/><polygon class="cls-55" points="49.54 55.82 49.93 56.05 63.01 48.5 62.62 48.27 49.54 55.82"/><polygon class="cls-53" points="49.54 56.73 49.93 56.96 49.93 56.05 49.54 55.82 49.54 56.73"/><polygon class="cls-53" points="48.61 59.34 49.33 59.75 49.33 49.9 48.61 49.49 48.61 59.34"/><polygon class="cls-54" points="49.33 59.75 50.04 59.34 50.04 49.49 49.33 49.9 49.33 59.75"/><polygon class="cls-55" points="48.61 49.49 49.33 49.9 50.04 49.49 49.33 49.07 48.61 49.49"/><polygon class="cls-54" points="36.11 60.83 49.18 53.28 49.18 52.37 36.11 59.92 36.11 60.83"/><polygon class="cls-55" points="35.71 59.7 36.11 59.92 49.18 52.37 48.79 52.14 35.71 59.7"/><polygon class="cls-53" points="35.71 60.6 36.11 60.83 36.11 59.92 35.71 59.7 35.71 60.6"/><polygon class="cls-54" points="36.11 64.94 49.18 57.4 49.18 56.49 36.11 64.04 36.11 64.94"/><polygon class="cls-55" points="35.71 63.81 36.11 64.04 49.18 56.49 48.79 56.26 35.71 63.81"/><polygon class="cls-53" points="35.71 64.72 36.11 64.94 36.11 64.04 35.71 63.81 35.71 64.72"/><polygon class="cls-53" points="34.78 67.32 35.5 67.74 35.5 57.88 34.78 57.47 34.78 67.32"/><polygon class="cls-54" points="35.5 67.74 36.21 67.32 36.21 57.47 35.5 57.88 35.5 67.74"/><polygon class="cls-55" points="34.78 57.47 35.5 57.88 36.21 57.47 35.5 57.06 34.78 57.47"/><polygon class="cls-54" points="22.25 68.82 35.33 61.27 35.33 60.36 22.25 67.91 22.25 68.82"/><polygon class="cls-55" points="21.86 67.69 22.25 67.91 35.33 60.36 34.94 60.14 21.86 67.69"/><polygon class="cls-53" points="21.86 68.6 22.25 68.82 22.25 67.91 21.86 67.69 21.86 68.6"/><polygon class="cls-54" points="22.25 72.94 35.33 65.39 35.33 64.48 22.25 72.03 22.25 72.94"/><polygon class="cls-55" points="21.86 71.81 22.25 72.03 35.33 64.48 34.94 64.25 21.86 71.81"/><polygon class="cls-53" points="21.86 72.71 22.25 72.94 22.25 72.03 21.86 71.81 21.86 72.71"/><polygon class="cls-53" points="20.93 75.32 21.65 75.73 21.65 65.88 20.93 65.47 20.93 75.32"/><polygon class="cls-54" points="21.65 75.73 22.36 75.32 22.36 65.47 21.65 65.88 21.65 75.73"/><polygon class="cls-55" points="20.93 65.47 21.65 65.88 22.36 65.47 21.65 65.05 20.93 65.47"/><polygon class="cls-54" points="137.44 45.9 136.72 46.31 136.72 36.46 137.44 36.04 137.44 45.9"/><polygon class="cls-53" points="136.72 46.31 136.01 45.9 136.01 36.04 136.72 36.46 136.72 46.31"/><polygon class="cls-55" points="137.44 36.04 136.72 36.46 136.01 36.04 136.72 35.63 137.44 36.04"/><polygon class="cls-13" points="137.44 45.9 136.72 46.31 166.05 63.24 166.76 62.83 137.44 45.9"/><polygon class="cls-53" points="151.25 48.13 136.95 39.87 136.95 38.97 151.25 47.22 151.25 48.13"/><polygon class="cls-55" points="151.65 46.99 151.25 47.22 136.95 38.97 137.34 38.74 151.65 46.99"/><polygon class="cls-54" points="151.65 47.9 151.25 48.13 151.25 47.22 151.65 46.99 151.65 47.9"/><polygon class="cls-53" points="151.25 52.24 136.95 43.99 136.95 43.08 151.25 51.34 151.25 52.24"/><polygon class="cls-55" points="151.65 51.11 151.25 51.34 136.95 43.08 137.34 42.85 151.65 51.11"/><polygon class="cls-54" points="151.65 52.02 151.25 52.24 151.25 51.34 151.65 51.11 151.65 52.02"/><polygon class="cls-54" points="152.46 54.57 151.74 54.98 151.74 45.13 152.46 44.72 152.46 54.57"/><polygon class="cls-53" points="151.74 54.98 151.03 54.57 151.03 44.72 151.74 45.13 151.74 54.98"/><polygon class="cls-55" points="152.46 44.72 151.74 45.13 151.03 44.72 151.74 44.3 152.46 44.72"/><polygon class="cls-53" points="166.21 56.77 151.91 48.52 151.91 47.61 166.21 55.86 166.21 56.77"/><polygon class="cls-55" points="166.61 55.63 166.21 55.86 151.91 47.61 152.3 47.38 166.61 55.63"/><polygon class="cls-54" points="166.61 56.54 166.21 56.77 166.21 55.86 166.61 55.63 166.61 56.54"/><polygon class="cls-53" points="166.21 60.89 151.91 52.63 151.91 51.72 166.21 59.98 166.21 60.89"/><polygon class="cls-55" points="166.61 59.75 166.21 59.98 151.91 51.72 152.3 51.5 166.61 59.75"/><polygon class="cls-54" points="166.61 60.66 166.21 60.89 166.21 59.98 166.61 59.75 166.61 60.66"/><polygon class="cls-13" points="159.69 62.96 114.65 36.95 57.16 69.98 67.91 76.19 59.37 81.09 79.94 92.97 88.48 88.06 102.2 95.99 159.69 62.96"/><polygon class="cls-56" points="101.16 90.19 102.91 91.19 155.67 60.73 153.92 59.73 101.16 90.19"/><polygon class="cls-57" points="62.83 68.05 62.83 65.81 60.89 66.93 62.83 68.05"/><polygon class="cls-56" points="60.89 69.52 102.91 93.78 102.91 91.19 60.89 66.93 60.89 69.52"/><polygon class="cls-58" points="101.16 90.19 153.92 59.73 153.92 30.96 101.16 61.42 101.16 90.19"/><polygon class="cls-59" points="82 35.61 71.63 34.04 62.83 39.28 62.83 68.05 101.16 90.19 101.16 61.42 92.93 46.33 82 35.61"/><polygon class="cls-60" points="81.6 49.89 82.4 50.35 82.4 35.39 81.6 34.92 81.6 49.89"/><polygon class="cls-60" points="81.75 49.61 82.25 50.63 93.85 46.76 93.36 45.74 81.75 49.61"/><polygon class="cls-60" points="70.3 33.16 81.9 50.43 82.4 49.99 70.79 32.71 70.3 33.16"/><polygon class="cls-60" points="62.83 39.55 101.16 61.68 101.16 60.36 62.83 38.23 62.83 39.55"/><polygon class="cls-61" points="81.99 33.67 70.48 31.92 59.68 38.55 60.91 40.62 71.43 34.16 82.01 35.77 93.17 46.71 103.16 65.15 104.41 64.53 94.12 45.57 81.99 33.67"/><polygon class="cls-60" points="71.75 73.19 89.42 83.4 89.42 66.05 71.75 55.85 71.75 73.19"/><polygon class="cls-62" points="72.7 73.74 88.47 82.85 88.47 66.5 72.7 57.39 72.7 73.74"/><polygon class="cls-63" points="72.7 57.39 72.7 58.27 87.62 82.36 88.47 82.85 88.47 81.97 73.55 57.88 72.7 57.39"/><polygon class="cls-63" points="72.7 72.76 72.7 73.74 73.46 74.18 88.47 67.48 88.47 66.5 87.7 66.06 72.7 72.76"/><polygon class="cls-64" points="80.42 78.2 80.75 78.39 80.75 62.04 80.42 61.85 80.42 78.2"/><polygon class="cls-65" points="94.12 45.57 104.41 64.53 157.16 34.06 146.88 15.11 94.12 45.57"/><polygon class="cls-66" points="81.99 33.67 94.12 45.57 146.88 15.11 134.75 3.21 81.99 33.67"/><polygon class="cls-67" points="70.48 31.92 81.99 33.67 134.75 3.21 123.24 1.46 70.48 31.92"/><polygon class="cls-68" points="102.91 93.78 155.67 63.32 155.67 60.73 102.91 91.19 102.91 93.78"/><polygon class="cls-69" points="61.94 81.43 79.62 91.63 79.62 91.33 61.94 81.12 61.94 81.43"/><polygon class="cls-70" points="79.62 91.63 89.42 85.97 89.42 83.4 79.62 91.33 79.62 91.63"/><polygon class="cls-71" points="61.94 81.12 79.62 91.33 89.42 83.4 71.75 73.19 61.94 81.12"/><polygon class="cls-72" points="115.38 81.98 116.99 81.05 116.99 57.26 115.38 58.24 115.38 81.98"/><polygon class="cls-72" points="140.9 67.27 142.5 66.34 142.5 42.55 140.9 43.53 140.9 67.27"/><polygon class="cls-60" points="127.99 58.35 127.99 67.36 128.5 67.66 128.5 58.65 131.16 57.12 130.65 56.82 127.99 58.35"/><polygon class="cls-72" points="128.5 67.66 131.16 66.13 131.16 57.12 128.5 58.65 128.5 67.66"/><polygon class="cls-31" points="130.31 65.62 128.86 66.45 128.86 67.09 130.8 65.96 130.8 57.73 130.31 58.01 130.31 65.62"/><polygon class="cls-49" points="128.86 66.45 130.31 65.62 130.31 58.01 128.86 58.85 128.86 66.45"/><polygon class="cls-60" points="134.85 54.42 134.85 63.43 135.36 63.73 135.36 54.72 138.02 53.18 137.51 52.89 134.85 54.42"/><polygon class="cls-72" points="135.36 63.73 138.02 62.19 138.02 53.18 135.36 54.72 135.36 63.73"/><polygon class="cls-31" points="137.17 61.68 135.72 62.52 135.72 63.15 137.66 62.02 137.66 53.79 137.17 54.08 137.17 61.68"/><polygon class="cls-49" points="135.72 62.52 137.17 61.68 137.17 54.08 135.72 54.92 135.72 62.52"/><polygon class="cls-60" points="120.77 62.53 120.77 71.54 121.28 71.84 121.28 62.83 123.94 61.29 123.42 61 120.77 62.53"/><polygon class="cls-72" points="121.28 71.84 123.94 70.3 123.94 61.29 121.28 62.83 121.28 71.84"/><polygon class="cls-31" points="123.09 69.79 121.64 70.63 121.64 71.26 123.58 70.14 123.58 61.9 123.09 62.19 123.09 69.79"/><polygon class="cls-49" points="121.64 70.63 123.09 69.79 123.09 62.19 121.64 63.03 121.64 70.63"/><polygon class="cls-60" points="107.46 70.18 107.46 79.19 107.97 79.49 107.97 70.48 110.62 68.94 110.11 68.65 107.46 70.18"/><polygon class="cls-72" points="107.97 79.49 110.62 77.95 110.62 68.94 107.97 70.48 107.97 79.49"/><polygon class="cls-31" points="109.78 77.44 108.32 78.28 108.32 78.91 110.27 77.79 110.27 69.55 109.78 69.84 109.78 77.44"/><polygon class="cls-49" points="108.32 78.28 109.78 77.44 109.78 69.84 108.32 70.68 108.32 78.28"/><polygon class="cls-60" points="146.83 47.45 146.83 56.46 147.34 56.75 147.34 47.74 150 46.21 149.49 45.91 146.83 47.45"/><polygon class="cls-72" points="147.34 56.75 150 55.22 150 46.21 147.34 47.74 147.34 56.75"/><polygon class="cls-31" points="149.15 54.71 147.7 55.55 147.7 56.18 149.65 55.05 149.65 46.82 149.15 47.11 149.15 54.71"/><polygon class="cls-49" points="147.7 55.55 149.15 54.71 149.15 47.11 147.7 47.95 147.7 55.55"/><path class="cls-13" d="M47.87,78.61,41.23,74.7l3.86-1.9L50,70,52.1,68.1,58.85,72,55.6,73.69l-5,2.86Z"/><polygon class="cls-73" points="42.01 74.81 47.86 78.18 47.86 72.02 42.01 68.95 42.01 74.81"/><polygon class="cls-27" points="50.52 64.38 45.2 67.45 42.01 68.95 47.86 72.02 50.48 70.34 55.44 67.48 58.13 66.08 52.33 62.74 50.52 64.38"/><polygon class="cls-25" points="50.48 70.34 47.86 72.02 47.86 78.18 50.5 76.03 55.5 73.14 58.13 71.99 58.13 66.08 55.44 67.48 50.48 70.34"/><polygon class="cls-58" points="50.33 76.12 50.68 75.92 50.68 70.22 50.33 70.43 50.33 76.12"/><polygon class="cls-59" points="44.8 67.63 50.33 70.43 50.68 70.22 45.2 67.45 44.8 67.63"/><polygon class="cls-58" points="55.3 73.25 55.65 73.05 55.65 67.35 55.3 67.56 55.3 73.25"/><polygon class="cls-59" points="50.16 64.59 55.3 67.56 55.65 67.35 50.52 64.38 50.16 64.59"/><path class="cls-13" d="M55.78,82.72l-6.64-3.91L53,76.91l4.9-2.83L60,72.21l6.76,3.91L63.51,77.8l-4.95,2.86Z"/><polygon class="cls-73" points="49.92 78.92 55.77 82.29 55.77 76.13 49.92 73.06 49.92 78.92"/><polygon class="cls-27" points="58.44 68.49 53.11 71.56 49.92 73.06 55.77 76.13 58.39 74.45 63.35 71.59 66.04 70.2 60.24 66.85 58.44 68.49"/><polygon class="cls-25" points="58.39 74.45 55.77 76.13 55.77 82.29 58.41 80.14 63.41 77.25 66.04 76.1 66.04 70.2 63.35 71.59 58.39 74.45"/><polygon class="cls-58" points="58.24 80.23 58.59 80.03 58.59 74.33 58.24 74.54 58.24 80.23"/><polygon class="cls-59" points="52.71 71.74 58.24 74.54 58.59 74.33 53.11 71.56 52.71 71.74"/><polygon class="cls-58" points="63.21 77.36 63.56 77.16 63.56 71.46 63.21 71.67 63.21 77.36"/><polygon class="cls-59" points="58.07 68.7 63.21 71.67 63.56 71.46 58.44 68.49 58.07 68.7"/><path class="cls-13" d="M92,103.62l-6.64-3.9,3.86-1.91L94.07,95l2.11-1.87,6.76,3.9-3.26,1.69-4.94,2.85Z"/><polygon class="cls-73" points="86.09 99.83 91.94 103.19 91.94 97.04 86.09 93.97 86.09 99.83"/><polygon class="cls-27" points="94.61 89.4 89.28 92.47 86.09 93.97 91.94 97.04 94.56 95.36 99.52 92.49 102.21 91.1 96.42 87.76 94.61 89.4"/><polygon class="cls-25" points="94.56 95.36 91.94 97.04 91.94 103.19 94.58 101.04 99.58 98.15 102.21 97 102.21 91.1 99.52 92.49 94.56 95.36"/><polygon class="cls-58" points="94.41 101.14 94.77 100.93 94.77 95.24 94.41 95.44 94.41 101.14"/><polygon class="cls-59" points="88.88 92.64 94.41 95.44 94.77 95.24 89.28 92.47 88.88 92.64"/><polygon class="cls-58" points="99.38 98.27 99.74 98.06 99.74 92.37 99.38 92.57 99.38 98.27"/><polygon class="cls-59" points="94.25 89.61 99.38 92.57 99.74 92.37 94.61 89.4 94.25 89.61"/><polygon class="cls-13" points="167.48 63.24 83.74 111.58 83.03 111.17 166.76 62.83 167.48 63.24"/><polygon class="cls-53" points="166.05 63.24 166.76 63.65 166.76 53.8 166.05 53.39 166.05 63.24"/><polygon class="cls-54" points="166.76 63.65 167.48 63.24 167.48 53.39 166.76 53.8 166.76 63.65"/><polygon class="cls-55" points="166.05 53.39 166.76 53.8 167.48 53.39 166.76 52.97 166.05 53.39"/><polygon class="cls-54" points="153.55 64.72 166.63 57.17 166.63 56.27 153.55 63.82 153.55 64.72"/><polygon class="cls-55" points="153.15 63.59 153.55 63.82 166.63 56.27 166.23 56.04 153.15 63.59"/><polygon class="cls-53" points="153.15 64.5 153.55 64.72 153.55 63.82 153.15 63.59 153.15 64.5"/><polygon class="cls-54" points="153.55 68.84 166.63 61.29 166.63 60.38 153.55 67.93 153.55 68.84"/><polygon class="cls-55" points="153.15 67.71 153.55 67.93 166.63 60.38 166.23 60.16 153.15 67.71"/><polygon class="cls-53" points="153.15 68.61 153.55 68.84 153.55 67.93 153.15 67.71 153.15 68.61"/><polygon class="cls-53" points="152.22 71.22 152.94 71.63 152.94 61.78 152.22 61.37 152.22 71.22"/><polygon class="cls-54" points="152.94 71.63 153.65 71.22 153.65 61.37 152.94 61.78 152.94 71.63"/><polygon class="cls-55" points="152.22 61.37 152.94 61.78 153.65 61.37 152.94 60.95 152.22 61.37"/><polygon class="cls-54" points="139.69 72.72 152.77 65.17 152.77 64.26 139.69 71.81 139.69 72.72"/><polygon class="cls-55" points="139.3 71.58 139.69 71.81 152.77 64.26 152.38 64.03 139.3 71.58"/><polygon class="cls-53" points="139.3 72.49 139.69 72.72 139.69 71.81 139.3 71.58 139.3 72.49"/><polygon class="cls-54" points="139.69 76.83 152.77 69.28 152.77 68.37 139.69 75.93 139.69 76.83"/><polygon class="cls-55" points="139.3 75.7 139.69 75.93 152.77 68.37 152.38 68.15 139.3 75.7"/><polygon class="cls-53" points="139.3 76.61 139.69 76.83 139.69 75.93 139.3 75.7 139.3 76.61"/><polygon class="cls-53" points="138.38 79.21 139.09 79.63 139.09 69.77 138.38 69.36 138.38 79.21"/><polygon class="cls-54" points="139.09 79.63 139.81 79.21 139.81 69.36 139.09 69.77 139.09 79.63"/><polygon class="cls-55" points="138.38 69.36 139.09 69.77 139.81 69.36 139.09 68.95 138.38 69.36"/><polygon class="cls-54" points="125.88 80.7 138.96 73.15 138.96 72.24 125.88 79.79 125.88 80.7"/><polygon class="cls-55" points="125.48 79.56 125.88 79.79 138.96 72.24 138.56 72.02 125.48 79.56"/><polygon class="cls-53" points="125.48 80.47 125.88 80.7 125.88 79.79 125.48 79.56 125.48 80.47"/><polygon class="cls-54" points="125.88 84.82 138.96 77.27 138.96 76.36 125.88 83.91 125.88 84.82"/><polygon class="cls-55" points="125.48 83.68 125.88 83.91 138.96 76.36 138.56 76.13 125.48 83.68"/><polygon class="cls-53" points="125.48 84.59 125.88 84.82 125.88 83.91 125.48 83.68 125.48 84.59"/><polygon class="cls-53" points="124.55 87.19 125.27 87.61 125.27 77.76 124.55 77.34 124.55 87.19"/><polygon class="cls-54" points="125.27 87.61 125.98 87.19 125.98 77.34 125.27 77.76 125.27 87.61"/><polygon class="cls-55" points="124.55 77.34 125.27 77.76 125.98 77.34 125.27 76.93 124.55 77.34"/><polygon class="cls-54" points="112.02 88.69 125.1 81.14 125.1 80.23 112.02 87.78 112.02 88.69"/><polygon class="cls-55" points="111.63 87.56 112.02 87.78 125.1 80.23 124.71 80.01 111.63 87.56"/><polygon class="cls-53" points="111.63 88.47 112.02 88.69 112.02 87.78 111.63 87.56 111.63 88.47"/><polygon class="cls-54" points="112.02 92.81 125.1 85.26 125.1 84.35 112.02 91.9 112.02 92.81"/><polygon class="cls-55" points="111.63 91.67 112.02 91.9 125.1 84.35 124.71 84.12 111.63 91.67"/><polygon class="cls-53" points="111.63 92.58 112.02 92.81 112.02 91.9 111.63 91.67 111.63 92.58"/><polygon class="cls-53" points="110.71 95.19 111.42 95.6 111.42 85.75 110.71 85.34 110.71 95.19"/><polygon class="cls-54" points="111.42 95.6 112.13 95.19 112.13 85.34 111.42 85.75 111.42 95.6"/><polygon class="cls-55" points="110.71 85.34 111.42 85.75 112.13 85.34 111.42 84.92 110.71 85.34"/><polygon class="cls-54" points="98.2 96.68 111.28 89.13 111.28 88.22 98.2 95.77 98.2 96.68"/><polygon class="cls-55" points="97.81 95.55 98.2 95.77 111.28 88.22 110.89 87.99 97.81 95.55"/><polygon class="cls-53" points="97.81 96.45 98.2 96.68 98.2 95.77 97.81 95.55 97.81 96.45"/><polygon class="cls-54" points="98.2 100.8 111.28 93.25 111.28 92.34 98.2 99.89 98.2 100.8"/><polygon class="cls-55" points="97.81 99.66 98.2 99.89 111.28 92.34 110.89 92.11 97.81 99.66"/><polygon class="cls-53" points="97.81 100.57 98.2 100.8 98.2 99.89 97.81 99.66 97.81 100.57"/><polygon class="cls-53" points="96.88 103.17 97.59 103.59 97.59 93.73 96.88 93.32 96.88 103.17"/><polygon class="cls-54" points="97.59 103.59 98.31 103.17 98.31 93.32 97.59 93.73 97.59 103.59"/><polygon class="cls-55" points="96.88 93.32 97.59 93.73 98.31 93.32 97.59 92.91 96.88 93.32"/><polygon class="cls-54" points="84.34 104.67 97.42 97.12 97.42 96.21 84.34 103.76 84.34 104.67"/><polygon class="cls-55" points="83.95 103.54 84.34 103.76 97.42 96.21 97.03 95.99 83.95 103.54"/><polygon class="cls-53" points="83.95 104.45 84.34 104.67 84.34 103.76 83.95 103.54 83.95 104.45"/><polygon class="cls-54" points="84.34 108.79 97.42 101.24 97.42 100.33 84.34 107.88 84.34 108.79"/><polygon class="cls-55" points="83.95 107.66 84.34 107.88 97.42 100.33 97.03 100.1 83.95 107.66"/><polygon class="cls-53" points="83.95 108.56 84.34 108.79 84.34 107.88 83.95 107.66 83.95 108.56"/><polygon class="cls-53" points="83.03 111.17 83.74 111.58 83.74 101.73 83.03 101.32 83.03 111.17"/><polygon class="cls-54" points="83.74 111.58 84.46 111.17 84.46 101.32 83.74 101.73 83.74 111.58"/><polygon class="cls-55" points="83.03 101.32 83.74 101.73 84.46 101.32 83.74 100.9 83.03 101.32"/></g></g></svg>