<svg xmlns="http://www.w3.org/2000/svg" viewBox="0 0 167.48 132.02"><defs><style>.cls-1{fill:#783b25}.cls-2{fill:#61301d}.cls-3{fill:#87422a}.cls-4{fill:#5c2c1b}.cls-5{fill:#452014}.cls-6{fill:#a8804c}.cls-7{fill:#87673d}.cls-8{fill:#878787}.cls-9{fill:#636363}.cls-10{fill:#4c631c}.cls-11{fill:#709129}.cls-12{fill:#90ad1a}.cls-13{opacity:.3}.cls-15{fill:#912222}.cls-16{fill:#b52a2a}.cls-17{fill:#fa3c3c}.cls-19{fill:#3b3b3b}.cls-20{fill:#787878}.cls-21{fill:#575757}.cls-22{fill:#242424}.cls-23{fill:#333}.cls-24{fill:#1c1c1c}.cls-25{fill:#b38750}.cls-26{fill:#947042}.cls-27{fill:#f0b56c}.cls-28,.cls-50{opacity:.1}.cls-29{fill:#4a4a4a}.cls-30{fill:#2b2b2b}.cls-31{fill:#b3b3b3}.cls-32{fill:#f6871f}.cls-33{fill:#cc6118}.cls-34{fill:#e76e1b}.cls-35{fill:#ff921e}.cls-37{fill:#ffb205}.cls-38{fill:#ffc600}.cls-39{fill:#424242}.cls-40{fill:#ed9215}.cls-43{fill:#737373}.cls-44{fill:#454545}.cls-45{fill:#262626}.cls-46{fill:#363636}.cls-49{fill:#2b82c7}.cls-50{fill:#fff}.cls-51{fill:#275980}.cls-52{fill:#369ff2}.cls-53{fill:#fb0}.cls-54{fill:#d49c00}.cls-55{fill:#ffd666}.cls-56{fill:#663f30}.cls-58{fill:#a62626}.cls-59{fill:#d63a3a}.cls-60{fill:#f2f2f2}.cls-63{fill:#3b1c11}.cls-72{fill:#ccc}.cls-73{fill:#dba563}</style></defs><g id="Layer_2" data-name="Layer 2"><g id="Layer_1-2" data-name="Layer 1"><path class="cls-1" d="m62.81 26.97 20.93 12.09 20.94-12.09-20.94-12.09-20.93 12.09z"/><path class="cls-2" d="M73 28a4.85 4.85 0 0 1-4.36 0 1.33 1.33 0 0 1 0-2.52 4.79 4.79 0 0 1 4.36 0A1.33 1.33 0 0 1 73 28z"/><ellipse class="cls-3" cx="83.37" cy="19.36" rx="3.09" ry="1.78"/><path class="cls-2" d="M99.56 27.6a3.31 3.31 0 0 1-3 0 .91.91 0 0 1 0-1.73 3.3 3.3 0 0 1 3 0 .91.91 0 0 1 0 1.73zm-19 3.49a3.3 3.3 0 0 1-3 0 .91.91 0 0 1 0-1.73 3.3 3.3 0 0 1 3 0 .92.92 0 0 1 0 1.73zm9.98-1.22a3.37 3.37 0 0 1-3 0 .92.92 0 0 1 0-1.74 3.37 3.37 0 0 1 3 0 .92.92 0 0 1 0 1.74z"/><path class="cls-3" d="M91.43 24.23a2.61 2.61 0 0 1-2.34 0 .71.71 0 0 1 0-1.35 2.61 2.61 0 0 1 2.34 0 .71.71 0 0 1 0 1.35zm-8.32 1.4a2.61 2.61 0 0 1-2.34 0 .71.71 0 0 1 0-1.35 2.61 2.61 0 0 1 2.34 0 .71.71 0 0 1 0 1.35zm3.08 9.46a2.61 2.61 0 0 1-2.34 0 .71.71 0 0 1 0-1.35 2.61 2.61 0 0 1 2.34 0 .71.71 0 0 1 0 1.35z"/><path class="cls-4" d="m62.81 34.2 20.93 12.08v-7.22L62.81 26.97v7.23z"/><path class="cls-5" d="M104.68 34.2 83.74 46.28v-7.22l20.94-12.09v7.23z"/><path class="cls-6" d="m62.81 42.68 20.93 12.08v-8.48L62.81 34.2v8.48z"/><path class="cls-7" d="M104.68 42.68 83.74 54.76v-8.48l20.94-12.08v8.48z"/><path class="cls-8" d="m62.81 47.41 20.93 12.08v-4.73L62.81 42.68v4.73z"/><path class="cls-9" d="M104.68 47.41 83.74 59.49v-4.73l20.94-12.08v4.73z"/><path class="cls-1" d="m41.87 39.06 20.94 12.09 20.93-12.09-20.93-12.09-20.94 12.09z"/><path class="cls-2" d="M52.07 40.08a4.81 4.81 0 0 1-4.37 0 1.33 1.33 0 0 1 0-2.52 4.87 4.87 0 0 1 4.37 0 1.33 1.33 0 0 1 0 2.52z"/><path class="cls-3" d="M64.62 32.71a4.81 4.81 0 0 1-4.37 0 1.33 1.33 0 0 1 0-2.52 4.81 4.81 0 0 1 4.37 0 1.33 1.33 0 0 1 0 2.52z"/><path class="cls-2" d="M78.62 39.69a3.28 3.28 0 0 1-3 0 .91.91 0 0 1 0-1.73 3.28 3.28 0 0 1 3 0 .91.91 0 0 1 0 1.73zm-19 3.49a3.3 3.3 0 0 1-3 0 .91.91 0 0 1 0-1.73 3.3 3.3 0 0 1 3 0 .91.91 0 0 1 0 1.73zM69.6 42a3.3 3.3 0 0 1-3 0 .92.92 0 0 1 0-1.73 3.3 3.3 0 0 1 3 0 .91.91 0 0 1 0 1.73z"/><path class="cls-3" d="M70.49 36.32a2.61 2.61 0 0 1-2.34 0 .71.71 0 0 1 0-1.35 2.54 2.54 0 0 1 2.34 0c.65.37.65.97 0 1.35zm-8.32 1.4a2.61 2.61 0 0 1-2.34 0 .72.72 0 0 1 0-1.36 2.61 2.61 0 0 1 2.34 0 .72.72 0 0 1 0 1.36zm3.09 9.46a2.61 2.61 0 0 1-2.34 0 .72.72 0 0 1 0-1.36 2.61 2.61 0 0 1 2.34 0 .72.72 0 0 1 0 1.36z"/><path class="cls-4" d="m41.87 46.28 20.94 12.09v-7.22L41.87 39.06v7.22z"/><path class="cls-5" d="M83.74 46.28 62.81 58.37v-7.22l20.93-12.09v7.22z"/><path class="cls-6" d="m41.87 54.76 20.94 12.09v-8.48L41.87 46.28v8.48z"/><path class="cls-7" d="M83.74 54.76 62.81 66.85v-8.48l20.93-12.09v8.48z"/><path class="cls-8" d="m41.87 59.49 20.94 12.09v-4.73L41.87 54.76v4.73z"/><path class="cls-9" d="M83.74 59.49 62.81 71.58v-4.73l20.93-12.09v4.73z"/><path class="cls-1" d="m20.93 51.15 20.94 12.08 20.94-12.08-20.94-12.09-20.94 12.09z"/><path class="cls-2" d="M31.13 52.17a4.81 4.81 0 0 1-4.37 0 1.33 1.33 0 0 1 0-2.52 4.81 4.81 0 0 1 4.37 0 1.33 1.33 0 0 1 0 2.52z"/><ellipse class="cls-3" cx="41.5" cy="43.54" rx="3.09" ry="1.78"/><path class="cls-2" d="M57.69 51.78a3.37 3.37 0 0 1-3 0 .92.92 0 0 1 0-1.74 3.37 3.37 0 0 1 3 0 .92.92 0 0 1 0 1.74zm-19.01 3.48a3.3 3.3 0 0 1-3 0 .92.92 0 0 1 0-1.73 3.3 3.3 0 0 1 3 0 .91.91 0 0 1 0 1.73zM48.67 54a3.31 3.31 0 0 1-3 0 .91.91 0 0 1 0-1.73 3.3 3.3 0 0 1 3 0 .91.91 0 0 1 0 1.73z"/><path class="cls-3" d="M49.56 48.4a2.54 2.54 0 0 1-2.34 0c-.65-.37-.65-1 0-1.35a2.61 2.61 0 0 1 2.34 0 .71.71 0 0 1 0 1.35zm-8.33 1.4a2.54 2.54 0 0 1-2.34 0 .71.71 0 0 1 0-1.35 2.61 2.61 0 0 1 2.34 0 .71.71 0 0 1 0 1.35zm3.09 9.46a2.54 2.54 0 0 1-2.34 0 .71.71 0 0 1 0-1.35 2.61 2.61 0 0 1 2.34 0 .71.71 0 0 1 0 1.35z"/><path class="cls-4" d="m20.93 58.37 20.94 12.09v-7.23L20.93 51.15v7.22z"/><path class="cls-5" d="M62.81 58.37 41.87 70.46v-7.23l20.94-12.08v7.22z"/><path class="cls-6" d="m20.93 66.85 20.94 12.09v-8.48L20.93 58.37v8.48z"/><path class="cls-7" d="M62.81 66.85 41.87 78.94v-8.48l20.94-12.09v8.48z"/><path class="cls-8" d="m20.93 71.58 20.94 12.09v-4.73L20.93 66.85v4.73z"/><path class="cls-9" d="M62.81 71.58 41.87 83.67v-4.73l20.94-12.09v4.73z"/><path class="cls-1" d="m0 63.23 20.93 12.09 20.94-12.09-20.94-12.08L0 63.23z"/><path class="cls-2" d="M10.2 64.26a4.87 4.87 0 0 1-4.37 0 1.33 1.33 0 0 1 0-2.52 4.81 4.81 0 0 1 4.37 0 1.33 1.33 0 0 1 0 2.52z"/><ellipse class="cls-3" cx="20.56" cy="55.62" rx="3.09" ry="1.78"/><path class="cls-2" d="M36.75 63.86a3.3 3.3 0 0 1-3 0 .92.92 0 0 1 0-1.73 3.3 3.3 0 0 1 3 0 .91.91 0 0 1 0 1.73zm-19 3.49a3.3 3.3 0 0 1-3 0 .91.91 0 0 1 0-1.73 3.3 3.3 0 0 1 3 0 .91.91 0 0 1 0 1.73z"/><ellipse class="cls-2" cx="26.23" cy="65.26" rx="2.12" ry="1.22"/><path class="cls-3" d="M28.62 60.49a2.61 2.61 0 0 1-2.34 0 .71.71 0 0 1 0-1.35 2.61 2.61 0 0 1 2.34 0 .71.71 0 0 1 0 1.35zm-8.32 1.4a2.61 2.61 0 0 1-2.34 0 .71.71 0 0 1 0-1.35 2.61 2.61 0 0 1 2.34 0 .71.71 0 0 1 0 1.35zm3.09 9.46a2.61 2.61 0 0 1-2.34 0 .71.71 0 0 1 0-1.35 2.61 2.61 0 0 1 2.34 0 .71.71 0 0 1 0 1.35z"/><path class="cls-4" d="m0 70.46 20.93 12.09v-7.23L0 63.23v7.23z"/><path class="cls-5" d="M41.87 70.46 20.93 82.55v-7.23l20.94-12.09v7.23z"/><path class="cls-6" d="m0 78.94 20.93 12.09v-8.48L0 70.46v8.48z"/><path class="cls-7" d="M41.87 78.94 20.93 91.03v-8.48l20.94-12.09v8.48z"/><path class="cls-8" d="m0 83.67 20.93 12.09v-4.73L0 78.94v4.73z"/><path class="cls-9" d="M41.87 83.67 20.93 95.76v-4.73l20.94-12.09v4.73z"/><path class="cls-4" d="m83.74 46.28 20.94 12.09v-5.66L83.74 40.62v5.66z"/><path class="cls-5" d="m125.61 46.28-20.93 12.09v-5.66l20.93-12.09v5.66z"/><path class="cls-10" d="m125.61 40.62-20.93 12.09v-1.57l20.93-12.08v1.56z"/><path class="cls-11" d="m83.74 40.62 20.94 12.09v-1.57L83.74 39.06v1.56z"/><path class="cls-6" d="m83.74 54.76 20.94 12.09v-8.48L83.74 46.28v8.48z"/><path class="cls-7" d="m125.61 54.76-20.93 12.09v-8.48l20.93-12.09v8.48z"/><path class="cls-8" d="m83.74 59.49 20.94 12.09v-4.73L83.74 54.76v4.73z"/><path class="cls-9" d="m125.61 59.49-20.93 12.09v-4.73l20.93-12.09v4.73z"/><path class="cls-12" d="m83.74 39.06 20.94 12.08 20.93-12.08-20.93-12.09-20.94 12.09z"/><path class="cls-4" d="m62.81 58.37 20.93 12.09V64.8L62.81 52.71v5.66z"/><path class="cls-5" d="M104.68 58.37 83.74 70.46V64.8l20.94-12.09v5.66z"/><path class="cls-10" d="M104.68 52.71 83.74 64.8v-1.57l20.94-12.09v1.57z"/><path class="cls-11" d="M62.81 52.71 83.74 64.8v-1.57L62.81 51.14v1.57z"/><path class="cls-6" d="m62.81 66.85 20.93 12.09v-8.48L62.81 58.37v8.48z"/><path class="cls-7" d="M104.68 66.85 83.74 78.94v-8.48l20.94-12.09v8.48z"/><path class="cls-8" d="m62.81 71.58 20.93 12.09v-4.73L62.81 66.85v4.73z"/><path class="cls-9" d="M104.68 71.58 83.74 83.67v-4.73l20.94-12.09v4.73z"/><path class="cls-12" d="m62.81 51.14 20.93 12.09 20.94-12.09-20.94-12.08-20.93 12.08z"/><path class="cls-4" d="m41.87 70.46 20.94 12.09v-5.66L41.87 64.8v5.66z"/><path class="cls-5" d="M83.74 70.46 62.81 82.55v-5.66L83.74 64.8v5.66z"/><path class="cls-10" d="M83.74 64.8 62.81 76.89v-1.57l20.93-12.09v1.57z"/><path class="cls-11" d="m41.87 64.8 20.94 12.09v-1.57L41.87 63.23v1.57z"/><path class="cls-6" d="m41.87 78.94 20.94 12.08v-8.47L41.87 70.46v8.48z"/><path class="cls-7" d="M83.74 78.94 62.81 91.02v-8.47l20.93-12.09v8.48z"/><path class="cls-8" d="m41.87 83.67 20.94 12.09v-4.74L41.87 78.94v4.73z"/><path class="cls-9" d="M83.74 83.67 62.81 95.76v-4.74l20.93-12.08v4.73z"/><path class="cls-12" d="m41.87 63.23 20.94 12.09 20.93-12.09-20.93-12.08-20.94 12.08z"/><path class="cls-4" d="m20.93 82.55 20.94 12.08v-5.66L20.93 76.89v5.66z"/><path class="cls-5" d="M62.81 82.55 41.87 94.63v-5.66l20.94-12.08v5.66z"/><path class="cls-10" d="M62.81 76.89 41.87 88.97v-1.56l20.94-12.09v1.57z"/><path class="cls-11" d="m20.93 76.89 20.94 12.08v-1.56L20.93 75.32v1.57z"/><path class="cls-6" d="m20.93 91.02 20.94 12.09v-8.48L20.93 82.55v8.47z"/><path class="cls-7" d="m62.81 91.02-20.94 12.09v-8.48l20.94-12.08v8.47z"/><path class="cls-8" d="m20.93 95.76 20.94 12.08v-4.73L20.93 91.02v4.74z"/><path class="cls-9" d="m62.81 95.76-20.94 12.08v-4.73l20.94-12.09v4.74z"/><path class="cls-12" d="m20.93 75.32 20.94 12.09 20.94-12.09-20.94-12.09-20.94 12.09z"/><path class="cls-4" d="m104.68 58.37 20.93 12.09V64.8l-20.93-12.09v5.66z"/><path class="cls-5" d="m146.55 58.37-20.94 12.09V64.8l20.94-12.09v5.66z"/><path class="cls-10" d="M146.55 52.71 125.61 64.8v-1.57l20.94-12.09v1.57z"/><path class="cls-11" d="m104.68 52.71 20.93 12.09v-1.57l-20.93-12.09v1.57z"/><path class="cls-6" d="m104.68 66.85 20.93 12.09v-8.48l-20.93-12.09v8.48z"/><path class="cls-7" d="m146.55 66.85-20.94 12.09v-8.48l20.94-12.09v8.48z"/><path class="cls-8" d="m104.68 71.58 20.93 12.09v-4.73l-20.93-12.09v4.73z"/><path class="cls-9" d="m146.55 71.58-20.94 12.09v-4.73l20.94-12.09v4.73z"/><path class="cls-12" d="m104.68 51.14 20.93 12.09 20.94-12.09-20.94-12.08-20.93 12.08z"/><path class="cls-4" d="m83.74 70.46 20.94 12.09v-5.66L83.74 64.8v5.66z"/><path class="cls-5" d="m125.61 70.46-20.93 12.09v-5.66l20.93-12.09v5.66z"/><path class="cls-10" d="m125.61 64.8-20.93 12.09v-1.57l20.93-12.09v1.57z"/><path class="cls-11" d="m83.74 64.8 20.94 12.09v-1.57L83.74 63.23v1.57z"/><path class="cls-6" d="m83.74 78.94 20.94 12.08v-8.47L83.74 70.46v8.48z"/><path class="cls-7" d="m125.61 78.94-20.93 12.08v-8.47l20.93-12.09v8.48z"/><path class="cls-8" d="m83.74 83.67 20.94 12.09v-4.74L83.74 78.94v4.73z"/><path class="cls-9" d="m125.61 83.67-20.93 12.09v-4.74l20.93-12.08v4.73z"/><path class="cls-12" d="m83.74 63.23 20.94 12.09 20.93-12.09-20.93-12.08-20.94 12.08z"/><path class="cls-4" d="m62.81 82.55 20.93 12.08v-5.66L62.81 76.89v5.66z"/><path class="cls-5" d="M104.68 82.55 83.74 94.63v-5.66l20.94-12.08v5.66z"/><path class="cls-10" d="M104.68 76.89 83.74 88.97v-1.56l20.94-12.09v1.57z"/><path class="cls-11" d="m62.81 76.89 20.93 12.08v-1.56L62.81 75.32v1.57z"/><path class="cls-6" d="m62.81 91.02 20.93 12.09v-8.48L62.81 82.55v8.47z"/><path class="cls-7" d="m104.68 91.02-20.94 12.09v-8.48l20.94-12.08v8.47z"/><path class="cls-8" d="m62.81 95.76 20.93 12.08v-4.73L62.81 91.02v4.74z"/><path class="cls-9" d="m104.68 95.76-20.94 12.08v-4.73l20.94-12.09v4.74z"/><path class="cls-12" d="m62.81 75.32 20.93 12.09 20.94-12.09-20.94-12.09-20.93 12.09z"/><path class="cls-4" d="m41.87 94.63 20.94 12.09v-5.66L41.87 88.97v5.66z"/><path class="cls-5" d="m83.74 94.63-20.93 12.09v-5.66l20.93-12.09v5.66z"/><path class="cls-10" d="m83.74 88.97-20.93 12.09v-1.57l20.93-12.08v1.56z"/><path class="cls-11" d="m41.87 88.97 20.94 12.09v-1.57L41.87 87.41v1.56z"/><path class="cls-6" d="m41.87 103.11 20.94 12.09v-8.48L41.87 94.63v8.48z"/><path class="cls-7" d="M83.74 103.11 62.81 115.2v-8.48l20.93-12.09v8.48z"/><path class="cls-8" d="m41.87 107.84 20.94 12.09v-4.73l-20.94-12.09v4.73z"/><path class="cls-9" d="m83.74 107.84-20.93 12.09v-4.73l20.93-12.09v4.73z"/><path class="cls-12" d="m41.87 87.41 20.94 12.08 20.93-12.08-20.93-12.09-20.94 12.09z"/><path class="cls-4" d="m125.61 70.46 20.94 12.09v-5.66L125.61 64.8v5.66z"/><path class="cls-5" d="m167.49 70.46-20.94 12.09v-5.66l20.94-12.09v5.66z"/><path class="cls-10" d="m167.49 64.8-20.94 12.09v-1.57l20.94-12.09v1.57z"/><path class="cls-11" d="m125.61 64.8 20.94 12.09v-1.57l-20.94-12.09v1.57z"/><path class="cls-6" d="m125.61 78.94 20.94 12.08v-8.47l-20.94-12.09v8.48z"/><path class="cls-7" d="m167.49 78.94-20.94 12.08v-8.47l20.94-12.09v8.48z"/><path class="cls-8" d="m125.61 83.67 20.94 12.09v-4.74l-20.94-12.08v4.73z"/><path class="cls-9" d="m167.49 83.67-20.94 12.09v-4.74l20.94-12.08v4.73z"/><path class="cls-12" d="m125.61 63.23 20.94 12.09 20.94-12.09-20.94-12.08-20.94 12.08z"/><path class="cls-4" d="m104.68 82.55 20.93 12.08v-5.66l-20.93-12.08v5.66z"/><path class="cls-5" d="m146.55 82.55-20.94 12.08v-5.66l20.94-12.08v5.66z"/><path class="cls-10" d="m146.55 76.89-20.94 12.08v-1.56l20.94-12.09v1.57z"/><path class="cls-11" d="m104.68 76.89 20.93 12.08v-1.56l-20.93-12.09v1.57z"/><path class="cls-6" d="m104.68 91.02 20.93 12.09v-8.48l-20.93-12.08v8.47z"/><path class="cls-7" d="m146.55 91.02-20.94 12.09v-8.48l20.94-12.08v8.47z"/><path class="cls-8" d="m104.68 95.76 20.93 12.08v-4.73l-20.93-12.09v4.74z"/><path class="cls-9" d="m146.55 95.76-20.94 12.08v-4.73l20.94-12.09v4.74z"/><path class="cls-12" d="m104.68 75.32 20.93 12.09 20.94-12.09-20.94-12.09-20.93 12.09z"/><path class="cls-4" d="m83.74 94.63 20.94 12.09v-5.66L83.74 88.97v5.66z"/><path class="cls-5" d="m125.61 94.63-20.93 12.09v-5.66l20.93-12.09v5.66z"/><path class="cls-10" d="m125.61 88.97-20.93 12.09v-1.57l20.93-12.08v1.56z"/><path class="cls-11" d="m83.74 88.97 20.94 12.09v-1.57L83.74 87.41v1.56z"/><path class="cls-6" d="m83.74 103.11 20.94 12.09v-8.48L83.74 94.63v8.48z"/><path class="cls-7" d="m125.61 103.11-20.93 12.09v-8.48l20.93-12.09v8.48z"/><path class="cls-8" d="m83.74 107.84 20.94 12.09v-4.73l-20.94-12.09v4.73z"/><path class="cls-9" d="m125.61 107.84-20.93 12.09v-4.73l20.93-12.09v4.73z"/><path class="cls-12" d="m83.74 87.41 20.94 12.08 20.93-12.08-20.93-12.09-20.94 12.09z"/><path class="cls-4" d="m62.81 106.72 20.93 12.09v-5.66l-20.93-12.09v5.66z"/><path class="cls-5" d="m104.68 106.72-20.94 12.09v-5.66l20.94-12.09v5.66z"/><path class="cls-10" d="m104.68 101.06-20.94 12.09v-1.57l20.94-12.09v1.57z"/><path class="cls-11" d="m62.81 101.06 20.93 12.09v-1.57L62.81 99.49v1.57z"/><path class="cls-6" d="m62.81 115.2 20.93 12.09v-8.48l-20.93-12.09v8.48z"/><path class="cls-7" d="m104.68 115.2-20.94 12.09v-8.48l20.94-12.09v8.48z"/><path class="cls-8" d="m62.81 119.93 20.93 12.09v-4.73L62.81 115.2v4.73z"/><path class="cls-9" d="m104.68 119.93-20.94 12.09v-4.73l20.94-12.09v4.73z"/><path class="cls-12" d="m62.81 99.49 20.93 12.09 20.94-12.09-20.94-12.08-20.93 12.08z"/><path class="cls-13" d="M100.22 27.43 82.35 17.11 45.47 38.4l5 2.89-10.39 6.93L42 49.33l-1 .55L34.38 46 4.44 63.29l15.91 9.21 29.94-17.29-6.49-3.75 1-.55 1.81 1 11.88-6.06 4.91 2.83 18.81-10.85 2.31 1.33L93 34.3 90.64 33zm-53.43 23-4.14-2.39 9.21-6 5.2 3z"/><path d="M90.59 32.92a.55.55 0 0 1-.3-.09l-9.94-5.73a.62.62 0 0 1-.22-.84A.61.61 0 0 1 81 26l9.94 5.74a.61.61 0 0 1-.31 1.14zm-5.07 2.92a.54.54 0 0 1-.3-.08L75.28 30a.61.61 0 1 1 .61-1l9.94 5.73a.61.61 0 0 1-.31 1.14z" style="fill:#121212"/><path class="cls-15" d="M45.47 31.45v2.3l17.88 10.32v-2.3z"/><path class="cls-16" d="M100.22 20.48 63.35 41.77v2.3l36.87-21.3z"/><path class="cls-17" d="M82.35 10.16 45.47 31.45l17.88 10.32 36.87-21.29z"/><path d="m54.85 34.73-5.57-3.21 33.5-19.31 5.56 3.22-33.49 19.3zm8.37 4.84-5.56-3.22 33.49-19.3 5.57 3.21-33.5 19.31z" style="fill:#a1a1a1"/><path class="cls-19" d="m83.15 21.35-2.23-1.29.37-1.74 1.49.86.37 2.17z"/><path class="cls-20" d="m82.78 19.18-1.49-.86 2.94-1.7 1.49.86-2.94 1.7z"/><path class="cls-21" d="m86.09 19.65-2.94 1.7-.37-2.17 2.94-1.7.37 2.17z"/><path class="cls-19" d="m75.2 25.93-2.22-1.28.37-1.74 1.48.86.37 2.16z"/><path class="cls-20" d="m74.83 23.77-1.48-.86 2.94-1.7 1.49.86-2.95 1.7z"/><path class="cls-21" d="m78.14 24.23-2.94 1.7-.37-2.16 2.95-1.7.36 2.16z"/><path class="cls-19" d="m67.13 30.59-2.23-1.28.37-1.74 1.49.86.37 2.16z"/><path class="cls-20" d="m66.76 28.43-1.49-.86 2.95-1.7 1.48.86-2.94 1.7z"/><path class="cls-21" d="m70.07 28.9-2.94 1.69-.37-2.16 2.94-1.7.37 2.17z"/><path class="cls-19" d="m59.04 35.27-2.23-1.29.37-1.74 1.49.86.37 2.17z"/><path class="cls-20" d="m58.67 33.1-1.49-.86 2.94-1.7 1.49.86-2.94 1.7z"/><path class="cls-21" d="m61.98 33.57-2.94 1.7-.37-2.17 2.94-1.7.37 2.17z"/><path class="cls-19" d="m52 24.82-.77-.44-.7.4.77.45 1.03 4.53.69-.41L52 24.82z"/><path class="cls-22" d="m51.3 25.23-.77-.45 1.03 4.53.77.45-1.03-4.53z"/><path class="cls-19" d="m60.89 19.69-.77-.45-.7.41.78.44 1.02 4.53.7-.4-1.03-4.53z"/><path class="cls-22" d="m60.2 20.09-.78-.44 1.03 4.53.77.44-1.02-4.53z"/><path class="cls-19" d="m68.61 15.23-.77-.44-.69.4.77.44 1.02 4.53.7-.4-1.03-4.53z"/><path class="cls-22" d="m67.92 15.63-.77-.44 1.02 4.53.77.44-1.02-4.53z"/><path class="cls-19" d="m75.77 11.1-.77-.45-.69.4.77.45 1.02 4.53.7-.4-1.03-4.53z"/><path class="cls-22" d="m75.08 11.5-.77-.45 1.02 4.54.77.44-1.02-4.53z"/><path class="cls-23" d="M80.92 8.08a1.15 1.15 0 0 0-.51-.89.34.34 0 0 0-.36 0L49.57 24.75 50.3 26 80.75 8.41a.38.38 0 0 0 .17-.33z"/><path class="cls-24" d="M50.44 25.67c0 .32-.23.45-.51.29a1.11 1.11 0 0 1-.51-.88c0-.32.23-.46.51-.29a1.11 1.11 0 0 1 .51.88z"/><path class="cls-19" d="M89.36 9.4a11.14 11.14 0 0 0-5-8.71 3.88 3.88 0 0 0-3.09-.57l-.94.54 1.14.19A18.09 18.09 0 0 1 84 2c2 1.22 3.78 5.11 4.1 7.15.46 2.87-1.29 4.05-3.8 2.6a6.77 6.77 0 0 1-1-.72c-.08-.07-.17-.09-.22 0l-1 .56.62.77.61.55v1.37l1-.56V13c.92.53 1.78.1 2.52 0v.23l.94-.55.19-.11a3.61 3.61 0 0 0 1.4-3.17z"/><path class="cls-22" d="M83.35 1.25a3.92 3.92 0 0 0-3.06-.57c-.1 0-.12.19 0 .36s.23.27.33.24a3.48 3.48 0 0 1 2.77.52 10.09 10.09 0 0 1 4.56 7.89c0 2.9-2 4.08-4.56 2.63a7.32 7.32 0 0 1-1-.72c-.12-.11-.25-.09-.28 0a.48.48 0 0 0 .18.43v1.57l1.12.64v-1.37c2.78 1.6 5 .3 5-2.91a11.11 11.11 0 0 0-5.06-8.71z"/><path class="cls-19" d="M97.47 9.47a9.83 9.83 0 0 0-3.06-3 3.55 3.55 0 0 0-3.57-.35l-1.11.65.18.31a3.86 3.86 0 0 0-1.26 2.56c-.37 3.18 2.31 7.21 5.09 8.81l.82 2.22 1-.56v-1.48c.13 0 .21-.06.18-.23a.51.51 0 0 0-.29-.37 4.68 4.68 0 0 1-1-.45 10.07 10.07 0 0 1-4.56-7.9 3.25 3.25 0 0 1 1.21-2.89c1.67-.69 4.45 2.28 4.45 2.28l1 1.37.93-.54c.11-.09.09-.28-.01-.43z"/><path class="cls-22" d="M96.49 10a9.73 9.73 0 0 0-3.06-3c-2.77-1.6-5-.3-5 2.9a11.14 11.14 0 0 0 5 8.72v1.37l1.13.65v-1.45c.12 0 .2-.06.17-.22a.48.48 0 0 0-.28-.37 5.66 5.66 0 0 1-1-.46 10.09 10.09 0 0 1-4.56-7.89c0-2.9 2-4.08 4.56-2.63a8.77 8.77 0 0 1 2.75 2.68c.11.15.26.22.34.14s.06-.25-.05-.44z"/><path class="cls-19" d="M81.32 13.93a11.11 11.11 0 0 0-5-8.71 3.91 3.91 0 0 0-3.06-.57l-.93.53 1.13.2A17.94 17.94 0 0 1 76 6.54c2 1.23 3.77 5.11 4.1 7.16.46 2.86-1.29 4-3.81 2.59a8 8 0 0 1-1-.72.18.18 0 0 0-.21-.05l-1 .56.63.77.61.55v1.38l1-.57v-.67c.92.53 1.79.1 2.53 0v.23l.94-.54.19-.11a3.62 3.62 0 0 0 1.34-3.19z"/><path class="cls-22" d="M75.32 5.78a3.92 3.92 0 0 0-3.06-.57c-.1 0-.12.2-.05.36s.23.28.34.24a3.52 3.52 0 0 1 2.77.52 10.09 10.09 0 0 1 4.56 7.89c0 2.9-2 4.08-4.56 2.63a6.12 6.12 0 0 1-1-.72c-.13-.1-.25-.08-.28.05a.51.51 0 0 0 .17.43v1.52l1.13.65V17.4c2.77 1.6 5 .3 5-2.9a11.14 11.14 0 0 0-5.02-8.72z"/><path class="cls-25" d="M70.47 9.29A9.9 9.9 0 0 0 75 17.06c2.48 1.43 4.49.27 4.49-2.59A9.91 9.91 0 0 0 75 6.7c-2.53-1.44-4.53-.28-4.53 2.59z"/><path class="cls-26" d="m74.72 11.24-.27.37a.53.53 0 0 0-.1.24 1.05 1.05 0 0 0 0 .38c0 .07.06.15.09.23a1.35 1.35 0 0 0 .14.22v.06l.1.11.32.15a.39.39 0 0 0 .39 0l.07-.06a.31.31 0 0 1 0-.1 2.58 2.58 0 0 1 .08-.26v-.28a1.06 1.06 0 0 0 0-.31 2.25 2.25 0 0 0-.19-.74 2.55 2.55 0 0 0-.47-.72l-.09-.07c-.06-.05-.12-.12-.18-.16a2.46 2.46 0 0 0-.32-.19A2.13 2.13 0 0 0 74 10a.82.82 0 0 0-.31 0 .35.35 0 0 0-.13 0l-.12.08-.1.12v.09a2.28 2.28 0 0 0 .09 1.78 4.16 4.16 0 0 0 .57 1l.18.22.21.22c.13.11.27.23.41.33a1.88 1.88 0 0 0 .87.33.9.9 0 0 0 .71-.22 1.14 1.14 0 0 0 .23-.33 2 2 0 0 0 .1-.21c0-.07.06-.15.08-.22a2.9 2.9 0 0 0 .06-1.08 5.29 5.29 0 0 0-1.09-2.52 3.29 3.29 0 0 0-2-1.37 1.14 1.14 0 0 0-.86.21 1 1 0 0 0-.29.33 2.26 2.26 0 0 0-.11.22l-.1.25a3.63 3.63 0 0 0-.29 1 4 4 0 0 0 .09 1.27 6.43 6.43 0 0 0 1.31 2.59l.24.28.24.27a5.34 5.34 0 0 0 .5.46 4.57 4.57 0 0 0 1 .66 2 2 0 0 0 1.81 0 1.56 1.56 0 0 0 .59-.58l.12-.2.08-.21a3.09 3.09 0 0 0 .14-.46 5.2 5.2 0 0 0-.23-2.1 7.77 7.77 0 0 0-1.13-2.29 2.27 2.27 0 0 0-.18-.25l-.19-.24-.41-.43-.42-.42c-.14-.14-.29-.28-.42-.39S75 8 74.84 7.85a3.54 3.54 0 0 0-.41-.26c-.13-.08-.26-.13-.4-.2a2.72 2.72 0 0 0-.38-.11 1.75 1.75 0 0 0-1.26.2l-.24.17-.22.2c-.06.07-.14.14-.19.21l-.15.25a3.85 3.85 0 0 0-.36 1.15 4.31 4.31 0 0 0 0 1.19 5.82 5.82 0 0 0 .62 1.87c.11.22.22.37.28.48l.09.17-.1-.16c-.07-.11-.18-.27-.3-.48a6.3 6.3 0 0 1-.72-2A4.39 4.39 0 0 1 71.37 8c0-.1.09-.19.15-.29l.2-.25c.06-.07.14-.14.22-.22l.25-.19a1.85 1.85 0 0 1 1.37-.26A2.38 2.38 0 0 1 74 7a4.43 4.43 0 0 1 .45.2 4.34 4.34 0 0 1 .46.28c.16.12.31.22.47.36a5.76 5.76 0 0 1 .44.41l.44.43.45.48.21.27a1.86 1.86 0 0 1 .21.28 7.19 7.19 0 0 1 1.48 5.12 2.86 2.86 0 0 1-.16.52c0 .08-.07.17-.11.24l-.12.2a1.81 1.81 0 0 1-.68.64 2.29 2.29 0 0 1-2-.1 5.09 5.09 0 0 1-1.13-.76 5.49 5.49 0 0 1-.61-.57l-.26-.29-.24-.29a7 7 0 0 1-1.37-2.85 3.92 3.92 0 0 1-.06-1.35 3.18 3.18 0 0 1 .33-1l.1-.22c0-.08.07-.16.11-.23a1.38 1.38 0 0 1 .33-.35 1.26 1.26 0 0 1 .91-.21 2.69 2.69 0 0 1 1.09.45 3.64 3.64 0 0 1 .53.44 6.51 6.51 0 0 1 .51.54A5.84 5.84 0 0 1 77 12.28a3.08 3.08 0 0 1 0 1.22 1.49 1.49 0 0 1-.07.25c0 .09-.06.15-.09.23a1.33 1.33 0 0 1-.26.39c-.41.45-1.13.4-1.82-.06a3.67 3.67 0 0 1-.51-.41l-.25-.23-.22-.26a4.72 4.72 0 0 1-.69-1.21 2.72 2.72 0 0 1-.09-2.14V10l.13-.14a.78.78 0 0 1 .15-.1.49.49 0 0 1 .17-.06 1 1 0 0 1 .39 0 1.81 1.81 0 0 1 .41.14 2.94 2.94 0 0 1 .42.27c.07 0 .12.11.18.16l.08.08v.05a2.9 2.9 0 0 1 .57.91 2.65 2.65 0 0 1 .21.9 1.71 1.71 0 0 1 0 .36v.29l-.1.25-.07.12a.43.43 0 0 1-.1.09.55.55 0 0 1-.51 0 1.31 1.31 0 0 1-.27-.21l-.1-.11v-.07a1.33 1.33 0 0 1-.16-.28 1 1 0 0 1-.09-.27.68.68 0 0 1 .1-.68l.3-.33z"/><path class="cls-27" d="M79.44 14.47a3.66 3.66 0 0 1-.71 2.37s-.07.16-.48.46a2.07 2.07 0 0 0 .8-.56 3.65 3.65 0 0 0 .82-2.53 10.09 10.09 0 0 0-4.56-7.89 3.74 3.74 0 0 0-2.38-.6l-1.05.61a2.49 2.49 0 0 1 .47-.17A3.52 3.52 0 0 1 75 6.7a9.91 9.91 0 0 1 4.44 7.77z"/><path class="cls-27" d="M82.24 2.49a3.16 3.16 0 0 0-3.17-.32l-4.24 2.45a5.33 5.33 0 0 1 1.46.59 11.14 11.14 0 0 1 5 8.71A5 5 0 0 1 81 15.7l4.26-2.46a3.08 3.08 0 0 0 1.45-3 9.91 9.91 0 0 0-4.47-7.75z"/><path class="cls-28" d="M80.74 10.9a9 9 0 0 1 .58 3 5 5 0 0 1-.32 1.8l4.26-2.46a3.08 3.08 0 0 0 1.45-3 8.09 8.09 0 0 0-.46-2.55z"/><path class="cls-19" d="M89.43 14a9.73 9.73 0 0 0-3.06-3 3.53 3.53 0 0 0-3.56-.34l-1.11.65.18.3a3.86 3.86 0 0 0-1.26 2.57c-.37 3.18 2.31 7.2 5.08 8.8l.82 2.22 1-.56v-1.48c.12 0 .2-.06.17-.22a.48.48 0 0 0-.28-.37 5.66 5.66 0 0 1-1-.46 10.08 10.08 0 0 1-4.55-7.89 3.28 3.28 0 0 1 1.24-2.9c1.68-.69 4.46 2.29 4.46 2.29l1 1.36.94-.53c.06-.1.04-.28-.07-.44z"/><path class="cls-22" d="M88.46 14.57a9.77 9.77 0 0 0-3.06-3c-2.77-1.6-5-.3-5 2.91a11.14 11.14 0 0 0 5 8.71v1.41l1.12.64v-1.52c.13 0 .21-.06.18-.22a.5.5 0 0 0-.28-.37 4.59 4.59 0 0 1-1-.46 10.09 10.09 0 0 1-4.56-7.89c0-2.9 2-4.08 4.56-2.63a8.77 8.77 0 0 1 2.77 2.68c.1.16.25.22.33.14s.04-.25-.06-.4z"/><path class="cls-19" d="M73.38 18.52a11.13 11.13 0 0 0-5-8.72 3.86 3.86 0 0 0-3.06-.56l-.93.54 1.13.19a19.25 19.25 0 0 1 2.61 1.13c2 1.23 3.77 5.12 4.1 7.16.46 2.87-1.29 4-3.81 2.6a9.09 9.09 0 0 1-1-.72c-.08-.07-.16-.09-.21-.06l-1 .56.63.78.61.54v1.38l1-.56v-.67c.92.53 1.79.1 2.53 0v.24l.93-.55.2-.11a3.61 3.61 0 0 0 1.27-3.17z"/><path class="cls-22" d="M67.38 10.37a3.88 3.88 0 0 0-3.06-.57c-.1 0-.12.19 0 .36s.22.27.33.24a3.52 3.52 0 0 1 2.77.51 10.1 10.1 0 0 1 4.56 7.9c0 2.9-2 4.08-4.56 2.63a6.77 6.77 0 0 1-1-.72c-.13-.11-.25-.09-.28 0a.49.49 0 0 0 .18.43v1.52l1.12.65V22c2.77 1.6 5 .3 5-2.9a11.14 11.14 0 0 0-5.06-8.73z"/><path class="cls-25" d="M62.52 13.87A9.91 9.91 0 0 0 67 21.64c2.47 1.43 4.48.27 4.48-2.59A9.93 9.93 0 0 0 67 11.28c-2.47-1.43-4.48-.28-4.48 2.59z"/><path class="cls-26" d="m66.77 15.83-.27.37a.61.61 0 0 0-.1.23.89.89 0 0 0 0 .38 1 1 0 0 0 .08.23 1.76 1.76 0 0 0 .14.23v.05a1.14 1.14 0 0 1 .11.11.69.69 0 0 0 .2.13.37.37 0 0 0 .38 0l.07-.07v-.1l.09-.26v-.27a1.12 1.12 0 0 0 0-.31 2.19 2.19 0 0 0-.19-.74 2.49 2.49 0 0 0-.47-.72l.11-.09-.17-.15a1.79 1.79 0 0 0-.32-.19 1.12 1.12 0 0 0-.34-.11.75.75 0 0 0-.3 0 .34.34 0 0 0-.14 0s-.08.05-.12.09l-.1.12v.08a2.34 2.34 0 0 0 .08 1.79 4.1 4.1 0 0 0 .57 1l.19.23.21.21a2.2 2.2 0 0 0 .41.33 1.8 1.8 0 0 0 .86.34.89.89 0 0 0 .71-.23 1 1 0 0 0 .24-.33 1.76 1.76 0 0 0 .09-.2 1 1 0 0 0 .08-.23 2.69 2.69 0 0 0 .06-1.08 5.16 5.16 0 0 0-1.09-2.51 3.32 3.32 0 0 0-2-1.38 1.14 1.14 0 0 0-.86.21 1.41 1.41 0 0 0-.3.34c0 .07-.07.15-.11.22l-.09.24a3.41 3.41 0 0 0-.29 1 4.09 4.09 0 0 0 .09 1.28 6.37 6.37 0 0 0 1.3 2.58l.24.29.25.26a5.25 5.25 0 0 0 .49.46 4.24 4.24 0 0 0 1 .66 2 2 0 0 0 1.81.06 1.52 1.52 0 0 0 .59-.59l.12-.2a1.89 1.89 0 0 0 .09-.21 3.09 3.09 0 0 0 .13-.46 4.94 4.94 0 0 0-.19-2.28 7.69 7.69 0 0 0-1.12-2.28 2.35 2.35 0 0 0-.19-.25l-.25-.11c-.13-.15-.26-.3-.4-.44l-.42-.43c-.15-.14-.29-.28-.42-.39s-.28-.22-.41-.33-.28-.19-.41-.26-.27-.13-.4-.19a3.18 3.18 0 0 0-.38-.11 1.69 1.69 0 0 0-1.26.2 2.2 2.2 0 0 0-.25.17 1.9 1.9 0 0 0-.21.19l-.2.21a2.15 2.15 0 0 0-.14.26 3.53 3.53 0 0 0-.36 1.12 4.82 4.82 0 0 0 0 1.2 6 6 0 0 0 .63 1.87c.11.21.21.37.27.48l.1.16-.11-.16c-.06-.11-.17-.26-.3-.48a6.66 6.66 0 0 1-.72-1.94 4.42 4.42 0 0 1 .28-2.54 1.51 1.51 0 0 1 .15-.28 2.71 2.71 0 0 1 .19-.25l.22-.16.25-.19a1.81 1.81 0 0 1 1.37-.27 3.89 3.89 0 0 1 .43.11 4.54 4.54 0 0 1 .45.21 4.73 4.73 0 0 1 .46.28 4.82 4.82 0 0 1 .46.36c.16.13.3.26.45.4l.43.43.45.49.25.28.21.28a7.17 7.17 0 0 1 1.47 5.13 3.13 3.13 0 0 1-.16.52l-.1.24-.13.19a1.59 1.59 0 0 1-.67.64 2.29 2.29 0 0 1-2-.1 4.82 4.82 0 0 1-1.14-.76c-.18-.15-.37-.34-.55-.52l-.25-.29-.25-.3A6.83 6.83 0 0 1 64 16.16a4.14 4.14 0 0 1-.07-1.34 3.81 3.81 0 0 1 .33-1.05l.1-.24a2.39 2.39 0 0 1 .12-.22 1.08 1.08 0 0 1 .32-.35 1.18 1.18 0 0 1 .91-.21 2.4 2.4 0 0 1 1.09.45 3.59 3.59 0 0 1 .54.44 5.23 5.23 0 0 1 .5.54 5.81 5.81 0 0 1 1.23 2.69 3.28 3.28 0 0 1 0 1.22 1.35 1.35 0 0 1-.08.24c0 .09-.06.15-.09.23a1.36 1.36 0 0 1-.25.4 1.41 1.41 0 0 1-1.82-.06 3.73 3.73 0 0 1-.52-.41l-.22-.24-.26-.25a5.08 5.08 0 0 1-.7-1.21 2.76 2.76 0 0 1-.08-2.14v-.13l.13-.15a1.29 1.29 0 0 1 .16-.09.35.35 0 0 1 .17-.06 1 1 0 0 1 .38 0 1.66 1.66 0 0 1 .41.14 2.47 2.47 0 0 1 .42.27c.07 0 .12.11.18.16l.09.09v.05a3.65 3.65 0 0 1 .57.91 2.45 2.45 0 0 1 .2.9 1.38 1.38 0 0 1 0 .37s0 .09-.05.15a.5.5 0 0 1 0 .13l-.09.26a.75.75 0 0 0-.07.12l-.1.08a.52.52 0 0 1-.52 0 1.21 1.21 0 0 1-.26-.2l-.1-.12v-.07c-.06-.09-.11-.19-.16-.28s-.07-.19-.09-.28a.7.7 0 0 1 .11-.68l.3-.33z"/><path class="cls-27" d="M71.49 19.05a3.75 3.75 0 0 1-.7 2.38 1.58 1.58 0 0 1-.49.45 2 2 0 0 0 .8-.56 3.6 3.6 0 0 0 .82-2.53 10.08 10.08 0 0 0-4.55-7.89 3.9 3.9 0 0 0-2.37-.6l-1.05.61a2.86 2.86 0 0 1 .47-.17 3.58 3.58 0 0 1 2.61.54 9.93 9.93 0 0 1 4.46 7.77z"/><path class="cls-27" d="M74.3 7.07a3.16 3.16 0 0 0-3.17-.31L66.89 9.2a5.4 5.4 0 0 1 1.45.59 11.14 11.14 0 0 1 5 8.71 5 5 0 0 1-.3 1.78l4.27-2.46a3.07 3.07 0 0 0 1.44-3 9.93 9.93 0 0 0-4.45-7.75z"/><path class="cls-28" d="M72.79 15.49a8.86 8.86 0 0 1 .58 3 5 5 0 0 1-.3 1.78l4.27-2.46a3.07 3.07 0 0 0 1.44-3 8 8 0 0 0-.46-2.54z"/><path class="cls-19" d="M81.49 18.59a9.66 9.66 0 0 0-3.06-3 3.53 3.53 0 0 0-3.56-.34l-1.11.65.18.3a3.88 3.88 0 0 0-1.26 2.57C72.31 22 75 26 77.77 27.61l.81 2.22 1-.56v-1.53c.12 0 .2-.06.17-.22a.5.5 0 0 0-.28-.37 5.58 5.58 0 0 1-1-.45 10.12 10.12 0 0 1-4.55-7.9 3.25 3.25 0 0 1 1.24-2.89c1.68-.69 4.46 2.28 4.46 2.28l1 1.37.88-.56c.12-.08.1-.26-.01-.41z"/><path class="cls-22" d="M80.52 19.15a9.73 9.73 0 0 0-3.06-3c-2.77-1.6-5-.3-5 2.9a11.14 11.14 0 0 0 5 8.71v1.38l1.12.65v-1.48c.13 0 .21-.06.18-.23a.52.52 0 0 0-.28-.37 4.75 4.75 0 0 1-1-.45 10.1 10.1 0 0 1-4.56-7.9c0-2.9 2-4.08 4.56-2.63a8.92 8.92 0 0 1 2.77 2.69c.1.15.25.21.33.14s.04-.26-.06-.41z"/><path class="cls-19" d="M65.34 23.16a11.14 11.14 0 0 0-5-8.71 3.88 3.88 0 0 0-3.06-.57l-.94.54 1.14.2A17.55 17.55 0 0 1 60 15.77c2 1.22 3.78 5.11 4.11 7.16.46 2.86-1.3 4-3.81 2.59a6.77 6.77 0 0 1-1-.72.2.2 0 0 0-.22-.05l-1 .56.63.77.6.55V28l1-.56v-.67c.92.53 1.78.1 2.52 0V27l.94-.55a1.18 1.18 0 0 0 .19-.11 3.6 3.6 0 0 0 1.38-3.18z"/><path class="cls-22" d="M59.33 15a3.91 3.91 0 0 0-3.06-.57c-.1 0-.12.2 0 .36s.23.27.33.24a3.48 3.48 0 0 1 2.77.52 10.07 10.07 0 0 1 4.56 7.89c0 2.9-2 4.08-4.56 2.63a7.24 7.24 0 0 1-1-.72c-.13-.1-.26-.09-.29 0a.48.48 0 0 0 .18.43v1.53l1.12.64v-1.32c2.78 1.6 5 .3 5-2.91A11.11 11.11 0 0 0 59.33 15z"/><path class="cls-25" d="M54.45 18.51a9.93 9.93 0 0 0 4.48 7.77c2.48 1.43 4.49.27 4.49-2.59a9.91 9.91 0 0 0-4.49-7.77c-2.47-1.43-4.48-.27-4.48 2.59z"/><path class="cls-26" d="m58.52 20.26-.27.37a.61.61 0 0 0-.1.23.87.87 0 0 0 0 .38 1 1 0 0 0 .08.23 1.76 1.76 0 0 0 .14.23v.05l.11.11a.69.69 0 0 0 .2.13.37.37 0 0 0 .38 0l.07-.07v-.09l.09-.27v-.27a1.09 1.09 0 0 0 0-.31 2.19 2.19 0 0 0-.19-.74 2.63 2.63 0 0 0-.47-.72l-.09-.08-.17-.15a2.69 2.69 0 0 0-.32-.19 1.12 1.12 0 0 0-.34-.11 1 1 0 0 0-.3 0 .25.25 0 0 0-.14.06.62.62 0 0 0-.12.08l-.1.12v.08a2.34 2.34 0 0 0 .08 1.79 4.36 4.36 0 0 0 .57 1l.19.22.21.21a2.74 2.74 0 0 0 .41.34 1.89 1.89 0 0 0 .86.33.89.89 0 0 0 .71-.23 1.12 1.12 0 0 0 .24-.32c0-.07.07-.15.09-.21a1 1 0 0 0 .08-.23 2.67 2.67 0 0 0 .06-1.08 5.16 5.16 0 0 0-1.09-2.51 3.37 3.37 0 0 0-2-1.38 1.19 1.19 0 0 0-.86.21 1.41 1.41 0 0 0-.3.34c0 .07-.07.15-.11.22l-.09.24a3.5 3.5 0 0 0-.29 1 4.07 4.07 0 0 0 .09 1.28 6.37 6.37 0 0 0 1.3 2.58l.24.29.25.27c.16.16.32.32.49.46a4.51 4.51 0 0 0 1 .65 2 2 0 0 0 1.81.06 1.56 1.56 0 0 0 .59-.58l.12-.21a1.33 1.33 0 0 0 .09-.21 2.78 2.78 0 0 0 .28-.36 4.94 4.94 0 0 0-.19-2.28 7.81 7.81 0 0 0-1.12-2.28 2.35 2.35 0 0 0-.19-.25l-.19-.24-.41-.45-.42-.43c-.15-.13-.29-.28-.42-.39s-.28-.22-.41-.33a3.77 3.77 0 0 0-.41-.25 3 3 0 0 0-.4-.2 3.18 3.18 0 0 0-.38-.11 1.74 1.74 0 0 0-1.26.2 2.2 2.2 0 0 0-.25.17 1.9 1.9 0 0 0-.21.19l-.2.22a1.48 1.48 0 0 0-.14.25 3.53 3.53 0 0 0-.4 1.15 4.82 4.82 0 0 0 0 1.2 5.88 5.88 0 0 0 .63 1.87c.11.21.21.37.27.48l.1.16-.09-.18c-.06-.11-.17-.26-.3-.47a6.86 6.86 0 0 1-.72-1.95 4.43 4.43 0 0 1 .28-2.54 1.51 1.51 0 0 1 .15-.28 2.71 2.71 0 0 1 .19-.25c.07-.08.15-.15.22-.22l.25-.19a1.81 1.81 0 0 1 1.37-.27 3.89 3.89 0 0 1 .43.11 4.54 4.54 0 0 1 .45.21 4.73 4.73 0 0 1 .46.28 4.82 4.82 0 0 1 .46.36c.16.13.3.26.45.4l.43.44q.22.22.45.48l.22.27a3.17 3.17 0 0 1 .21.27 7.17 7.17 0 0 1 1.47 5.13 3.13 3.13 0 0 1-.16.52l-.1.24-.13.2a1.62 1.62 0 0 1-.67.63 2.29 2.29 0 0 1-2-.1 5.08 5.08 0 0 1-1.14-.75c-.18-.16-.37-.35-.55-.53l-.25-.29-.25-.3a6.85 6.85 0 0 1-1.36-2.84 4.21 4.21 0 0 1-.07-1.35 3.63 3.63 0 0 1 .33-1l.1-.24a1.67 1.67 0 0 1 .12-.23 1.08 1.08 0 0 1 .32-.35 1.22 1.22 0 0 1 .91-.21 2.4 2.4 0 0 1 1.09.45 4.34 4.34 0 0 1 .54.44 5.23 5.23 0 0 1 .5.54 5.81 5.81 0 0 1 1.23 2.69 3.28 3.28 0 0 1 0 1.22 1.35 1.35 0 0 1-.08.24c0 .09-.06.16-.09.23a1.36 1.36 0 0 1-.25.4 1.39 1.39 0 0 1-1.82-.06 3.73 3.73 0 0 1-.52-.41l-.22-.23-.22-.27a4.89 4.89 0 0 1-.7-1.21 2.76 2.76 0 0 1-.08-2.14l.05-.08.13-.14a.7.7 0 0 1 .16-.1.35.35 0 0 1 .17-.06 1 1 0 0 1 .38 0 1.7 1.7 0 0 1 .41.15 1.92 1.92 0 0 1 .42.26l.18.17.09.08v.05a3.65 3.65 0 0 1 .57.91 2.45 2.45 0 0 1 .2.9 1.35 1.35 0 0 1 0 .37v.15l-.05.13-.09.26a.75.75 0 0 0-.07.12l-.1.08a.52.52 0 0 1-.52 0 1.21 1.21 0 0 1-.26-.2l-.1-.11-.05-.07c-.06-.09-.11-.19-.16-.28s-.07-.19-.09-.27a.72.72 0 0 1 .11-.69l.3-.33z"/><path class="cls-27" d="M63.42 23.69a3.69 3.69 0 0 1-.71 2.38 1.59 1.59 0 0 1-.48.45A2 2 0 0 0 63 26a3.81 3.81 0 0 0 .86-2.6 9.82 9.82 0 0 0-4.53-7.77 4.06 4.06 0 0 0-2.45-.65l-1 .61a4.53 4.53 0 0 1 .47-.17 3.56 3.56 0 0 1 2.6.54 9.91 9.91 0 0 1 4.47 7.73z"/><path class="cls-27" d="M66.22 11.71a3.15 3.15 0 0 0-3.17-.31l-4.23 2.44a5.75 5.75 0 0 1 1.45.59 11.14 11.14 0 0 1 5 8.72 5 5 0 0 1-.3 1.77l4.26-2.46a3.07 3.07 0 0 0 1.45-3 9.92 9.92 0 0 0-4.46-7.75z"/><path class="cls-28" d="M64.73 20.14a9.09 9.09 0 0 1 .57 3 5 5 0 0 1-.3 1.77l4.26-2.46a3.07 3.07 0 0 0 1.45-3 8 8 0 0 0-.46-2.45z"/><path class="cls-19" d="M73.45 23.23a9.73 9.73 0 0 0-3.06-3 3.53 3.53 0 0 0-3.56-.35l-1.12.65.19.31a3.82 3.82 0 0 0-1.26 2.56c-.37 3.18 2.31 7.21 5.08 8.81l.82 2.22 1-.56v-1.48c.13 0 .21-.06.18-.23a.49.49 0 0 0-.28-.36 5.36 5.36 0 0 1-1-.46 10.09 10.09 0 0 1-4.56-7.89 3.28 3.28 0 0 1 1.25-2.9c1.67-.69 4.45 2.28 4.45 2.28l1 1.37.93-.54c.06-.09.04-.28-.06-.43z"/><path class="cls-22" d="M72.47 23.8a9.66 9.66 0 0 0-3.06-3c-2.77-1.6-5-.3-5 2.91a11.14 11.14 0 0 0 5 8.71v1.37l1.13.65V33c.12 0 .2-.06.18-.22a.49.49 0 0 0-.29-.37 5.66 5.66 0 0 1-1-.46A10.08 10.08 0 0 1 64.86 24c0-2.9 2-4.08 4.55-2.63a8.7 8.7 0 0 1 2.78 2.68c.1.15.25.22.33.14s.06-.19-.05-.39z"/><path class="cls-19" d="M57.48 27.7a11.14 11.14 0 0 0-5-8.71 3.88 3.88 0 0 0-3.06-.57l-.94.54 1.14.19a18.09 18.09 0 0 1 2.6 1.14c2 1.22 3.78 5.11 4.1 7.16.46 2.86-1.29 4-3.8 2.59a6.77 6.77 0 0 1-1-.72c-.08-.07-.17-.09-.22-.05l-1 .56.62.77.61.55v1.37l1-.56v-.67c.92.53 1.78.1 2.52 0v.23l.94-.55.19-.11a3.61 3.61 0 0 0 1.3-3.16z"/><path class="cls-22" d="M51.47 19.55a3.92 3.92 0 0 0-3.06-.55c-.1 0-.12.19 0 .36s.23.27.33.24a3.48 3.48 0 0 1 2.77.52A10.09 10.09 0 0 1 56 28c0 2.9-2.05 4.08-4.56 2.63a8 8 0 0 1-1-.72c-.12-.11-.25-.09-.28 0a.48.48 0 0 0 .18.43v1.56l1.12.64v-1.37c2.78 1.6 5 .3 5-2.91a11.11 11.11 0 0 0-4.99-8.71z"/><path class="cls-25" d="M46.63 23.06a9.93 9.93 0 0 0 4.48 7.78c2.48 1.43 4.49.27 4.49-2.59a9.93 9.93 0 0 0-4.49-7.78c-2.47-1.47-4.48-.27-4.48 2.59z"/><path class="cls-26" d="m51 25.14-.27.37a.53.53 0 0 0-.1.24 1.05 1.05 0 0 0 0 .38c0 .07.06.15.09.23a1.35 1.35 0 0 0 .14.22v.06l.1.11a1.21 1.21 0 0 0 .2.14.39.39 0 0 0 .39 0l.07-.06.05-.1a2.58 2.58 0 0 1 .08-.26v-.28a1.06 1.06 0 0 0 0-.31 2.25 2.25 0 0 0-.19-.74 2.55 2.55 0 0 0-.47-.72l-.09-.07a2 2 0 0 0-.17-.15 2.23 2.23 0 0 0-.33-.2 2.13 2.13 0 0 0-.33-.11 1 1 0 0 0-.3 0 .34.34 0 0 0-.14.05 1.25 1.25 0 0 0-.12.08l-.1.12v.08A2.28 2.28 0 0 0 49.6 26a4.16 4.16 0 0 0 .57 1l.18.22.21.22a3.39 3.39 0 0 0 .42.33 1.71 1.71 0 0 0 .86.33.9.9 0 0 0 .71-.22 1.14 1.14 0 0 0 .23-.33 1 1 0 0 0 .1-.21c0-.07.06-.15.08-.22a2.9 2.9 0 0 0 .06-1.08A5.29 5.29 0 0 0 52 23.59a3.29 3.29 0 0 0-2-1.37 1.14 1.14 0 0 0-.86.21 1 1 0 0 0-.29.33 1.13 1.13 0 0 0-.11.22l-.1.25a3.63 3.63 0 0 0-.29 1 4 4 0 0 0 .09 1.27 6.43 6.43 0 0 0 1.31 2.59l.24.28.24.27a5.34 5.34 0 0 0 .5.46 4.57 4.57 0 0 0 1 .66 2 2 0 0 0 1.81.05 1.56 1.56 0 0 0 .59-.58l.12-.2.08-.21a3.09 3.09 0 0 0 .14-.46 5.21 5.21 0 0 0-.19-2.28 7.77 7.77 0 0 0-1.13-2.29 2.27 2.27 0 0 0-.18-.25l-.19-.24-.41-.44-.37-.39c-.14-.14-.29-.28-.42-.39s-.27-.22-.41-.33a3.54 3.54 0 0 0-.41-.26 2.93 2.93 0 0 0-.4-.19 1.27 1.27 0 0 0-.38-.11 1.7 1.7 0 0 0-1.26.19l-.24.17-.22.2c-.06.07-.14.14-.19.21l-.15.25a3.57 3.57 0 0 0-.35 1.15 4 4 0 0 0 0 1.2 5.83 5.83 0 0 0 .62 1.86c.11.22.22.37.28.48l.09.17a1.43 1.43 0 0 0-.1-.16c-.07-.11-.18-.27-.3-.48a6.3 6.3 0 0 1-.72-1.95 4.39 4.39 0 0 1 .2-2.48l.15-.29.2-.25c.06-.07.14-.14.22-.22l.25-.19a1.85 1.85 0 0 1 1.37-.26 2.38 2.38 0 0 1 .42.11 4.43 4.43 0 0 1 .45.2c.16.08.31.19.46.28s.31.22.47.36a5.76 5.76 0 0 1 .44.41l.44.43.49.42.21.27a1.86 1.86 0 0 1 .21.28 7.2 7.2 0 0 1 1.48 5.12 2.64 2.64 0 0 1-.16.52c0 .08-.07.17-.11.24l-.12.2a1.81 1.81 0 0 1-.68.64 2.29 2.29 0 0 1-2-.1 5.09 5.09 0 0 1-1.13-.76 5.49 5.49 0 0 1-.55-.53l-.26-.29c-.08-.1-.16-.18-.24-.29a7 7 0 0 1-1.37-2.85 4.17 4.17 0 0 1-.06-1.35 3.18 3.18 0 0 1 .33-1l.1-.24a1.67 1.67 0 0 1 .12-.23 1.2 1.2 0 0 1 .32-.35 1.26 1.26 0 0 1 .91-.21 2.69 2.69 0 0 1 1.09.45 3.64 3.64 0 0 1 .53.44 6.51 6.51 0 0 1 .51.54 5.83 5.83 0 0 1 1.22 2.7 3.09 3.09 0 0 1 0 1.22 1.68 1.68 0 0 1-.07.24c0 .09-.06.15-.09.23a1.21 1.21 0 0 1-.26.39c-.41.45-1.13.4-1.82-.06a3.67 3.67 0 0 1-.51-.41l-.23-.23-.22-.26a4.72 4.72 0 0 1-.69-1.21 2.72 2.72 0 0 1-.18-2.11v-.09l.13-.14a.78.78 0 0 1 .15-.1.49.49 0 0 1 .17-.06 1 1 0 0 1 .39 0 1.81 1.81 0 0 1 .41.14 2.94 2.94 0 0 1 .42.27c.07.05.12.11.18.16l.08.08a2.9 2.9 0 0 1 .57.91 2.65 2.65 0 0 1 .21.9 1.71 1.71 0 0 1 0 .36v.29L52 27s-.05.08-.07.13l-.1.08a.5.5 0 0 1-.51 0 1.71 1.71 0 0 1-.27-.2l-.1-.12v-.07a1.33 1.33 0 0 1-.16-.28 1 1 0 0 1-.09-.27.7.7 0 0 1 .1-.68l.2-.49z"/><path class="cls-27" d="M55.6 28.25a3.66 3.66 0 0 1-.71 2.37s-.07.16-.48.46a2.07 2.07 0 0 0 .8-.56A3.62 3.62 0 0 0 56 28a10.09 10.09 0 0 0-4.56-7.89 3.74 3.74 0 0 0-2.38-.6l-1.06.6a2.86 2.86 0 0 1 .47-.17 3.55 3.55 0 0 1 2.6.53 9.93 9.93 0 0 1 4.53 7.78z"/><path class="cls-27" d="M58.4 16.27a3.16 3.16 0 0 0-3.17-.27L51 18.4a5.4 5.4 0 0 1 1.45.59 11.14 11.14 0 0 1 5 8.71 5 5 0 0 1-.3 1.78L61.44 27a3.06 3.06 0 0 0 1.45-3 9.91 9.91 0 0 0-4.49-7.73z"/><path class="cls-28" d="M56.9 24.67a9.27 9.27 0 0 1 .58 3 5 5 0 0 1-.3 1.78L61.44 27a3.06 3.06 0 0 0 1.45-3 8 8 0 0 0-.47-2.57z"/><path class="cls-19" d="M65.59 27.77a9.83 9.83 0 0 0-3.06-3 3.55 3.55 0 0 0-3.53-.31l-1.11.65.18.31a3.86 3.86 0 0 0-1.3 2.58c-.37 3.18 2.32 7.21 5.09 8.81l.82 2.19 1-.56v-1.51c.13 0 .21-.06.18-.23a.51.51 0 0 0-.29-.37 4.68 4.68 0 0 1-1-.45A10.07 10.07 0 0 1 58 28a3.26 3.26 0 0 1 1.25-2.9c1.67-.69 4.45 2.28 4.45 2.28l1 1.37.93-.54c.08-.1.06-.29-.04-.44z"/><path class="cls-22" d="M64.61 28.33a9.73 9.73 0 0 0-3.06-3c-2.77-1.6-5-.3-5 2.9a11.14 11.14 0 0 0 5 8.72v1.37l1.13.65v-1.48c.12 0 .2-.06.17-.22a.48.48 0 0 0-.28-.37 5.66 5.66 0 0 1-1-.46A10.08 10.08 0 0 1 57 28.55c0-2.9 2-4.08 4.55-2.63a8.77 8.77 0 0 1 2.77 2.68c.11.15.26.22.34.14s.06-.25-.05-.41z"/><path class="cls-25" d="M80.63 15.2a8.34 8.34 0 0 0 .66 3.09s.38.41.3.66a9.48 9.48 0 0 0 3.53 4c2.48 1.43 4.48.27 4.48-2.59a9.9 9.9 0 0 0-4.48-7.77c-2.48-1.41-4.49-.25-4.49 2.61z"/><path class="cls-26" d="m84.8 17.21-.27.37a.49.49 0 0 0-.1.23 1 1 0 0 0 0 .38 2.18 2.18 0 0 0 .09.23 1.09 1.09 0 0 0 .14.23v.05l.1.11a1.13 1.13 0 0 0 .2.13.39.39 0 0 0 .39 0l.07-.07v-.1c0-.08 0-.17.08-.26s0-.09 0-.13v-.14a1.08 1.08 0 0 0 0-.31 2.19 2.19 0 0 0-.19-.74 2.63 2.63 0 0 0-.47-.72l.16-.09c-.06-.05-.12-.11-.18-.15a1.29 1.29 0 0 0-.32-.19 1.07 1.07 0 0 0-.33-.11.81.81 0 0 0-.31 0 .25.25 0 0 0-.13.06.32.32 0 0 0-.12.08l-.1.12v.08a2.31 2.31 0 0 0 .09 1.79 4.36 4.36 0 0 0 .57 1l.18.22.21.21a3.12 3.12 0 0 0 .41.33 1.8 1.8 0 0 0 .87.34.9.9 0 0 0 .71-.23 1.09 1.09 0 0 0 .23-.32c0-.07.08-.15.1-.21s.06-.15.08-.23a2.87 2.87 0 0 0 .06-1.08 5.26 5.26 0 0 0-1.09-2.51 3.36 3.36 0 0 0-2-1.38 1.14 1.14 0 0 0-.86.21 1.19 1.19 0 0 0-.29.34 2.26 2.26 0 0 0-.11.22l-.1.24a3.73 3.73 0 0 0-.29 1 4.07 4.07 0 0 0 .09 1.28 6.39 6.39 0 0 0 1.31 2.58c.07.1.16.19.24.29l.24.26c.17.17.32.32.5.47a4.51 4.51 0 0 0 1 .65 2 2 0 0 0 1.81.06 1.67 1.67 0 0 0 .59-.59l.12-.2.08-.21a2.77 2.77 0 0 0 .14-.46 5.22 5.22 0 0 0-.19-2.28A7.84 7.84 0 0 0 87 15.89a2.27 2.27 0 0 0-.18-.25l-.19-.24-.46-.4-.42-.43c-.14-.13-.29-.28-.42-.39s-.27-.22-.41-.33a3.54 3.54 0 0 0-.41-.26 2.93 2.93 0 0 0-.4-.19 2.72 2.72 0 0 0-.38-.11 1.74 1.74 0 0 0-1.26.2l-.24.17-.22.19c-.06.08-.14.15-.19.22a2.75 2.75 0 0 0-.15.25 3.79 3.79 0 0 0-.36 1.14 4.38 4.38 0 0 0 0 1.2 5.9 5.9 0 0 0 .62 1.87c.11.21.22.37.28.48l.09.16-.1-.16c-.07-.11-.18-.26-.3-.47a6.3 6.3 0 0 1-.72-1.95 4.42 4.42 0 0 1 .26-2.59l.15-.28a2.73 2.73 0 0 1 .2-.25 1.52 1.52 0 0 1 .22-.22l.25-.19a1.81 1.81 0 0 1 1.37-.27 3.74 3.74 0 0 1 .42.11 4.54 4.54 0 0 1 .45.21 3.14 3.14 0 0 1 .46.28 4.91 4.91 0 0 1 .47.36 5.66 5.66 0 0 1 .44.4l.44.44.45.48.21.26a1.86 1.86 0 0 1 .21.28 7.23 7.23 0 0 1 1.48 5.13 3.13 3.13 0 0 1-.16.52c0 .08-.07.17-.11.24l-.12.2a1.71 1.71 0 0 1-.68.63 2.29 2.29 0 0 1-2-.1 5 5 0 0 1-1.13-.75 6.88 6.88 0 0 1-.55-.53l-.26-.29c-.08-.1-.16-.19-.24-.3A7 7 0 0 1 82 17.54a3.86 3.86 0 0 1 0-1.34 3.1 3.1 0 0 1 .33-1l.1-.24a1.67 1.67 0 0 1 .12-.23 1.08 1.08 0 0 1 .32-.35 1.17 1.17 0 0 1 .91-.21 2.44 2.44 0 0 1 1.09.45 3.64 3.64 0 0 1 .53.44 4.38 4.38 0 0 1 .51.54 5.79 5.79 0 0 1 1.22 2.69 3.08 3.08 0 0 1 0 1.22 1.37 1.37 0 0 1-.07.24c0 .09-.06.15-.09.23a1.38 1.38 0 0 1-.26.4c-.41.44-1.13.4-1.82-.06a3.67 3.67 0 0 1-.51-.41l-.23-.23-.22-.27a4.56 4.56 0 0 1-.69-1.21 2.72 2.72 0 0 1-.16-2.2v-.08l.13-.14a.49.49 0 0 1 .15-.1.35.35 0 0 1 .17-.06 1 1 0 0 1 .39 0 1.47 1.47 0 0 1 .41.15 2.18 2.18 0 0 1 .42.26l.18.17.08.08v.05a3.15 3.15 0 0 1 .57.91 2.71 2.71 0 0 1 .21.9 1.9 1.9 0 0 1 0 .37 1.13 1.13 0 0 1 0 .15v.13c0 .04-.07.17-.1.26l-.07.12a.39.39 0 0 1-.1.08.5.5 0 0 1-.51 0 1.26 1.26 0 0 1-.27-.2l-.1-.11v-.07a1.33 1.33 0 0 1-.16-.28 1.22 1.22 0 0 1-.09-.27.72.72 0 0 1 .1-.69l.31-.33z"/><path class="cls-27" d="M92.41 8.4a3.19 3.19 0 0 0-3.17-.32l-4.18 2.4a5.55 5.55 0 0 1 1.32.55 9.73 9.73 0 0 1 3.06 3c.11.16.13.34 0 .41l-.94.56c-.08.08-.23 0-.33-.14a8.77 8.77 0 0 0-2.77-2.68 4 4 0 0 0-2.14-.61l-1.22.7a2.76 2.76 0 0 1 .48-.17 3.57 3.57 0 0 1 2.6.54 9.9 9.9 0 0 1 4.48 7.77 3.15 3.15 0 0 1-1.29 2.89l7.14-4.12a3.08 3.08 0 0 0 1.44-3 9.9 9.9 0 0 0-4.48-7.78z"/><path class="cls-25" d="M72.69 19.78a9.91 9.91 0 0 0 4.49 7.77c2.48 1.43 4.48.27 4.48-2.59a9.9 9.9 0 0 0-4.48-7.77c-2.48-1.43-4.49-.27-4.49 2.59z"/><path class="cls-26" d="m76.87 21.79-.27.37a.53.53 0 0 0-.1.24.89.89 0 0 0 0 .38 1.27 1.27 0 0 0 .08.23 1.35 1.35 0 0 0 .14.22v.06l.11.11a.8.8 0 0 0 .19.13.39.39 0 0 0 .39 0l.07-.07.05-.09.09-.26v-.28a1.08 1.08 0 0 0 0-.31 2.21 2.21 0 0 0-.18-.74 2.83 2.83 0 0 0-.48-.72L77 21c-.06 0-.12-.11-.17-.15s-.21-.14-.32-.19a2.67 2.67 0 0 0-.34-.11 1 1 0 0 0-.3 0 .59.59 0 0 0-.14.06l-.12.08-.1.12v.09a2.33 2.33 0 0 0 .09 1.78 4.16 4.16 0 0 0 .57 1l.19.22.21.22a3.47 3.47 0 0 0 .41.33 1.89 1.89 0 0 0 .86.33.9.9 0 0 0 .71-.22 1.17 1.17 0 0 0 .24-.33 1.89 1.89 0 0 0 .09-.21 1 1 0 0 0 .08-.22 2.7 2.7 0 0 0 .04-1.04 5.19 5.19 0 0 0-1.09-2.52 3.29 3.29 0 0 0-2-1.37 1.13 1.13 0 0 0-.85.21 1.06 1.06 0 0 0-.3.33c0 .07-.07.15-.11.22l-.09.24a3.81 3.81 0 0 0-.3 1 4.05 4.05 0 0 0 .1 1.27 6.28 6.28 0 0 0 1.3 2.59l.24.28.25.27a5.25 5.25 0 0 0 .49.46 5 5 0 0 0 1 .66 2.06 2.06 0 0 0 1.81 0 1.49 1.49 0 0 0 .59-.58l.12-.2a1.89 1.89 0 0 0 .09-.21 2.91 2.91 0 0 0 .13-.47 5 5 0 0 0-.19-2.27 7.74 7.74 0 0 0-1.19-2.2 2.35 2.35 0 0 0-.19-.25l-.16-.22-.4-.44-.43-.42a4.83 4.83 0 0 0-.41-.39c-.14-.13-.28-.23-.41-.33s-.28-.19-.41-.26a3 3 0 0 0-.4-.2 3.18 3.18 0 0 0-.38-.11 1.78 1.78 0 0 0-1.27.2l-.24.17-.22.2-.19.21a2 2 0 0 0-.14.25 3.51 3.51 0 0 0-.36 1.12 4.74 4.74 0 0 0 0 1.19 5.8 5.8 0 0 0 .61 1.88c.11.22.21.37.27.48l.1.16-.1-.17c-.07-.1-.18-.26-.3-.47a6.3 6.3 0 0 1-.72-2 4.31 4.31 0 0 1 .28-2.53 1.59 1.59 0 0 1 .15-.29c.06-.09.12-.16.19-.25l.22-.22.25-.19a1.85 1.85 0 0 1 1.37-.26 1.82 1.82 0 0 1 .43.11 3 3 0 0 1 .45.2c.15.08.3.18.46.28s.3.22.46.36.3.27.44.4l.44.44c.15.15.3.32.45.48l.22.27.21.28a7.13 7.13 0 0 1 1.47 5.12 2.86 2.86 0 0 1-.16.52 1.75 1.75 0 0 1-.11.24l-.12.2a1.86 1.86 0 0 1-.67.64 2.33 2.33 0 0 1-2-.1 5.14 5.14 0 0 1-1.14-.76c-.18-.15-.37-.35-.55-.53l-.25-.29-.29-.19a7 7 0 0 1-1.37-2.85 4.49 4.49 0 0 1-.08-1.37 3.63 3.63 0 0 1 .33-1l.1-.24a1.67 1.67 0 0 1 .12-.23 1.2 1.2 0 0 1 .32-.35 1.27 1.27 0 0 1 .91-.21 2.64 2.64 0 0 1 1.09.45 4.34 4.34 0 0 1 .54.44c.17.17.34.35.5.54a6 6 0 0 1 1.23 2.69 3.51 3.51 0 0 1 0 1.22 1.83 1.83 0 0 1-.08.25c0 .09-.06.15-.09.22a1.44 1.44 0 0 1-.25.4 1.41 1.41 0 0 1-1.83-.06 3.67 3.67 0 0 1-.51-.41l-.22-.23c-.08-.08-.15-.17-.23-.26a5.4 5.4 0 0 1-.69-1.21 2.79 2.79 0 0 1-.08-2.15v-.08l.13-.14.16-.1a.35.35 0 0 1 .17-.06 1.18 1.18 0 0 1 .38 0 1.7 1.7 0 0 1 .41.15 1.65 1.65 0 0 1 .42.27c.07.05.12.11.18.16l.09.08.05.06a3.42 3.42 0 0 1 .57.9 2.5 2.5 0 0 1 .2.91 1 1 0 0 1 0 .36v.16a1.12 1.12 0 0 1 0 .13 2.6 2.6 0 0 1-.1.25.75.75 0 0 1-.07.12.76.76 0 0 1-.09.09.55.55 0 0 1-.52 0 1 1 0 0 1-.26-.2l-.11-.11v-.07a2 2 0 0 1-.16-.28 1 1 0 0 1-.09-.27.7.7 0 0 1 .11-.69l.3-.32z"/><path class="cls-27" d="M84.47 13a3.16 3.16 0 0 0-3.17-.31l-4.18 2.4a5.55 5.55 0 0 1 1.32.55 9.66 9.66 0 0 1 3.06 3c.11.15.13.33.05.41l-.94.54c-.08.07-.23 0-.33-.14a8.92 8.92 0 0 0-2.77-2.69 4 4 0 0 0-2.14-.61l-1.22.7a4.23 4.23 0 0 1 .48-.17 3.57 3.57 0 0 1 2.6.54A9.9 9.9 0 0 1 81.66 25a3.15 3.15 0 0 1-1.29 2.89l7.14-4.12a3.06 3.06 0 0 0 1.44-3A9.91 9.91 0 0 0 84.47 13z"/><path class="cls-25" d="M64.65 24.43a8.06 8.06 0 0 0 .54 2.78s.8.88.42 1a9.49 9.49 0 0 0 3.52 4c2.48 1.43 4.49.27 4.49-2.59a10 10 0 0 0-4.49-7.78c-2.47-1.44-4.48-.28-4.48 2.59z"/><path class="cls-26" d="m69 26.43-.27.37a.67.67 0 0 0-.09.24.74.74 0 0 0 0 .38c0 .07 0 .15.08.23l.14.22v.06a.52.52 0 0 0 .1.11.9.9 0 0 0 .2.14.41.41 0 0 0 .39 0l.06-.06v-.1l.09-.26.05-.14v-.14a1.56 1.56 0 0 0 0-.31 2.25 2.25 0 0 0-.19-.74 2.79 2.79 0 0 0-.47-.72l-.08-.07a1.19 1.19 0 0 0-.18-.15 1.73 1.73 0 0 0-.32-.2 2.13 2.13 0 0 0-.33-.11.78.78 0 0 0-.31 0 .29.29 0 0 0-.13.05l-.12.08-.1.12v.08a2.32 2.32 0 0 0 .08 1.78 4.52 4.52 0 0 0 .57 1l.19.22.21.22c.13.11.27.23.41.33a1.89 1.89 0 0 0 .86.33.88.88 0 0 0 .71-.22 1.17 1.17 0 0 0 .24-.33l.1-.21c0-.07.06-.15.08-.22A2.9 2.9 0 0 0 71 27.4a5.29 5.29 0 0 0-1-2.52 3.32 3.32 0 0 0-2-1.37 1.14 1.14 0 0 0-.86.21 1.2 1.2 0 0 0-.3.33 2.14 2.14 0 0 0-.1.22l-.1.25a3.33 3.33 0 0 0-.29 1 4 4 0 0 0 .09 1.27 6.43 6.43 0 0 0 1.31 2.59l.24.28.24.27a5.34 5.34 0 0 0 .5.46 4.17 4.17 0 0 0 1 .66 2 2 0 0 0 1.81.05 1.56 1.56 0 0 0 .59-.58l.11-.2a1.89 1.89 0 0 0 .09-.21 3.09 3.09 0 0 0 .14-.46 5.08 5.08 0 0 0-.2-2.28 7.74 7.74 0 0 0-1.12-2.29l-.18-.25-.2-.24-.4-.44-.42-.42c-.14-.14-.29-.28-.42-.39s-.27-.22-.41-.33a4.65 4.65 0 0 0-.41-.26 3.62 3.62 0 0 0-.4-.19 2.07 2.07 0 0 0-.38-.12 1.74 1.74 0 0 0-1.26.2 2.49 2.49 0 0 0-.24.17l-.22.2a1.8 1.8 0 0 0-.19.21 1.65 1.65 0 0 0-.15.25 3.58 3.58 0 0 0-.36 1.15 4.38 4.38 0 0 0 0 1.2 5.83 5.83 0 0 0 .62 1.86 4.82 4.82 0 0 0 .28.48l.09.17-.11-.16c-.06-.11-.17-.27-.29-.48a6.54 6.54 0 0 1-.73-1.95 4.48 4.48 0 0 1 .28-2.53c.05-.1.09-.19.15-.29s.13-.16.19-.25.15-.14.22-.22l.25-.19a1.86 1.86 0 0 1 1.37-.26 2.26 2.26 0 0 1 .43.11 4.43 4.43 0 0 1 .45.2c.15.08.31.19.46.28s.31.22.46.36.3.27.45.41l.44.43.44.48.22.27a2.92 2.92 0 0 1 .21.28A7.13 7.13 0 0 1 72.81 30a2.86 2.86 0 0 1-.16.52 1.73 1.73 0 0 1-.1.24l-.12.2a1.81 1.81 0 0 1-.68.64 2.29 2.29 0 0 1-2-.1 5.38 5.38 0 0 1-1.14-.76 6.72 6.72 0 0 1-.61-.54l-.26-.29c-.08-.1-.16-.18-.24-.29a6.73 6.73 0 0 1-1.37-2.85 4.19 4.19 0 0 1-.07-1.35 3.44 3.44 0 0 1 .34-1l.09-.24.12-.23a1.2 1.2 0 0 1 .32-.35 1.28 1.28 0 0 1 .91-.21 2.59 2.59 0 0 1 1.16.41 3.25 3.25 0 0 1 .54.44 5.08 5.08 0 0 1 .5.54 5.76 5.76 0 0 1 1.23 2.69 3.13 3.13 0 0 1 0 1.23c0 .09 0 .16-.07.24s-.06.15-.09.23a1.21 1.21 0 0 1-.26.39c-.41.45-1.14.4-1.82-.06a3.67 3.67 0 0 1-.51-.41l-.23-.23-.29-.26a4.72 4.72 0 0 1-.69-1.21 2.73 2.73 0 0 1-.09-2.14v-.09l.13-.14a.78.78 0 0 1 .15-.1.49.49 0 0 1 .17-.06 1 1 0 0 1 .38 0 1.39 1.39 0 0 1 .42.14 2.94 2.94 0 0 1 .42.27l.18.16.08.08v.05a3.1 3.1 0 0 1 .57.91 2.65 2.65 0 0 1 .21.9 1.71 1.71 0 0 1 0 .36v.16A.5.5 0 0 0 70 28a2.6 2.6 0 0 0-.1.25l-.07.13-.1.08a.55.55 0 0 1-.51 0 1.31 1.31 0 0 1-.22-.26l-.1-.11v-.07c-.06-.09-.11-.19-.16-.28s-.07-.18-.09-.27a.7.7 0 0 1 .11-.68l.3-.33z"/><path class="cls-27" d="M76.42 17.63a3.16 3.16 0 0 0-3.17-.32l-4.19 2.4a5.08 5.08 0 0 1 1.33.55 9.73 9.73 0 0 1 3.06 3c.1.15.12.34 0 .41l-.93.54c-.08.08-.23 0-.33-.14a8.7 8.7 0 0 0-2.78-2.68 3.93 3.93 0 0 0-2.14-.61l-1.21.7a2.86 2.86 0 0 1 .47-.17 3.55 3.55 0 0 1 2.6.53 10 10 0 0 1 4.49 7.78 3.15 3.15 0 0 1-1.29 2.89l7.13-4.12a3.08 3.08 0 0 0 1.45-3 9.91 9.91 0 0 0-4.49-7.76z"/><path class="cls-25" d="M56.78 29a9.92 9.92 0 0 0 4.49 7.78c2.48 1.43 4.49.27 4.49-2.59a9.92 9.92 0 0 0-4.49-7.78c-2.48-1.47-4.49-.31-4.49 2.59z"/><path class="cls-26" d="m61.14 31.14-.27.37a.48.48 0 0 0-.09.23.77.77 0 0 0 0 .39 2 2 0 0 0 .08.22c0 .08.09.16.14.23v.05l.1.11a.86.86 0 0 0 .2.13.39.39 0 0 0 .39 0l.06-.07a.41.41 0 0 0 .05-.09l.2-.21.05-.13v-.14a1.62 1.62 0 0 0 0-.31 2.25 2.25 0 0 0-.19-.74 2.63 2.63 0 0 0-.47-.72l-.08-.08c-.06 0-.12-.11-.18-.15a1.69 1.69 0 0 0-.33-.23 1.42 1.42 0 0 0-.33-.11 1 1 0 0 0-.31 0 .26.26 0 0 0-.13.06s-.09 0-.12.08l-.1.12v.09a2.32 2.32 0 0 0 .08 1.78 4.52 4.52 0 0 0 .57 1 2 2 0 0 1 .19.22l.21.21a4.35 4.35 0 0 0 .41.34 1.89 1.89 0 0 0 .86.33.88.88 0 0 0 .71-.23 1.12 1.12 0 0 0 .24-.32l.1-.21c0-.08.06-.15.08-.23a2.87 2.87 0 0 0 .06-1.08 5.22 5.22 0 0 0-1.1-2.51 3.34 3.34 0 0 0-2-1.38 1.17 1.17 0 0 0-1.16.55c0 .07-.07.15-.11.22l-.09.24a3.5 3.5 0 0 0-.29 1 4.07 4.07 0 0 0 .09 1.28 6.39 6.39 0 0 0 1.31 2.58c.07.1.16.19.24.29l.24.27c.17.16.32.32.5.46a4.12 4.12 0 0 0 1 .65 2 2 0 0 0 1.8.06 1.67 1.67 0 0 0 .6-.58l.11-.21a1.33 1.33 0 0 0 .09-.21 2.78 2.78 0 0 0 .13-.46 4.94 4.94 0 0 0-.19-2.28 7.81 7.81 0 0 0-1.12-2.28l-.18-.25-.2-.24-.4-.44-.42-.42c-.15-.14-.29-.29-.42-.39a3.12 3.12 0 0 0-.41-.33 4.65 4.65 0 0 0-.41-.26 2.49 2.49 0 0 0-.4-.2 3.18 3.18 0 0 0-.38-.11 1.74 1.74 0 0 0-1.26.2 1.46 1.46 0 0 0-.24.17l-.22.19c-.07.08-.14.15-.19.22a1 1 0 0 0-.15.25 3.51 3.51 0 0 0-.36 1.15 4.74 4.74 0 0 0 0 1.19 6 6 0 0 0 .63 1.87c.11.21.21.37.27.48l.1.16-.11-.16c-.06-.1-.17-.26-.29-.47a6.54 6.54 0 0 1-.73-2 4.38 4.38 0 0 1 .19-2.35 1.59 1.59 0 0 1 .15-.29c.06-.1.13-.16.19-.25l.22-.22.25-.24a1.9 1.9 0 0 1 1.4-.25 2.3 2.3 0 0 1 .43.12 3 3 0 0 1 .45.2c.15.08.31.18.46.28s.31.22.46.36.3.26.45.4.29.29.44.44.3.31.44.48l.22.27a2.78 2.78 0 0 1 .21.27A7.17 7.17 0 0 1 65 34.7a3.13 3.13 0 0 1-.16.52 1.73 1.73 0 0 1-.1.24l-.12.2a1.71 1.71 0 0 1-.68.63 2.26 2.26 0 0 1-2-.1 5.08 5.08 0 0 1-1.14-.75c-.18-.16-.37-.35-.54-.53l-.26-.29-.24-.3a6.75 6.75 0 0 1-1.37-2.84 4.21 4.21 0 0 1-.07-1.35 3.35 3.35 0 0 1 .34-1l.09-.24.12-.23a1.08 1.08 0 0 1 .32-.35 1.23 1.23 0 0 1 .91-.21 2.35 2.35 0 0 1 1.09.45 3.71 3.71 0 0 1 .54.44 5.16 5.16 0 0 1 .5.54 5.81 5.81 0 0 1 1.23 2.69 3.08 3.08 0 0 1 0 1.22c0 .1 0 .16-.07.24a1 1 0 0 1-.1.23 1.09 1.09 0 0 1-.25.4 1.39 1.39 0 0 1-1.82-.06 3.67 3.67 0 0 1-.51-.41l-.23-.23-.22-.27a4.51 4.51 0 0 1-.69-1.2 2.75 2.75 0 0 1-.15-2.14v-.08a.86.86 0 0 1 .13-.14.49.49 0 0 1 .15-.1.35.35 0 0 1 .17-.06 1.2 1.2 0 0 1 .38 0 1.77 1.77 0 0 1 .42.15 1.85 1.85 0 0 1 .42.27l.18.16.08.08v.06a3.18 3.18 0 0 1 .57.9 2.71 2.71 0 0 1 .21.9 1.82 1.82 0 0 1 0 .37v.15a1.12 1.12 0 0 0 0 .13c0 .09-.07.18-.1.26l-.07.12-.1.09a.53.53 0 0 1-.51 0 1 1 0 0 1-.27-.2l-.1-.11v-.07c-.06-.09-.11-.19-.16-.28s-.07-.19-.09-.27a.72.72 0 0 1 .11-.69l.3-.32z"/><path class="cls-27" d="M68.56 22.17a3.16 3.16 0 0 0-3.17-.32l-4.19 2.41a5.08 5.08 0 0 1 1.33.55 9.83 9.83 0 0 1 3.06 3c.1.15.12.34 0 .41l-.93.54c-.08.08-.23 0-.34-.14a8.77 8.77 0 0 0-2.77-2.68 3.93 3.93 0 0 0-2.14-.61L58.2 26a2.49 2.49 0 0 1 .47-.17 3.56 3.56 0 0 1 2.6.53 9.92 9.92 0 0 1 4.49 7.78 3.17 3.17 0 0 1-1.3 2.86l7.14-4.12a3.06 3.06 0 0 0 1.45-3 9.91 9.91 0 0 0-4.49-7.71z"/><path class="cls-17" d="m46.29 24.36-.82.48 17.87 10.32v.95l.83-.47v-.96L46.29 24.36z"/><path class="cls-16" d="m61.46 34.08-.82.47v4.76l.82-.48v-4.75zm-11.84-6.84-.83.47v4.76l.83-.48v-4.75z"/><path class="cls-15" d="M45.47 24.84v.95l2.38 1.37v4.76l.94.55v-4.76L59.69 34v4.76l.95.55v-4.76l2.7 1.56v-.95L45.47 24.84z"/><path class="cls-19" d="m68.79 34.52-.77-.45-.7.4.77.45-1.02 3.34.69-.4 1.03-3.34z"/><path class="cls-22" d="m68.09 34.92-.77-.45-1.02 3.35.77.44 1.02-3.34z"/><path class="cls-19" d="m77.68 29.38-.77-.44-.69.4.77.44-1.03 3.35.7-.4 1.02-3.35z"/><path class="cls-22" d="m76.99 29.78-.77-.44-1.03 3.34.77.45 1.03-3.35z"/><path class="cls-19" d="m85.41 24.92-.77-.44-.7.4.77.44-1.03 3.35.7-.4 1.03-3.35z"/><path class="cls-22" d="m84.71 25.32-.77-.44-1.03 3.34.77.45 1.03-3.35z"/><path class="cls-19" d="m92.56 20.79-.77-.45-.69.41.77.44-1.03 3.35.7-.4 1.02-3.35z"/><path class="cls-22" d="m91.87 21.19-.77-.44-1.03 3.34.77.45 1.03-3.35z"/><path class="cls-23" d="M97.79 17.8a1.1 1.1 0 0 0-.51-.88.34.34 0 0 0-.36 0L66.44 34.48l.74 1.24 30.44-17.58a.39.39 0 0 0 .17-.34z"/><path class="cls-24" d="M67.31 35.4c0 .32-.22.45-.5.29a1.1 1.1 0 0 1-.51-.88c0-.33.22-.46.51-.29a1.1 1.1 0 0 1 .5.88z"/><path class="cls-29" d="m92.83 29.96.09-.1-.32-.16.23.26zm.28.9.09-.1-.32-.17.23.27zm-.09 1.17.09-.1-.33-.17.24.27zm-1.58 2.79.09-.1-.36-.06.27.16zm-.96.65.15-.19-.42.04.27.15zm-.93.2.15-.19-.65-.1.5.29z"/><path class="cls-30" d="m91.35 30.31.29-.53-.12-.06c0-.15.16-.07.12-.2h.67l-1.11-.66-.23.1a1.25 1.25 0 0 0-.23-.27l.07-.13-.36-.21-.08.12a1.21 1.21 0 0 0-.34-.06v-.14l-.47.05v.13a2.21 2.21 0 0 0-.41.14v-.12l-.52.3v.12a4.12 4.12 0 0 0-.4.33v-.09l-.48.5v.09a4 4 0 0 0-.34.47h-.08l-.37.63.08.05a4.77 4.77 0 0 0-.22.52h-.11l-.2.66h.11a5.06 5.06 0 0 0-.08.52l-.12.07v.59l.12-.07a2.48 2.48 0 0 0 .08.41l-.11.12.19.44.12-.12a1 1 0 0 0 .23.26l-.09.16.36.21.09-.16a1.21 1.21 0 0 0 .33.07l.19.4 1.08.48-.33-.74c.13 0-.2-.26-.06-.32l.1.16.41-.31V34a3 3 0 0 0 .4-.32v.11l.47-.5v-.1c.12-.15.23-.3.34-.46h.09l.36-.63-.08-.05c.08-.17.16-.35.23-.52h.11l.19-.67h-.1a3 3 0 0 0 .08-.51z"/><path class="cls-24" d="m90.37 28.43 1.86 1.05.08-.12-1.86-1.05-.08.12zm-3.42 5.91 1.86 1.04.1-.15-1.86-1.05-.1.16z"/><path class="cls-23" d="M93.2 31.36v-.6l-.1.07a2.24 2.24 0 0 0-.08-.42l.1-.11-.2-.44-.09.1a1.47 1.47 0 0 0-.23-.26l.07-.13-.36-.21-.08.12a1.21 1.21 0 0 0-.34-.07v-.13h-.47v.13a2.21 2.21 0 0 0-.41.14v-.12l-.52.3v.12a3 3 0 0 0-.4.32v-.09l-.48.5v.09a5.09 5.09 0 0 0-.34.47h-.08l-.37.63h.08c-.08.18-.16.35-.22.53h-.11l-.2.66h.11a3 3 0 0 0-.08.51l-.12.07v.6l.12-.07a2.48 2.48 0 0 0 .08.41l-.12.12.2.44.12-.12a1.13 1.13 0 0 0 .23.26l-.1.15.37.21.09-.15a1.14 1.14 0 0 0 .33.06v.17l.48-.05v-.16a2.4 2.4 0 0 0 .4-.14v.15l.51-.3V35a4 4 0 0 0 .4-.32v.11l.47-.5v-.11a5.48 5.48 0 0 0 .34-.46h.09l.36-.63-.08-.05c.08-.17.16-.34.23-.52h.1l.2-.66H93a3.12 3.12 0 0 0 .08-.52z"/><path class="cls-24" d="M92.28 31.57a3.38 3.38 0 0 1-1.53 2.66 1 1 0 0 1-1.27 0 1.14 1.14 0 0 0 1-.14 3.41 3.41 0 0 0 1.52-2.7 1.21 1.21 0 0 0-.26-.84 1 1 0 0 1 .54 1.02z"/><path class="cls-21" d="M92 31.39a3.41 3.41 0 0 1-1.53 2.66 1.14 1.14 0 0 1-1 .14 1.24 1.24 0 0 1-.27-.84 3.43 3.43 0 0 1 1.54-2.67 1.13 1.13 0 0 1 1-.13 1.21 1.21 0 0 1 .26.84z"/><path class="cls-19" d="M91.46 32.05a1.57 1.57 0 0 1-.71 1.23c-.25.15-.46.13-.59 0a.54.54 0 0 0 .37-.09 1.57 1.57 0 0 0 .72-1.24.57.57 0 0 0-.13-.39c.21.01.34.19.34.49z"/><path class="cls-31" d="M91.25 31.93a1.57 1.57 0 0 1-.72 1.24.54.54 0 0 1-.37.09.55.55 0 0 1-.13-.39 1.59 1.59 0 0 1 .72-1.24.69.69 0 0 1 .37-.09.57.57 0 0 1 .13.39z"/><path class="cls-29" d="m86.51 31.97 1.86 1.05.2-.66-1.86-1.05-.2.66zm-.09 1.17 1.86 1.05v-.6l-1.86-1.04v.59zm.28.9 1.86 1.05-.2-.44-1.86-1.05.2.44zm.26-3.31 1.86 1.05.37-.63-1.86-1.05-.37.63zm.75-1.14 1.86 1.04.48-.5-1.86-1.04-.48.5zm.92-.86 1.86 1.05.51-.3-1.85-1.05-.52.3zm.97-.45 1.85 1.05.48-.05-1.86-1.05-.47.05z"/><path class="cls-24" d="m87.75 29.68 1.86 1.04-.04-.09-1.86-1.04.04.09zm-.93 1.62 1.86 1.05-.11.01-1.86-1.05.11-.01zm-.4 1.25 1.86 1.04.12-.07-1.86-1.04-.12.07zm.08 1.05 1.86 1.05.12-.12-1.86-1.05-.12.12zm2.13-4.75 1.86 1.05v-.12l-1.86-1.05v.12zm.93-.44 1.86 1.05.03-.13-1.85-1.05-.04.13z"/><path class="cls-29" d="m87.76 32.89.09-.1-.33-.17.24.27zm.28.9.09-.1-.32-.17.23.27zm-.1 1.17.1-.1-.33-.17.23.27zm-1.57 2.79.09-.1-.36-.06.27.16zm-.96.65.15-.19-.42.03.27.16zm-.93.2.15-.19-.66-.1.51.29z"/><path class="cls-30" d="m86.27 33.24.3-.53-.12-.06c0-.15.16-.08.12-.21h.66l-1.1-.66-.23.1a1.05 1.05 0 0 0-.24-.27l.08-.13-.37-.21-.07.12a1.7 1.7 0 0 0-.34-.07v-.13l-.48.05v.13a2.58 2.58 0 0 0-.42.14v-.12l-.51.3v.12c-.14.1-.27.21-.4.32v-.09l-.48.5v.1a5.55 5.55 0 0 0-.35.46h-.07l-.37.63.08.05a4.77 4.77 0 0 0-.22.52h-.11l-.2.66h.11a3.17 3.17 0 0 0-.08.51l-.12.07v.6l.12-.07a2.48 2.48 0 0 0 .08.41l-.12.12.2.44.12-.12a1.38 1.38 0 0 0 .22.26l-.09.16.37.21.09-.16a1.6 1.6 0 0 0 .33.07l.19.4 1.08.47-.34-.73c.13 0-.19-.27 0-.33l.1.17.41-.32v-.14a3 3 0 0 0 .4-.32l.05.11.47-.5v-.1c.12-.15.23-.31.34-.47h.09l.36-.63h-.08c.08-.17.16-.35.23-.52H86l.2-.67h-.1a3.12 3.12 0 0 0 .08-.52z"/><path class="cls-24" d="m85.3 31.36 1.86 1.05.07-.13-1.86-1.04-.07.12zm-3.42 5.91 1.86 1.04.09-.15-1.86-1.05-.09.16z"/><path class="cls-23" d="M88.13 34.29v-.6l-.1.06c0-.15 0-.29-.08-.42l.1-.1-.2-.44-.09.1a1.55 1.55 0 0 0-.24-.27l.08-.12-.37-.21-.07.12a1.21 1.21 0 0 0-.34-.07v-.13h-.48v.14a2 2 0 0 0-.41.14v-.12l-.51.3v.12a3 3 0 0 0-.4.32v-.09l-.48.5v.09c-.12.15-.24.31-.35.47h-.07l-.37.63h.08c-.08.17-.16.35-.23.52h-.1l-.2.67h.11a3 3 0 0 0-.08.51l-.12.07v.6l.12-.07a2.7 2.7 0 0 0 .08.41l-.12.12.2.43.12-.12a1.12 1.12 0 0 0 .22.26l-.09.16.37.21.09-.15a1.14 1.14 0 0 0 .33.06v.17l.48-.05.05-.16a2.4 2.4 0 0 0 .4-.14v.15l.51-.3V38a4 4 0 0 0 .4-.32l.05.11.47-.5v-.11a5.48 5.48 0 0 0 .34-.46h.09l.36-.63-.08-.05a4.77 4.77 0 0 0 .22-.52h.11l.2-.66h-.1a4.67 4.67 0 0 0 .08-.52z"/><path class="cls-24" d="M87.21 34.5a3.41 3.41 0 0 1-1.53 2.66 1 1 0 0 1-1.27 0 1.12 1.12 0 0 0 1-.14 3.39 3.39 0 0 0 1.59-2.7 1.26 1.26 0 0 0-.26-.84 1 1 0 0 1 .47 1.02z"/><path class="cls-21" d="M87 34.32A3.39 3.39 0 0 1 85.43 37a1.12 1.12 0 0 1-1 .14 1.31 1.31 0 0 1-.26-.85 3.39 3.39 0 0 1 1.54-2.66 1.08 1.08 0 0 1 1-.13 1.26 1.26 0 0 1 .29.82z"/><path class="cls-19" d="M86.39 35a1.59 1.59 0 0 1-.71 1.24c-.25.14-.46.13-.59 0a.55.55 0 0 0 .37-.09 1.57 1.57 0 0 0 .72-1.24.55.55 0 0 0-.13-.39c.2-.03.34.16.34.48z"/><path class="cls-31" d="M86.18 34.86a1.57 1.57 0 0 1-.72 1.24.29.29 0 0 1-.5-.3 1.57 1.57 0 0 1 .72-1.24.54.54 0 0 1 .37-.09.55.55 0 0 1 .13.39z"/><path class="cls-29" d="m81.44 34.9 1.86 1.05.2-.67-1.86-1.04-.2.66zm-.09 1.17 1.86 1.05v-.6l-1.86-1.05v.6zm.28.9 1.86 1.05-.2-.44-1.86-1.05.2.44zm.26-3.31 1.86 1.05.36-.63-1.85-1.05-.37.63zm.75-1.14 1.86 1.04.47-.5-1.85-1.05-.48.51zm.92-.86 1.86 1.05.51-.3-1.85-1.05-.52.3zm.97-.45 1.85 1.05.48-.05L85 31.16l-.47.05z"/><path class="cls-24" d="m82.68 32.6 1.86 1.05-.04-.09-1.86-1.04.04.08zm-.93 1.63 1.85 1.04-.1.01-1.86-1.04.11-.01zm-.4 1.24 1.86 1.05.12-.07-1.86-1.04-.12.06zm.08 1.06 1.86 1.05.12-.12-1.86-1.05-.12.12zm2.13-4.75 1.86 1.05v-.12l-1.86-1.05v.12zm.93-.44 1.85 1.05.04-.13-1.85-1.05-.04.13z"/><path class="cls-15" d="m46.79 45.6-4.14-2.39 9.29-6.13v-1.36l-9.29 6.13-2.57.13v1.37l1.94 1.11-2.74.21v1.37l2.74 1.58 2.73-1.58 1.81 1.04 12.11-6.11V39.6l-11.88 6z"/><path class="cls-17" d="m57.27 38.79-10.48 5.45-4.14-2.39 9.29-6.13-1.4-.81-10.46 7.07 1.94 1.12-2.74 1.57 2.74 1.58 2.73-1.58 1.81 1.05 12.11-6.12-1.4-.81z"/><path class="cls-15" d="M42.86 45.16a1.84 1.84 0 0 1-1.68 0 .51.51 0 0 1 0-1 1.84 1.84 0 0 1 1.68 0 .51.51 0 0 1 0 1z"/><path class="cls-19" d="m35.34 27.09-.85 1.81v8.83l1.2-.35v-7.44l.62-1.18c.44-.76-.31-2.14-.97-1.67z"/><path class="cls-32" d="M31 36.12c-.6-.43-1.55-.17-2.41.68l-7.88 7.74 4.13 2.39 8.88-7.71 1.28-.78z"/><path class="cls-33" d="m13.47 50.68-2.2 6.7 4.19 2.42 2.14-6.73-4.13-2.39z"/><path class="cls-34" d="m16.92 59 1.25-5.1 14.24-13.29c.87-.81 1.81-1 2.39-.56l1.68 1.37a2.23 2.23 0 0 0-.48-2.16l-.82-.7c-.6-.51-1.59-.26-2.49.62l-7.88 7.75-5.6 3.23-.09 1.51-1.53 1.4-2.13 6.73z"/><path class="cls-35" d="m19.21 50.16-4.12-2.38 5.6-3.24 4.13 2.39-5.61 3.23z"/><path class="cls-33" d="m19.14 51.67-4.13-2.38.08-1.51 4.12 2.38-.07 1.51z"/><path class="cls-35" d="m17.6 53.07-4.13-2.39 1.54-1.39 4.13 2.38-1.54 1.4z"/><path style="fill:#fa4b4b" d="m11.54 60.6 1.58-7.72 9.22-8.62-.05 6.35-4.12 3.91-.88 2.76-5.75 3.32z"/><path class="cls-37" d="m35.23 48.86.05-3.49 7.11-4.11 1.82 2.46-8.98 5.14z"/><path class="cls-38" d="m42.39 41.26-2.5 1.44-.58-3.22 3.08 1.78z"/><path class="cls-20" d="m17.08 65.14 1.16-.67-6.7-3.87-1.16.67 6.7 3.87z"/><path class="cls-21" d="m17.08 66.49 10.68-6.14V59l-1.64-.77-.26 1.87-8.78 5.04v1.35z"/><path class="cls-39" d="m27.76 59-1.64-.77-.26 1.87 1.9-1.1z"/><path class="cls-37" d="m18.24 64.47 1.58-7.72 9.22-8.62-.05 6.35-2.79 3.1-.34 2.52-7.62 4.37z"/><path class="cls-38" d="m19.82 56.75-6.7-3.87 9.22-8.62 6.7 3.87-9.22 8.62z"/><path class="cls-40" d="m18.24 64.47-6.7-3.87 1.58-7.72 6.7 3.87-1.58 7.72z"/><path style="fill:#996726" d="m18.06 62.81-.18.88-5.75-3.32 1.36-6.62.59.34-1.17 5.74 5.15 2.98z"/><path style="fill:gray" d="m19.23 57.07-1.17 5.74-5.15-2.98 1.17-5.74 5.15 2.98z"/><path class="cls-19" d="m17.08 66.49-6.7-3.87v-1.35l6.7 3.87v1.35z"/><path d="M44.89 48.27c2.84-1.64 5.46 2.52 5.28 4.48 0 1.34-1.34 3-3 3.89-.87.51-14.3 8-14.3 8l-.16.09c-.54.32-2.26 1.13-2.26-1.22a5.08 5.08 0 0 1 1.59-3s11.36-11.09 12.2-11.8a3.85 3.85 0 0 1 .62-.45z"/><path class="cls-21" d="M46 50.14a4 4 0 0 1-1.83 3.16c-1 .59-1.82.11-1.82-1a4 4 0 0 1 1.82-3.16c1.01-.63 1.83-.14 1.83 1z"/><path class="cls-43" d="M45 50.73a1.8 1.8 0 0 1-.82 1.41c-.45.26-.82 0-.82-.47a1.82 1.82 0 0 1 .82-1.42c.44-.25.82-.05.82.48z"/><path class="cls-44" d="m47.12 55.86 2.39-4.49-4-2.34a1.24 1.24 0 0 0-1.31.1 4 4 0 0 0-1.8 3.12 1.3 1.3 0 0 0 .46 1.12l.13.08z"/><path class="cls-21" d="M50.08 52.55a4 4 0 0 1-1.81 3.12c-1 .58-1.8.11-1.8-1a4 4 0 0 1 1.8-3.12c1-.61 1.81-.15 1.81 1z"/><path class="cls-45" d="M49.08 53.13a1.79 1.79 0 0 1-.81 1.4c-.33.19-.63.12-.74-.16a.66.66 0 0 0 .4-.11 1.78 1.78 0 0 0 .81-1.4.75.75 0 0 0-.06-.31c.24.03.4.23.4.58z"/><path class="cls-43" d="M48.74 52.86a1.78 1.78 0 0 1-.81 1.4.66.66 0 0 1-.4.11.75.75 0 0 1-.06-.31 1.79 1.79 0 0 1 .8-1.4.77.77 0 0 1 .41-.11.75.75 0 0 1 .06.31z"/><path class="cls-46" d="m44.54 57.83 1.61-3L42 52.67a.86.86 0 0 0-.89.07 2.69 2.69 0 0 0-1.21 2.1.88.88 0 0 0 .31.75l.08.06z"/><path class="cls-21" d="M46.53 55.61a2.69 2.69 0 0 1-1.21 2.1c-.67.38-1.21.07-1.21-.7a2.69 2.69 0 0 1 1.21-2.1c.68-.39 1.21-.07 1.21.7z"/><path class="cls-45" d="M45.86 56a1.22 1.22 0 0 1-.54.94c-.24.13-.44.07-.51-.13a.49.49 0 0 0 .27-.07 1.2 1.2 0 0 0 .54-.94.54.54 0 0 0 0-.19c.13.01.24.15.24.39z"/><path class="cls-43" d="M45.62 55.8a1.2 1.2 0 0 1-.54.94.49.49 0 0 1-.27.07.54.54 0 0 1 0-.19 1.22 1.22 0 0 1 .54-.94.49.49 0 0 1 .27-.07.54.54 0 0 1 0 .19z"/><path class="cls-44" d="m42 59.25 1.61-3-4.11-2.15a.81.81 0 0 0-.88.06 2.7 2.7 0 0 0-1.22 2.1.87.87 0 0 0 .31.75h.09z"/><path class="cls-21" d="M44 57a2.69 2.69 0 0 1-1.21 2.1c-.67.38-1.21.07-1.21-.7a2.69 2.69 0 0 1 1.21-2.1c.66-.36 1.21-.04 1.21.7z"/><path class="cls-45" d="M43.32 57.42a1.22 1.22 0 0 1-.54.94c-.23.13-.44.07-.51-.13a.42.42 0 0 0 .27-.07 1.2 1.2 0 0 0 .54-.94.58.58 0 0 0 0-.19c.14-.03.24.15.24.39z"/><path class="cls-43" d="M43.08 57.22a1.2 1.2 0 0 1-.54.94.42.42 0 0 1-.27.07.54.54 0 0 1 0-.19 1.22 1.22 0 0 1 .54-.94.49.49 0 0 1 .27-.07.58.58 0 0 1 0 .19z"/><path class="cls-46" d="m39.49 60.65 1.61-3-4.1-2.16a.84.84 0 0 0-.88.07 2.69 2.69 0 0 0-1.21 2.1.87.87 0 0 0 .31.75h.09z"/><path class="cls-21" d="M41.48 58.43a2.69 2.69 0 0 1-1.21 2.1c-.67.38-1.21.07-1.21-.7a2.69 2.69 0 0 1 1.21-2.1c.67-.39 1.21-.07 1.21.7z"/><path class="cls-45" d="M40.81 58.82a1.18 1.18 0 0 1-.54.93c-.24.14-.44.08-.51-.12a.42.42 0 0 0 .27-.07 1.22 1.22 0 0 0 .54-.94.54.54 0 0 0 0-.19c.13.01.24.15.24.39z"/><path class="cls-43" d="M40.57 58.62a1.22 1.22 0 0 1-.54.94.42.42 0 0 1-.27.07.54.54 0 0 1 0-.19 1.22 1.22 0 0 1 .54-.94.49.49 0 0 1 .27-.07.54.54 0 0 1 0 .19z"/><path class="cls-44" d="m37 62.05 1.6-3-4.11-2.14a.84.84 0 0 0-.88.07 2.67 2.67 0 0 0-1.22 2.1.9.9 0 0 0 .31.75h.09z"/><path class="cls-21" d="M39 59.83a2.65 2.65 0 0 1-1.21 2.09c-.67.39-1.21.08-1.21-.69a2.66 2.66 0 0 1 1.21-2.1c.64-.39 1.21-.08 1.21.7z"/><path class="cls-45" d="M38.31 60.21a1.2 1.2 0 0 1-.55.94c-.23.14-.44.08-.51-.12a.49.49 0 0 0 .27-.07 1.22 1.22 0 0 0 .54-1 .48.48 0 0 0 0-.18c.14.06.25.22.25.43z"/><path class="cls-43" d="M38.06 60a1.22 1.22 0 0 1-.54 1 .49.49 0 0 1-.27.07.58.58 0 0 1 0-.19 1.19 1.19 0 0 1 .54-.94.42.42 0 0 1 .27-.07.48.48 0 0 1 0 .13z"/><path class="cls-46" d="m34.46 63.44 1.6-3L32 58.28a.84.84 0 0 0-.88.07 2.69 2.69 0 0 0-1.21 2.1.87.87 0 0 0 .3.75l.09.06z"/><path class="cls-21" d="M36.44 61.22a2.69 2.69 0 0 1-1.21 2.1c-.67.38-1.21.07-1.21-.7a2.69 2.69 0 0 1 1.21-2.1c.67-.39 1.21-.07 1.21.7z"/><path class="cls-45" d="M35.78 61.61a1.23 1.23 0 0 1-.55.94c-.23.13-.44.07-.51-.13a.42.42 0 0 0 .27-.07 1.2 1.2 0 0 0 .54-.94.58.58 0 0 0 0-.19c.14.01.25.15.25.39z"/><path class="cls-43" d="M35.53 61.41a1.2 1.2 0 0 1-.54.94.42.42 0 0 1-.27.07.54.54 0 0 1 0-.19 1.22 1.22 0 0 1 .54-.94.49.49 0 0 1 .27-.07.58.58 0 0 1 0 .19z"/><path class="cls-39" d="m31.2 57.81 3.1 1.79 10.26-7.31-3.09-1.79-10.27 5.93v1.38z"/><path class="cls-9" d="m34.3 59.6 10.26-5.93v-1.38L34.3 58.22v1.38z"/><path class="cls-46" d="m43.78 52.94 2.51-4.72L42 45.76a1.28 1.28 0 0 0-1.38.11 4.17 4.17 0 0 0-1.9 3.28 1.4 1.4 0 0 0 .49 1.18l.14.08z"/><path class="cls-21" d="M46.89 49.47A4.17 4.17 0 0 1 45 52.75c-1 .61-1.89.12-1.89-1.09A4.22 4.22 0 0 1 45 48.37c1-.6 1.89-.11 1.89 1.1z"/><path class="cls-45" d="M45.84 50.07a1.87 1.87 0 0 1-.84 1.47c-.35.21-.65.13-.78-.15a.64.64 0 0 0 .44-.11 1.87 1.87 0 0 0 .85-1.47.86.86 0 0 0-.06-.34c.23.03.39.25.39.6z"/><path class="cls-43" d="M45.5 49.81a1.87 1.87 0 0 1-.85 1.47.64.64 0 0 1-.44.11.83.83 0 0 1-.06-.34 1.89 1.89 0 0 1 .85-1.47.73.73 0 0 1 .45-.11.86.86 0 0 1 .05.34z"/><path class="cls-44" d="m31.13 65 2.42-4.55-4.1-2.45a1.23 1.23 0 0 0-1.33.1 4 4 0 0 0-1.82 3.2 1.35 1.35 0 0 0 .46 1.13l.13.08z"/><path class="cls-21" d="M34.13 61.6a4 4 0 0 1-1.83 3.16c-1 .58-1.82.11-1.82-1.05a4 4 0 0 1 1.82-3.16c1.01-.55 1.83-.11 1.83 1.05z"/><path class="cls-45" d="M33.12 62.19a1.8 1.8 0 0 1-.82 1.41c-.34.2-.63.12-.75-.15a.69.69 0 0 0 .41-.11 1.82 1.82 0 0 0 .82-1.42.79.79 0 0 0-.06-.32c.28.03.4.24.4.59z"/><path class="cls-43" d="M32.78 61.92a1.82 1.82 0 0 1-.78 1.42.69.69 0 0 1-.41.11.79.79 0 0 1-.07-.32 1.82 1.82 0 0 1 .82-1.42.73.73 0 0 1 .42-.11.79.79 0 0 1 .02.32z"/><path class="cls-24" d="M42.74 45.39a1.43 1.43 0 0 0-1.12-.27 3.32 3.32 0 0 0-.91.36A4.54 4.54 0 0 0 40 46c-.89.75-11.7 11.31-12.23 11.82-.14.13-1.81 1.75-1.81 3.48 0 .93.25 1.45.64 1.69l4.4 2.49-.7-1.77.18-1.09.72-1.39L32.38 60l1.31-1.26 10.3-10 1.48-.88.81-.12 1.83.92a12.55 12.55 0 0 0-1.59-1.07zM26.3 62.32a3 3 0 0 0 .19.43 3 3 0 0 1-.19-.43zm.28.58v.07z"/><path d="m40.39 52.03-4.18-2.41.32-.31 4.18 2.42-.32.3zm-1.28 1.25-4.18-2.41.32-.31 4.18 2.42-.32.3zm-1.36 1.33-4.18-2.41.32-.31 4.17 2.41-.31.31zm-1.28 1.24-4.18-2.41.32-.3 4.18 2.41-.32.3zm7.98-7.66-4.18-2.41.38-.26 4.17 2.41-.37.26zm1.8-.59-4.35-2.51a1.16 1.16 0 0 1 .36.07 2.12 2.12 0 0 1 .41.2l4.13 2.38c.34.2.77.5.77.5a3.9 3.9 0 0 0-1.32-.64zm-3.21 1.89-4.18-2.41.32-.31 4.17 2.41-.31.31zm-1.28 1.25-4.18-2.41.32-.31 4.18 2.41-.32.31zm-6.5 6.27-4.18-2.41.32-.3 4.17 2.41-.31.3zm-1.28 1.25-4.18-2.41.32-.31 4.18 2.42-.32.3zm-1.36 1.33-4.18-2.41.31-.31 4.18 2.41-.31.31zm-1.25 1.29-4.18-2.41.3-.34 4.18 2.41-.3.34zm-.89 1.4-4.18-2.41.21-.39 4.17 2.42-.2.38zm-.31 1.81-4.18-2.41-.01-.52 4.18 2.42.01.51z"/><path d="M44.89 48.27c1.77-1.19 5.46 2.52 5.28 4.48 0 1.34-1.34 3-3 3.89-.87.51-14.3 8-14.3 8l-.16.09c-.54.32-2.26 1.13-2.26-1.22a5.08 5.08 0 0 1 1.59-3s11.36-11.09 12.2-11.8a3.85 3.85 0 0 1 .62-.45zm0-.38a4.54 4.54 0 0 0-.69.51c-.89.75-11.7 11.31-12.23 11.83-.14.13-1.82 1.74-1.82 3.47 0 2.14 1.34 2.13 2.59 1.41l.17-.11 14.29-8a8.21 8.21 0 0 0 2.26-2 4.34 4.34 0 0 0 1-2.49c.11-1.42-1.38-3.24-2.75-4.21-1.06-.75-1.78-1.1-2.86-.48z" style="fill:#303030"/><path class="cls-33" d="m25.71 57.71.54.87 2.28 1.32.15-.47-2.97-1.72z"/><path class="cls-32" d="M42.67 42.83c-.61-.43-1.55-.16-2.41.68l-7.88 7.75 4.13 2.38 8.88-7.7 1.31-.79z"/><path class="cls-34" d="m25.71 57.71-2.14 6.73 1.45-.83 1.23-5.03-.54-.87z"/><path class="cls-32" d="m28.16 61.99-3.14-1.82.63-.54 3.15 1.82-.64.54zm-.47 1.44-3.14-1.81.63-.54 3.15 1.81-.64.54zm-.42 1.47-3.14-1.82.64-.53 3.14 1.81-.64.54z"/><path class="cls-33" d="m28.68 59.43-2.14 6.73.61.35 2.14-6.73-.61-.35zm-3.52-2.03-2.2 6.69.61.35 2.14-6.73-.55-.31z"/><path class="cls-34" d="m28.6 65.67 1.25-5.1L44.1 47.32c.87-.8 1.8-1 2.38-.55l1.69 1.36c.24-1.19 0-1.78-.47-2.15l-.82-.7c-.6-.51-1.6-.26-2.49.62l-7.88 7.75-5.61 3.23-.08 1.5-1.53 1.4-2.14 6.73z"/><path class="cls-35" d="m30.9 56.88-4.13-2.39 5.61-3.23 4.13 2.38-5.61 3.24z"/><path class="cls-33" d="M30.82 58.38 26.69 56l.08-1.51 4.13 2.39-.08 1.5z"/><path class="cls-35" d="m29.29 59.78-4.13-2.38 1.53-1.4 4.13 2.38-1.53 1.4z"/><path class="cls-19" d="m22.34 44.26 6.7 3.87 1.45-6.04-6.7-3.87-1.45 6.04z"/><path style="fill:#26577d" d="m28.83 47.17-.08.32-5.95-3.44 1.28-5.37.29.16-1.21 5.06 5.67 3.27z"/><path class="cls-49" d="m30.04 42.12-1.21 5.05-5.67-3.27 1.21-5.06 5.67 3.28z"/><path class="cls-50" d="m23.37 44.02 2.33-3.38 1.45.84-3.18 2.89-.6-.35zm1.17.68L28 41.97l1 .57-3.39 2.77-1.07-.61z"/><path class="cls-21" d="m35.28 45.37 4.61-2.67-.99-5.47-8.41 4.86-1.45 6.04-.04 5.08 3.38-1.95 2.86-2.82.04-3.07z"/><path class="cls-19" d="m30.68 42.26 4.03-2.35v8.33l-2.37 2.45-2.88 1.66v-5.13l1.22-4.96z"/><path class="cls-51" d="M34.47 40.36v3.98l-4.74 2.74.07-.31 4.4-2.55v-3.71l.27-.15z"/><path class="cls-52" d="M34.2 40.51v3.71l-4.4 2.55 1.04-4.32 3.36-1.94z"/><path class="cls-50" d="M30.19 46.54 32 41.78l1.53-.88-1.17 4.38-2.17 1.26z"/><path class="cls-51" d="m39.03 41.25-4.1 2.37v-.27l3.84-2.22-.55-2.94.22-.13.59 3.19z"/><path class="cls-52" d="m38.77 41.13-3.84 2.22v-3.26l3.29-1.9.55 2.94z"/><path class="cls-50" d="m35.33 43.12 1.11-3.9.8-.46-.5 3.54-1.41.82z"/><path class="cls-24" d="m34 45.71-.55.32c-.1.06-.17 0-.17-.1a.36.36 0 0 1 .17-.3l.55-.32c.1-.06.17 0 .17.1a.36.36 0 0 1-.17.3z"/><path class="cls-38" d="m33.36 32.25-10.71 5.48 6.7 3.87 10.71-5.48-6.7-3.87z"/><path class="cls-37" d="M40.06 36.12 29.35 41.6v1.15l10.71-6.19v-.44z"/><path class="cls-40" d="m29.35 42.75-6.7-3.87v-1.15l6.7 3.87v1.15z"/><path class="cls-13" d="M105.38 27.39 21.65 75.73l-.72-.41 83.74-48.35.71.42z"/><path class="cls-53" d="m103.95 27.39.72.41v-9.85l-.72-.41v9.85z"/><path class="cls-54" d="m104.67 27.8.71-.41v-9.85l-.71.41v9.85z"/><path class="cls-55" d="m103.95 17.54.72.41.71-.41-.71-.42-.72.42z"/><path class="cls-54" d="m91.45 28.87 13.08-7.55v-.9l-13.08 7.55v.9z"/><path class="cls-55" d="m91.06 27.74.39.23 13.08-7.55-.39-.23-13.08 7.55z"/><path class="cls-53" d="m91.06 28.65.39.22v-.9l-.39-.23v.91z"/><path class="cls-54" d="m91.45 32.99 13.08-7.55v-.91l-13.08 7.55v.91z"/><path class="cls-55" d="m91.06 31.86.39.22 13.08-7.55-.39-.22-13.08 7.55z"/><path class="cls-53" d="m91.06 32.76.39.23v-.91l-.39-.22v.9zm-.93 2.61.72.41v-9.85l-.72-.41v9.85z"/><path class="cls-54" d="m90.85 35.78.71-.41v-9.85l-.71.41v9.85z"/><path class="cls-55" d="m90.13 25.52.72.41.71-.41-.71-.42-.72.42z"/><path class="cls-54" d="m77.6 36.87 13.08-7.55v-.91L77.6 35.96v.91z"/><path class="cls-55" d="m77.21 35.73.39.23 13.08-7.55-.39-.23-13.08 7.55z"/><path class="cls-53" d="m77.21 36.64.39.23v-.91l-.39-.23v.91z"/><path class="cls-54" d="m77.6 40.98 13.08-7.55v-.91L77.6 40.08v.9z"/><path class="cls-55" d="m77.21 39.85.39.23 13.08-7.56-.39-.22-13.08 7.55z"/><path class="cls-53" d="m77.21 40.76.39.22v-.9l-.39-.23v.91zm-.93 2.6.72.41v-9.85l-.72-.41v9.85z"/><path class="cls-54" d="m77 43.77.71-.41v-9.85l-.71.41v9.85z"/><path class="cls-55" d="m76.28 33.51.72.41.71-.41-.71-.41-.72.41z"/><path class="cls-54" d="m63.78 44.85 13.08-7.55v-.91l-13.08 7.55v.91z"/><path class="cls-55" d="m63.39 43.72.39.22 13.08-7.55-.39-.22-13.08 7.55z"/><path class="cls-53" d="m63.39 44.62.39.23v-.91l-.39-.22v.9z"/><path class="cls-54" d="m63.78 48.97 13.08-7.56v-.9l-13.08 7.55v.91z"/><path class="cls-55" d="m63.39 47.83.39.23 13.08-7.55-.39-.23-13.08 7.55z"/><path class="cls-53" d="m63.39 48.74.39.23v-.91l-.39-.23v.91zm-.93 2.6.71.42v-9.85l-.71-.42v9.85z"/><path class="cls-54" d="m63.17 51.76.72-.42v-9.85l-.72.42v9.85z"/><path class="cls-55" d="m62.46 41.49.71.42.72-.42-.72-.41-.71.41z"/><path class="cls-54" d="m49.93 52.84 13.08-7.55v-.91l-13.08 7.56v.9z"/><path class="cls-55" d="m49.54 51.71.39.23 13.08-7.56-.39-.22-13.08 7.55z"/><path class="cls-53" d="m49.54 52.62.39.22v-.9l-.39-.23v.91z"/><path class="cls-54" d="m49.93 56.96 13.08-7.55v-.91l-13.08 7.55v.91z"/><path class="cls-55" d="m49.54 55.82.39.23 13.08-7.55-.39-.23-13.08 7.55z"/><path class="cls-53" d="m49.54 56.73.39.23v-.91l-.39-.23v.91zm-.93 2.61.72.41V49.9l-.72-.41v9.85z"/><path class="cls-54" d="m49.33 59.75.71-.41v-9.85l-.71.41v9.85z"/><path class="cls-55" d="m48.61 49.49.72.41.71-.41-.71-.42-.72.42z"/><path class="cls-54" d="m36.11 60.83 13.07-7.55v-.91l-13.07 7.55v.91z"/><path class="cls-55" d="m35.71 59.7.4.22 13.07-7.55-.39-.23-13.08 7.56z"/><path class="cls-53" d="m35.71 60.6.4.23v-.91l-.4-.22v.9z"/><path class="cls-54" d="m36.11 64.94 13.07-7.54v-.91l-13.07 7.55v.9z"/><path class="cls-55" d="m35.71 63.81.4.23 13.07-7.55-.39-.23-13.08 7.55z"/><path class="cls-53" d="m35.71 64.72.4.22v-.9l-.4-.23v.91zm-.93 2.6.72.42v-9.86l-.72-.41v9.85z"/><path class="cls-54" d="m35.5 67.74.71-.42v-9.85l-.71.41v9.86z"/><path class="cls-55" d="m34.78 57.47.72.41.71-.41-.71-.41-.72.41z"/><path class="cls-54" d="m22.25 68.82 13.08-7.55v-.91l-13.08 7.55v.91z"/><path class="cls-55" d="m21.86 67.69.39.22 13.08-7.55-.39-.22-13.08 7.55z"/><path class="cls-53" d="m21.86 68.6.39.22v-.91l-.39-.22v.91z"/><path class="cls-54" d="m22.25 72.94 13.08-7.55v-.91l-13.08 7.55v.91z"/><path class="cls-55" d="m21.86 71.81.39.22 13.08-7.55-.39-.23-13.08 7.56z"/><path class="cls-53" d="m21.86 72.71.39.23v-.91l-.39-.22v.9zm-.93 2.61.72.41v-9.85l-.72-.41v9.85z"/><path class="cls-54" d="m21.65 75.73.71-.41v-9.85l-.71.41v9.85z"/><path class="cls-55" d="m20.93 65.47.72.41.71-.41-.71-.42-.72.42z"/><path class="cls-54" d="m137.44 45.9-.72.41v-9.85l.72-.42v9.86z"/><path class="cls-53" d="m136.72 46.31-.71-.41v-9.86l.71.42v9.85z"/><path class="cls-55" d="m137.44 36.04-.72.42-.71-.42.71-.41.72.41z"/><path class="cls-13" d="m137.44 45.9-.72.41 29.33 16.93.71-.41-29.32-16.93z"/><path class="cls-53" d="m151.25 48.13-14.3-8.26v-.9l14.3 8.25v.91z"/><path class="cls-55" d="m151.65 46.99-.4.23-14.3-8.25.39-.23 14.31 8.25z"/><path class="cls-54" d="m151.65 47.9-.4.23v-.91l.4-.23v.91z"/><path class="cls-53" d="m151.25 52.24-14.3-8.25v-.91l14.3 8.26v.9z"/><path class="cls-55" d="m151.65 51.11-.4.23-14.3-8.26.39-.23 14.31 8.26z"/><path class="cls-54" d="m151.65 52.02-.4.22v-.9l.4-.23v.91zm.81 2.55-.72.41v-9.85l.72-.41v9.85z"/><path class="cls-53" d="m151.74 54.98-.71-.41v-9.85l.71.41v9.85z"/><path class="cls-55" d="m152.46 44.72-.72.41-.71-.41.71-.42.72.42z"/><path class="cls-53" d="m166.21 56.77-14.3-8.25v-.91l14.3 8.25v.91z"/><path class="cls-55" d="m166.61 55.63-.4.23-14.3-8.25.39-.23 14.31 8.25z"/><path class="cls-54" d="m166.61 56.54-.4.23v-.91l.4-.23v.91z"/><path class="cls-53" d="m166.21 60.89-14.3-8.26v-.91l14.3 8.26v.91z"/><path class="cls-55" d="m166.61 59.75-.4.23-14.3-8.26.39-.22 14.31 8.25z"/><path class="cls-54" d="m166.61 60.66-.4.23v-.91l.4-.23v.91z"/><path class="cls-13" d="m159.69 62.96-45.04-26.01-57.49 33.03 10.75 6.21-8.54 4.9 20.57 11.88 8.54-4.91 13.72 7.93 57.49-33.03z"/><path class="cls-56" d="m101.16 90.19 1.75 1 52.76-30.46-1.75-1-52.76 30.46z"/><path style="fill:#965d47" d="M62.83 68.05v-2.24l-1.94 1.12 1.94 1.12z"/><path class="cls-56" d="m60.89 69.52 42.02 24.26v-2.59L60.89 66.93v2.59z"/><path class="cls-58" d="m101.16 90.19 52.76-30.46V30.96l-52.76 30.46v28.77z"/><path class="cls-59" d="m82 35.61-10.37-1.57-8.8 5.24v28.77l38.33 22.14V61.42l-8.23-15.09L82 35.61z"/><path class="cls-60" d="m81.6 49.89.8.46V35.39l-.8-.47v14.97z"/><path class="cls-60" d="m81.75 49.61.5 1.02 11.6-3.87-.49-1.02-11.61 3.87z"/><path class="cls-60" d="m70.3 33.16 11.6 17.27.5-.44-11.61-17.28-.49.45z"/><path class="cls-60" d="m62.83 39.55 38.33 22.13v-1.32L62.83 38.23v1.32z"/><path style="fill:#cc8a33" d="m81.99 33.67-11.51-1.75-10.8 6.63 1.23 2.07 10.52-6.46 10.58 1.61 11.16 10.94 9.99 18.44 1.25-.62-10.29-18.96-12.13-11.9z"/><path class="cls-60" d="M71.75 73.19 89.42 83.4V66.05l-17.67-10.2v17.34z"/><path style="fill:#593628" d="m72.7 73.74 15.77 9.11V66.5L72.7 57.39v16.35z"/><path class="cls-63" d="M72.7 57.39v.88l14.92 24.09.85.49v-.88L73.55 57.88l-.85-.49z"/><path class="cls-63" d="M72.7 72.76v.98l.76.44 15.01-6.7v-.98l-.77-.44-15 6.7z"/><path style="fill:#1c0d08" d="m80.42 78.2.33.19V62.04l-.33-.19V78.2z"/><path style="fill:#d99336" d="m94.12 45.57 10.29 18.96 52.75-30.47-10.28-18.95-52.76 30.46z"/><path style="fill:#ffad40" d="m81.99 33.67 12.13 11.9 52.76-30.46-12.13-11.9-52.76 30.46z"/><path style="fill:#ffb95c" d="m70.48 31.92 11.51 1.75 52.76-30.46-11.51-1.75-52.76 30.46z"/><path style="fill:#543428" d="m102.91 93.78 52.76-30.46v-2.59l-52.76 30.46v2.59z"/><path style="fill:#593f34" d="m61.94 81.43 17.68 10.2v-.3L61.94 81.12v.31z"/><path style="fill:#795547" d="m79.62 91.63 9.8-5.66V83.4l-9.8 7.93v.3z"/><path style="fill:#8c6352" d="m61.94 81.12 17.68 10.21 9.8-7.93-17.67-10.21-9.81 7.93z"/><path class="cls-72" d="m115.38 81.98 1.61-.93V57.26l-1.61.98v23.74zm25.52-14.71 1.6-.93V42.55l-1.6.98v23.74z"/><path class="cls-60" d="M127.99 58.35v9.01l.51.3v-9.01l2.66-1.53-.51-.3-2.66 1.53z"/><path class="cls-72" d="m128.5 67.66 2.66-1.53v-9.01l-2.66 1.53v9.01z"/><path class="cls-31" d="m130.31 65.62-1.45.83v.64l1.94-1.13v-8.23l-.49.28v7.61z"/><path class="cls-49" d="m128.86 66.45 1.45-.83v-7.61l-1.45.84v7.6z"/><path class="cls-60" d="M134.85 54.42v9.01l.51.3v-9.01l2.66-1.54-.51-.29-2.66 1.53z"/><path class="cls-72" d="m135.36 63.73 2.66-1.54v-9.01l-2.66 1.54v9.01z"/><path class="cls-31" d="m137.17 61.68-1.45.84v.63l1.94-1.13v-8.23l-.49.29v7.6z"/><path class="cls-49" d="m135.72 62.52 1.45-.84v-7.6l-1.45.84v7.6z"/><path class="cls-60" d="M120.77 62.53v9.01l.51.3v-9.01l2.66-1.54-.52-.29-2.65 1.53z"/><path class="cls-72" d="m121.28 71.84 2.66-1.54v-9.01l-2.66 1.54v9.01z"/><path class="cls-31" d="m123.09 69.79-1.45.84v.63l1.94-1.12V61.9l-.49.29v7.6z"/><path class="cls-49" d="m121.64 70.63 1.45-.84v-7.6l-1.45.84v7.6z"/><path class="cls-60" d="M107.46 70.18v9.01l.51.3v-9.01l2.65-1.54-.51-.29-2.65 1.53z"/><path class="cls-72" d="m107.97 79.49 2.65-1.54v-9.01l-2.65 1.54v9.01z"/><path class="cls-31" d="m109.78 77.44-1.46.84v.63l1.95-1.12v-8.24l-.49.29v7.6z"/><path class="cls-49" d="m108.32 78.28 1.46-.84v-7.6l-1.46.84v7.6z"/><path class="cls-60" d="M146.83 47.45v9.01l.51.29v-9.01l2.66-1.53-.51-.3-2.66 1.54z"/><path class="cls-72" d="m147.34 56.75 2.66-1.53v-9.01l-2.66 1.53v9.01z"/><path class="cls-31" d="m149.15 54.71-1.45.84v.63l1.95-1.13v-8.23l-.5.29v7.6z"/><path class="cls-49" d="m147.7 55.55 1.45-.84v-7.6l-1.45.84v7.6z"/><path class="cls-13" d="m47.87 78.61-6.64-3.91 3.86-1.9L50 70l2.1-1.9 6.75 3.9-3.25 1.69-5 2.86z"/><path class="cls-73" d="m42.01 74.81 5.85 3.37v-6.16l-5.85-3.07v5.86z"/><path class="cls-27" d="m50.52 64.38-5.32 3.07-3.19 1.5 5.85 3.07 2.62-1.68 4.96-2.86 2.69-1.4-5.8-3.34-1.81 1.64z"/><path class="cls-25" d="m50.48 70.34-2.62 1.68v6.16l2.64-2.15 5-2.89 2.63-1.15v-5.91l-2.69 1.4-4.96 2.86z"/><path class="cls-58" d="m50.33 76.12.35-.2v-5.7l-.35.21v5.69z"/><path class="cls-59" d="m44.8 67.63 5.53 2.8.35-.21-5.48-2.77-.4.18z"/><path class="cls-58" d="m55.3 73.25.35-.2v-5.7l-.35.21v5.69z"/><path class="cls-59" d="m50.16 64.59 5.14 2.97.35-.21-5.13-2.97-.36.21z"/><path class="cls-13" d="m55.78 82.72-6.64-3.91 3.86-1.9 4.9-2.83 2.1-1.87 6.76 3.91-3.25 1.68-4.95 2.86z"/><path class="cls-73" d="m49.92 78.92 5.85 3.37v-6.16l-5.85-3.07v5.86z"/><path class="cls-27" d="m58.44 68.49-5.33 3.07-3.19 1.5 5.85 3.07 2.62-1.68 4.96-2.86 2.69-1.39-5.8-3.35-1.8 1.64z"/><path class="cls-25" d="m58.39 74.45-2.62 1.68v6.16l2.64-2.15 5-2.89 2.63-1.15v-5.9l-2.69 1.39-4.96 2.86z"/><path class="cls-58" d="m58.24 80.23.35-.2v-5.7l-.35.21v5.69z"/><path class="cls-59" d="m52.71 71.74 5.53 2.8.35-.21-5.48-2.77-.4.18z"/><path class="cls-58" d="m63.21 77.36.35-.2v-5.7l-.35.21v5.69z"/><path class="cls-59" d="m58.07 68.7 5.14 2.97.35-.21-5.12-2.97-.37.21z"/><path class="cls-13" d="m92 103.62-6.64-3.9 3.86-1.91L94.07 95l2.11-1.87 6.76 3.9-3.26 1.69-4.94 2.85z"/><path class="cls-73" d="m86.09 99.83 5.85 3.36v-6.15l-5.85-3.07v5.86z"/><path class="cls-27" d="m94.61 89.4-5.33 3.07-3.19 1.5 5.85 3.07 2.62-1.68 4.96-2.87 2.69-1.39-5.79-3.34-1.81 1.64z"/><path class="cls-25" d="m94.56 95.36-2.62 1.68v6.15l2.64-2.15 5-2.89 2.63-1.15v-5.9l-2.69 1.39-4.96 2.87z"/><path class="cls-58" d="m94.41 101.14.36-.21v-5.69l-.36.2v5.7z"/><path class="cls-59" d="m88.88 92.64 5.53 2.8.36-.2-5.49-2.77-.4.17z"/><path class="cls-58" d="m99.38 98.27.36-.21v-5.69l-.36.2v5.7z"/><path class="cls-59" d="m94.25 89.61 5.13 2.96.36-.2-5.13-2.97-.36.21z"/><path class="cls-13" d="m167.48 63.24-83.74 48.34-.71-.41 83.73-48.34.72.41z"/><path class="cls-53" d="m166.05 63.24.71.41V53.8l-.71-.41v9.85z"/><path class="cls-54" d="m166.76 63.65.72-.41v-9.85l-.72.41v9.85z"/><path class="cls-55" d="m166.05 53.39.71.41.72-.41-.72-.42-.71.42z"/><path class="cls-54" d="m153.55 64.72 13.08-7.55v-.9l-13.08 7.55v.9z"/><path class="cls-55" d="m153.15 63.59.4.23 13.08-7.55-.4-.23-13.08 7.55z"/><path class="cls-53" d="m153.15 64.5.4.22v-.9l-.4-.23v.91z"/><path class="cls-54" d="m153.55 68.84 13.08-7.55v-.91l-13.08 7.55v.91z"/><path class="cls-55" d="m153.15 67.71.4.22 13.08-7.55-.4-.22-13.08 7.55z"/><path class="cls-53" d="m153.15 68.61.4.23v-.91l-.4-.22v.9zm-.93 2.61.72.41v-9.85l-.72-.41v9.85z"/><path class="cls-54" d="m152.94 71.63.71-.41v-9.85l-.71.41v9.85z"/><path class="cls-55" d="m152.22 61.37.72.41.71-.41-.71-.42-.72.42z"/><path class="cls-54" d="m139.69 72.72 13.08-7.55v-.91l-13.08 7.55v.91z"/><path class="cls-55" d="m139.3 71.58.39.23 13.08-7.55-.39-.23-13.08 7.55z"/><path class="cls-53" d="m139.3 72.49.39.23v-.91l-.39-.23v.91z"/><path class="cls-54" d="m139.69 76.83 13.08-7.55v-.91l-13.08 7.56v.9z"/><path class="cls-55" d="m139.3 75.7.39.23 13.08-7.56-.39-.22-13.08 7.55z"/><path class="cls-53" d="m139.3 76.61.39.22v-.9l-.39-.23v.91zm-.92 2.6.71.42v-9.86l-.71-.41v9.85z"/><path class="cls-54" d="m139.09 79.63.72-.42v-9.85l-.72.41v9.86z"/><path class="cls-55" d="m138.38 69.36.71.41.72-.41-.72-.41-.71.41z"/><path class="cls-54" d="m125.88 80.7 13.08-7.55v-.91l-13.08 7.55v.91z"/><path class="cls-55" d="m125.48 79.56.4.23 13.08-7.55-.4-.22-13.08 7.54z"/><path class="cls-53" d="m125.48 80.47.4.23v-.91l-.4-.23v.91z"/><path class="cls-54" d="m125.88 84.82 13.08-7.55v-.91l-13.08 7.55v.91z"/><path class="cls-55" d="m125.48 83.68.4.23 13.08-7.55-.4-.23-13.08 7.55z"/><path class="cls-53" d="m125.48 84.59.4.23v-.91l-.4-.23v.91zm-.93 2.6.72.42v-9.85l-.72-.42v9.85z"/><path class="cls-54" d="m125.27 87.61.71-.42v-9.85l-.71.42v9.85z"/><path class="cls-55" d="m124.55 77.34.72.42.71-.42-.71-.41-.72.41z"/><path class="cls-54" d="m112.02 88.69 13.08-7.55v-.91l-13.08 7.55v.91z"/><path class="cls-55" d="m111.63 87.56.39.22 13.08-7.55-.39-.22-13.08 7.55z"/><path class="cls-53" d="m111.63 88.47.39.22v-.91l-.39-.22v.91z"/><path class="cls-54" d="m112.02 92.81 13.08-7.55v-.91l-13.08 7.55v.91z"/><path class="cls-55" d="m111.63 91.67.39.23 13.08-7.55-.39-.23-13.08 7.55z"/><path class="cls-53" d="m111.63 92.58.39.23v-.91l-.39-.23v.91zm-.92 2.61.71.41v-9.85l-.71-.41v9.85z"/><path class="cls-54" d="m111.42 95.6.71-.41v-9.85l-.71.41v9.85z"/><path class="cls-55" d="m110.71 85.34.71.41.71-.41-.71-.42-.71.42z"/><path class="cls-54" d="m98.2 96.68 13.08-7.55v-.91L98.2 95.77v.91z"/><path class="cls-55" d="m97.81 95.55.39.22 13.08-7.55-.39-.23-13.08 7.56z"/><path class="cls-53" d="m97.81 96.45.39.23v-.91l-.39-.22v.9z"/><path class="cls-54" d="m98.2 100.8 13.08-7.55v-.91L98.2 99.89v.91z"/><path class="cls-55" d="m97.81 99.66.39.23 13.08-7.55-.39-.23-13.08 7.55z"/><path class="cls-53" d="m97.81 100.57.39.23v-.91l-.39-.23v.91zm-.93 2.6.71.42v-9.86l-.71-.41v9.85z"/><path class="cls-54" d="m97.59 103.59.72-.42v-9.85l-.72.41v9.86z"/><path class="cls-55" d="m96.88 93.32.71.41.72-.41-.72-.41-.71.41z"/><path class="cls-54" d="m84.34 104.67 13.08-7.55v-.91l-13.08 7.55v.91z"/><path class="cls-55" d="m83.95 103.54.39.22 13.08-7.55-.39-.22-13.08 7.55z"/><path class="cls-53" d="m83.95 104.45.39.22v-.91l-.39-.22v.91z"/><path class="cls-54" d="m84.34 108.79 13.08-7.55v-.91l-13.08 7.55v.91z"/><path class="cls-55" d="m83.95 107.66.39.22 13.08-7.55-.39-.23-13.08 7.56z"/><path class="cls-53" d="m83.95 108.56.39.23v-.91l-.39-.22v.9zm-.92 2.61.71.41v-9.85l-.71-.41v9.85z"/><path class="cls-54" d="m83.74 111.58.72-.41v-9.85l-.72.41v9.85z"/><path class="cls-55" d="m83.03 101.32.71.41.72-.41-.72-.42-.71.42z"/></g></g></svg>