<svg xmlns="http://www.w3.org/2000/svg" viewBox="0 0 130.97 88.23"><defs><style>.cls-1{fill:#402517;}.cls-2{fill:#a36f3f;}.cls-3{fill:#4d2c1b;}.cls-4{fill:#4d2b1c;}.cls-5{fill:#73402a;}.cls-6{fill:#663925;}.cls-7{fill:#b36642;}.cls-8{fill:#945437;}</style></defs><title>Asset 11</title><g id="Layer_2" data-name="Layer 2"><g id="Layer"><polygon class="cls-1" points="65.64 88.23 130.97 50.51 130.97 45.31 65.33 12.02 0 45.05 0 50.26 65.64 88.23"/><polygon class="cls-2" points="65.64 83.03 130.97 45.31 65.33 7.33 0 45.05 65.64 83.03"/><polygon class="cls-3" points="65.64 88.23 65.64 83.03 0 45.05 0 50.26 65.64 88.23"/><polygon class="cls-4" points="65.64 83.03 130.97 45.31 130.97 40.1 65.33 6.81 0 39.84 0 45.05 65.64 83.03"/><polygon class="cls-5" points="65.64 77.82 130.97 40.1 65.33 2.12 0 39.84 65.64 77.82"/><polygon class="cls-6" points="65.64 83.03 65.64 77.82 0 39.84 0 45.05 65.64 83.03"/><polygon class="cls-5" points="127.25 42.27 130.97 40.13 130.97 37.98 65.33 4.69 61.61 2.15 61.61 4.3 127.25 42.27"/><polygon class="cls-7" points="127.25 40.12 130.97 37.98 65.33 0 61.61 2.15 127.25 40.12"/><polygon class="cls-8" points="127.25 42.27 127.25 40.12 61.61 2.15 61.61 4.3 127.25 42.27"/><polygon class="cls-6" points="119.55 46.72 123.27 44.57 123.27 42.42 57.63 9.13 53.91 6.59 53.91 8.74 119.55 46.72"/><polygon class="cls-7" points="119.55 44.57 123.27 42.42 57.63 4.44 53.91 6.59 119.55 44.57"/><polygon class="cls-8" points="119.55 46.72 119.55 44.57 53.91 6.59 53.91 8.74 119.55 46.72"/><polygon class="cls-6" points="111.85 51.16 115.57 49.01 115.57 46.86 49.93 13.57 46.21 11.03 46.21 13.19 111.85 51.16"/><polygon class="cls-7" points="111.85 49.01 115.57 46.86 49.93 8.89 46.21 11.03 111.85 49.01"/><polygon class="cls-8" points="111.85 51.16 111.85 49.01 46.21 11.03 46.21 13.19 111.85 51.16"/><polygon class="cls-6" points="104.15 55.6 107.87 53.46 107.87 51.3 42.23 18.02 38.51 15.48 38.51 17.63 104.15 55.6"/><polygon class="cls-7" points="104.15 53.45 107.87 51.3 42.23 13.33 38.51 15.48 104.15 53.45"/><polygon class="cls-8" points="104.15 55.6 104.15 53.45 38.51 15.48 38.51 17.63 104.15 55.6"/><polygon class="cls-6" points="96.45 60.05 100.17 57.9 100.17 55.75 34.52 22.46 30.81 19.92 30.81 22.07 96.45 60.05"/><polygon class="cls-7" points="96.45 57.9 100.17 55.75 34.52 17.77 30.81 19.92 96.45 57.9"/><polygon class="cls-8" points="96.45 60.05 96.45 57.9 30.81 19.92 30.81 22.07 96.45 60.05"/><polygon class="cls-6" points="88.75 64.49 92.47 62.34 92.47 60.19 26.82 26.9 23.11 24.36 23.11 26.51 88.75 64.49"/><polygon class="cls-7" points="88.75 62.34 92.47 60.19 26.82 22.21 23.11 24.36 88.75 62.34"/><polygon class="cls-8" points="88.75 64.49 88.75 62.34 23.11 24.36 23.11 26.51 88.75 64.49"/><polygon class="cls-6" points="81.05 68.93 84.77 66.78 84.77 64.63 19.12 31.34 15.41 28.81 15.41 30.96 81.05 68.93"/><polygon class="cls-7" points="81.05 66.78 84.77 64.63 19.12 26.66 15.41 28.81 81.05 66.78"/><polygon class="cls-8" points="81.05 68.93 81.05 66.78 15.41 28.81 15.41 30.96 81.05 68.93"/><polygon class="cls-6" points="73.35 73.38 77.07 71.23 77.07 69.08 11.42 35.79 7.71 33.25 7.71 35.4 73.35 73.38"/><polygon class="cls-7" points="73.35 71.22 77.07 69.08 11.42 31.1 7.71 33.25 73.35 71.22"/><polygon class="cls-8" points="73.35 73.38 73.35 71.22 7.71 33.25 7.71 35.4 73.35 73.38"/><polygon class="cls-6" points="65.65 77.82 69.36 75.67 69.36 73.52 3.72 40.23 0.01 37.69 0.01 39.84 65.65 77.82"/><polygon class="cls-7" points="65.65 75.67 69.36 73.52 3.72 35.55 0.01 37.69 65.65 75.67"/><polygon class="cls-8" points="65.65 77.82 65.65 75.67 0.01 37.69 0.01 39.84 65.65 77.82"/></g></g></svg>