<svg xmlns="http://www.w3.org/2000/svg" viewBox="0 0 130.97 88.23"><defs><style>.cls-5{fill:#73402a}.cls-6{fill:#663925}.cls-7{fill:#b36642}.cls-8{fill:#945437}</style></defs><g id="Layer_2" data-name="Layer 2"><g id="Layer"><path fill="#402517" d="m65.64 88.23 65.33-37.72v-5.2L65.33 12.02 0 45.05v5.21l65.64 37.97z"/><path fill="#a36f3f" d="m65.64 83.03 65.33-37.72L65.33 7.33 0 45.05l65.64 37.98z"/><path fill="#4d2c1b" d="M65.64 88.23v-5.2L0 45.05v5.21l65.64 37.97z"/><path fill="#4d2b1c" d="m65.64 83.03 65.33-37.72V40.1L65.33 6.81 0 39.84v5.21l65.64 37.98z"/><path class="cls-5" d="m65.64 77.82 65.33-37.72L65.33 2.12 0 39.84l65.64 37.98z"/><path class="cls-6" d="M65.64 83.03v-5.21L0 39.84v5.21l65.64 37.98z"/><path class="cls-5" d="m127.25 42.27 3.72-2.14v-2.15L65.33 4.69l-3.72-2.54V4.3l65.64 37.97z"/><path class="cls-7" d="m127.25 40.12 3.72-2.14L65.33 0l-3.72 2.15 65.64 37.97z"/><path class="cls-8" d="M127.25 42.27v-2.15L61.61 2.15V4.3l65.64 37.97z"/><path class="cls-6" d="m119.55 46.72 3.72-2.15v-2.15L57.63 9.13l-3.72-2.54v2.15l65.64 37.98z"/><path class="cls-7" d="m119.55 44.57 3.72-2.15L57.63 4.44l-3.72 2.15 65.64 37.98z"/><path class="cls-8" d="M119.55 46.72v-2.15L53.91 6.59v2.15l65.64 37.98z"/><path class="cls-6" d="m111.85 51.16 3.72-2.15v-2.15L49.93 13.57l-3.72-2.54v2.16l65.64 37.97z"/><path class="cls-7" d="m111.85 49.01 3.72-2.15L49.93 8.89l-3.72 2.14 65.64 37.98z"/><path class="cls-8" d="M111.85 51.16v-2.15L46.21 11.03v2.16l65.64 37.97z"/><path class="cls-6" d="m104.15 55.6 3.72-2.14V51.3L42.23 18.02l-3.72-2.54v2.15l65.64 37.97z"/><path class="cls-7" d="m104.15 53.45 3.72-2.15-65.64-37.97-3.72 2.15 65.64 37.97z"/><path class="cls-8" d="M104.15 55.6v-2.15L38.51 15.48v2.15l65.64 37.97z"/><path class="cls-6" d="m96.45 60.05 3.72-2.15v-2.15L34.52 22.46l-3.71-2.54v2.15l65.64 37.98z"/><path class="cls-7" d="m96.45 57.9 3.72-2.15-65.65-37.98-3.71 2.15L96.45 57.9z"/><path class="cls-8" d="M96.45 60.05V57.9L30.81 19.92v2.15l65.64 37.98z"/><path class="cls-6" d="m88.75 64.49 3.72-2.15v-2.15L26.82 26.9l-3.71-2.54v2.15l65.64 37.98z"/><path class="cls-7" d="m88.75 62.34 3.72-2.15-65.65-37.98-3.71 2.15 65.64 37.98z"/><path class="cls-8" d="M88.75 64.49v-2.15L23.11 24.36v2.15l65.64 37.98z"/><path class="cls-6" d="m81.05 68.93 3.72-2.15v-2.15L19.12 31.34l-3.71-2.53v2.15l65.64 37.97z"/><path class="cls-7" d="m81.05 66.78 3.72-2.15-65.65-37.97-3.71 2.15 65.64 37.97z"/><path class="cls-8" d="M81.05 68.93v-2.15L15.41 28.81v2.15l65.64 37.97z"/><path class="cls-6" d="m73.35 73.38 3.72-2.15v-2.15L11.42 35.79l-3.71-2.54v2.15l65.64 37.98z"/><path class="cls-7" d="m73.35 71.22 3.72-2.14L11.42 31.1l-3.71 2.15 65.64 37.97z"/><path class="cls-8" d="M73.35 73.38v-2.16L7.71 33.25v2.15l65.64 37.98z"/><path class="cls-6" d="m65.65 77.82 3.71-2.15v-2.15L3.72 40.23.01 37.69v2.15l65.64 37.98z"/><path class="cls-7" d="m65.65 75.67 3.71-2.15L3.72 35.55.01 37.69l65.64 37.98z"/><path class="cls-8" d="M65.65 77.82v-2.15L.01 37.69v2.15l65.64 37.98z"/></g></g></svg>