<svg xmlns="http://www.w3.org/2000/svg" width="130.974" height="88.233" viewBox="0 0 130.974 88.233">
  <g id="Group_1282" data-name="Group 1282" transform="translate(-30.25 -36.98)">
    <g id="Group_683" data-name="Group 683">
      <path id="Path_29083" data-name="Path 29083" d="M95.893,125.213l65.331-37.719V82.287L95.582,49,30.25,82.031v5.206Z" fill="#402517"/>
      <path id="Path_29084" data-name="Path 29084" d="M95.893,120.006l65.331-37.719L95.582,44.312,30.25,82.031Z" fill="#a36f3f"/>
      <path id="Path_29085" data-name="Path 29085" d="M95.893,125.213v-5.207L30.25,82.031v5.206Z" fill="#4d2c1b"/>
    </g>
    <g id="Group_684" data-name="Group 684">
      <path id="Path_29086" data-name="Path 29086" d="M95.893,120.006l65.331-37.719V77.08L95.582,43.791,30.25,76.824v5.207Z" fill="#4d2b1c"/>
      <path id="Path_29087" data-name="Path 29087" d="M95.893,114.8,161.224,77.08,95.582,39.1,30.25,76.824Z" fill="#73402a"/>
      <path id="Path_29088" data-name="Path 29088" d="M95.893,120.006V114.8L30.25,76.824v5.207Z" fill="#663925"/>
    </g>
    <g id="Group_694" data-name="Group 694">
      <g id="Group_685" data-name="Group 685">
        <path id="Path_29089" data-name="Path 29089" d="M157.5,79.254l3.718-2.148V74.956L95.577,41.666l-3.718-2.538v2.151Z" fill="#73402a"/>
        <path id="Path_29090" data-name="Path 29090" d="M157.5,77.1l3.718-2.147L95.577,36.98l-3.718,2.147Z" fill="#b36642"/>
        <path id="Path_29091" data-name="Path 29091" d="M157.5,79.254V77.1L91.859,39.128v2.151Z" fill="#945437"/>
      </g>
      <g id="Group_686" data-name="Group 686">
        <path id="Path_29092" data-name="Path 29092" d="M149.8,83.7l3.718-2.148V79.4L87.877,46.109l-3.718-2.538v2.151Z" fill="#663925"/>
        <path id="Path_29093" data-name="Path 29093" d="M149.8,81.546l3.718-2.148L87.877,41.423l-3.718,2.148Z" fill="#b36642"/>
        <path id="Path_29094" data-name="Path 29094" d="M149.8,83.7V81.546L84.159,43.571v2.151Z" fill="#945437"/>
      </g>
      <g id="Group_687" data-name="Group 687">
        <path id="Path_29095" data-name="Path 29095" d="M142.1,88.141l3.718-2.148V83.842L80.176,50.552l-3.718-2.538v2.151Z" fill="#663925"/>
        <path id="Path_29096" data-name="Path 29096" d="M142.1,85.989l3.718-2.148L80.176,45.867l-3.718,2.147Z" fill="#b36642"/>
        <path id="Path_29097" data-name="Path 29097" d="M142.1,88.141V85.989L76.459,48.014v2.151Z" fill="#945437"/>
      </g>
      <g id="Group_688" data-name="Group 688">
        <path id="Path_29098" data-name="Path 29098" d="M134.4,92.584l3.718-2.148V88.285L72.476,55l-3.718-2.538v2.151Z" fill="#663925"/>
        <path id="Path_29099" data-name="Path 29099" d="M134.4,90.433l3.718-2.148L72.476,50.31l-3.718,2.148Z" fill="#b36642"/>
        <path id="Path_29100" data-name="Path 29100" d="M134.4,92.584V90.433L68.758,52.458v2.151Z" fill="#945437"/>
      </g>
      <g id="Group_689" data-name="Group 689">
        <path id="Path_29101" data-name="Path 29101" d="M126.7,97.027l3.718-2.147V92.728L64.775,59.439,61.058,56.9v2.151Z" fill="#663925"/>
        <path id="Path_29102" data-name="Path 29102" d="M126.7,94.876l3.718-2.148L64.775,54.753,61.058,56.9Z" fill="#b36642"/>
        <path id="Path_29103" data-name="Path 29103" d="M126.7,97.027V94.876L61.058,56.9v2.151Z" fill="#945437"/>
      </g>
      <g id="Group_690" data-name="Group 690">
        <path id="Path_29104" data-name="Path 29104" d="M119,101.47l3.718-2.148V97.171L57.075,63.882l-3.718-2.538v2.151Z" fill="#663925"/>
        <path id="Path_29105" data-name="Path 29105" d="M119,99.319l3.718-2.148L57.075,59.2l-3.718,2.148Z" fill="#b36642"/>
        <path id="Path_29106" data-name="Path 29106" d="M119,101.47V99.319L53.357,61.344v2.151Z" fill="#945437"/>
      </g>
      <g id="Group_691" data-name="Group 691">
        <path id="Path_29107" data-name="Path 29107" d="M111.3,105.913l3.718-2.147v-2.151L49.375,68.325l-3.718-2.539v2.151Z" fill="#663925"/>
        <path id="Path_29108" data-name="Path 29108" d="M111.3,103.762l3.718-2.147L49.375,63.639l-3.718,2.147Z" fill="#b36642"/>
        <path id="Path_29109" data-name="Path 29109" d="M111.3,105.913v-2.151L45.656,65.787v2.151Z" fill="#945437"/>
      </g>
      <g id="Group_692" data-name="Group 692">
        <path id="Path_29110" data-name="Path 29110" d="M103.6,110.356l3.718-2.148v-2.151L41.674,72.768,37.956,70.23v2.151Z" fill="#663925"/>
        <path id="Path_29111" data-name="Path 29111" d="M103.6,108.205l3.718-2.148L41.674,68.082,37.956,70.23Z" fill="#b36642"/>
        <path id="Path_29112" data-name="Path 29112" d="M103.6,110.356v-2.151L37.956,70.23v2.151Z" fill="#945437"/>
      </g>
      <g id="Group_693" data-name="Group 693">
        <path id="Path_29113" data-name="Path 29113" d="M95.9,114.8l3.718-2.147V110.5L33.974,77.211l-3.718-2.539v2.151Z" fill="#663925"/>
        <path id="Path_29114" data-name="Path 29114" d="M95.9,112.648l3.718-2.148L33.974,72.525l-3.718,2.147Z" fill="#b36642"/>
        <path id="Path_29115" data-name="Path 29115" d="M95.9,114.8v-2.151L30.255,74.673v2.151Z" fill="#945437"/>
      </g>
    </g>
  </g>
</svg>
