<svg xmlns="http://www.w3.org/2000/svg" viewBox="0 0 130.37 85.71"><defs><style>.cls-1{fill:#402517;}.cls-2{fill:#a36f3f;}.cls-3{fill:#4d2c1b;}.cls-4{fill:#4d2b1c;}.cls-5{fill:#73402a;}.cls-6{fill:#945437;}.cls-7{fill:#663925;}.cls-8{fill:#54371b;}.cls-9{fill:#5c3a1c;}.cls-10{fill:#b37136;}</style></defs><title>Asset 51</title><g id="Layer_2" data-name="Layer 2"><g id="Layer"><polygon class="cls-1" points="65.34 85.71 130.37 48.17 130.37 42.98 65.03 9.85 0 42.73 0 47.91 65.34 85.71"/><polygon class="cls-2" points="65.34 80.53 130.37 42.98 65.03 5.18 0 42.73 65.34 80.53"/><polygon class="cls-3" points="65.34 85.71 65.34 80.53 0 42.73 0 47.91 65.34 85.71"/><polygon class="cls-4" points="65.34 80.53 130.37 42.98 130.37 37.8 65.03 4.66 0 37.55 0 42.73 65.34 80.53"/><polygon class="cls-5" points="65.34 75.34 130.37 37.8 65.03 0 0 37.55 65.34 75.34"/><polygon class="cls-6" points="126.66 39.96 130.36 37.83 65.02 0.03 61.32 2.16 126.66 39.96"/><polygon class="cls-6" points="119 44.39 122.7 42.25 57.36 4.45 53.66 6.59 119 44.39"/><polygon class="cls-6" points="111.33 48.81 115.03 46.67 49.7 8.87 45.99 11.01 111.33 48.81"/><polygon class="cls-6" points="103.67 53.23 107.37 51.09 42.03 13.29 38.33 15.43 103.67 53.23"/><polygon class="cls-6" points="96 57.65 99.7 55.52 34.37 17.72 30.66 19.85 96 57.65"/><polygon class="cls-6" points="88.34 62.08 92.04 59.94 26.7 22.14 23 24.28 88.34 62.08"/><polygon class="cls-6" points="80.67 66.5 84.37 64.36 19.04 26.56 15.33 28.7 80.67 66.5"/><polygon class="cls-6" points="73.01 70.92 76.71 68.78 11.37 30.98 7.67 33.12 73.01 70.92"/><polygon class="cls-6" points="65.34 75.34 69.04 73.21 3.71 35.41 0 37.55 65.34 75.34"/><polygon class="cls-7" points="65.34 80.53 65.34 75.34 0 37.55 0 42.73 65.34 80.53"/><path class="cls-8" d="M66.8,17.42A2,2,0,0,1,65,17.2c-.4-.34-.27-.78.3-1a1.94,1.94,0,0,1,1.75.23C67.5,16.77,67.36,17.21,66.8,17.42Z"/><path class="cls-8" d="M85.76,15.21A2,2,0,0,1,84,15c-.41-.33-.27-.77.29-1a2,2,0,0,1,1.76.22C86.46,14.56,86.33,15,85.76,15.21Z"/><path class="cls-8" d="M52.6,46.93a1.93,1.93,0,0,1-1.75-.23c-.41-.33-.27-.77.29-1a2,2,0,0,1,1.76.22C53.3,46.28,53.17,46.72,52.6,46.93Z"/><path class="cls-8" d="M15.78,42.65A2,2,0,0,1,14,42.43c-.4-.34-.26-.78.3-1a2,2,0,0,1,1.76.23C16.48,42,16.35,42.44,15.78,42.65Z"/><path class="cls-8" d="M49.13,35.23A2,2,0,0,1,47.37,35c-.4-.34-.27-.78.3-1a1.93,1.93,0,0,1,1.75.23C49.83,34.58,49.69,35,49.13,35.23Z"/><path class="cls-8" d="M45,21.11a2,2,0,0,1-1.76-.22c-.4-.34-.27-.78.3-1a2,2,0,0,1,1.76.23C45.67,20.46,45.54,20.9,45,21.11Z"/><path class="cls-8" d="M85.48,60.42a1.94,1.94,0,0,1-1.75-.23c-.4-.33-.27-.77.29-1a2,2,0,0,1,1.76.23C86.18,59.77,86.05,60.21,85.48,60.42Z"/><path class="cls-8" d="M45.56,15.91a2,2,0,0,1-1.76-.22c-.4-.34-.27-.78.3-1a1.94,1.94,0,0,1,1.75.23C46.26,15.26,46.12,15.7,45.56,15.91Z"/><path class="cls-8" d="M93.73,38.76A1.93,1.93,0,0,1,92,38.53c-.41-.33-.27-.77.29-1a2,2,0,0,1,1.76.22C94.43,38.11,94.3,38.55,93.73,38.76Z"/><path class="cls-8" d="M83,30.64a2,2,0,0,1-1.75-.22c-.41-.34-.27-.78.29-1a2,2,0,0,1,1.76.23C83.67,30,83.54,30.43,83,30.64Z"/><path class="cls-8" d="M37,52.61a2,2,0,0,1-1.76-.23c-.4-.34-.27-.78.3-1a2,2,0,0,1,1.75.23C37.74,52,37.6,52.39,37,52.61Z"/><path class="cls-8" d="M66.53,40.78a1.94,1.94,0,0,1-1.75-.23c-.4-.33-.27-.77.29-1a2,2,0,0,1,1.76.22C67.23,40.13,67.1,40.57,66.53,40.78Z"/><path class="cls-8" d="M55,32.72a2,2,0,0,1-1.76-.22c-.4-.34-.27-.78.3-1a1.94,1.94,0,0,1,1.75.23C55.69,32.07,55.55,32.51,55,32.72Z"/><path class="cls-8" d="M41.76,35.74A2,2,0,0,1,40,35.51c-.4-.33-.27-.77.3-1a2,2,0,0,1,1.75.22C42.46,35.09,42.32,35.53,41.76,35.74Z"/><path class="cls-8" d="M98.22,54.5a2,2,0,0,1-1.76-.23c-.4-.33-.27-.77.3-1a2,2,0,0,1,1.76.22C98.92,53.85,98.79,54.29,98.22,54.5Z"/><path class="cls-8" d="M69.74,6.41A2,2,0,0,1,68,6.19c-.4-.34-.27-.78.3-1A1.94,1.94,0,0,1,70,5.43C70.44,5.76,70.31,6.2,69.74,6.41Z"/><path class="cls-8" d="M40.78,43.38A2,2,0,0,1,39,43.16c-.41-.34-.27-.78.29-1a2,2,0,0,1,1.76.23C41.48,42.73,41.35,43.17,40.78,43.38Z"/><path class="cls-8" d="M70.4,12.75a2,2,0,0,1-1.76-.23c-.4-.33-.27-.78.3-1a2,2,0,0,1,1.75.22C71.1,12.09,71,12.54,70.4,12.75Z"/><path class="cls-8" d="M74.65,55a2,2,0,0,1-1.75-.22c-.4-.34-.27-.78.3-1a1.94,1.94,0,0,1,1.75.23C75.35,54.38,75.22,54.82,74.65,55Z"/><path class="cls-8" d="M40.31,48.29a2,2,0,0,1-1.75-.22c-.41-.34-.27-.78.29-1a2,2,0,0,1,1.76.23C41,47.64,40.88,48.08,40.31,48.29Z"/><path class="cls-8" d="M43.05,53.22A2,2,0,0,1,41.29,53c-.4-.33-.27-.78.3-1a1.93,1.93,0,0,1,1.75.22C43.75,52.57,43.61,53,43.05,53.22Z"/><path class="cls-8" d="M63.85,67.14a2,2,0,0,1-1.76-.22c-.4-.34-.27-.78.3-1a1.93,1.93,0,0,1,1.75.23C64.55,66.49,64.41,66.93,63.85,67.14Z"/><path class="cls-8" d="M108,29.37a2,2,0,0,1-1.76-.23c-.4-.33-.27-.77.3-1a2,2,0,0,1,1.75.22C108.7,28.72,108.56,29.16,108,29.37Z"/><path class="cls-8" d="M58.49,48.09a2,2,0,0,1-1.75-.22c-.41-.34-.27-.78.29-1a2,2,0,0,1,1.76.23C59.19,47.44,59.06,47.88,58.49,48.09Z"/><path class="cls-8" d="M106.37,41.55a2,2,0,0,1-1.76-.22c-.4-.34-.27-.78.3-1a1.93,1.93,0,0,1,1.75.23C107.07,40.9,106.93,41.34,106.37,41.55Z"/><path class="cls-8" d="M83,37a2,2,0,0,1-1.76-.22c-.4-.34-.27-.78.3-1a1.94,1.94,0,0,1,1.75.23C83.68,36.38,83.54,36.82,83,37Z"/><path class="cls-8" d="M72.87,17.93a2,2,0,0,1-1.76-.23c-.4-.33-.27-.77.3-1a1.94,1.94,0,0,1,1.75.23C73.57,17.28,73.43,17.72,72.87,17.93Z"/><path class="cls-8" d="M65.26,11a2,2,0,0,1-1.76-.22c-.4-.34-.27-.78.3-1a2,2,0,0,1,1.76.23C66,10.31,65.83,10.75,65.26,11Z"/><path class="cls-8" d="M74.79,48.31A2,2,0,0,1,73,48.08c-.4-.33-.27-.77.3-1a2,2,0,0,1,1.76.22C75.49,47.66,75.36,48.1,74.79,48.31Z"/><path class="cls-8" d="M116.47,34.49a2,2,0,0,1-1.76-.23c-.4-.33-.27-.77.3-1a1.94,1.94,0,0,1,1.75.23C117.17,33.84,117,34.28,116.47,34.49Z"/><path class="cls-8" d="M55.79,58.79A2,2,0,0,1,54,58.56c-.41-.33-.27-.78.29-1a2,2,0,0,1,1.76.22C56.49,58.14,56.36,58.58,55.79,58.79Z"/><path class="cls-8" d="M116.15,43.29a2,2,0,0,1-1.75-.22c-.4-.34-.27-.78.3-1a1.94,1.94,0,0,1,1.75.23C116.85,42.64,116.72,43.08,116.15,43.29Z"/><path class="cls-8" d="M75.13,67.08a2,2,0,0,1-1.75-.23c-.41-.33-.27-.78.29-1a2,2,0,0,1,1.76.23C75.83,66.42,75.7,66.86,75.13,67.08Z"/><path class="cls-8" d="M94.18,28.1a1.93,1.93,0,0,1-1.75-.23c-.41-.33-.27-.77.29-1a2,2,0,0,1,1.76.22C94.88,27.45,94.75,27.89,94.18,28.1Z"/><path class="cls-8" d="M80.93,55.67a2,2,0,0,1-1.76-.23c-.4-.33-.27-.77.3-1a2,2,0,0,1,1.76.22C81.63,55,81.5,55.46,80.93,55.67Z"/><path class="cls-8" d="M69.84,67.76a1.94,1.94,0,0,1-1.75-.23c-.4-.33-.27-.77.3-1a2,2,0,0,1,1.75.22C70.54,67.11,70.41,67.55,69.84,67.76Z"/><path class="cls-8" d="M66.42,28.86a2,2,0,0,1-1.75-.22c-.4-.33-.27-.78.3-1a2,2,0,0,1,1.75.23C67.12,28.21,67,28.66,66.42,28.86Z"/><path class="cls-8" d="M50.34,57.8a2,2,0,0,1-1.76-.23c-.4-.33-.27-.78.3-1a2,2,0,0,1,1.75.22C51,57.15,50.9,57.59,50.34,57.8Z"/><path class="cls-8" d="M54.6,52.85a2,2,0,0,1-1.75-.22c-.4-.34-.27-.78.29-1a2,2,0,0,1,1.76.23C55.3,52.2,55.17,52.64,54.6,52.85Z"/><path class="cls-8" d="M61.46,16.64a2,2,0,0,1-1.76-.22c-.4-.34-.27-.78.3-1a1.94,1.94,0,0,1,1.75.23C62.15,16,62,16.43,61.46,16.64Z"/><path class="cls-8" d="M44,31.09a1.94,1.94,0,0,1-1.75-.23c-.41-.33-.27-.77.29-1a2,2,0,0,1,1.76.22C44.68,30.44,44.55,30.88,44,31.09Z"/><path class="cls-8" d="M112.37,31.86a2,2,0,0,1-1.75-.22c-.41-.34-.27-.78.29-1a2,2,0,0,1,1.76.23C113.07,31.21,112.94,31.65,112.37,31.86Z"/><path class="cls-8" d="M88.88,36a1.94,1.94,0,0,1-1.75-.23c-.4-.33-.27-.77.3-1a2,2,0,0,1,1.75.22C89.58,35.36,89.45,35.8,88.88,36Z"/><path class="cls-8" d="M60.32,42.48a2,2,0,0,1-1.76-.23c-.4-.33-.27-.77.3-1a1.93,1.93,0,0,1,1.75.23C61,41.83,60.88,42.27,60.32,42.48Z"/><path class="cls-8" d="M60.06,9.91a2,2,0,0,1-1.76-.22c-.4-.34-.27-.78.3-1a1.93,1.93,0,0,1,1.75.23C60.76,9.26,60.62,9.7,60.06,9.91Z"/><path class="cls-8" d="M63.89,35.44a2,2,0,0,1-1.76-.23c-.4-.33-.26-.77.3-1a2,2,0,0,1,1.76.22C64.59,34.79,64.46,35.23,63.89,35.44Z"/><path class="cls-8" d="M107.05,35.72a2,2,0,0,1-1.75-.23c-.41-.33-.27-.78.29-1a2,2,0,0,1,1.76.22C107.75,35.06,107.62,35.51,107.05,35.72Z"/><path class="cls-8" d="M72.18,30.6a1.94,1.94,0,0,1-1.75-.23c-.41-.33-.27-.77.29-1a2,2,0,0,1,1.76.23C72.88,30,72.75,30.39,72.18,30.6Z"/><path class="cls-8" d="M67.47,56.31a2,2,0,0,1-1.75-.22c-.4-.34-.27-.78.3-1a1.94,1.94,0,0,1,1.75.23C68.17,55.66,68,56.1,67.47,56.31Z"/><path class="cls-8" d="M83.45,24.71a2,2,0,0,1-1.76-.23c-.4-.33-.27-.77.3-1a2,2,0,0,1,1.76.22C84.15,24.06,84,24.5,83.45,24.71Z"/><path class="cls-9" d="M67.28,22.8A1.5,1.5,0,0,1,66,22.63c-.3-.25-.2-.59.22-.74a1.47,1.47,0,0,1,1.32.17C67.8,22.31,67.71,22.64,67.28,22.8Z"/><path class="cls-9" d="M71.11,61a1.47,1.47,0,0,1-1.32-.17c-.3-.25-.2-.58.22-.74a1.47,1.47,0,0,1,1.32.17C71.63,60.48,71.53,60.81,71.11,61Z"/><path class="cls-9" d="M95.17,33.44a1.48,1.48,0,0,1-1.32-.17c-.3-.25-.2-.58.23-.74a1.46,1.46,0,0,1,1.31.17C95.7,33,95.6,33.28,95.17,33.44Z"/><path class="cls-9" d="M58.66,36.42a1.48,1.48,0,0,1-1.32-.17c-.3-.25-.2-.58.23-.74a1.46,1.46,0,0,1,1.31.17C59.19,35.93,59.09,36.26,58.66,36.42Z"/><path class="cls-9" d="M77.43,31.3a1.47,1.47,0,0,1-1.32-.17c-.3-.25-.2-.58.22-.74a1.47,1.47,0,0,1,1.32.17C78,30.81,77.85,31.14,77.43,31.3Z"/><path class="cls-9" d="M45.67,26.1a1.46,1.46,0,0,1-1.31-.17c-.31-.25-.21-.58.22-.74a1.47,1.47,0,0,1,1.32.17C46.2,25.61,46.1,25.94,45.67,26.1Z"/><path class="cls-9" d="M63.62,4.81a1.5,1.5,0,0,1-1.32-.17c-.3-.25-.2-.59.22-.74a1.44,1.44,0,0,1,1.32.17C64.14,4.32,64,4.65,63.62,4.81Z"/><path class="cls-9" d="M27.81,41.63a1.43,1.43,0,0,1-1.31-.17c-.31-.25-.21-.58.22-.74a1.51,1.51,0,0,1,1.32.17C28.34,41.14,28.24,41.48,27.81,41.63Z"/><path class="cls-9" d="M71.31,44.7A1.47,1.47,0,0,1,70,44.53c-.3-.25-.2-.58.22-.74a1.47,1.47,0,0,1,1.32.17C71.83,44.21,71.73,44.54,71.31,44.7Z"/><path class="cls-9" d="M23.58,28a1.51,1.51,0,0,1-1.32-.17c-.3-.25-.2-.59.23-.74a1.48,1.48,0,0,1,1.32.17C24.11,27.5,24,27.83,23.58,28Z"/><path class="cls-9" d="M103,50.65a1.47,1.47,0,0,1-1.32-.17c-.3-.25-.2-.58.22-.74a1.47,1.47,0,0,1,1.32.17C103.52,50.16,103.42,50.49,103,50.65Z"/><path class="cls-9" d="M50.21,22a1.48,1.48,0,0,1-1.32-.17c-.3-.25-.2-.58.23-.74a1.46,1.46,0,0,1,1.31.17C50.74,21.53,50.64,21.86,50.21,22Z"/><path class="cls-9" d="M89.35,25.38A1.48,1.48,0,0,1,88,25.21c-.3-.25-.2-.58.23-.74a1.46,1.46,0,0,1,1.31.17C89.88,24.89,89.78,25.22,89.35,25.38Z"/><path class="cls-9" d="M65,61.32a1.5,1.5,0,0,1-1.32-.17c-.3-.25-.2-.58.23-.74a1.46,1.46,0,0,1,1.31.17C65.56,60.83,65.46,61.16,65,61.32Z"/><path class="cls-9" d="M78,25.55a1.48,1.48,0,0,1-1.32-.17c-.3-.25-.2-.58.23-.74a1.46,1.46,0,0,1,1.31.17C78.49,25.06,78.39,25.39,78,25.55Z"/><path class="cls-9" d="M79.15,49.63a1.47,1.47,0,0,1-1.32-.17c-.3-.25-.2-.58.22-.74a1.47,1.47,0,0,1,1.32.17C79.67,49.14,79.57,49.47,79.15,49.63Z"/><path class="cls-9" d="M59.51,62.39a1.49,1.49,0,0,1-1.31-.17c-.31-.25-.21-.59.22-.74a1.48,1.48,0,0,1,1.32.17C60,61.9,59.94,62.23,59.51,62.39Z"/><path class="cls-9" d="M23.09,32.66a1.47,1.47,0,0,1-1.32-.17c-.31-.25-.21-.58.22-.74a1.47,1.47,0,0,1,1.32.17C23.61,32.17,23.51,32.5,23.09,32.66Z"/><path class="cls-9" d="M65.41,46.16A1.5,1.5,0,0,1,64.09,46c-.3-.25-.2-.58.22-.74a1.47,1.47,0,0,1,1.32.17C65.93,45.67,65.83,46,65.41,46.16Z"/><path class="cls-9" d="M107.31,47.72a1.49,1.49,0,0,1-1.31-.17c-.31-.25-.21-.58.22-.74a1.48,1.48,0,0,1,1.32.17C107.84,47.23,107.74,47.56,107.31,47.72Z"/><path class="cls-9" d="M75,10.06a1.47,1.47,0,0,1-1.32-.17c-.31-.25-.21-.58.22-.74a1.47,1.47,0,0,1,1.32.17C75.55,9.57,75.45,9.9,75,10.06Z"/><path class="cls-9" d="M120.83,35.62a1.47,1.47,0,0,1-1.32-.17c-.3-.25-.2-.58.22-.74a1.47,1.47,0,0,1,1.32.17C121.35,35.13,121.25,35.46,120.83,35.62Z"/><path class="cls-9" d="M80.72,63.72a1.44,1.44,0,0,1-1.32-.17c-.3-.25-.2-.58.22-.74a1.5,1.5,0,0,1,1.32.17C81.24,63.24,81.14,63.57,80.72,63.72Z"/><path class="cls-9" d="M33.52,27.44a1.47,1.47,0,0,1-1.32-.17c-.3-.25-.2-.58.22-.74a1.5,1.5,0,0,1,1.32.17C34,27,33.94,27.28,33.52,27.44Z"/><path class="cls-9" d="M49.63,41.85a1.47,1.47,0,0,1-1.32-.17c-.3-.25-.2-.58.22-.74a1.47,1.47,0,0,1,1.32.17C50.15,41.36,50.05,41.69,49.63,41.85Z"/><path class="cls-9" d="M43.76,58.81a1.47,1.47,0,0,1-1.32-.17c-.3-.25-.2-.58.22-.74a1.5,1.5,0,0,1,1.32.17C44.28,58.32,44.18,58.66,43.76,58.81Z"/><path class="cls-9" d="M63.57,51.09a1.5,1.5,0,0,1-1.32-.17c-.3-.25-.2-.58.22-.74a1.47,1.47,0,0,1,1.32.17C64.09,50.6,64,50.93,63.57,51.09Z"/><path class="cls-9" d="M119.85,40.49a1.5,1.5,0,0,1-1.32-.17c-.31-.25-.21-.58.22-.74a1.47,1.47,0,0,1,1.32.17C120.37,40,120.27,40.33,119.85,40.49Z"/><path class="cls-9" d="M35,34.72a1.47,1.47,0,0,1-1.32-.17c-.3-.25-.2-.58.22-.74a1.5,1.5,0,0,1,1.32.17C35.49,34.23,35.39,34.56,35,34.72Z"/><path class="cls-9" d="M101.28,44.69a1.5,1.5,0,0,1-1.32-.17c-.31-.26-.21-.59.22-.75a1.5,1.5,0,0,1,1.32.17C101.8,44.2,101.7,44.53,101.28,44.69Z"/><path class="cls-9" d="M87.07,20.87a1.46,1.46,0,0,1-1.31-.17c-.31-.25-.21-.58.22-.74a1.48,1.48,0,0,1,1.32.17C87.6,20.38,87.5,20.71,87.07,20.87Z"/><path class="cls-9" d="M34.48,47.88a1.5,1.5,0,0,1-1.32-.17c-.3-.26-.2-.59.22-.74a1.44,1.44,0,0,1,1.32.17C35,47.39,34.9,47.72,34.48,47.88Z"/><path class="cls-9" d="M50.43,13.89a1.48,1.48,0,0,1-1.32-.17c-.3-.25-.2-.58.23-.74a1.49,1.49,0,0,1,1.31.17C51,13.4,50.86,13.73,50.43,13.89Z"/><path class="cls-9" d="M48.29,52.34A1.5,1.5,0,0,1,47,52.17c-.3-.25-.2-.58.22-.74a1.47,1.47,0,0,1,1.32.17C48.81,51.85,48.71,52.18,48.29,52.34Z"/><path class="cls-9" d="M45,39.8a1.47,1.47,0,0,1-1.32-.17c-.3-.25-.2-.58.22-.74a1.5,1.5,0,0,1,1.32.17C45.5,39.31,45.4,39.65,45,39.8Z"/><path class="cls-9" d="M17.72,31.46a1.47,1.47,0,0,1-1.32-.17c-.3-.25-.2-.58.22-.74a1.5,1.5,0,0,1,1.32.17C18.24,31,18.14,31.31,17.72,31.46Z"/><path class="cls-9" d="M83.5,47a1.44,1.44,0,0,1-1.32-.17c-.3-.25-.2-.58.22-.73a1.47,1.47,0,0,1,1.32.16C84,46.56,83.93,46.89,83.5,47Z"/><path class="cls-9" d="M86.18,53.87a1.46,1.46,0,0,1-1.31-.17c-.31-.25-.21-.58.22-.74a1.48,1.48,0,0,1,1.32.17C86.71,53.38,86.61,53.71,86.18,53.87Z"/><path class="cls-9" d="M53.64,64.67a1.5,1.5,0,0,1-1.32-.17c-.3-.26-.2-.59.22-.74a1.44,1.44,0,0,1,1.32.17C54.16,64.18,54.06,64.51,53.64,64.67Z"/><path class="cls-9" d="M22.43,42a1.47,1.47,0,0,1-1.32-.17c-.3-.25-.2-.58.22-.74a1.5,1.5,0,0,1,1.32.17C23,41.53,22.85,41.87,22.43,42Z"/><path class="cls-9" d="M101.91,33a1.5,1.5,0,0,1-1.32-.17c-.3-.25-.2-.59.22-.74a1.44,1.44,0,0,1,1.32.17C102.44,32.52,102.33,32.85,101.91,33Z"/><path class="cls-9" d="M99,23.34a1.47,1.47,0,0,1-1.32-.17c-.3-.25-.2-.58.22-.74a1.47,1.47,0,0,1,1.32.17C99.54,22.85,99.44,23.18,99,23.34Z"/><path class="cls-9" d="M87.51,42.08a1.45,1.45,0,0,1-1.32-.17c-.3-.25-.2-.58.23-.74a1.49,1.49,0,0,1,1.31.17C88,41.6,87.94,41.93,87.51,42.08Z"/><path class="cls-9" d="M58.8,68.55a1.48,1.48,0,0,1-1.32-.17c-.3-.25-.2-.58.23-.74a1.48,1.48,0,0,1,1.32.17C59.33,68.06,59.23,68.39,58.8,68.55Z"/><path class="cls-9" d="M56,26.05a1.47,1.47,0,0,1-1.32-.17c-.3-.25-.2-.58.22-.74a1.47,1.47,0,0,1,1.32.17C56.48,25.56,56.38,25.89,56,26.05Z"/><path class="cls-9" d="M12.66,34.94a1.5,1.5,0,0,1-1.32-.17c-.3-.26-.2-.59.22-.74a1.44,1.44,0,0,1,1.32.17C13.19,34.45,13.09,34.78,12.66,34.94Z"/><path class="cls-9" d="M73,40.14A1.48,1.48,0,0,1,71.72,40c-.3-.25-.2-.58.23-.74a1.51,1.51,0,0,1,1.32.17C73.57,39.65,73.47,40,73,40.14Z"/><path class="cls-9" d="M125.36,38.42a1.47,1.47,0,0,1-1.32-.17c-.3-.25-.2-.58.22-.74a1.47,1.47,0,0,1,1.32.17C125.88,37.93,125.78,38.26,125.36,38.42Z"/><path class="cls-9" d="M39.72,25.49a1.5,1.5,0,0,1-1.32-.17c-.3-.25-.2-.59.22-.74a1.47,1.47,0,0,1,1.32.17C40.24,25,40.14,25.33,39.72,25.49Z"/><path class="cls-9" d="M25.29,36.82A1.47,1.47,0,0,1,24,36.65c-.3-.25-.2-.58.22-.74a1.47,1.47,0,0,1,1.32.17C25.81,36.33,25.72,36.66,25.29,36.82Z"/><path class="cls-10" d="M100.09,38.51a1.32,1.32,0,0,1-1.17-.15c-.27-.23-.18-.52.2-.66a1.32,1.32,0,0,1,1.17.15C100.56,38.07,100.47,38.37,100.09,38.51Z"/><path class="cls-10" d="M79.65,12.87a1.34,1.34,0,0,1-1.18-.15c-.27-.22-.18-.52.2-.66a1.31,1.31,0,0,1,1.17.15C80.11,12.44,80,12.73,79.65,12.87Z"/><path class="cls-10" d="M111.47,45.1a1.31,1.31,0,0,1-1.17-.16c-.27-.22-.18-.51.19-.65a1.31,1.31,0,0,1,1.18.15C111.94,44.66,111.85,45,111.47,45.1Z"/><path class="cls-10" d="M88.29,30.54a1.28,1.28,0,0,1-1.17-.15c-.27-.22-.18-.51.19-.65a1.31,1.31,0,0,1,1.18.15C88.76,30.11,88.67,30.4,88.29,30.54Z"/><path class="cls-10" d="M48.24,62.33a1.29,1.29,0,0,1-1.17-.15c-.27-.22-.18-.51.2-.66a1.29,1.29,0,0,1,1.17.16C48.71,61.9,48.62,62.19,48.24,62.33Z"/><path class="cls-10" d="M90.68,18a1.28,1.28,0,0,1-1.17-.15c-.27-.22-.18-.51.19-.65a1.31,1.31,0,0,1,1.18.15C91.15,17.6,91.06,17.89,90.68,18Z"/><path class="cls-10" d="M69.29,35.2a1.32,1.32,0,0,1-1.17-.15c-.27-.23-.18-.52.2-.66a1.32,1.32,0,0,1,1.17.15C69.76,34.76,69.67,35.06,69.29,35.2Z"/><path class="cls-10" d="M39.58,19a1.29,1.29,0,0,1-1.17-.15c-.27-.22-.18-.51.2-.65a1.29,1.29,0,0,1,1.17.15C40.05,18.61,40,18.9,39.58,19Z"/><path class="cls-10" d="M30.89,37.36a1.34,1.34,0,0,1-1.18-.15c-.26-.22-.18-.52.2-.66a1.34,1.34,0,0,1,1.18.15C31.35,36.93,31.27,37.22,30.89,37.36Z"/><path class="cls-10" d="M76.72,60.44a1.34,1.34,0,0,1-1.18-.15c-.26-.22-.18-.52.2-.66a1.34,1.34,0,0,1,1.18.15C77.18,60,77.1,60.3,76.72,60.44Z"/><path class="cls-10" d="M50.4,28.85a1.32,1.32,0,0,1-1.17-.15c-.27-.22-.18-.52.2-.66a1.32,1.32,0,0,1,1.17.15C50.87,28.42,50.78,28.71,50.4,28.85Z"/><path class="cls-10" d="M72.53,24.48a1.32,1.32,0,0,1-1.17-.15c-.27-.22-.18-.52.2-.66a1.32,1.32,0,0,1,1.17.15C73,24.05,72.91,24.34,72.53,24.48Z"/><path class="cls-10" d="M92.35,47a1.29,1.29,0,0,1-1.17-.16c-.27-.22-.18-.51.2-.65a1.29,1.29,0,0,1,1.17.15C92.82,46.59,92.73,46.89,92.35,47Z"/><path class="cls-10" d="M25.5,49a1.32,1.32,0,0,1-1.17-.15c-.27-.23-.18-.52.2-.66a1.29,1.29,0,0,1,1.17.15C26,48.56,25.88,48.86,25.5,49Z"/><path class="cls-10" d="M76.42,36.35a1.32,1.32,0,0,1-1.17-.15c-.27-.23-.18-.52.2-.66a1.32,1.32,0,0,1,1.17.15C76.89,35.91,76.8,36.21,76.42,36.35Z"/><path class="cls-10" d="M18.64,37.26a1.29,1.29,0,0,1-1.17-.15c-.27-.22-.18-.51.2-.65a1.29,1.29,0,0,1,1.17.15C19.11,36.83,19,37.13,18.64,37.26Z"/><path class="cls-10" d="M55,9.47a1.31,1.31,0,0,1-1.18-.15c-.26-.22-.18-.51.2-.65a1.31,1.31,0,0,1,1.18.15C55.47,9,55.39,9.33,55,9.47Z"/><path class="cls-10" d="M88.19,48.81A1.29,1.29,0,0,1,87,48.66c-.27-.22-.18-.52.2-.65a1.26,1.26,0,0,1,1.17.15C88.66,48.38,88.57,48.67,88.19,48.81Z"/><path class="cls-10" d="M29.3,31.44a1.29,1.29,0,0,1-1.17-.15c-.27-.22-.18-.51.2-.65a1.29,1.29,0,0,1,1.17.15C29.77,31,29.68,31.3,29.3,31.44Z"/><path class="cls-10" d="M90.87,58.06a1.34,1.34,0,0,1-1.18-.15c-.27-.23-.18-.52.2-.66a1.31,1.31,0,0,1,1.17.15C91.33,57.62,91.24,57.92,90.87,58.06Z"/><path class="cls-10" d="M103.83,26.17a1.34,1.34,0,0,1-1.18-.15c-.27-.23-.18-.52.2-.66a1.31,1.31,0,0,1,1.17.15C104.29,25.73,104.2,26,103.83,26.17Z"/><path class="cls-10" d="M69.66,51a1.32,1.32,0,0,1-1.17-.15c-.27-.22-.18-.52.2-.66a1.32,1.32,0,0,1,1.17.15C70.13,50.61,70,50.9,69.66,51Z"/><path class="cls-10" d="M34.34,22a1.31,1.31,0,0,1-1.18-.16c-.26-.22-.18-.51.2-.65a1.31,1.31,0,0,1,1.18.15C34.8,21.54,34.72,21.84,34.34,22Z"/><path class="cls-10" d="M33.87,42.78a1.34,1.34,0,0,1-1.18-.15c-.26-.22-.18-.52.2-.66a1.34,1.34,0,0,1,1.18.15C34.33,42.35,34.25,42.64,33.87,42.78Z"/><path class="cls-10" d="M97.39,49a1.28,1.28,0,0,1-1.18-.15c-.27-.22-.18-.51.2-.65a1.29,1.29,0,0,1,1.17.15C97.85,48.6,97.76,48.9,97.39,49Z"/><path class="cls-10" d="M77.37,19.33a1.29,1.29,0,0,1-1.17-.16c-.27-.22-.18-.51.2-.65a1.29,1.29,0,0,1,1.17.15C77.84,18.89,77.75,19.19,77.37,19.33Z"/><path class="cls-10" d="M82.1,18.48a1.29,1.29,0,0,1-1.17-.15c-.27-.22-.18-.52.2-.66a1.32,1.32,0,0,1,1.17.15C82.57,18.05,82.48,18.34,82.1,18.48Z"/><path class="cls-10" d="M37.47,39.21a1.31,1.31,0,0,1-1.18-.15c-.26-.22-.18-.52.2-.66a1.31,1.31,0,0,1,1.18.16C37.93,38.78,37.85,39.07,37.47,39.21Z"/><path class="cls-10" d="M28.61,25.14A1.32,1.32,0,0,1,27.44,25c-.27-.22-.18-.52.2-.66a1.32,1.32,0,0,1,1.17.15C29.08,24.71,29,25,28.61,25.14Z"/><path class="cls-10" d="M92.8,53.37a1.26,1.26,0,0,1-1.17-.15c-.27-.22-.18-.51.19-.65a1.31,1.31,0,0,1,1.18.15C93.27,52.94,93.18,53.23,92.8,53.37Z"/><path class="cls-10" d="M79.37,42.43a1.34,1.34,0,0,1-1.18-.15c-.27-.22-.18-.52.2-.66a1.32,1.32,0,0,1,1.17.15C79.83,42,79.74,42.29,79.37,42.43Z"/><path class="cls-10" d="M65.93,72a1.32,1.32,0,0,1-1.17-.15c-.27-.23-.18-.52.2-.66a1.32,1.32,0,0,1,1.17.15C66.4,71.51,66.31,71.81,65.93,72Z"/><path class="cls-10" d="M56,15a1.32,1.32,0,0,1-1.17-.15c-.27-.22-.18-.52.2-.66a1.32,1.32,0,0,1,1.17.15C56.45,14.6,56.36,14.89,56,15Z"/><path class="cls-10" d="M60.44,55.48a1.32,1.32,0,0,1-1.17-.15c-.27-.23-.18-.52.2-.66a1.32,1.32,0,0,1,1.17.15C60.91,55,60.82,55.34,60.44,55.48Z"/><path class="cls-10" d="M54.28,39.84a1.31,1.31,0,0,1-1.17-.16c-.27-.22-.18-.51.19-.65a1.31,1.31,0,0,1,1.18.15C54.75,39.4,54.66,39.69,54.28,39.84Z"/><path class="cls-10" d="M10.73,40.18A1.32,1.32,0,0,1,9.56,40c-.27-.23-.18-.52.2-.66a1.32,1.32,0,0,1,1.17.15C11.2,39.74,11.11,40,10.73,40.18Z"/><path class="cls-10" d="M99.14,28.69A1.29,1.29,0,0,1,98,28.54c-.27-.22-.18-.52.2-.66a1.32,1.32,0,0,1,1.17.15C99.61,28.26,99.52,28.55,99.14,28.69Z"/><path class="cls-10" d="M94.26,21.54a1.28,1.28,0,0,1-1.17-.15c-.27-.22-.18-.51.19-.66a1.31,1.31,0,0,1,1.18.16C94.73,21.11,94.64,21.4,94.26,21.54Z"/><path class="cls-10" d="M95.33,43.09a1.32,1.32,0,0,1-1.17-.15c-.27-.22-.18-.52.2-.66a1.32,1.32,0,0,1,1.17.15C95.8,42.66,95.71,43,95.33,43.09Z"/><path class="cls-10" d="M60.59,29.78a1.32,1.32,0,0,1-1.17-.15c-.27-.22-.18-.52.2-.66a1.32,1.32,0,0,1,1.17.15C61.06,29.35,61,29.64,60.59,29.78Z"/><path class="cls-10" d="M61.22,22.76a1.29,1.29,0,0,1-1.17-.15c-.27-.22-.18-.52.2-.66a1.32,1.32,0,0,1,1.17.15C61.69,22.33,61.6,22.62,61.22,22.76Z"/><path class="cls-10" d="M37.52,30.7a1.32,1.32,0,0,1-1.17-.15c-.27-.23-.18-.52.2-.66a1.32,1.32,0,0,1,1.17.15C38,30.26,37.9,30.56,37.52,30.7Z"/><path class="cls-10" d="M31.29,52.59a1.32,1.32,0,0,1-1.17-.15c-.27-.23-.18-.52.2-.66a1.32,1.32,0,0,1,1.17.15C31.76,52.15,31.67,52.45,31.29,52.59Z"/><path class="cls-10" d="M6.25,37.59a1.32,1.32,0,0,1-1.17-.15c-.27-.22-.18-.52.19-.66a1.34,1.34,0,0,1,1.18.15C6.72,37.16,6.63,37.45,6.25,37.59Z"/><path class="cls-10" d="M29.25,46.28a1.32,1.32,0,0,1-1.17-.15c-.27-.22-.18-.52.2-.66a1.32,1.32,0,0,1,1.17.15C29.72,45.84,29.63,46.14,29.25,46.28Z"/><path class="cls-10" d="M112.09,38.64a1.34,1.34,0,0,1-1.18-.15c-.26-.23-.18-.52.2-.66a1.34,1.34,0,0,1,1.18.15C112.55,38.2,112.47,38.5,112.09,38.64Z"/><path class="cls-10" d="M45.84,46.67a1.29,1.29,0,0,1-1.17-.15c-.27-.22-.18-.51.2-.65A1.29,1.29,0,0,1,46,46C46.31,46.24,46.22,46.53,45.84,46.67Z"/><path class="cls-10" d="M20.24,46.19A1.34,1.34,0,0,1,19.06,46c-.26-.23-.18-.52.2-.66a1.34,1.34,0,0,1,1.18.15C20.7,45.75,20.62,46.05,20.24,46.19Z"/><path class="cls-10" d="M38,56.75a1.32,1.32,0,0,1-1.17-.15c-.27-.22-.18-.52.2-.66a1.32,1.32,0,0,1,1.17.15C38.49,56.32,38.4,56.61,38,56.75Z"/><path class="cls-10" d="M55,20.05a1.34,1.34,0,0,1-1.18-.15c-.26-.22-.18-.52.2-.66a1.34,1.34,0,0,1,1.18.15C55.48,19.62,55.4,19.91,55,20.05Z"/></g></g></svg>