<svg xmlns="http://www.w3.org/2000/svg" viewBox="0 0 130.59 87.97"><defs><style>.cls-1{fill:#402517;}.cls-2{fill:#a36f3f;}.cls-3{fill:#4d2c1b;}.cls-4{fill:#4d2b1c;}.cls-5{fill:#73402a;}.cls-6{fill:#663925;}.cls-7{fill:#b36642;}.cls-8{fill:#945437;}.cls-9{fill:#54371b;}.cls-10{fill:#5c3a1c;}.cls-11{fill:#b37136;}</style></defs><title>Asset 91</title><g id="Layer_2" data-name="Layer 2"><g id="Layer"><polygon class="cls-1" points="65.45 87.97 130.59 50.37 130.59 45.17 65.14 11.98 0 44.92 0 50.11 65.45 87.97"/><polygon class="cls-2" points="65.45 82.78 130.59 45.17 65.14 7.31 0 44.92 65.45 82.78"/><polygon class="cls-3" points="65.45 87.97 65.45 82.78 0 44.92 0 50.11 65.45 87.97"/><polygon class="cls-4" points="65.45 82.78 130.59 45.17 130.59 39.98 65.14 6.79 0 39.73 0 44.92 65.45 82.78"/><polygon class="cls-5" points="65.45 77.59 130.59 39.98 65.14 2.12 0 39.73 65.45 77.59"/><polygon class="cls-6" points="65.45 82.78 65.45 77.59 0 39.73 0 44.92 65.45 82.78"/><polygon class="cls-5" points="126.88 42.15 130.59 40.01 130.59 37.86 65.14 4.67 61.43 2.14 61.43 4.29 126.88 42.15"/><polygon class="cls-7" points="126.88 40.01 130.59 37.86 65.14 0 61.43 2.14 126.88 40.01"/><polygon class="cls-8" points="126.88 42.15 126.88 40.01 61.43 2.14 61.43 4.29 126.88 42.15"/><polygon class="cls-6" points="119.2 46.58 122.91 44.44 122.91 42.3 57.46 9.1 53.75 6.57 53.75 8.72 119.2 46.58"/><polygon class="cls-7" points="119.2 44.44 122.91 42.3 57.46 4.43 53.75 6.57 119.2 44.44"/><polygon class="cls-8" points="119.2 46.58 119.2 44.44 53.75 6.57 53.75 8.72 119.2 46.58"/><polygon class="cls-6" points="111.52 51.01 115.23 48.87 115.23 46.73 49.78 13.53 46.07 11 46.07 13.15 111.52 51.01"/><polygon class="cls-7" points="111.52 48.87 115.23 46.73 49.78 8.86 46.07 11 111.52 48.87"/><polygon class="cls-8" points="111.52 51.01 111.52 48.87 46.07 11 46.07 13.15 111.52 51.01"/><polygon class="cls-6" points="103.84 55.44 107.55 53.3 107.55 51.15 42.1 17.96 38.39 15.43 38.39 17.58 103.84 55.44"/><polygon class="cls-7" points="103.84 53.3 107.55 51.15 42.1 13.29 38.39 15.43 103.84 53.3"/><polygon class="cls-8" points="103.84 55.44 103.84 53.3 38.39 15.43 38.39 17.58 103.84 55.44"/><polygon class="cls-6" points="96.17 59.87 99.87 57.73 99.87 55.58 34.42 22.39 30.72 19.86 30.72 22.01 96.17 59.87"/><polygon class="cls-7" points="96.17 57.73 99.87 55.58 34.42 17.72 30.72 19.86 96.17 57.73"/><polygon class="cls-8" points="96.17 59.87 96.17 57.73 30.72 19.86 30.72 22.01 96.17 59.87"/><polygon class="cls-6" points="88.49 64.3 92.2 62.16 92.2 60.01 26.75 26.82 23.04 24.29 23.04 26.44 88.49 64.3"/><polygon class="cls-7" points="88.49 62.16 92.2 60.01 26.75 22.15 23.04 24.29 88.49 62.16"/><polygon class="cls-8" points="88.49 64.3 88.49 62.16 23.04 24.29 23.04 26.44 88.49 64.3"/><polygon class="cls-6" points="80.81 68.73 84.52 66.59 84.52 64.44 19.07 31.25 15.36 28.72 15.36 30.87 80.81 68.73"/><polygon class="cls-7" points="80.81 66.59 84.52 64.44 19.07 26.58 15.36 28.72 80.81 66.59"/><polygon class="cls-8" points="80.81 68.73 80.81 66.59 15.36 28.72 15.36 30.87 80.81 68.73"/><polygon class="cls-6" points="73.13 73.16 76.84 71.02 76.84 68.88 11.39 35.68 7.68 33.15 7.68 35.3 73.13 73.16"/><polygon class="cls-7" points="73.13 71.02 76.84 68.88 11.39 31.01 7.68 33.15 73.13 71.02"/><polygon class="cls-8" points="73.13 73.16 73.13 71.02 7.68 33.15 7.68 35.3 73.13 73.16"/><polygon class="cls-6" points="65.45 77.59 69.16 75.45 69.16 73.31 3.71 40.11 0.01 37.58 0.01 39.73 65.45 77.59"/><polygon class="cls-7" points="65.45 75.45 69.16 73.31 3.71 35.44 0.01 37.58 65.45 75.45"/><polygon class="cls-8" points="65.45 77.59 65.45 75.45 0.01 37.58 0.01 39.73 65.45 77.59"/><path class="cls-9" d="M66.4,20.61a2,2,0,0,1-1.76-.23c-.4-.33-.27-.77.3-1a2,2,0,0,1,1.76.22C67.1,20,67,20.4,66.4,20.61Z"/><path class="cls-9" d="M85.84,14.91a2,2,0,0,1-1.76-.23c-.41-.33-.27-.78.29-1a2,2,0,0,1,1.76.22C86.54,14.26,86.4,14.7,85.84,14.91Z"/><path class="cls-9" d="M51.55,48a2,2,0,0,1-1.75-.22c-.41-.34-.27-.78.29-1a2,2,0,0,1,1.76.23C52.25,47.34,52.12,47.78,51.55,48Z"/><path class="cls-9" d="M15.19,44.33a2,2,0,0,1-1.76-.22c-.41-.34-.27-.78.3-1a2,2,0,0,1,1.75.22C15.89,43.68,15.75,44.12,15.19,44.33Z"/><path class="cls-9" d="M49.19,36.76a2,2,0,0,1-1.76-.23c-.4-.33-.27-.77.3-1a2,2,0,0,1,1.76.22C49.89,36.11,49.76,36.55,49.19,36.76Z"/><path class="cls-9" d="M44.37,22.13a2,2,0,0,1-1.76-.22c-.4-.34-.27-.78.3-1a2,2,0,0,1,1.75.22C45.07,21.48,44.93,21.92,44.37,22.13Z"/><path class="cls-9" d="M85,63.48a2,2,0,0,1-1.76-.23c-.41-.33-.27-.77.29-1a2,2,0,0,1,1.76.22C85.65,62.83,85.51,63.27,85,63.48Z"/><path class="cls-9" d="M45,17.55a2,2,0,0,1-1.76-.23c-.4-.34-.27-.78.3-1a2,2,0,0,1,1.76.23C45.71,16.89,45.58,17.34,45,17.55Z"/><path class="cls-9" d="M93,41.33a2,2,0,0,1-1.76-.23c-.4-.33-.27-.78.3-1a2,2,0,0,1,1.76.22C93.71,40.68,93.58,41.12,93,41.33Z"/><path class="cls-9" d="M82.49,32.3a2,2,0,0,1-1.76-.23c-.4-.33-.27-.77.3-1a2,2,0,0,1,1.76.22C83.19,31.65,83.06,32.09,82.49,32.3Z"/><path class="cls-9" d="M35.89,52.93a2,2,0,0,1-1.76-.22c-.4-.34-.27-.78.3-1a2,2,0,0,1,1.76.22C36.59,52.28,36.46,52.72,35.89,52.93Z"/><path class="cls-9" d="M66,43.44a2,2,0,0,1-1.76-.22c-.41-.34-.27-.78.29-1a2,2,0,0,1,1.76.23C66.73,42.79,66.59,43.23,66,43.44Z"/><path class="cls-9" d="M55.46,32.3a2,2,0,0,1-1.76-.23c-.4-.33-.27-.77.3-1a2,2,0,0,1,1.76.22C56.16,31.65,56,32.09,55.46,32.3Z"/><path class="cls-9" d="M41,37.88a2,2,0,0,1-1.76-.22c-.4-.34-.27-.78.3-1a2,2,0,0,1,1.76.23C41.72,37.23,41.59,37.67,41,37.88Z"/><path class="cls-9" d="M97.77,56.2A2,2,0,0,1,96,56c-.41-.33-.27-.77.29-1a2,2,0,0,1,1.76.22C98.47,55.55,98.33,56,97.77,56.2Z"/><path class="cls-9" d="M69.24,9.87a2,2,0,0,1-1.76-.23c-.4-.33-.27-.77.3-1a2,2,0,0,1,1.76.22C69.94,9.22,69.81,9.66,69.24,9.87Z"/><path class="cls-9" d="M39.5,46.11a2,2,0,0,1-1.76-.23c-.4-.33-.27-.77.3-1a2,2,0,0,1,1.76.22C40.2,45.46,40.07,45.9,39.5,46.11Z"/><path class="cls-9" d="M69.9,14.38a2,2,0,0,1-1.76-.23c-.41-.34-.27-.78.3-1a1.94,1.94,0,0,1,1.75.23C70.6,13.72,70.46,14.16,69.9,14.38Z"/><path class="cls-9" d="M74.16,56.73a2,2,0,0,1-1.76-.22c-.4-.34-.27-.78.3-1a2,2,0,0,1,1.76.23C74.86,56.08,74.73,56.52,74.16,56.73Z"/><path class="cls-9" d="M39.76,50A2,2,0,0,1,38,49.75c-.4-.33-.27-.77.3-1a2,2,0,0,1,1.76.22C40.46,49.33,40.33,49.77,39.76,50Z"/><path class="cls-9" d="M42.41,56.76a2,2,0,0,1-1.76-.22c-.4-.34-.27-.78.3-1a1.94,1.94,0,0,1,1.75.23C43.11,56.11,43,56.55,42.41,56.76Z"/><path class="cls-9" d="M63.56,68.8a2,2,0,0,1-1.75-.23c-.41-.33-.27-.77.29-1a2,2,0,0,1,1.76.23C64.26,68.14,64.13,68.59,63.56,68.8Z"/><path class="cls-9" d="M108.66,27.89a2,2,0,0,1-1.76-.23c-.4-.33-.27-.77.3-1a2,2,0,0,1,1.75.22C109.36,27.24,109.22,27.68,108.66,27.89Z"/><path class="cls-9" d="M57.52,51.21A2,2,0,0,1,55.76,51c-.41-.34-.27-.78.3-1a1.94,1.94,0,0,1,1.75.23C58.22,50.56,58.08,51,57.52,51.21Z"/><path class="cls-9" d="M105.93,43.23a2,2,0,0,1-1.76-.22c-.4-.34-.27-.78.3-1a2,2,0,0,1,1.76.22C106.63,42.58,106.5,43,105.93,43.23Z"/><path class="cls-9" d="M82.5,38.7a2,2,0,0,1-1.76-.22c-.41-.34-.27-.78.3-1a1.94,1.94,0,0,1,1.75.23C83.2,38.05,83.06,38.49,82.5,38.7Z"/><path class="cls-9" d="M72.55,20.8a2,2,0,0,1-1.76-.23c-.4-.33-.27-.77.3-1a2,2,0,0,1,1.76.22C73.25,20.15,73.12,20.59,72.55,20.8Z"/><path class="cls-9" d="M64.55,11.3a2,2,0,0,1-1.76-.23c-.4-.33-.27-.77.3-1a2,2,0,0,1,1.75.22C65.25,10.65,65.11,11.09,64.55,11.3Z"/><path class="cls-9" d="M73.49,51.47a2,2,0,0,1-1.76-.22c-.41-.34-.27-.78.29-1a2,2,0,0,1,1.76.23C74.19,50.82,74.05,51.26,73.49,51.47Z"/><path class="cls-9" d="M113.58,35.7a1.94,1.94,0,0,1-1.75-.23c-.41-.33-.27-.77.29-1a2,2,0,0,1,1.76.22C114.29,35.05,114.15,35.49,113.58,35.7Z"/><path class="cls-9" d="M56,58.79a2,2,0,0,1-1.75-.23c-.41-.34-.27-.78.29-1a2,2,0,0,1,1.76.23C56.72,58.13,56.59,58.58,56,58.79Z"/><path class="cls-9" d="M115.73,45.65a2,2,0,0,1-1.76-.22c-.4-.34-.27-.78.3-1a2,2,0,0,1,1.76.23C116.43,45,116.3,45.44,115.73,45.65Z"/><path class="cls-9" d="M74.64,68.8a2,2,0,0,1-1.76-.23c-.4-.33-.27-.77.3-1a2,2,0,0,1,1.76.23C75.34,68.14,75.21,68.59,74.64,68.8Z"/><path class="cls-9" d="M93.2,32.81a2,2,0,0,1-1.76-.23c-.4-.33-.27-.77.3-1a2,2,0,0,1,1.76.22C93.9,32.16,93.77,32.6,93.2,32.81Z"/><path class="cls-9" d="M82.14,56.05a2,2,0,0,1-1.76-.23c-.4-.33-.27-.77.3-1a2,2,0,0,1,1.75.23C82.84,55.39,82.7,55.84,82.14,56.05Z"/><path class="cls-9" d="M69,67.19A2,2,0,0,1,67.25,67c-.41-.34-.27-.78.3-1a1.94,1.94,0,0,1,1.75.23C69.71,66.54,69.57,67,69,67.19Z"/><path class="cls-9" d="M65.49,29.33a2,2,0,0,1-1.76-.23c-.4-.33-.27-.77.3-1a2,2,0,0,1,1.76.22C66.19,28.68,66.06,29.12,65.49,29.33Z"/><path class="cls-9" d="M49.56,60.67a2,2,0,0,1-1.76-.22c-.4-.34-.27-.78.3-1a1.94,1.94,0,0,1,1.75.23C50.26,60,50.13,60.46,49.56,60.67Z"/><path class="cls-9" d="M54.08,54.55a2,2,0,0,1-1.76-.23c-.41-.33-.27-.77.3-1a2,2,0,0,1,1.75.22C54.78,53.9,54.64,54.34,54.08,54.55Z"/><path class="cls-9" d="M60.94,18.28a2,2,0,0,1-1.76-.23c-.4-.33-.27-.77.3-1a2,2,0,0,1,1.76.22C61.64,17.63,61.51,18.07,60.94,18.28Z"/><path class="cls-9" d="M43.11,33.67a2,2,0,0,1-1.76-.23c-.41-.33-.27-.77.29-1a2,2,0,0,1,1.76.22C43.81,33,43.67,33.46,43.11,33.67Z"/><path class="cls-9" d="M114,30.55a1.94,1.94,0,0,1-1.75-.23c-.41-.33-.27-.77.29-1a2,2,0,0,1,1.76.22C114.7,29.9,114.57,30.34,114,30.55Z"/><path class="cls-9" d="M88.28,38.7a2,2,0,0,1-1.76-.22c-.4-.34-.27-.78.3-1a2,2,0,0,1,1.76.23C89,38.05,88.85,38.49,88.28,38.7Z"/><path class="cls-9" d="M59.8,44.16A2,2,0,0,1,58,43.93c-.4-.33-.27-.77.3-1a2,2,0,0,1,1.76.22C60.5,43.51,60.37,44,59.8,44.16Z"/><path class="cls-9" d="M59.19,13.09a1.94,1.94,0,0,1-1.75-.23c-.41-.33-.27-.77.29-1a2,2,0,0,1,1.76.22C59.9,12.44,59.76,12.88,59.19,13.09Z"/><path class="cls-9" d="M63.38,37.11a2,2,0,0,1-1.76-.23c-.4-.33-.27-.77.3-1a2,2,0,0,1,1.76.23C64.08,36.46,64,36.9,63.38,37.11Z"/><path class="cls-9" d="M107.19,35.36a2,2,0,0,1-1.76-.23c-.4-.33-.27-.77.3-1a2,2,0,0,1,1.76.23C107.89,34.71,107.76,35.15,107.19,35.36Z"/><path class="cls-9" d="M71.65,32.61a2,2,0,0,1-1.76-.22c-.4-.34-.27-.78.3-1a2,2,0,0,1,1.76.23C72.35,32,72.22,32.4,71.65,32.61Z"/><path class="cls-9" d="M68.56,57.78a2,2,0,0,1-1.76-.23c-.4-.33-.27-.77.3-1a2,2,0,0,1,1.76.23C69.26,57.13,69.13,57.57,68.56,57.78Z"/><path class="cls-9" d="M82.28,26.36a2,2,0,0,1-1.76-.23c-.4-.33-.27-.77.3-1a2,2,0,0,1,1.76.22C83,25.71,82.85,26.15,82.28,26.36Z"/><path class="cls-10" d="M65.31,25.42A1.5,1.5,0,0,1,64,25.25c-.3-.26-.2-.59.22-.75a1.5,1.5,0,0,1,1.32.17C65.84,24.93,65.74,25.26,65.31,25.42Z"/><path class="cls-10" d="M70.08,63.57a1.51,1.51,0,0,1-1.32-.17c-.3-.26-.2-.59.23-.74a1.45,1.45,0,0,1,1.32.17C70.61,63.08,70.51,63.41,70.08,63.57Z"/><path class="cls-10" d="M93.77,36.52a1.53,1.53,0,0,1-1.33-.17c-.3-.25-.2-.59.23-.74a1.48,1.48,0,0,1,1.32.17C94.29,36,94.19,36.36,93.77,36.52Z"/><path class="cls-10" d="M58.14,38.86a1.5,1.5,0,0,1-1.32-.17c-.3-.25-.2-.59.22-.74a1.44,1.44,0,0,1,1.32.17C58.67,38.37,58.57,38.7,58.14,38.86Z"/><path class="cls-10" d="M76.84,35.21A1.5,1.5,0,0,1,75.52,35c-.31-.25-.21-.59.22-.74a1.47,1.47,0,0,1,1.32.16C77.36,34.72,77.26,35.05,76.84,35.21Z"/><path class="cls-10" d="M45,26.9a1.47,1.47,0,0,1-1.32-.17c-.3-.25-.2-.58.22-.74a1.47,1.47,0,0,1,1.32.17C45.48,26.41,45.38,26.74,45,26.9Z"/><path class="cls-10" d="M63.11,6.42a1.47,1.47,0,0,1-1.32-.17c-.31-.25-.21-.58.22-.74a1.48,1.48,0,0,1,1.32.17C63.63,5.93,63.53,6.26,63.11,6.42Z"/><path class="cls-10" d="M27.24,43.31a1.47,1.47,0,0,1-1.32-.17c-.3-.25-.2-.58.22-.74a1.47,1.47,0,0,1,1.32.17C27.77,42.82,27.67,43.15,27.24,43.31Z"/><path class="cls-10" d="M70.81,46.38a1.47,1.47,0,0,1-1.32-.17c-.3-.25-.2-.58.22-.74a1.47,1.47,0,0,1,1.32.17C71.34,45.89,71.24,46.23,70.81,46.38Z"/><path class="cls-10" d="M23,29.64a1.48,1.48,0,0,1-1.32-.17c-.3-.25-.2-.58.22-.74a1.5,1.5,0,0,1,1.33.17C23.53,29.15,23.43,29.48,23,29.64Z"/><path class="cls-10" d="M103.36,51a1.47,1.47,0,0,1-1.32-.17c-.31-.25-.21-.58.22-.74a1.47,1.47,0,0,1,1.32.17C103.88,50.54,103.78,50.88,103.36,51Z"/><path class="cls-10" d="M49.38,24.75a1.51,1.51,0,0,1-1.32-.17c-.3-.25-.2-.59.23-.74a1.48,1.48,0,0,1,1.32.17C49.91,24.26,49.81,24.59,49.38,24.75Z"/><path class="cls-10" d="M89.83,26a1.47,1.47,0,0,1-1.32-.16c-.3-.26-.2-.59.22-.75a1.47,1.47,0,0,1,1.32.17C90.36,25.46,90.26,25.8,89.83,26Z"/><path class="cls-10" d="M64.52,63a1.47,1.47,0,0,1-1.32-.17c-.3-.25-.2-.58.22-.74a1.47,1.47,0,0,1,1.32.17C65.05,62.54,65,62.87,64.52,63Z"/><path class="cls-10" d="M77.47,27.2A1.48,1.48,0,0,1,76.15,27c-.3-.25-.2-.58.23-.74a1.48,1.48,0,0,1,1.32.17C78,26.71,77.9,27.05,77.47,27.2Z"/><path class="cls-10" d="M78.66,50.79a1.51,1.51,0,0,1-1.32-.17c-.3-.26-.2-.59.22-.74a1.47,1.47,0,0,1,1.33.17C79.19,50.3,79.09,50.63,78.66,50.79Z"/><path class="cls-10" d="M57.79,65.44a1.47,1.47,0,0,1-1.32-.17c-.3-.25-.2-.58.22-.74A1.47,1.47,0,0,1,58,64.7C58.32,65,58.22,65.28,57.79,65.44Z"/><path class="cls-10" d="M24.58,32.59a1.51,1.51,0,0,1-1.32-.17c-.3-.26-.2-.59.23-.74a1.45,1.45,0,0,1,1.32.17C25.11,32.1,25,32.43,24.58,32.59Z"/><path class="cls-10" d="M64.9,47.84a1.44,1.44,0,0,1-1.32-.17c-.31-.25-.21-.58.22-.74a1.5,1.5,0,0,1,1.32.17C65.42,47.35,65.32,47.69,64.9,47.84Z"/><path class="cls-10" d="M106.88,49.41a1.5,1.5,0,0,1-1.32-.17c-.31-.26-.21-.59.22-.74a1.47,1.47,0,0,1,1.32.16C107.4,48.92,107.3,49.25,106.88,49.41Z"/><path class="cls-10" d="M74.17,12.44a1.47,1.47,0,0,1-1.32-.17c-.31-.25-.21-.58.22-.74a1.47,1.47,0,0,1,1.32.17C74.69,12,74.59,12.28,74.17,12.44Z"/><path class="cls-10" d="M69.06,4.35a1.47,1.47,0,0,1-1.32-.17c-.3-.25-.2-.58.22-.74a1.47,1.47,0,0,1,1.32.17C69.59,3.86,69.49,4.19,69.06,4.35Z"/><path class="cls-10" d="M120.41,34.29a1.51,1.51,0,0,1-1.32-.17c-.3-.25-.2-.59.23-.74a1.45,1.45,0,0,1,1.32.17C120.94,33.8,120.84,34.13,120.41,34.29Z"/><path class="cls-10" d="M81,65.15A1.44,1.44,0,0,1,79.69,65c-.31-.25-.21-.58.22-.74a1.5,1.5,0,0,1,1.32.17C81.53,64.66,81.43,65,81,65.15Z"/><path class="cls-10" d="M33.26,28.56a1.5,1.5,0,0,1-1.32-.17c-.3-.25-.2-.59.22-.74a1.44,1.44,0,0,1,1.32.17C33.79,28.07,33.69,28.4,33.26,28.56Z"/><path class="cls-10" d="M49,42.61a1.47,1.47,0,0,1-1.32-.17c-.3-.25-.2-.58.22-.74a1.47,1.47,0,0,1,1.32.17C49.54,42.12,49.44,42.45,49,42.61Z"/><path class="cls-10" d="M43.21,60.52a1.48,1.48,0,0,1-1.32-.17c-.3-.25-.2-.58.22-.74a1.47,1.47,0,0,1,1.32.17C43.74,60,43.64,60.36,43.21,60.52Z"/><path class="cls-10" d="M62.51,53.06a1.5,1.5,0,0,1-1.32-.17c-.3-.25-.2-.59.22-.74a1.47,1.47,0,0,1,1.32.17C63,52.57,62.94,52.9,62.51,53.06Z"/><path class="cls-10" d="M119.43,42.16a1.47,1.47,0,0,1-1.32-.17c-.3-.25-.2-.58.22-.74a1.47,1.47,0,0,1,1.32.17C120,41.67,119.85,42,119.43,42.16Z"/><path class="cls-10" d="M34.21,36.75a1.47,1.47,0,0,1-1.32-.17c-.31-.25-.21-.58.22-.74a1.47,1.47,0,0,1,1.32.17C34.73,36.26,34.63,36.59,34.21,36.75Z"/><path class="cls-10" d="M100.83,46.08a1.5,1.5,0,0,1-1.32-.17c-.31-.25-.21-.59.22-.74a1.44,1.44,0,0,1,1.32.17C101.35,45.59,101.25,45.92,100.83,46.08Z"/><path class="cls-10" d="M86.6,22.51a1.47,1.47,0,0,1-1.32-.17c-.3-.25-.2-.58.22-.74a1.47,1.47,0,0,1,1.32.17C87.13,22,87,22.35,86.6,22.51Z"/><path class="cls-10" d="M35.35,48A1.53,1.53,0,0,1,34,47.85c-.3-.26-.2-.59.23-.74a1.48,1.48,0,0,1,1.32.16C35.87,47.53,35.77,47.86,35.35,48Z"/><path class="cls-10" d="M49.9,15.52a1.44,1.44,0,0,1-1.32-.17c-.31-.25-.21-.58.22-.74a1.5,1.5,0,0,1,1.32.17C50.42,15,50.32,15.37,49.9,15.52Z"/><path class="cls-10" d="M47.75,54a1.44,1.44,0,0,1-1.32-.17c-.3-.25-.2-.58.22-.74a1.47,1.47,0,0,1,1.32.17C48.28,53.54,48.18,53.88,47.75,54Z"/><path class="cls-10" d="M44.18,43a1.48,1.48,0,0,1-1.32-.17c-.3-.25-.2-.58.23-.74a1.48,1.48,0,0,1,1.32.17C44.71,42.5,44.61,42.83,44.18,43Z"/><path class="cls-10" d="M17.13,33.12A1.44,1.44,0,0,1,15.81,33c-.31-.25-.21-.58.22-.74a1.47,1.47,0,0,1,1.32.17C17.65,32.63,17.55,33,17.13,33.12Z"/><path class="cls-10" d="M83,48.73a1.48,1.48,0,0,1-1.32-.17c-.3-.25-.2-.58.22-.74a1.5,1.5,0,0,1,1.33.17C83.55,48.24,83.45,48.57,83,48.73Z"/><path class="cls-10" d="M86,55.12A1.45,1.45,0,0,1,84.7,55c-.3-.25-.2-.58.23-.74a1.48,1.48,0,0,1,1.32.17C86.55,54.63,86.45,55,86,55.12Z"/><path class="cls-10" d="M53.11,66.38a1.47,1.47,0,0,1-1.32-.17c-.31-.25-.21-.58.22-.74a1.47,1.47,0,0,1,1.32.17C53.63,65.89,53.53,66.22,53.11,66.38Z"/><path class="cls-10" d="M21.56,44.51a1.47,1.47,0,0,1-1.32-.17c-.31-.25-.21-.58.22-.74a1.47,1.47,0,0,1,1.32.17C22.08,44,22,44.35,21.56,44.51Z"/><path class="cls-10" d="M101.77,33.38a1.51,1.51,0,0,1-1.32-.17c-.3-.26-.2-.59.23-.75a1.51,1.51,0,0,1,1.32.17C102.3,32.88,102.2,33.22,101.77,33.38Z"/><path class="cls-10" d="M97.91,26.49a1.47,1.47,0,0,1-1.32-.17c-.31-.25-.21-.58.22-.74a1.47,1.47,0,0,1,1.32.17C98.43,26,98.33,26.33,97.91,26.49Z"/><path class="cls-10" d="M87.78,42.16A1.48,1.48,0,0,1,86.46,42c-.3-.25-.2-.58.23-.74a1.48,1.48,0,0,1,1.32.17C88.31,41.67,88.21,42,87.78,42.16Z"/><path class="cls-10" d="M58.28,70.27A1.45,1.45,0,0,1,57,70.1c-.3-.25-.2-.58.22-.74a1.53,1.53,0,0,1,1.33.17C58.81,69.78,58.71,70.12,58.28,70.27Z"/><path class="cls-10" d="M55.11,28.24a1.5,1.5,0,0,1-1.32-.17c-.3-.25-.2-.59.22-.74a1.44,1.44,0,0,1,1.32.17C55.64,27.75,55.54,28.08,55.11,28.24Z"/><path class="cls-10" d="M13,34.41a1.47,1.47,0,0,1-1.32-.17c-.31-.25-.21-.58.22-.74a1.47,1.47,0,0,1,1.32.17C13.53,33.92,13.43,34.25,13,34.41Z"/><path class="cls-10" d="M72.55,41.82a1.5,1.5,0,0,1-1.32-.17c-.31-.25-.21-.59.22-.74a1.44,1.44,0,0,1,1.32.17C73.07,41.33,73,41.66,72.55,41.82Z"/><path class="cls-10" d="M122.31,40.63a1.47,1.47,0,0,1-1.32-.17c-.31-.25-.21-.58.22-.74a1.47,1.47,0,0,1,1.32.17C122.83,40.14,122.73,40.47,122.31,40.63Z"/><path class="cls-10" d="M39,27.7a1.48,1.48,0,0,1-1.32-.17c-.3-.25-.2-.58.23-.74a1.48,1.48,0,0,1,1.32.17C39.53,27.21,39.43,27.54,39,27.7Z"/><path class="cls-10" d="M25.24,38a1.45,1.45,0,0,1-1.32-.17c-.3-.25-.2-.58.23-.74a1.48,1.48,0,0,1,1.32.17C25.77,37.46,25.67,37.8,25.24,38Z"/><path class="cls-11" d="M99.64,40.18A1.32,1.32,0,0,1,98.47,40c-.27-.23-.18-.52.2-.66a1.32,1.32,0,0,1,1.17.15C100.11,39.74,100,40,99.64,40.18Z"/><path class="cls-11" d="M79.16,10.86A1.32,1.32,0,0,1,78,10.71c-.27-.22-.18-.52.19-.66a1.34,1.34,0,0,1,1.18.15C79.63,10.43,79.54,10.72,79.16,10.86Z"/><path class="cls-11" d="M111,46.78a1.34,1.34,0,0,1-1.18-.15c-.27-.23-.18-.52.2-.66a1.34,1.34,0,0,1,1.18.15C111.51,46.34,111.42,46.64,111,46.78Z"/><path class="cls-11" d="M87.82,32.2a1.31,1.31,0,0,1-1.18-.15c-.27-.22-.18-.52.2-.66a1.31,1.31,0,0,1,1.18.16C88.29,31.77,88.2,32.06,87.82,32.2Z"/><path class="cls-11" d="M47.7,64.05a1.32,1.32,0,0,1-1.17-.15c-.27-.23-.18-.52.2-.66a1.29,1.29,0,0,1,1.17.15C48.17,63.61,48.08,63.91,47.7,64.05Z"/><path class="cls-11" d="M88.18,21.08A1.32,1.32,0,0,1,87,20.93c-.27-.23-.18-.52.19-.66a1.34,1.34,0,0,1,1.18.15C88.65,20.64,88.56,20.94,88.18,21.08Z"/><path class="cls-11" d="M68.3,36.46a1.32,1.32,0,0,1-1.17-.15c-.27-.23-.18-.52.2-.66a1.32,1.32,0,0,1,1.17.15C68.77,36,68.68,36.32,68.3,36.46Z"/><path class="cls-11" d="M38.41,21.84a1.32,1.32,0,0,1-1.17-.15c-.27-.23-.18-.52.2-.66a1.32,1.32,0,0,1,1.17.15C38.88,21.4,38.79,21.7,38.41,21.84Z"/><path class="cls-11" d="M30.05,40.13A1.31,1.31,0,0,1,28.87,40c-.27-.22-.18-.52.2-.66a1.34,1.34,0,0,1,1.18.15C30.51,39.7,30.43,40,30.05,40.13Z"/><path class="cls-11" d="M76.23,62.15A1.34,1.34,0,0,1,75.05,62c-.27-.22-.18-.52.2-.66a1.34,1.34,0,0,1,1.18.15C76.7,61.71,76.61,62,76.23,62.15Z"/><path class="cls-11" d="M50.56,29.6a1.29,1.29,0,0,1-1.17-.15c-.27-.22-.18-.51.2-.65a1.26,1.26,0,0,1,1.17.15C51,29.17,50.94,29.46,50.56,29.6Z"/><path class="cls-11" d="M72,24.83a1.32,1.32,0,0,1-1.17-.15c-.27-.23-.18-.52.2-.66a1.32,1.32,0,0,1,1.17.15C72.45,24.39,72.36,24.69,72,24.83Z"/><path class="cls-11" d="M91.77,49.36a1.34,1.34,0,0,1-1.18-.15c-.27-.23-.18-.52.2-.66A1.31,1.31,0,0,1,92,48.7C92.23,48.92,92.15,49.21,91.77,49.36Z"/><path class="cls-11" d="M24.92,50.69a1.32,1.32,0,0,1-1.17-.15c-.27-.23-.18-.52.2-.66a1.29,1.29,0,0,1,1.17.15C25.39,50.25,25.3,50.55,24.92,50.69Z"/><path class="cls-11" d="M75.09,40.13A1.29,1.29,0,0,1,73.92,40c-.27-.22-.18-.52.19-.66a1.34,1.34,0,0,1,1.18.15C75.56,39.7,75.47,40,75.09,40.13Z"/><path class="cls-11" d="M19.18,37.2A1.29,1.29,0,0,1,18,37.05c-.27-.22-.18-.51.2-.66a1.29,1.29,0,0,1,1.17.16C19.65,36.77,19.56,37.06,19.18,37.2Z"/><path class="cls-11" d="M54.61,10.62a1.32,1.32,0,0,1-1.17-.15c-.27-.22-.18-.52.2-.66a1.32,1.32,0,0,1,1.17.15C55.08,10.19,55,10.48,54.61,10.62Z"/><path class="cls-11" d="M87.72,50.5a1.29,1.29,0,0,1-1.17-.15c-.27-.22-.18-.52.2-.66a1.32,1.32,0,0,1,1.17.15C88.19,50.07,88.1,50.36,87.72,50.5Z"/><path class="cls-11" d="M28.73,33.11A1.29,1.29,0,0,1,27.56,33c-.27-.22-.18-.51.2-.65a1.26,1.26,0,0,1,1.17.15C29.2,32.67,29.11,33,28.73,33.11Z"/><path class="cls-11" d="M90.4,59.76a1.29,1.29,0,0,1-1.17-.15c-.27-.22-.18-.52.19-.66a1.34,1.34,0,0,1,1.18.15C90.87,59.33,90.78,59.62,90.4,59.76Z"/><path class="cls-11" d="M104.22,25.37a1.29,1.29,0,0,1-1.17-.16c-.27-.22-.18-.51.2-.65a1.29,1.29,0,0,1,1.17.15C104.69,24.93,104.6,25.23,104.22,25.37Z"/><path class="cls-11" d="M69.16,52.73A1.29,1.29,0,0,1,68,52.58c-.27-.22-.18-.52.19-.66a1.34,1.34,0,0,1,1.18.15C69.63,52.3,69.54,52.59,69.16,52.73Z"/><path class="cls-11" d="M32.93,24.7a1.32,1.32,0,0,1-1.17-.15c-.27-.23-.18-.52.2-.66a1.29,1.29,0,0,1,1.17.15C33.4,24.26,33.31,24.56,32.93,24.7Z"/><path class="cls-11" d="M33.3,44.46a1.32,1.32,0,0,1-1.17-.15c-.27-.22-.18-.52.2-.66a1.32,1.32,0,0,1,1.17.15C33.77,44,33.68,44.32,33.3,44.46Z"/><path class="cls-11" d="M97.85,48.68a1.34,1.34,0,0,1-1.18-.15c-.27-.22-.18-.52.2-.66A1.32,1.32,0,0,1,98,48C98.31,48.25,98.22,48.54,97.85,48.68Z"/><path class="cls-11" d="M75.42,17.6a1.34,1.34,0,0,1-1.18-.15c-.26-.23-.18-.52.2-.66a1.34,1.34,0,0,1,1.18.15C75.89,17.16,75.8,17.46,75.42,17.6Z"/><path class="cls-11" d="M81.62,20.12A1.34,1.34,0,0,1,80.44,20c-.27-.22-.18-.52.2-.66a1.34,1.34,0,0,1,1.18.15C82.09,19.69,82,20,81.62,20.12Z"/><path class="cls-11" d="M37.75,40.13A1.29,1.29,0,0,1,36.58,40c-.27-.22-.18-.52.2-.66a1.32,1.32,0,0,1,1.17.15C38.22,39.7,38.13,40,37.75,40.13Z"/><path class="cls-11" d="M27.89,25.83a1.31,1.31,0,0,1-1.18-.15c-.26-.22-.18-.52.2-.66a1.34,1.34,0,0,1,1.18.15C28.36,25.4,28.27,25.69,27.89,25.83Z"/><path class="cls-11" d="M92.34,54.18A1.34,1.34,0,0,1,91.16,54c-.27-.23-.18-.52.2-.66a1.34,1.34,0,0,1,1.18.15C92.8,53.74,92.72,54,92.34,54.18Z"/><path class="cls-11" d="M78.88,44.11A1.32,1.32,0,0,1,77.71,44c-.27-.22-.18-.52.19-.66a1.34,1.34,0,0,1,1.18.15C79.35,43.68,79.26,44,78.88,44.11Z"/><path class="cls-11" d="M65.42,73.68a1.32,1.32,0,0,1-1.17-.15c-.27-.23-.18-.52.2-.66a1.32,1.32,0,0,1,1.17.15C65.89,73.24,65.8,73.54,65.42,73.68Z"/><path class="cls-11" d="M56.06,14a1.32,1.32,0,0,1-1.17-.15c-.27-.22-.18-.52.19-.66a1.34,1.34,0,0,1,1.18.15C56.53,13.59,56.44,13.88,56.06,14Z"/><path class="cls-11" d="M59.52,57.58a1.34,1.34,0,0,1-1.18-.15c-.27-.23-.18-.52.2-.66a1.31,1.31,0,0,1,1.18.15C60,57.14,59.9,57.44,59.52,57.58Z"/><path class="cls-11" d="M10.13,41.85A1.29,1.29,0,0,1,9,41.7c-.27-.22-.18-.52.2-.66a1.29,1.29,0,0,1,1.17.16C10.6,41.42,10.51,41.71,10.13,41.85Z"/><path class="cls-11" d="M98.69,30.35a1.34,1.34,0,0,1-1.18-.15c-.27-.23-.18-.52.2-.66a1.34,1.34,0,0,1,1.18.15C99.16,29.91,99.07,30.21,98.69,30.35Z"/><path class="cls-11" d="M93.06,18.56a1.31,1.31,0,0,1-1.18-.16c-.27-.22-.18-.51.2-.65a1.31,1.31,0,0,1,1.18.15C93.53,18.12,93.44,18.42,93.06,18.56Z"/><path class="cls-11" d="M94.87,44.77a1.29,1.29,0,0,1-1.17-.15c-.27-.22-.18-.52.2-.66a1.32,1.32,0,0,1,1.17.15C95.34,44.34,95.25,44.63,94.87,44.77Z"/><path class="cls-11" d="M60.07,31.44a1.32,1.32,0,0,1-1.17-.15c-.27-.23-.18-.52.2-.66a1.32,1.32,0,0,1,1.17.15C60.54,31,60.45,31.3,60.07,31.44Z"/><path class="cls-11" d="M56.06,40.8a1.32,1.32,0,0,1-1.17-.15c-.27-.22-.18-.52.19-.66a1.34,1.34,0,0,1,1.18.15C56.53,40.37,56.44,40.66,56.06,40.8Z"/><path class="cls-11" d="M60.07,25.37a1.29,1.29,0,0,1-1.17-.16c-.27-.22-.18-.51.2-.66a1.29,1.29,0,0,1,1.17.16C60.54,24.93,60.45,25.22,60.07,25.37Z"/><path class="cls-11" d="M37.31,31a1.29,1.29,0,0,1-1.17-.16c-.27-.22-.18-.51.2-.65a1.29,1.29,0,0,1,1.17.15C37.78,30.6,37.69,30.9,37.31,31Z"/><path class="cls-11" d="M30.73,54.29a1.34,1.34,0,0,1-1.18-.16c-.27-.22-.18-.51.2-.66a1.29,1.29,0,0,1,1.17.16C31.19,53.85,31.1,54.14,30.73,54.29Z"/><path class="cls-11" d="M5.64,39.26a1.31,1.31,0,0,1-1.18-.15c-.27-.22-.18-.52.2-.66a1.34,1.34,0,0,1,1.18.15C6.11,38.83,6,39.12,5.64,39.26Z"/><path class="cls-11" d="M28.68,48.44a1.31,1.31,0,0,1-1.18-.15c-.27-.22-.18-.52.2-.66a1.34,1.34,0,0,1,1.18.15C29.15,48,29.06,48.3,28.68,48.44Z"/><path class="cls-11" d="M112.5,38.27a1.31,1.31,0,0,1-1.17-.15c-.27-.23-.19-.52.19-.66a1.31,1.31,0,0,1,1.18.15C113,37.83,112.88,38.13,112.5,38.27Z"/><path class="cls-11" d="M45.3,49.06a1.31,1.31,0,0,1-1.18-.15c-.27-.22-.18-.52.2-.66a1.34,1.34,0,0,1,1.18.15C45.77,48.63,45.68,48.92,45.3,49.06Z"/><path class="cls-11" d="M19.65,47.87a1.29,1.29,0,0,1-1.17-.15c-.27-.22-.18-.52.2-.66a1.32,1.32,0,0,1,1.17.15C20.12,47.44,20,47.73,19.65,47.87Z"/><path class="cls-11" d="M37.46,58.45a1.29,1.29,0,0,1-1.17-.15c-.27-.22-.18-.51.2-.66a1.29,1.29,0,0,1,1.17.16C37.93,58,37.84,58.31,37.46,58.45Z"/><path class="cls-11" d="M53.26,21.92a1.31,1.31,0,0,1-1.18-.15c-.27-.22-.18-.52.2-.66a1.34,1.34,0,0,1,1.18.15C53.73,21.49,53.64,21.78,53.26,21.92Z"/></g></g></svg>