<svg xmlns="http://www.w3.org/2000/svg" width="174" height="235" fill="none" viewBox="0 0 174 235">
    <path fill="#685A56" d="M53.517 41.68l-16.192-4.245s-9.763 30.27 3.826 40.662C54.739 88.472 53.517 41.68 53.517 41.68z"/>
    <path fill="#373C44" d="M0 234.387s17.117-83.979 90.755-83.979c73.639 0 83.245 83.979 83.245 83.979H0z"/>
    <path fill="#CE8282" d="M42.524 88.985c6.975-2.874 10.3-10.857 7.426-17.832-2.873-6.974-10.856-10.3-17.83-7.426-6.976 2.873-10.3 10.857-7.427 17.831 2.873 6.975 10.857 10.3 17.831 7.427zM148.43 86.03c5.334-5.334 5.334-13.982 0-19.316s-13.982-5.334-19.316 0-5.334 13.982 0 19.316 13.982 5.334 19.316 0z"/>
    <path fill="#D19582" d="M105.689 125.955l-2.306-30.356-23.702 3.248-3.877 44.365c7.825-.926 20.575-4.506 29.885-17.257z"/>
    <path fill="#E5B5A3" d="M49.517 43.724c5.921 5.956-.96 20.54-8.367 19.65-.436 7.265-.122 9.449.682 16.68 1.59 14.34 8.436 26.81 21.448 33.745 13.048 6.951 30.811 9.431 44.697 3.702 10.759-4.436 19.073-12.313 23.317-22.968 4.856-12.121 4.909-27.632 4.245-40.714-2.428-48.487-41.92-47.77-41.92-47.77S64.067 7.34 49.518 43.724zM75.821 143.23l-1.712 19.527s.699 9.764 16.489 11.615c15.789 1.852 17.658-14.637 17.658-14.637l-2.567-33.762c-9.31 12.733-22.06 16.313-29.868 17.257z"/>
    <path fill="#373C44" d="M66.687 77.975c1.34 0 2.427-2.174 2.427-4.856 0-2.681-1.087-4.855-2.427-4.855-1.341 0-2.428 2.174-2.428 4.855 0 2.682 1.087 4.856 2.428 4.856zM114.003 73.94c0 2.673-1.083 4.856-2.428 4.856s-2.428-2.166-2.428-4.856c0-2.672 1.083-4.855 2.428-4.855s2.428 2.183 2.428 4.856zM88.799 76.368c-.978.611-1.921 1.205-2.812 1.799-.839.576-1.817 1.38-1.852 1.956-.035.245.105.524.507.873.35.332.75.594 1.188.734.873.28 1.973.035 2.969-.524-.646.926-1.817 1.694-3.179 1.52-.664-.07-1.275-.402-1.782-.786-.454-.315-1.1-1.048-1.013-1.94.123-.855.647-1.396 1.118-1.78.49-.385.996-.7 1.537-.926 1.048-.507 2.184-.804 3.319-.926zM82.057 87.739c1.083.716 2.2 1.292 3.318 1.781 1.136.454 2.288.786 3.459.821 1.152.07 2.323-.157 3.406-.646 1.117-.454 2.113-1.205 3.178-1.956-.349.541-.733 1.083-1.152 1.59-.49.436-.944.96-1.555 1.274-1.135.769-2.567 1.118-3.947 1.066-2.795-.175-5.24-1.8-6.707-3.93z"/>
    <path fill="#CE8282" d="M64.276 94.48c2.817 0 5.1-2.283 5.1-5.1 0-2.816-2.283-5.1-5.1-5.1-2.817 0-5.1 2.284-5.1 5.1 0 2.817 2.283 5.1 5.1 5.1zM111.575 94.48c2.817 0 5.1-2.283 5.1-5.1 0-2.816-2.283-5.1-5.1-5.1-2.817 0-5.1 2.284-5.1 5.1 0 2.817 2.283 5.1 5.1 5.1z"/>
    <path fill="#685A56" d="M128.692 53.924c-1.31-3.878-1.817-7.982-2.987-11.895-1.153-3.93-3.126-7.842-6.55-10.078-3.441-2.253-7.842-2.515-11.912-1.939-10.881 1.537-20.278 8.262-30.636 11.93-11.44 4.035-24.19 4.244-35.754.559-4.052-1.293-8.017-3.074-11.248-5.816-6.585-5.59-9.484-15.161-7.109-23.475.437-1.502 1.048-3.004 2.201-4.07 1.135-1.065 2.917-1.59 4.314-.908 2.253 1.1 2.376 4.017 2.777 6.166.524 2.846 1.363 6.881 3.354 9.047 1.537-2.55.664-6.672.978-9.554.367-3.336 1.467-6.83 4.157-8.838.611-.454 1.345-.82 2.096-.734 1.956.245 2.183 2.952 2.096 4.926-.157 3.51.402 7.056 1.642 10.34-.192-6.06-.227-12.628 3.37-17.484.822-1.118 2.097-2.2 3.46-1.904 1.554.332 2.217 2.201 2.217 3.773.018 1.59-.331 3.249.332 4.699.769 1.659 2.707 2.532 4.541 2.55 1.834.017 3.599-.63 5.31-1.275C78.336 5.193 91.803 1.507 105.566.267c5.31-.471 10.864-.541 15.685 1.694 4.297 1.992 7.633 5.694 9.886 9.852 2.253 4.156 3.511 8.785 4.454 13.431 1.799 8.82 2.568 17.85 2.271 26.846-.07 2.358.663 9.502-3.04 9.327-3.056-.157-5.327-5.1-6.13-7.493z"/>
    <path fill="#5B66B2" d="M166.053 205.2H10.567l1.45-2.882h152.831l1.205 2.882zM171.782 222.963H3.249l.996-2.864H171.03l.751 2.864z"/>
    <path fill="#373C44" d="M104.345 63.443c.838-1.432 2.061-2.62 3.476-3.563 1.414-.943 3.074-1.572 4.803-1.764 1.729-.175 3.545.087 5.082.873 1.572.699 2.848 1.87 3.861 3.144-.769-.332-1.45-.768-2.166-1.065-.734-.28-1.433-.646-2.184-.804-1.449-.454-2.951-.593-4.401-.419-2.987.315-5.781 1.782-8.471 3.598zM74.477 62.255c-2.323-2.707-5.502-4-8.733-3.825-1.624-.018-3.249.437-4.89.856l-2.446.82c-.803.315-1.624.63-2.48.891.664-.593 1.38-1.117 2.096-1.659.75-.489 1.537-.908 2.34-1.327 1.66-.699 3.424-1.293 5.327-1.328 1.87-.052 3.808.367 5.397 1.38 1.59.978 2.865 2.48 3.389 4.192z"/>
</svg>
