<svg xmlns="http://www.w3.org/2000/svg" width="172" height="252" fill="none" viewBox="0 0 172 252">
    <path fill="#E28269" d="M0 251.248s16.883-82.829 89.513-82.829c72.631 0 82.106 82.829 82.106 82.829H0z"/>
    <path fill="#fff" d="M72.079 170.124s-15.522 15.987-2.584 27.512c12.248 10.905 19.88-5.599 19.88-5.599s-.034 10.268 12.111 9.458c12.145-.81 18.468-15.556 13.609-29.132-16.865-8.906-43.016-2.239-43.016-2.239z"/>
    <path fill="#CE8282" d="M36.815 108.847c7.44 0 13.471-6.032 13.471-13.472 0-7.44-6.031-13.472-13.471-13.472s-13.472 6.031-13.472 13.472c0 7.44 6.031 13.472 13.472 13.472zM136.871 108.847c7.44 0 13.472-6.032 13.472-13.472 0-7.44-6.032-13.472-13.472-13.472-7.44 0-13.472 6.031-13.472 13.472 0 7.44 6.032 13.472 13.472 13.472z"/>
    <path fill="#D19582" d="M104.243 144.3l-2.274-29.941-23.378 3.204-3.824 43.758c7.718-.913 20.276-4.462 29.476-17.021z"/>
    <path fill="#E5B5A3" d="M40.587 82.557c-.43 7.167-.12 9.32.672 16.452 1.568 14.144 8.32 26.444 21.155 33.284 12.87 6.856 30.39 9.302 44.085 3.652 10.612-4.376 18.812-12.145 22.999-22.654 4.789-11.956 4.84-27.254 4.186-40.157-2.395-47.823-41.346-47.117-41.346-47.117s-51.94-3.997-51.75 56.54zM74.767 161.338l-1.688 19.26s.69 9.63 16.263 11.456c15.573 1.826 17.417-14.436 17.417-14.436l-2.533-33.301c-9.182 12.542-21.74 16.091-29.459 17.021z"/>
    <path fill="#373C44" d="M68.17 92.188c0 2.635-1.069 4.789-2.395 4.789-1.327 0-2.395-2.136-2.395-4.79 0-2.635 1.068-4.788 2.395-4.788 1.326 0 2.394 2.136 2.394 4.789zM110.048 97.786c1.322 0 2.395-2.144 2.395-4.789 0-2.645-1.073-4.79-2.395-4.79-1.323 0-2.395 2.145-2.395 4.79s1.072 4.79 2.395 4.79zM87.584 95.374c-.965.604-1.895 1.19-2.773 1.775-.827.569-1.792 1.36-1.827 1.93-.034.24.104.516.5.86.345.328.74.586 1.172.724.86.276 1.946.035 2.928-.517-.637.914-1.791 1.672-3.135 1.499-.655-.069-1.258-.396-1.757-.775-.448-.31-1.086-1.034-1-1.912.121-.844.638-1.378 1.103-1.757.482-.38.982-.69 1.516-.913 1.034-.483 2.136-.776 3.273-.913zM80.935 106.607c1.068.706 2.17 1.275 3.273 1.757 1.12.448 2.257.775 3.41.81 1.138.069 2.292-.155 3.36-.637 1.103-.448 2.085-1.189 3.136-1.93-.345.534-.724 1.068-1.138 1.568-.482.43-.93.947-1.533 1.257-1.12.758-2.532 1.103-3.893 1.051-2.757-.172-5.168-1.774-6.615-3.876z"/>
    <path fill="#CE8282" d="M60.76 111.654c2.78 0 5.031-2.252 5.031-5.03 0-2.778-2.252-5.03-5.03-5.03-2.778 0-5.03 2.252-5.03 5.03 0 2.778 2.252 5.03 5.03 5.03zM112.442 113.256c2.779 0 5.031-2.252 5.031-5.03 0-2.778-2.252-5.031-5.031-5.031-2.778 0-5.03 2.253-5.03 5.031 0 2.778 2.252 5.03 5.03 5.03z"/>
    <path fill="#373C44" d="M38.417 98.303c.637-.895-16.229-74.8 50.717-75.007 63.621-.19 46.083 66.015 46.083 66.015s-27.391-16.918-30.975-43.792c.19 1.413-2.205 4.513-2.946 5.668-1.171 1.86-2.515 3.566-3.945 5.237-5.84 6.787-12.903 12.886-20.724 17.503-4.083 2.411-8.424 4.53-12.92 6.081-4.824 1.654-9.837 2.636-14.454 4.893-5.479 2.67-8.941 7.7-10.836 13.402z"/>
    <path fill="#373C44" d="M103.278 31.117s-9.94-23.636 12.007-30.01c21.948-6.374 35.178 15.935 8.958 37.504-7.649-8.063-20.965-7.494-20.965-7.494z"/>
    <path fill="#fff" d="M89.065 209.093c1.475 0 2.67-1.196 2.67-2.671 0-1.474-1.195-2.67-2.67-2.67-1.475 0-2.67 1.196-2.67 2.67 0 1.475 1.195 2.671 2.67 2.671zM89.065 224.493c1.475 0 2.67-1.195 2.67-2.67 0-1.475-1.195-2.67-2.67-2.67-1.475 0-2.67 1.195-2.67 2.67 0 1.475 1.195 2.67 2.67 2.67z"/>
</svg>
