<svg xmlns="http://www.w3.org/2000/svg" width="188" height="231" fill="none" viewBox="0 0 188 231">
    <path fill="#C66767" d="M97.369 205.455c25.102 1.038 27.631-18.817 27.518-27.649-7.927-2.511-16.854-3.945-26.857-3.945-9.74 0-18.534 1.359-26.518 3.737-.604 8.286.85 26.838 25.857 27.857z"/>
    <path fill="#EFCA6F" d="M124.906 177.806c.113 8.833-2.416 28.688-27.518 27.65-25.008-1.038-26.461-19.572-25.857-27.839C14.25 194.717 0 264.606 0 264.606h188c-.019 0-7.946-69.342-63.094-86.8z"/>
    <path fill="#373C44" d="M45.674 49.182s-18.288 18.798 0 37.747c18.289 18.93 107.429-.943 107.429-.943s13.268-26.046-8.078-44.504c-21.346-18.478-71.022-12.74-71.569-12.74-.547 0-27.782 20.44-27.782 20.44z"/>
    <path fill="#CE8282" d="M40.314 108.615c8.151 0 14.759-6.608 14.759-14.76 0-8.15-6.608-14.758-14.76-14.758-8.15 0-14.758 6.608-14.758 14.759s6.608 14.759 14.759 14.759zM149.932 108.615c8.151 0 14.759-6.608 14.759-14.76 0-8.15-6.608-14.758-14.759-14.758s-14.759 6.608-14.759 14.759 6.608 14.759 14.759 14.759z"/>
    <path fill="#D19582" d="M114.185 147.438l-2.491-32.803-25.612 3.511-4.19 47.939c8.456-1.001 22.215-4.87 32.293-18.647z"/>
    <path fill="#E5B5A3" d="M44.448 79.795c-.472 7.852-.132 10.21.736 18.024C46.9 113.315 54.3 126.79 68.36 134.283c14.098 7.512 33.293 10.192 48.297 4.001 11.626-4.793 20.61-13.305 25.196-24.818 5.247-13.099 5.304-29.858 4.587-43.995-2.624-52.393-45.297-51.62-45.297-51.62S44.24 13.493 44.448 79.796zM81.892 166.104l-1.849 21.101s.755 10.55 17.817 12.551c17.061 2 19.081-15.816 19.081-15.816l-2.775-36.483c-10.059 13.759-23.818 17.628-32.273 18.647z"/>
    <path fill="#373C44" d="M74.664 90.345c0 2.888-1.17 5.247-2.624 5.247-1.453 0-2.623-2.34-2.623-5.247 0-2.887 1.17-5.247 2.623-5.247 1.454 0 2.624 2.36 2.624 5.247zM123.169 91.233c0 2.887-1.17 5.246-2.624 5.246-1.453 0-2.623-2.34-2.623-5.246 0-2.888 1.17-5.247 2.623-5.247 1.435 0 2.624 2.359 2.624 5.246zM95.935 93.856c-1.057.66-2.076 1.302-3.039 1.943-.906.623-1.962 1.491-2 2.114-.038.264.113.567.547.944.378.359.812.642 1.284.793.943.302 2.132.037 3.208-.567-.698 1.001-1.963 1.831-3.435 1.642-.717-.075-1.378-.434-1.925-.849-.49-.34-1.189-1.132-1.095-2.095.132-.925.699-1.51 1.208-1.925.529-.415 1.076-.755 1.661-1 1.132-.548 2.34-.868 3.586-1zM88.65 106.142c1.17.774 2.377 1.397 3.585 1.925 1.227.491 2.473.85 3.737.887 1.246.076 2.51-.169 3.68-.698 1.209-.491 2.284-1.302 3.436-2.114-.378.585-.793 1.17-1.246 1.718-.528.472-1.019 1.038-1.68 1.377-1.227.831-2.774 1.208-4.265 1.152-3.02-.189-5.662-1.944-7.248-4.247z"/>
    <path fill="#CE8282" d="M69.417 109.936c3.044 0 5.511-2.467 5.511-5.511 0-3.043-2.467-5.51-5.51-5.51-3.044 0-5.512 2.467-5.512 5.51 0 3.044 2.468 5.511 5.511 5.511zM120.545 111.654c3.044 0 5.511-2.468 5.511-5.512 0-3.043-2.467-5.511-5.511-5.511-3.043 0-5.511 2.468-5.511 5.511 0 3.044 2.468 5.512 5.511 5.512z"/>
    <path fill="#373C44" d="M91.179 112.295s7.87 2.359 11.362 0c0 7.701-.51 14.892-2.831 14.269-2.322-.604-2.284-4.36-2.284-4.36s.245 6.983-2.378 6.379c-2.624-.604-2.737-8.606-2.737-8.606s0 4.964-3.039 3.737c-3.02-1.208 1.907-11.419 1.907-11.419z"/>
    <path stroke="#fff" stroke-miterlimit="10" d="M83.554 91.232s13.815-9.606 24.139 0"/>
    <path fill="#373C44" d="M64.491 59.732c-2.208 3.756-5.813 6.474-10.04 7.493-5.889 1.416-13.608 1.491-16.703-6.38C32.444 47.37 40.314 37.5 40.314 37.5s-17.93-14.627-4.53-26.178C49.185-.229 58 13.341 58 13.341S59.622 1.017 72.04.054C84.479-.909 88.65 11.322 88.65 11.322S95.82-.663 110.26 2.223c14.438 2.888 11.871 17.817 11.871 17.817s4.757-3.397 12.363-1.793c12.286 2.605 18.081 16.345 15.438 30.311-1.736 9.192.283 17.628 1.85 22.328 1.057 3.151-.585 5.624-1.85 5.379-3.284-.642-3.775-32.52-16.118-31.651-.585 7.02-3.831 18.533-13.381 15.816-2.303-.66-4.247-2.227-5.738-4.077-2.453-3.02-3.661-6.889-6.379-9.701-1.812-1.869-3.907-3.473-6.266-4.605-5.549-2.7-11.834-2.416-17.402.056-9.87 4.38-16.288 11.041-20.157 17.628z"/>
    <path fill="#373C44" d="M112.316 79.097c.623-1.831 1.888-3.303 3.379-4.492 1.529-1.17 3.435-1.982 5.454-2.19 2.02-.226 4.152.17 5.851 1.19.906.415 1.585 1.15 2.303 1.755.641.698 1.17 1.51 1.604 2.34-1.869-.49-3.416-1.094-4.964-1.321-1.51-.34-2.963-.359-4.397-.208-2.888.246-5.776 1.454-9.23 2.926zM80.062 77.681c-3.208-2.491-6.21-3.322-9.418-3.19-1.623 0-3.284.378-5.039.68-.85.245-1.774.377-2.699.604-.925.226-1.85.453-2.887.547.604-.811 1.32-1.51 2.057-2.208.774-.623 1.604-1.189 2.472-1.718 1.812-.905 3.794-1.66 5.983-1.68 2.152-.075 4.435.492 6.21 1.775 1.774 1.264 3.076 3.133 3.321 5.19z"/>
    <path stroke="#fff" stroke-miterlimit="10" d="M83.573 74.567H44.259v28.612h39.314V74.567zM146.78 75.492h-39.068v28.612h39.068V75.492z"/>
</svg>
