<svg xmlns="http://www.w3.org/2000/svg" width="117" height="90" fill="none" viewBox="0 0 117 90">
    <path fill="#fff" d="M17.898 0h-.01c-1.107 0-2.148.431-2.934 1.215-.794.793-1.232 1.848-1.232 2.972v62.78c0 2.302 1.88 4.18 4.192 4.186 9.745.023 26.073 2.054 37.336 13.841V19.293c0-.78-.2-1.514-.575-2.12C45.43 2.285 27.665.023 17.898 0zM103.278 66.968V4.187c0-1.124-.438-2.18-1.232-2.972C101.26.431 100.218 0 99.113 0h-.01C89.336.023 71.57 2.285 62.326 17.173c-.377.607-.575 1.34-.575 2.12v65.701c11.263-11.787 27.59-13.818 37.336-13.841 2.311-.006 4.191-1.884 4.191-4.185z"/>
    <path fill="#fff" d="M112.814 14.479h-3.036v52.489c0 5.878-4.789 10.67-10.676 10.685-8.266.02-21.896 1.636-31.548 10.772 16.694-4.087 34.293-1.43 44.323.855 1.252.286 2.546-.01 3.55-.809.999-.797 1.573-1.99 1.573-3.27V18.665c0-2.309-1.878-4.186-4.186-4.186zM7.222 66.968v-52.49H4.186C1.878 14.478 0 16.356 0 18.665V85.2c0 1.28.574 2.472 1.573 3.27 1.003.8 2.296 1.095 3.55.81 10.03-2.287 27.63-4.944 44.323-.856-9.652-9.136-23.282-10.752-31.548-10.771-5.887-.014-10.676-4.807-10.676-10.685z"/>
</svg>
