<svg xmlns="http://www.w3.org/2000/svg" width="929" height="598" fill="none" viewBox="0 0 929 598">
    <path fill="#EBEBEB" d="M370.175 577.287l69.397.546.688-87.596-69.397-.545-.688 87.595z"/>
    <path fill="#FAFAFA" d="M413.09 492.824l-1.237 84.814-10.96-.09 2.353-84.798 9.844.074z"/>
    <path fill="#E0E0E0" d="M331.002 492.184l39.807.313 69.4.536-69.474 9.144-.581 75.133-39.793-.313.641-84.813z"/>
    <path fill="#FAFAFA" d="M352.672 492.348l-1.579 84.813-11.81-.089 1.921-84.814 11.468.09z"/>
    <path fill="#E0E0E0" d="M384.185 466.539c0 .536-1.147 1.087-3.277 1.608-3.024.689-6.104 1.103-9.203 1.236-2.179.108-4.362.083-6.538-.074-1.192-.089-2.413-.209-3.693-.417-1.369-.195-2.722-.484-4.051-.864-.871-.264-1.71-.624-2.502-1.072-1.059-.608-1.962-1.454-2.636-2.472-.719-1.149-1.11-2.473-1.132-3.828-.01-1.002.1-2.002.328-2.978.62-3.004 1.512-5.945 2.665-8.787.681-1.576 1.53-3.074 2.532-4.468.529-.709 1.101-1.385 1.713-2.025.702-.71 1.481-1.339 2.323-1.876.962-.607 2.027-1.031 3.142-1.251 1.189-.232 2.414-.202 3.589.089 1.763.502 3.387 1.398 4.751 2.621 3.719 3.123 6.812 6.924 9.114 11.199 1.552 2.834 2.591 5.919 3.068 9.114.268 2.264 0 3.56-.506 3.679-1.117.268-2.755-4.2-7.163-9.829-2.574-3.24-5.581-6.112-8.936-8.534-.587-.489-1.273-.844-2.01-1.042-.128-.024-.26-.024-.388 0-.212.082-.413.192-.595.328-.32.226-.614.486-.879.774-.349.394-.677.807-.983 1.236-.653.938-1.216 1.935-1.683 2.979-.956 2.427-1.752 4.914-2.383 7.446-.094.357-.163.72-.208 1.087v.089h-.209c-.238 0-.312.12-.148 0l.208-.015.194.194c.313.205.647.375.997.506 1.01.369 2.039.683 3.083.939 1.072.283 2.145.521 3.187.729 2.085.417 4.066.715 5.957.968 3.679.492 6.761.82 8.936 1.236 2.174.417 3.321.939 3.336 1.475z"/>
    <path fill="#FAFAFA" d="M382.741 467.179c-.178-1.102 5.004-2.725 13.106-5.108 4.653-1.336 9.215-2.973 13.656-4.899 1.058-.419 2.058-.97 2.979-1.639.312-.268.461-.491.417-.476-.045.015-.09.313-.09.164-.133-.421-.303-.83-.506-1.221l-.998-2.071c-.618-1.299-1.32-2.558-2.1-3.767-.699-1.09-1.529-2.09-2.472-2.979-.442-.402-.91-.775-1.4-1.117-.392-.279-.817-.509-1.266-.685-.644-.292-1.367-.36-2.055-.193-.908.322-1.739.829-2.442 1.489-3.599 3.005-6.789 6.47-9.487 10.305-4.646 6.613-5.882 11.78-7.029 11.617-.506-.075-.894-1.49-.715-4.036.358-3.598 1.367-7.1 2.979-10.336 2.383-4.837 5.605-9.214 9.516-12.926 1.403-1.37 3.077-2.43 4.915-3.113 2.241-.733 4.662-.697 6.88.104 1.016.354 1.986.829 2.889 1.415.822.544 1.608 1.141 2.353 1.787 1.454 1.315 2.726 2.817 3.783 4.468.975 1.499 1.841 3.067 2.591 4.691.343.745.685 1.489 1.013 2.234.486 1.005.832 2.073 1.027 3.172.257 1.582-.015 3.205-.774 4.617-.64 1.121-1.52 2.087-2.576 2.829-1.462 1.005-3.056 1.802-4.736 2.368-4.919 1.769-10.019 2.988-15.206 3.634-8.712.998-14.073.685-14.252-.328z"/>
    <path fill="#E0E0E0" d="M318.408 492.061l101.996.801.228-28.995-101.996-.801-.228 28.995z"/>
    <path fill="#EBEBEB" d="M355.897 492.349l92.197.724.227-28.995-92.197-.724-.227 28.995z"/>
    <path fill="#FAFAFA" d="M420.017 463.888l-.655 29.13-10.753-.224.76-28.996 10.648.09zM343.617 463.441l-1.042 28.862-11.825-.089.64-29.011 12.227.238z"/>
    <path fill="#EBEBEB" d="M457.267 577.051l31.735.249.315-40.059-31.735-.25-.315 40.06z"/>
    <path fill="#FAFAFA" d="M476.876 538.426l-.565 38.795-5.004-.045 1.072-38.78 4.497.03z"/>
    <path fill="#E0E0E0" d="M439.331 538.142l18.214.134 31.721.253-31.766 4.185-.268 34.357-18.199-.149.298-38.78z"/>
    <path fill="#FAFAFA" d="M449.249 538.217l-.73 38.78-5.406-.045.894-38.78 5.242.045z"/>
    <path fill="#E0E0E0" d="M463.65 526.407c0 .506-2.085 1.177-5.704 1.415-2.211.153-4.432-.043-6.582-.581-.981-.261-1.84-.856-2.428-1.683-.342-.551-.533-1.183-.551-1.832-.005-.466.045-.931.149-1.385.289-1.384.703-2.74 1.236-4.05.316-.731.711-1.425 1.177-2.07.504-.729 1.147-1.351 1.891-1.832.47-.3.996-.503 1.546-.598.549-.095 1.112-.079 1.656.047.825.235 1.584.658 2.219 1.236 1.715 1.442 3.136 3.202 4.185 5.182 1.727 3.396 1.489 5.838 1.072 5.957-.417.12-1.34-1.906-3.381-4.467-1.179-1.455-2.546-2.747-4.065-3.843-.255-.206-.549-.358-.864-.446-.104 0-.089 0-.328.149-.314.247-.585.544-.804.878-.297.431-.552.89-.759 1.37-.433 1.097-.791 2.221-1.073 3.366-.074.253-.089.417-.104.462-.015.044 0 0 0 0h-.238c-.119 0-.149 0 0 0l.119-.09c.074 0 .134-.134.119-.104-.015.03 0 0 0 0 .13.091.27.166.417.223 1.8.58 3.649.989 5.525 1.222 3.336.595 5.57.923 5.57 1.474z"/>
    <path fill="#FAFAFA" d="M462.997 526.705c-.089-.551 2.279-1.34 5.957-2.457 2.117-.619 4.192-1.375 6.21-2.264.466-.187.907-.432 1.311-.73.134-.119.179-.208.149-.163-.03.044 0 .208 0 .163 0-.044-.387-.863-.67-1.489-.283-.625-.626-1.191-.953-1.713-.317-.477-.687-.917-1.102-1.31-.338-.333-.731-.605-1.162-.804-.261-.121-.554-.152-.834-.09-.399.128-.765.342-1.072.626-1.639 1.355-3.096 2.917-4.334 4.646-2.145 2.979-2.755 5.332-3.321 5.257-.566-.074-.864-2.755.938-6.627 1.092-2.227 2.569-4.244 4.364-5.957.649-.654 1.431-1.161 2.293-1.489 1.053-.357 2.194-.357 3.247 0 .475.172.93.397 1.355.67.389.248.758.527 1.102.834.671.601 1.262 1.287 1.757 2.04.445.698.843 1.424 1.192 2.175l.461 1.027c.231.472.397.973.492 1.49.121.757-.015 1.533-.387 2.204-.3.538-.717 1.001-1.222 1.355-.681.465-1.423.835-2.204 1.102-2.258.807-4.602 1.352-6.984 1.623-4.036.566-6.493.387-6.583-.119z"/>
    <path fill="#E0E0E0" d="M433.581 538.058l46.642.366.104-13.254-46.642-.366-.104 13.254z"/>
    <path fill="#EBEBEB" d="M450.753 538.196l42.159.331.104-13.254-42.159-.331-.104 13.254z"/>
    <path fill="#FAFAFA" d="M480.048 525.201l-.298 13.314-4.93-.105.343-13.254 4.885.045zM445.096 524.992l-.461 13.195-5.406-.045.282-13.254 5.585.104z"/>
    <path fill="#EBEBEB" d="M780.616 211.115l-59.479.467.589 75.071 59.479-.467-.589-75.071z"/>
    <path fill="#FAFAFA" d="M744.377 213.812l1.057 72.691 9.398-.06-2.026-72.69-8.429.059z"/>
    <path fill="#E0E0E0" d="M814.729 213.261l-34.119.269-59.481.461 59.54 7.834.507 64.41 34.118-.268-.565-72.706z"/>
    <path fill="#FAFAFA" d="M796.158 213.41l1.355 72.691 10.127-.075-1.653-72.69-9.829.074z"/>
    <path fill="#E0E0E0" d="M769.156 191.28c0-.581 4.111-.744 10.544-1.28 1.594-.149 3.336-.358 5.168-.671 1.913-.308 3.8-.761 5.644-1.355.674-.185 1.272-.575 1.713-1.117.193-.283.208-.908 0-1.951-.538-2.257-1.24-4.472-2.1-6.627-.433-1.001-.962-1.959-1.579-2.859-.539-.792-1.209-1.487-1.98-2.055-.264-.203-.567-.349-.89-.429-.323-.079-.659-.091-.987-.033-.815.23-1.571.631-2.219 1.176-2.929 2.201-5.514 4.826-7.669 7.789-3.679 5.138-4.736 9.114-5.332 8.936-.238 0-.298-1.117.075-2.979.613-2.617 1.617-5.127 2.978-7.446 2.027-3.478 4.659-6.565 7.774-9.114 1.034-.916 2.261-1.588 3.589-1.966.809-.186 1.647-.205 2.464-.056.817.148 1.595.461 2.287.92 1.195.793 2.23 1.803 3.053 2.978.803 1.119 1.482 2.323 2.025 3.589.957 2.358 1.704 4.794 2.234 7.283.182.72.272 1.461.268 2.204-.009.913-.272 1.805-.76 2.576-.898 1.252-2.204 2.152-3.693 2.547-3.886 1.023-7.897 1.489-11.914 1.385-6.716-.149-10.708-.953-10.693-1.445z"/>
    <path fill="#FAFAFA" d="M770.379 191.831c-.074.491-4.646.417-12.003-.73-4.351-.688-8.622-1.81-12.748-3.351-1.333-.46-2.595-1.102-3.753-1.906-.744-.525-1.364-1.206-1.817-1.995-.516-.945-.695-2.038-.507-3.098.145-.827.406-1.629.775-2.383l.879-1.876c.611-1.343 1.323-2.637 2.129-3.872.84-1.293 1.841-2.474 2.979-3.515.579-.539 1.197-1.037 1.846-1.489.686-.445 1.421-.81 2.19-1.087 1.62-.596 3.393-.627 5.033-.09 1.406.515 2.689 1.316 3.768 2.353 3.293 3.057 6.047 6.647 8.146 10.619 1.452 2.652 2.459 5.525 2.979 8.503.298 2.1.149 3.291-.089 3.321-.626.105-1.311-4.467-5.183-10.425-2.263-3.462-5-6.59-8.131-9.292-.744-.658-1.61-1.163-2.547-1.49-.867-.238-1.787-.186-2.621.149-1.017.427-1.946 1.038-2.74 1.802-.903.821-1.694 1.758-2.353 2.785-.698 1.093-1.329 2.227-1.892 3.396-.553 1.025-1.016 2.096-1.385 3.202-.079.231-.079.483 0 .714.195.318.448.595.745.819.889.612 1.849 1.112 2.859 1.49 3.872 1.608 7.853 2.937 11.914 3.976 7.149 1.862 11.631 2.904 11.527 3.47z"/>
    <path fill="#E0E0E0" d="M825.381 188.293l-87.432.686.195 24.855 87.432-.686-.195-24.855z"/>
    <path fill="#EBEBEB" d="M793.245 188.545l-79.032.621.195 24.855 79.033-.621-.196-24.855z"/>
    <path fill="#FAFAFA" d="M738.434 189.016l.566 24.96 9.218-.193-.655-24.841-9.129.074zM803.932 188.615l.878 24.751 10.142-.089-.551-24.856-10.469.194z"/>
    <path fill="#E0E0E0" d="M858.229 296.749H717.018v266.949h141.211V296.749z"/>
    <path fill="#F5F5F5" d="M816.323 296.749H675.111v266.949h141.212V296.749z"/>
    <path fill="#E0E0E0" d="M805.927 351.777h-121.21v-42.399h121.21v42.399zm-119.721-1.489h118.232v-39.421H686.206v39.421z"/>
    <path fill="#EBEBEB" d="M723.14 310.078h46.003v1.057c0 1.955-.777 3.83-2.159 5.213-1.383 1.382-3.258 2.159-5.213 2.159h-31.274c-.968 0-1.927-.191-2.821-.561-.895-.371-1.707-.914-2.392-1.598-.684-.685-1.227-1.497-1.598-2.392-.37-.894-.561-1.853-.561-2.821v-1.057h.015z"/>
    <path fill="#E0E0E0" d="M805.927 405.39h-121.21v-42.265h121.21v42.265zm-119.721-1.489h118.232v-39.287H686.206v39.287z"/>
    <path fill="#EBEBEB" d="M723.14 363.87h46.003v1.057c0 1.955-.777 3.83-2.159 5.213-1.383 1.382-3.258 2.159-5.213 2.159h-31.274c-.968 0-1.927-.191-2.821-.561-.895-.371-1.707-.914-2.392-1.598-.684-.685-1.227-1.497-1.598-2.392-.37-.894-.561-1.853-.561-2.821v-1.057h.015z"/>
    <path fill="#E0E0E0" d="M805.927 459.197h-121.21v-42.31h121.21v42.31zm-119.721-1.49h118.232v-39.331H686.206v39.331z"/>
    <path fill="#EBEBEB" d="M723.14 417.632h46.003v1.057c0 1.955-.777 3.83-2.159 5.213-1.383 1.382-3.258 2.159-5.213 2.159h-31.274c-.968 0-1.927-.191-2.821-.561-.895-.371-1.707-.914-2.392-1.598-.684-.685-1.227-1.498-1.598-2.392-.37-.894-.561-1.853-.561-2.821v-1.057h.015z"/>
    <path fill="#E0E0E0" d="M805.927 512.944h-121.21v-42.309h121.21v42.309zm-119.721-1.489h118.232v-39.331H686.206v39.331z"/>
    <path fill="#EBEBEB" d="M723.14 471.379h46.003v1.028c0 1.955-.777 3.83-2.159 5.212-1.383 1.383-3.258 2.16-5.213 2.16h-31.274c-.968 0-1.927-.191-2.821-.562-.895-.37-1.707-.913-2.392-1.598-.684-.684-1.227-1.497-1.598-2.391-.37-.895-.561-1.853-.561-2.821v-1.058l.015.03zM822.233 286.756H668.84v13.299h153.393v-13.299z"/>
    <path fill="#E0E0E0" d="M868.357 286.756h-46.123v13.299h46.123v-13.299zM682.528 563.698h-7.417v13.641h7.417v-13.641zM728.381 563.698h-7.416v13.641h7.416v-13.641zM812.137 563.698h-7.416v13.641h7.416v-13.641zM854.016 563.698H846.6v13.641h7.416v-13.641zM809.92 40.478l13.269 33.97-8.251-.045-6.612-20.88 1.594-13.045z"/>
    <path fill="#EBEBEB" d="M764.571 9.084l-4.557 65.08 47.12.998 5.301-66.078h-47.864z"/>
    <path fill="#FAFAFA" d="M769.292 14.327l-3.798 54.179 35.027 1.638 4.9-56.13-36.129.313z"/>
    <path fill="#E0E0E0" d="M776.975 21.997l-2.844 38.08h19.33l3.411-38.08h-19.897z"/>
    <path fill="#F5F5F5" d="M718.105 74.582V41.997h23.858v32.555l-23.858.03z"/>
    <path fill="#E0E0E0" d="M731.673 42.012S737.421-.06 735.813 0c-1.608.06-5.659 38.348-5.659 38.348s-.179-31.72-1.698-31.542c-1.519.179 0 33.568 0 33.568s-2.591-27.105-3.991-26.464c-1.4.64.596 28.102.596 28.102h6.612"/>
    <path fill="#EBEBEB" d="M727.324 42.012s1.996-20.969 2.651-19.539c.655 1.43 0 12.48 0 12.48s5.525-27.09 6.985-26.166c1.459.923-5.659 29.413-5.659 29.413s5.391-16.278 6.567-14.565c1.177 1.712-4.468 16.977-4.468 16.977s5.794-10.782 6.181-9.338c.387 1.445-2.815 10.738-2.815 10.738h-9.442zM723.929 42.116s-12.763-25.034-11.184-24.26c1.578.775 9.739 16.948 9.739 16.948s-5.406-15.607-4.214-16.099c1.191-.491 7.103 17.544 7.103 17.544l1.326 5.867h-2.77z"/>
    <path fill="#E0E0E0" d="M729.142 42.057l.611 32.584h-11.348l-.223-32.704 10.96.12z"/>
    <path fill="#EBEBEB" d="M718.121 44.871l10.991.179 12.852-.179.402-3.112h-24.557l.312 3.112z"/>
    <path fill="#E0E0E0" d="M861.014 73.673H693.949v8.608h167.065v-8.608z"/>
    <path fill="#EBEBEB" d="M281.294 20.15h-176.03v316.213h176.03V20.15z"/>
    <path fill="#FAFAFA" d="M272.431 29.308h-160.14v297.628h160.14V29.308z"/>
    <path fill="#F5F5F5" d="M272.446 32.823L112.291 236.538V29.308h160.155v3.515z"/>
    <path fill="#EBEBEB" d="M275.915 114.94H112.291v3.173h163.624v-3.173zM275.915 185.815H112.291v3.172h163.624v-3.172zM275.915 256.688H112.291v3.172h163.624v-3.172z"/>
    <path fill="#EBEBEB" d="M188.318 116.52v218.86h8.087V116.52h-8.087zM146.798 29.308h-3.663v87.211h3.663v-87.21zM178.414 29.308h-3.664v87.211h3.664v-87.21zM210.017 29.308h-3.663v87.211h3.663v-87.21zM241.632 29.308h-3.663v87.211h3.663v-87.21z"/>
    <path fill="#F5F5F5" d="M105.263 14.788h-7.447V338.33h7.447V14.789z"/>
    <path fill="#E0E0E0" d="M288.722 339.207l-7.431-2.844V14.788h7.431v324.419z"/>
    <path fill="#E0E0E0" d="M288.739 11.512H97.816v8.623H288.74v-8.623zM293.772 340.28H92.529v8.042h201.243v-8.042z"/>
    <path fill="#EBEBEB" d="M281.292 336.363l12.48 3.917H92.529l12.733-3.917h176.03z"/>
    <path fill="#373C44" d="M928.461 577.325c0 .223-207.855.387-464.216.387-256.36 0-464.245-.164-464.245-.387 0-.224 207.811-.387 464.245-.387 256.435 0 464.216.178 464.216.387z"/>
    <path fill="#FFA62B" d="M125.052 520.495c-2.636 3.768-7.759 2.517-10.141.223-2.383-2.293-3.381-5.629-4.289-8.816-2.1-7.253-4.2-14.893-2.651-22.265.373-2.243 1.357-4.34 2.844-6.061.752-.846 1.714-1.48 2.788-1.838 1.074-.358 2.223-.428 3.333-.202 2.591.685 4.2 3.217 5.361 5.629 3.418 7.112 5.208 14.896 5.242 22.786.25 3.685-.617 7.359-2.487 10.544"/>
    <path fill="#16697A" d="M125.052 520.495c-2.636 3.768-7.759 2.517-10.141.223-2.383-2.293-3.381-5.629-4.289-8.816-2.1-7.253-4.2-14.893-2.651-22.265.373-2.243 1.357-4.34 2.844-6.061.752-.846 1.714-1.48 2.788-1.838 1.074-.358 2.223-.428 3.333-.202 2.591.685 4.2 3.217 5.361 5.629 3.418 7.112 5.208 14.896 5.242 22.786.25 3.685-.617 7.359-2.487 10.544" opacity=".2"/>
    <path fill="#FFA62B" d="M115.164 539.572c-4.421-2.075-9.391-2.676-14.178-1.713-2.619.224-5.086 1.326-7 3.128-1.757 1.921-2.085 5.331 0 6.984 1.306.9 2.893 1.296 4.468 1.117 3.753 0 7.908-.7 10.916 1.564 1.698 1.281 2.845 3.425 4.885 4.051 1.023.24 2.097.139 3.057-.289s1.754-1.158 2.26-2.079c.97-1.879 1.184-4.059.596-6.091-.258-1.425-.845-2.77-1.713-3.928-.869-1.158-1.996-2.098-3.291-2.744zM132.29 525.901c-1.351-1.772-2.251-3.847-2.622-6.044-.371-2.198-.202-4.452.492-6.57 1.443-4.228 4.019-7.978 7.447-10.842 3.914-3.475 8.466-6.156 13.403-7.893 1.892-.754 3.922-1.099 5.957-1.013 1.026.06 2.023.369 2.903.901.88.532 1.616 1.271 2.146 2.152 1.414 2.681 0 5.957-1.4 8.593-2.574 4.692-5.511 9.173-8.787 13.404-2.636 3.395-5.644 6.746-9.665 8.28-4.021 1.534-8.176 1.355-10.306-1.489"/>
    <path fill="#373C44" d="M125.23 577.325c-.139-.561-.219-1.135-.238-1.713-.119-1.236-.268-2.8-.462-4.661-.222-2.306-.57-4.598-1.042-6.866-.621-2.755-1.452-5.458-2.488-8.086-1.023-2.623-2.417-5.086-4.14-7.313-1.394-1.817-3.174-3.302-5.212-4.348-1.409-.684-2.917-1.141-4.468-1.355-.573-.029-1.141-.114-1.698-.254.575-.061 1.154-.061 1.728 0 1.588.122 3.141.525 4.587 1.192 2.15 1.014 4.036 2.513 5.51 4.378 1.786 2.26 3.231 4.768 4.289 7.447 1.058 2.664 1.886 5.414 2.472 8.22.441 2.293.744 4.611.909 6.94.149 1.981.208 3.589.223 4.691.071.573.081 1.153.03 1.728z"/>
    <path fill="#373C44" d="M124.904 573.676c-.019-.267-.019-.536 0-.804v-2.263c0-1.966 0-4.826-.105-8.34-.178-7.059-.789-16.784-1.951-27.462-1.161-10.678-2.755-20.314-4.17-27.224-.342-1.727-.685-3.276-.997-4.646-.313-1.37-.566-2.547-.819-3.5-.254-.953-.388-1.623-.537-2.204-.067-.259-.111-.523-.134-.789.124.236.219.486.283.744.164.581.388 1.296.656 2.19.268.893.595 2.114.938 3.47.342 1.355.73 2.904 1.102 4.631 1.943 8.995 3.405 18.088 4.378 27.239 1.177 10.722 1.698 20.477 1.743 27.536 0 3.529 0 6.389-.119 8.355-.06.923-.105 1.682-.134 2.278-.009.268-.054.534-.134.789z"/>
    <path fill="#373C44" d="M124.859 554.926c-.062-.793-.062-1.589 0-2.382.089-1.49.298-3.723.73-6.419 1.175-7.031 3.175-13.899 5.957-20.462 2.728-6.603 6.628-12.657 11.511-17.871.845-.9 1.751-1.741 2.711-2.517.402-.358.774-.7 1.147-.983l1.057-.715c.63-.479 1.297-.908 1.996-1.281-2.309 1.802-4.498 3.752-6.553 5.838-4.727 5.276-8.52 11.32-11.214 17.871-1.552 3.573-2.866 7.244-3.932 10.991-1.027 3.44-1.712 6.597-2.234 9.263-.521 2.666-.774 4.855-.938 6.374-.027.769-.107 1.535-.238 2.293z"/>
    <path fill="#F7DAB2" d="M589.728 240.47s-3.187 14.788-6.91 13.105c-3.723-1.683-31.587-17.96-31.587-17.96l-14.729 13.046s48.684 34.759 60.508 28.191c11.825-6.567 14.655-28.981 14.655-28.981l-21.937-7.401z"/>
    <path fill="#F7DAB2" d="M536.503 248.676c-4.764-1.361-9.452-2.977-14.044-4.84-6.314-2.89-6.061-3.456-5.599-4.141 1.236-1.817 11.303 4.662 9.948 2.011-1.355-2.651-13.239-6.493-11.914-8.34 1.787-2.413 12.197 4.557 13.12 5.078.924.522 1.728-.789.864-1.221-1.236-.61-14.073-7.446-12.331-9.799.953-1.326 3.172.625 3.172.625s11.542 7.253 12.316 6.091c.775-1.161-5.838-5.659-8.176-7.014-2.338-1.355-2.621-2.978-1.176-3.515.983-.357 8.265 3.619 10.544 5.004 2.278 1.385 8.488 5.332 7.014.909-1.474-4.423-.953-8.385 0-9.368.953-.983 2.562-.074 2.398 1.356-.005 1.58.205 3.153.625 4.676.289 1.235.793 2.41 1.49 3.47.312.491.625.953.923 1.4 1.398 2.009 3.326 3.592 5.57 4.572"/>
    <path fill="#6C9B5E" d="M644.652 571.755l-.223-13.716 25.66-.492.476 20.06-1.593.135c-7.074.521-36.025 2.174-40.776.833-5.257-1.504 16.456-6.82 16.456-6.82z"/>
    <path fill="#fff" d="M634.005 574.733s-7.595 2.353-6.627 3.589c.968 1.236 30.292.67 43.189-.715v-.58l-34.179.968s-.893-3.232-2.383-3.262z" opacity=".4"/>
    <path fill="#373C44" d="M670.967 577.011h-.432l-1.266.104-4.661.298c-3.947.224-9.382.447-15.399.566-6.017.119-11.482.119-15.414 0l-4.676-.104h-1.266c-.148.019-.298.019-.447 0h6.389c3.932 0 9.382 0 15.399-.149 6.017-.149 11.452-.313 15.399-.476l4.661-.194h1.266l.447-.045z"/>
    <path fill="#373C44" d="M636.402 578.397c-.228-.771-.538-1.514-.923-2.219-.474-.645-1.019-1.234-1.624-1.758.777.328 1.436.883 1.891 1.593.454.71.683 1.541.656 2.384zM643.892 574.405s-.432-.387-.819-.968c-.387-.581-.64-1.102-.566-1.147.075-.044.432.387.819.968.387.581.641 1.087.566 1.147zM645.919 573.258s-.477-.193-.924-.581c-.446-.387-.774-.759-.715-.819.06-.059.462.194.924.581.461.387.804.76.715.819zM647.229 570.816c-.429.153-.885.219-1.34.194-.038.163-.135.307-.273.404-.137.096-.306.139-.473.12-.166-.02-.321-.1-.432-.225-.112-.125-.174-.288-.174-.456 0-.168.062-.33.174-.455.111-.126.266-.206.432-.225.167-.02.336.023.473.12.138.096.235.24.273.404.45-.063.909-.022 1.34.119zM647.646 569.089c-.438.301-.957.462-1.489.462-.502.088-1.018.032-1.489-.164.491-.095.99-.14 1.489-.134.492-.091.99-.145 1.489-.164z"/>
    <path fill="#373C44" d="M642.94 572.187c-.546.106-1.107.106-1.653 0-.595-.068-1.184-.187-1.758-.358-.352-.085-.693-.216-1.012-.387-.1-.053-.188-.124-.26-.211-.071-.087-.125-.188-.157-.295-.033-.123-.028-.253.014-.373.043-.119.121-.223.224-.298.622-.328 1.339-.426 2.026-.276.687.15 1.299.538 1.727 1.096.265.314.454.686.551 1.087.033.147.033.299 0 .446-.172-.509-.434-.983-.775-1.399-.398-.434-.916-.74-1.489-.879-.322-.103-.662-.142-.999-.114-.337.028-.666.123-.967.278-.253.208-.149.506.149.67.294.159.604.289.924.387.56.174 1.133.308 1.712.402 1.162.224 1.743.224 1.743.224z"/>
    <path fill="#373C44" d="M642.552 572.261c-.204-.34-.278-.742-.208-1.132.042-.436.191-.855.432-1.221.132-.248.327-.458.564-.61.238-.151.51-.239.791-.254.166.033.313.128.411.267.097.139.136.31.11.478-.031.265-.123.52-.268.744-.208.37-.463.71-.759 1.013-.246.302-.564.537-.924.685 0 0 .313-.298.76-.834.262-.305.487-.64.67-.998.223-.357.372-.983 0-1.042-.372-.06-.834.387-1.072.715-.228.324-.38.696-.447 1.087-.052.365-.072.733-.06 1.102zM670.313 569.997s-.745 0-1.892.104c-1.509.194-2.933.812-4.105 1.782-1.173.97-2.047 2.252-2.522 3.698-.372 1.117-.387 1.862-.446 1.847-.026-.173-.026-.348 0-.521.033-.47.118-.934.253-1.385.436-1.516 1.318-2.865 2.532-3.872 1.214-1.007 2.703-1.624 4.274-1.773.47-.054.944-.054 1.414 0 .313.045.492.09.492.12zM667.438 559.364c.219 1.749.328 3.509.328 5.272.103 1.756.103 3.516 0 5.272-.218-1.749-.327-3.51-.328-5.272-.102-1.756-.102-3.516 0-5.272zM658.026 575.165c-1.22.315-2.478.465-3.738.447-1.255.082-2.516.006-3.753-.224 0-.089 1.683 0 3.738-.089 2.055-.089 3.738-.253 3.753-.134z"/>
    <path fill="#373C44" d="M663.059 575.031s-.134.357-.298.744c-.164.387-.253.73-.342.73-.09 0-.134-.402 0-.849.134-.447.58-.685.64-.625zM664.906 572.633s-.089.327-.357.61-.521.447-.581.388c-.059-.06.089-.328.357-.611.269-.283.522-.447.581-.387zM667.602 571.501c0 .09-.357.09-.73.239-.372.149-.64.342-.715.283-.074-.06.134-.417.611-.581.477-.164.864-.015.834.059zM669.523 570.95c0 .089-.119.223-.327.313-.209.089-.402.089-.432 0-.03-.09.104-.224.313-.313.208-.089.417-.075.446 0z"/>
    <path fill="#16697A" d="M670.268 569.297l-25.659.09-.015-3.098 25.838 1.385-.164 1.623z" opacity=".3"/>
    <path fill="#6C9B5E" d="M580.822 567.183l2.144-13.538 25.318 3.842-2.979 19.852-1.578-.149c-7.074-.67-35.876-3.916-40.344-6.046-4.87-2.383 17.439-3.961 17.439-3.961z"/>
    <path fill="#fff" d="M569.878 568.33s-7.893 1.042-7.149 2.427c.745 1.385 29.785 5.763 42.697 6.583v-.581l-33.851-4.825s-.238-3.321-1.697-3.604z" opacity=".4"/>
    <path fill="#373C44" d="M605.873 576.803h-.446l-1.207-.149-4.646-.492c-3.917-.447-9.323-1.146-15.28-2.04-5.957-.894-11.318-1.817-15.205-2.547l-4.587-.893-1.236-.253-.432-.12h.447l1.251.194 4.602.804c3.887.656 9.263 1.49 15.205 2.458 5.942.968 11.348 1.608 15.25 2.114l4.631.596 1.266.179c.133.039.263.089.387.149z"/>
    <path fill="#373C44" d="M571.575 572.335c-.101-.795-.28-1.578-.536-2.338-.353-.717-.793-1.387-1.31-1.996.747.404 1.315 1.074 1.593 1.877.374.763.464 1.634.253 2.457zM579.633 569.67c-.074 0-.372-.462-.655-1.102-.218-.373-.345-.791-.373-1.222.09 0 .373.462.656 1.102.217.373.345.791.372 1.222zM581.881 568.895s-.417-.283-.804-.73c-.387-.447-.626-.878-.566-.938.06-.059.432.268.804.73.373.461.566.878.566.938zM583.519 566.691c-.445.104-.909.104-1.355 0-.457-.015-.904-.132-1.31-.342.445-.105.909-.105 1.355 0 .457.012.906.129 1.31.342zM584.219 565.067c-.468.207-.983.28-1.49.209-.528.011-1.048-.139-1.489-.432.499-.009.998.031 1.489.119.499-.013.998.022 1.49.104z"/>
    <path fill="#373C44" d="M579.112 567.316c-.557.015-1.112-.071-1.638-.253-.576-.159-1.134-.373-1.668-.64-.335-.15-.65-.34-.938-.566-.176-.142-.293-.343-.328-.566-.007-.124.022-.247.083-.355.06-.108.15-.197.259-.256.676-.218 1.407-.188 2.063.085.655.273 1.191.771 1.512 1.404.205.361.328.763.357 1.177.035.147.035.3 0 .447-.089-.525-.27-1.029-.536-1.49-.301-.484-.736-.872-1.251-1.117-.3-.158-.628-.254-.966-.282-.338-.028-.678.012-1 .119-.298.149-.238.476 0 .685.266.204.55.384.849.536.526.264 1.068.492 1.623.685.968.253 1.579.342 1.579.387z"/>
    <path fill="#373C44" d="M578.679 567.331c-.076-.182-.115-.377-.115-.573 0-.197.039-.392.115-.574.12-.42.334-.807.626-1.132.176-.22.404-.393.664-.503.261-.109.544-.151.825-.122.161.06.292.182.364.338.073.156.081.334.023.496-.077.254-.209.488-.387.685-.265.33-.576.621-.923.864-.293.259-.646.438-1.028.521 0 0 .372-.238.894-.685.31-.26.59-.555.834-.879.283-.312.521-.908.119-1.042s-.879.238-1.177.521c-.277.282-.486.623-.61.998-.123.351-.198.716-.224 1.087zM606.408 569.773s-.715-.178-1.892-.208c-1.518-.055-3.022.317-4.338 1.076-1.317.758-2.394 1.872-3.108 3.213-.551 1.028-.7 1.757-.759 1.742-.002-.171.023-.342.074-.506.125-.455.289-.899.492-1.325.667-1.438 1.758-2.636 3.126-3.435 1.369-.798 2.949-1.159 4.528-1.033.475.031.945.116 1.4.253.17.049.331.124.477.223zM605.366 558.783c-.08 1.763-.268 3.518-.565 5.257-.18 1.75-.473 3.486-.879 5.198.099-1.757.293-3.507.581-5.242.19-1.753.478-3.493.863-5.213zM593.439 572.782c-1.259.096-2.525.031-3.768-.193-1.255-.119-2.487-.41-3.663-.864 0-.089 1.668.268 3.708.551 2.04.283 3.723.417 3.723.506z"/>
    <path fill="#373C44" d="M598.411 573.526c0 .075-.193.328-.417.685-.223.358-.372.67-.461.655-.09-.014 0-.417.208-.819.209-.402.626-.595.67-.521zM600.646 571.472c0 .074-.164.312-.462.536-.298.223-.596.357-.641.283-.044-.075.149-.298.462-.536.313-.239.581-.343.641-.283zM603.49 570.816c0 .075-.372.001-.759.105-.388.104-.7.223-.76.164-.059-.06.209-.388.7-.477.492-.089.849.089.819.208zM605.469 570.593c0 .089-.149.193-.372.253-.223.059-.417 0-.432 0-.015 0 .149-.194.372-.253.224-.06.417-.075.432 0z"/>
    <path fill="#16697A" d="M606.482 569.103l-25.302-4.259.506-3.053 25.228 5.734-.432 1.578z" opacity=".3"/>
    <path fill="#373C44" d="M678.846 302.155l-1.579 265.4-38.452-.805-3.381-232.085-22.652 232.89-38.497-6.821 26.911-256.226 77.65-2.353z"/>
    <path fill="#455A64" d="M632.038 304.537c-.238 1.517-.352 3.051-.342 4.587-.105 2.815-.209 6.731-.268 11.035v6.091c-.087 1.703.192 3.404.819 4.989.469 1.078 1.267 1.979 2.278 2.577.354.246.776.376 1.207.372 0 0-.417-.179-1.058-.625-.87-.642-1.537-1.521-1.921-2.532-.525-1.536-.737-3.161-.625-4.781 0-1.891.074-3.931.119-6.076v-11.05c.058-1.532-.012-3.066-.209-4.587zM638.144 307.546c0 .089.536.446.551 1.37.014.242-.032.484-.133.705-.102.22-.255.413-.448.561-.245.147-.53.214-.816.193-.285-.021-.557-.13-.777-.313-.168-.103-.309-.245-.409-.415-.1-.17-.157-.362-.165-.559-.009-.196.03-.393.115-.571.084-.178.211-.332.369-.45.212-.199.471-.339.753-.407.282-.068.577-.061.856.02v-.298c-.328.164-.507.283-.477.342.03.06.223 0 .581 0h.313l-.298-.223c-.333-.199-.719-.29-1.106-.261-.387.029-.755.178-1.054.425-.258.171-.469.403-.616.676-.146.273-.223.578-.223.888 0 .309.077.614.223.887.147.273.358.505.616.676.359.264.792.406 1.236.406.445 0 .878-.142 1.237-.406.27-.227.475-.522.596-.854.12-.332.151-.689.089-1.037-.062-.449-.291-.859-.641-1.147-.178-.238-.357-.238-.372-.208z"/>
    <path fill="#6C9B5E" d="M662.152 135.09c-.135.449-.135.929-.001 1.378.135.45.398.851.758 1.152.36.301.801.49 1.267.543.467.054.938-.031 1.357-.243 1.579-.79 1.772-2.979 1.489-4.721-.283-1.743-.908-3.604-.179-5.213.73-1.138 1.646-2.145 2.711-2.978.834-.84 1.461-1.863 1.831-2.988.37-1.124.472-2.32.299-3.491-.202-1.173-.727-2.268-1.516-3.159-.789-.892-1.812-1.546-2.952-1.889-2.323-.655-5.183 0-6.91-1.623-1.251-1.222-1.326-3.217-2.294-4.662-1.489-2.263-4.676-2.621-7.372-2.249-2.695.373-5.421 1.222-8.042.566-2.204-.536-4.006-2.07-6.061-2.978-2.249-1.001-4.754-1.28-7.169-.799-2.414.481-4.621 1.698-6.315 3.484-1.695 1.786-2.795 4.054-3.148 6.49-.354 2.437.056 4.923 1.174 7.117.757 1.612 2.06 2.905 3.678 3.649"/>
    <path fill="#1A1B41" d="M662.152 135.09c-.135.449-.135.929-.001 1.378.135.45.398.851.758 1.152.36.301.801.49 1.267.543.467.054.938-.031 1.357-.243 1.579-.79 1.772-2.979 1.489-4.721-.283-1.743-.908-3.604-.179-5.213.73-1.138 1.646-2.145 2.711-2.978.834-.84 1.461-1.863 1.831-2.988.37-1.124.472-2.32.299-3.491-.202-1.173-.727-2.268-1.516-3.159-.789-.892-1.812-1.546-2.952-1.889-2.323-.655-5.183 0-6.91-1.623-1.251-1.222-1.326-3.217-2.294-4.662-1.489-2.263-4.676-2.621-7.372-2.249-2.695.373-5.421 1.222-8.042.566-2.204-.536-4.006-2.07-6.061-2.978-2.249-1.001-4.754-1.28-7.169-.799-2.414.481-4.621 1.698-6.315 3.484-1.695 1.786-2.795 4.054-3.148 6.49-.354 2.437.056 4.923 1.174 7.117.757 1.612 2.06 2.905 3.678 3.649" opacity=".6"/>
    <path fill="#F7DAB2" d="M648.794 192.322c-1.773 0-3.528-.352-5.164-1.035-1.636-.683-3.12-1.683-4.367-2.944-1.247-1.26-2.231-2.755-2.895-4.399-.665-1.643-.997-3.402-.978-5.175l.179-12.733s-10.708-1.072-11.408-11.676c-.7-10.603-.208-35.057-.208-35.057 5.881-2.903 12.43-4.189 18.973-3.726 6.543.463 12.844 2.659 18.258 6.362l1.638 1.132-.804 56.086c-.061 3.482-1.476 6.804-3.945 9.261-2.468 2.458-5.797 3.858-9.279 3.904z"/>
    <path fill="#373C44" d="M626.826 138.5c.381-.052.731-.241.984-.531.253-.29.392-.662.392-1.047 0-.385-.139-.757-.392-1.047-.253-.29-.603-.479-.984-.532h-.268c-.382.053-.731.242-.984.532-.253.29-.392.662-.392 1.047 0 .385.139.757.392 1.047.253.29.602.479.984.531.088.017.179.017.268 0z"/>
    <path fill="#373C44" d="M624.742 135.551c.179.164 1.177-.685 2.636-.774 1.46-.09 2.562.61 2.725.417.164-.194-.119-.417-.595-.745-.652-.409-1.416-.602-2.183-.552-.768.051-1.5.343-2.091.835-.432.387-.566.73-.492.819zM641.645 135.477c-.338.233-.569.591-.643.995-.074.403.015.82.248 1.157.233.338.591.569.995.643.403.074.82-.015 1.157-.248.168-.115.31-.263.421-.433.11-.171.186-.361.222-.561.037-.2.034-.405-.009-.604-.042-.198-.124-.387-.239-.554-.115-.167-.263-.31-.433-.42-.171-.111-.361-.186-.561-.223-.2-.037-.405-.034-.604.009-.199.043-.387.124-.554.239z"/>
    <path fill="#373C44" d="M640.69 135.552c.179.164 1.177-.685 2.636-.775 1.46-.089 2.562.611 2.711.417.149-.193-.105-.417-.596-.744-.649-.408-1.411-.601-2.176-.55-.765.051-1.494.342-2.083.833-.447.387-.581.729-.492.819zM635.492 147.913c-.77-.249-1.574-.375-2.383-.372-.387 0-.685-.09-.73-.283-.029-.385.043-.77.209-1.117l.998-2.979c.955-2.576 1.653-5.239 2.085-7.953-1.213 2.464-2.176 5.044-2.875 7.7-.327 1.042-.625 2.055-.938 3.053-.208.505-.25 1.063-.119 1.593.062.146.158.274.28.375.122.101.266.172.42.206.218.028.438.028.655 0 .806.068 1.618-.008 2.398-.223z"/>
    <path fill="#E8A7A7" d="M635.598 165.887c4.902-.175 9.641-1.809 13.611-4.691 0 0-2.844 7.819-13.492 7.447l-.119-2.756z"/>
    <path fill="#6C9B5E" d="M623.937 121.984s6.404 3.262 14.893-.774c5.57-2.651 12.033-3.872 13.403-2.741 1.37 1.132 1.594 6.836 7.03 8.608 0 0-.596 10.842 3.738 10.544 4.333-.298 1.965-17.171 1.965-17.171l-10.424-5.376-11.602-2.398-10.916 1.311-8.444 2.144.357 5.853z"/>
    <path fill="#000" d="M623.937 121.984s6.404 3.262 14.893-.774c5.57-2.651 12.033-3.872 13.403-2.741 1.37 1.132 1.594 6.836 7.03 8.608 0 0-.596 10.842 3.738 10.544 4.333-.298 1.965-17.171 1.965-17.171l-10.424-5.376-11.602-2.398-10.916 1.311-8.444 2.144.357 5.853z" opacity=".6"/>
    <path fill="#F7DAB2" d="M662.301 134.122c.178 0 7.178-2.547 7.342 4.721.164 7.268-7.164 5.957-7.178 5.719-.015-.239-.164-10.44-.164-10.44z"/>
    <path fill="#E8A7A7" d="M664.565 141.792s.119.089.342.178c.301.122.638.122.939 0 .463-.308.835-.734 1.078-1.234.244-.5.349-1.056.307-1.61.007-.622-.125-1.238-.388-1.802-.075-.226-.204-.43-.375-.596-.171-.166-.379-.289-.607-.357-.146-.033-.299-.014-.433.054-.133.068-.238.181-.297.318-.104.194 0 .343-.09.358-.089.014-.148-.12-.104-.417.033-.184.134-.349.283-.462.193-.156.438-.231.685-.209.302.053.584.182.822.375.237.192.421.443.533.727.325.62.489 1.311.477 2.011.052.647-.089 1.294-.404 1.861-.316.567-.792 1.029-1.368 1.326-.195.06-.4.076-.602.045-.201-.031-.393-.108-.56-.224-.223-.193-.268-.342-.238-.342z"/>
    <path fill="#6C9B5E" d="M665.949 111.381c-.826-.292-1.733-.254-2.532.104-.415.121-.803.323-1.14.594-.337.271-.618.606-.826.985.655-.488 1.359-.907 2.1-1.251.783-.221 1.586-.365 2.398-.432zM661.57 107.032c-.119 0 .075 1.489-.178 3.351-.216 1.092-.556 2.157-1.013 3.172.255-.224.463-.498.611-.804.383-.72.64-1.501.759-2.309.205-1.135.144-2.302-.179-3.41z"/>
    <path fill="#16697A" d="M665.949 111.381c-.826-.292-1.733-.254-2.532.104-.415.121-.803.323-1.14.594-.337.271-.618.606-.826.985.655-.488 1.359-.907 2.1-1.251.783-.221 1.586-.365 2.398-.432zM661.57 107.032c-.119 0 .075 1.489-.178 3.351-.216 1.092-.556 2.157-1.013 3.172.255-.224.463-.498.611-.804.383-.72.64-1.501.759-2.309.205-1.135.144-2.302-.179-3.41z" opacity=".6"/>
    <path fill="#6C9B5E" d="M677.446 247.245l15.607.626s10.201-54.954-13.642-64.321c-4.755-1.493-9.677-2.394-14.654-2.681l.253-9.278s-13.984 1.296-17.707 10.291c0 0-4.632-10.618-13.627-11.497v10.082c-5.346.298-19.777 4.915-20.849 5.496-2.2.825-4.191 2.124-5.833 3.804-1.642 1.681-2.895 3.702-3.669 5.92-1.489 3.902 4.632 29.443 4.632 29.443l1.683 37.231-4.87 42.042 74.463-1.921-1.758-38.006-.253-33.061"/>
    <path fill="#373C44" d="M640.618 200.841c0-.09-.595-.358-1.31.253-.21.184-.373.415-.476.673-.104.259-.145.539-.12.816.055.348.216.671.461.924.246.253.563.425.909.491.341.094.703.079 1.034-.044.332-.123.616-.347.813-.641.138-.237.22-.503.238-.777.018-.274-.028-.548-.134-.802-.372-.863-1.087-.893-1.072-.804.015.089.417.328.551.983.044.169.051.346.02.519-.03.172-.098.335-.199.479-.126.155-.294.27-.485.331-.19.061-.394.065-.587.011-.198-.036-.382-.128-.53-.265-.148-.137-.253-.314-.304-.509-.027-.175-.015-.353.034-.523.048-.169.133-.326.249-.46.402-.551.908-.536.908-.655zM637.756 228.54c0-.074-.596-.357-1.311.269-.15.171-.264.371-.336.587-.072.216-.1.444-.083.671.018.227.08.448.184.651.104.202.248.382.422.529.174.146.376.257.593.324.218.068.447.092.673.07.227-.022.447-.089.647-.197.201-.107.378-.254.521-.431.139-.24.22-.509.238-.785.018-.276-.027-.553-.134-.809-.387-.864-1.087-.893-1.072-.789.015.104.417.313.551.968.04.172.045.35.014.524-.03.174-.096.341-.193.489-.131.152-.303.264-.495.322-.193.058-.398.06-.592.005-.198-.031-.383-.122-.529-.26-.146-.138-.247-.318-.29-.514-.025-.174-.014-.35.032-.519.046-.17.127-.327.236-.464.417-.521.924-.521.924-.641zM636.001 255.586s-.596-.358-1.326.268c-.149.171-.264.371-.336.587-.071.216-.099.444-.082.671.017.227.08.449.184.651.104.203.247.383.421.529.175.147.376.257.594.325.217.067.446.091.673.069.226-.022.446-.088.647-.196.2-.108.377-.255.521-.432.144-.237.23-.505.251-.782.02-.277-.025-.555-.132-.811-.387-.864-1.087-.894-1.073-.79.015.105.403.313.551.968.075.348.011.711-.178 1.013-.132.152-.304.264-.496.322-.193.058-.398.06-.591.006-.2-.035-.384-.126-.532-.264-.148-.137-.253-.315-.302-.511-.023-.174-.01-.352.039-.521.048-.169.131-.326.244-.462.417-.521.908-.521.923-.64zM634.213 285.028c0-.09-.596-.358-1.311.253-.21.183-.374.414-.477.673-.104.259-.145.539-.119.816.065.345.228.663.471.916.242.253.553.429.894.508.342.079.699.057 1.028-.063.329-.121.615-.335.824-.616.139-.237.22-.503.238-.777.018-.274-.027-.549-.133-.802-.388-.864-1.088-.908-1.073-.804.015.104.417.313.551.968.045.172.052.351.021.526-.031.175-.099.341-.199.487-.126.155-.295.27-.486.328-.191.059-.396.058-.587-.001-.198-.031-.382-.12-.53-.255-.148-.135-.254-.31-.304-.504-.026-.176-.016-.355.031-.527.046-.172.127-.332.237-.471.417-.551.924-.536.924-.655zM638.77 299.652c.081-.397.12-.801.119-1.206 0-.849.119-1.995.194-3.425.149-3.068.372-7.446.625-12.659.551-10.663 1.489-25.406 2.696-41.699 1.206-16.292 2.561-30.976 3.499-41.625.462-5.272.834-9.561 1.102-12.614.105-1.489.194-2.576.254-3.44.039-.396.039-.795 0-1.191-.101.385-.165.779-.194 1.176-.104.864-.238 1.996-.417 3.426-.328 3.053-.774 7.327-1.34 12.584-1.073 10.648-2.472 25.317-3.723 41.625-1.251 16.307-2.056 31.021-2.458 41.699-.208 5.346-.342 9.665-.387 12.658v3.44c-.025.418-.015.836.03 1.251zM648.613 127.927c-.312.581-1.98.283-3.916.342-1.936.06-3.589.358-3.917-.208-.149-.268.119-.775.819-1.236.922-.566 1.979-.875 3.061-.893 1.082-.018 2.149.254 3.09.789.7.446.997.923.863 1.206zM631.535 127.822c-.268.596-1.683.536-3.292.581-1.608.045-2.978.104-3.306-.477-.327-.58 1.102-1.831 3.277-1.846 2.174-.015 3.619 1.191 3.321 1.742zM645.143 148.567c-.149.179-.894-.208-1.877-.208s-1.757.343-1.891.164c-.134-.179.61-.968 1.891-.938 1.281.029 2.026.834 1.877.982z"/>
    <path fill="#373C44" d="M643.358 147.868c.089 0 .089.492-.179 1.177-.392.891-1.027 1.655-1.832 2.204-.795.563-1.737.884-2.71.923-.745 0-1.177-.149-1.162-.253 1.2-.265 2.355-.707 3.425-1.311 1.698-1.131 2.234-2.859 2.458-2.74z"/>
    <path fill="#6C9B5E" d="M610.908 186.871s-7.253 2.353-12.853 19.718c-3.505 11.101-6.286 22.419-8.325 33.881l21.907 7.446 8.176-49.875-8.905-11.17z"/>
    <path fill="#F7DAB2" d="M594.465 295.185c1.288.906 2.697 1.628 4.185 2.144 1.178.465 2.427.727 3.693.775h1.668c2.452.006 4.856-.675 6.94-1.966 9.159-5.674 36.785-22.905 41.476-27.253 5.629-5.243 17.096-59.362 17.096-59.362l23.531 2.427s-9.293 47.939-19.361 69.132c-6.374 13.477-60.404 34.565-60.449 34.595-3.815 3.135-7.792 6.068-11.914 8.787-5.957 3.559-6.299 2.978-6.597 2.263-.789-2.07 10.261-6.657 7.312-7.044-2.949-.387-12.867 7.193-13.612 5.004-.953-2.845 10.708-7.446 11.661-7.908.953-.462.328-1.862-.521-1.4-1.206.67-14.103 7.357-15.086 4.557-.536-1.489 2.323-2.249 2.323-2.249s12.54-5.361 12.033-6.671c-.506-1.311-7.982 1.593-10.424 2.74-2.443 1.147-3.947.461-3.56-1.028.253-1.012 7.67-4.736 10.112-5.823 2.443-1.087 9.219-3.946 4.736-5.257-4.483-1.31-7.446-3.991-7.729-5.272-.018-.295.053-.589.203-.844.151-.255.373-.459.64-.587.267-.128.566-.173.859-.131.292.043.566.172.785.371z"/>
    <path fill="#6C9B5E" d="M679.412 183.491s-10.663 4.17-13.269 18.824c-2.606 14.654-8.727 40.806-8.727 40.806l35.638 4.691s11.333-61.551-13.642-64.321z"/>
    <path fill="#373C44" d="M693.054 247.871c-.226.042-.459.042-.685 0l-1.936-.179-7.163-.804-23.992-2.978h-.387v-.417c.208-1.207.417-2.487.625-3.783 1.713-10.306 3.306-19.628 4.468-26.375.596-3.291 1.087-5.957 1.489-7.982.164-.864.313-1.579.432-2.16.032-.255.097-.505.194-.744.039.256.039.518 0 .774-.075.581-.179 1.311-.283 2.189-.313 2.011-.715 4.721-1.207 8.013-1.057 6.776-2.561 16.113-4.259 26.419-.223 1.311-.432 2.591-.64 3.798l-.387-.581 23.947 3.246 7.133 1.043 1.921.328c.251.034.496.099.73.193zM609.79 264.983c-.224 0-.388-12.808-.388-28.594 0-15.786.164-28.608.388-28.608.223 0 .387 12.807.387 28.608s-.179 28.594-.387 28.594z"/>
    <path fill="#E8A7A7" d="M537.011 242.167c-.089 0 0-.774.715-1.712.477-.61 1.088-1.101 1.785-1.437.697-.336 1.462-.506 2.236-.499l-.224.699c-1.253-.885-2.167-2.173-2.591-3.648-.298-1.117-.179-1.847-.089-1.847.089 0 .208.685.61 1.668.528 1.275 1.399 2.378 2.517 3.187l.968.715h-1.266c-1.351 0-2.646.536-3.604 1.489-.685.79-.863 1.43-1.057 1.385z"/>
    <path fill="#FAFAFA" d="M695.152 208.808l-.238.119c-.231.1-.47.18-.715.239-.969.264-1.977.359-2.978.283-2.606-.149-6.106-1.579-10.246-3.441-2.205-1.084-4.551-1.851-6.97-2.278-2.785-.453-5.63-.372-8.384.238-5.868 1.132-11.915 4.036-18.557 6.106-3.251 1.091-6.653 1.668-10.082 1.713-3.2-.079-6.359-.74-9.323-1.951-5.644-2.189-10.424-4.945-14.758-6.091-3.407-1.092-7.038-1.291-10.544-.581-1.264.34-2.491.804-3.664 1.385.273-.211.562-.4.864-.566.861-.476 1.776-.846 2.725-1.102 3.556-.85 7.274-.731 10.768.342 4.468 1.103 9.278 3.828 14.892 5.957 2.891 1.166 5.969 1.797 9.085 1.862 3.345-.035 6.665-.583 9.844-1.623 6.597-2.041 12.644-4.945 18.645-6.076 2.84-.588 5.763-.644 8.623-.164 2.47.464 4.862 1.276 7.104 2.412 4.11 1.936 7.446 3.411 10.037 3.649 1.306.077 2.616-.07 3.872-.432zM609.46 237.61c0 .119-1.102-.402-2.904-.893-4.702-1.275-9.714-.694-13.999 1.623-1.639.894-2.532 1.638-2.621 1.489.632-.82 1.428-1.5 2.338-1.995 2.138-1.332 4.543-2.176 7.044-2.473 2.51-.297 5.054-.027 7.446.79.99.294 1.908.791 2.696 1.459zM658.638 249.673s-.551-.462-1.653-1.102c-1.574-.864-3.318-1.372-5.109-1.489-2.672-.157-5.351.171-7.908.968-2.978.774-6.076 2.01-9.59 2.68-3.287.674-6.657.839-9.993.492-2.724-.306-5.385-1.024-7.893-2.13-1.685-.748-3.291-1.661-4.796-2.725-.546-.37-1.046-.805-1.489-1.296 2.103 1.318 4.292 2.492 6.553 3.515 2.478 1.017 5.092 1.664 7.759 1.921 3.265.301 6.557.121 9.769-.536 3.44-.64 6.583-1.862 9.561-2.621 2.639-.791 5.405-1.064 8.147-.804 1.859.172 3.648.796 5.212 1.817.421.273.811.593 1.162.953.178.193.297.342.268.357zM641.927 275.631c0 .134-2.13 0-5.54.342-4.432.378-8.8 1.309-13.001 2.77-4.21 1.468-8.214 3.47-11.914 5.957-2.83 1.921-4.468 3.321-4.468 3.217.302-.403.652-.768 1.042-1.087 1.011-.915 2.07-1.775 3.173-2.577 3.64-2.677 7.654-4.805 11.914-6.314 4.26-1.496 8.714-2.368 13.224-2.591 1.359-.087 2.722-.087 4.081 0 .508.018 1.01.114 1.489.283zM678.847 293.696c-2.434.732-5.035.696-7.447-.105-2.464-.545-4.706-1.822-6.433-3.663 2.115 1.19 4.333 2.187 6.627 2.978 2.386.499 4.815.764 7.253.79zM694.617 234.468c-1.617-.515-3.334-.627-5.004-.328-1.804.375-3.548.996-5.183 1.847-2.038 1.088-4.184 1.961-6.404 2.606-4.121 1.052-8.462.844-12.465-.596-1.191-.441-2.338-.994-3.425-1.653-.759-.491-1.147-.804-1.117-.849.03-.044 1.713 1.013 4.721 1.981 3.92 1.234 8.104 1.363 12.093.372 2.173-.641 4.282-1.484 6.299-2.516 1.701-.842 3.519-1.424 5.392-1.728 1.278-.195 2.583-.114 3.827.238.466.104.9.319 1.266.626zM673.113 182.239c-.501.339-1.041.614-1.609.82l-4.467 1.965c-2.218 1.045-4.553 1.82-6.955 2.309-1.457.242-2.946.217-4.393-.075-1.49-.298-2.979-.804-4.468-1.206-2.866-.626-5.82-.747-8.727-.358-2.439.288-4.909.177-7.312-.327-1.64-.36-3.155-1.146-4.394-2.279-.33-.309-.621-.66-.863-1.042-.164-.268-.239-.402-.224-.417.015-.015.417.506 1.281 1.236 1.259.996 2.741 1.67 4.319 1.966 2.36.424 4.772.474 7.148.149 2.974-.439 6.002-.328 8.936.327 1.489.402 2.978.909 4.467 1.207 1.363.286 2.766.321 4.141.104 2.354-.442 4.652-1.147 6.85-2.1l4.572-1.742c.547-.235 1.116-.415 1.698-.537z"/>
    <path fill="#373C44" d="M649.954 178.338c.886-.216 1.82-.094 2.621.343.844.492 1.499 1.252 1.862 2.159.24.539.434 1.097.58 1.668.09.298.164.611.254.923.067.395.236.764.491 1.073.179.193.423.315.685.342.226.01.451-.036.655-.134.358-.149.611-.283.909-.417l1.638-.819 2.77-1.4c.882-.384 1.708-.885 2.457-1.489-.94.198-1.848.529-2.695.983l-2.83 1.251-1.668.774-.864.387c-.268.105-.372.09-.491 0-.272-.524-.462-1.086-.566-1.667-.177-.61-.406-1.203-.685-1.773-.45-1.02-1.247-1.849-2.249-2.338-.674-.331-1.442-.42-2.174-.253-.507.134-.715.357-.7.387zM633.529 179.901c1.866 1.862 3.9 3.547 6.076 5.034l.492.372.119-.61.134-.804c.165-1.981.964-3.856 2.279-5.347.618-.54 1.317-.982 2.07-1.31-.448-.046-.901.011-1.324.166-.423.154-.806.403-1.119.727-.741.631-1.331 1.419-1.727 2.308-.449 1.064-.765 2.18-.938 3.321l-.134.805.61-.253c-2.039-1.667-4.228-3.143-6.538-4.409z"/>
    <path fill="#16697A" d="M664.876 180.602s-9.456 9.754-10.782 8.31c-1.325-1.445-1.891-10.827-5.748-8.936.258-.434.603-.809 1.013-1.104.41-.295.876-.502 1.37-.608 1.489-.149 3.827-.373 5.003 4.989 0 0 0 1.668 1.266 1.176 1.266-.491 7.878-3.827 7.878-3.827zM645.919 179.276c-.588.012-1.154.223-1.606.599-.452.377-.763.895-.881 1.471-.378 2.555-.592 5.132-.64 7.715l-8.399-8.296 5.51 3.828s.744-6.523 4.825-7.357l1.191 2.04z" opacity=".3"/>
    <path fill="#FFBE9D" d="M294.084 180.929l25.451-3.499c0-2.979-.893-14.521-.893-14.521s10.543-2.263 10.067-12.911c-.477-10.649-3.708-34.938-3.708-34.938-6.191-2.254-12.871-2.814-19.351-1.623-6.48 1.191-12.524 4.091-17.508 8.399l-1.49 1.31 7.432 57.783z"/>
    <path fill="#373C44" d="M323.601 133.467c-.217-.191-.374-.442-.451-.721-.078-.279-.072-.575.016-.851.089-.276.256-.52.48-.702.225-.183.499-.296.787-.326.288-.029.578.026.836.159.257.133.47.338.612.59.143.252.209.541.19.83-.019.289-.121.566-.296.798-.123.164-.279.3-.457.401-.179.101-.377.164-.581.185-.204.021-.41 0-.606-.063-.195-.062-.376-.164-.53-.3z"/>
    <path fill="#373C44" d="M326.028 130.89c-.148.194-1.236-.551-2.695-.476-1.46.074-2.487.893-2.666.715-.179-.179 0-.417.506-.79.6-.488 1.341-.77 2.113-.805.772-.035 1.535.18 2.177.612.476.327.655.655.565.744zM309.245 133.139c.249.148.449.365.576.625.127.26.176.551.14.839-.035.287-.154.557-.341.778-.187.221-.434.382-.711.465-.278.083-.573.083-.85 0-.278-.082-.525-.244-.712-.465-.187-.221-.306-.491-.341-.778-.036-.287.012-.578.139-.838.091-.185.219-.35.376-.483s.34-.232.537-.291c.198-.058.405-.076.609-.05.205.025.401.093.578.198z"/>
    <path fill="#373C44" d="M310.198 133.095c-.149.193-1.236-.551-2.71-.477-1.474.074-2.472.894-2.651.715-.179-.179 0-.417.506-.804.6-.489 1.342-.771 2.115-.805.771-.025 1.53.188 2.174.611.477.343.656.67.566.76zM316.796 144.77c.74-.334 1.53-.545 2.338-.625.387-.074.67-.179.7-.387-.02-.381-.138-.751-.343-1.072l-1.325-2.979c-1.26-2.445-2.258-5.016-2.978-7.67 1.475 2.319 2.717 4.778 3.708 7.342l1.266 2.979c.274.477.379 1.034.297 1.578-.046.151-.126.288-.235.402-.109.114-.242.201-.39.254-.207.07-.422.11-.64.119-.79.159-1.602.179-2.398.059z"/>
    <path fill="#fff" d="M312.106 146.721c2.343.894 4.799 1.461 7.297 1.683-.453.798-1.165 1.418-2.017 1.759-.852.341-1.795.382-2.674.117-3.246-1.042-2.606-3.559-2.606-3.559z"/>
    <path fill="#EB996E" d="M318.659 162.746c-4.905.377-9.81-.717-14.089-3.143 0 0 3.709 7.447 14.267 5.957l-.178-2.814z"/>
    <path fill="#373C44" d="M325.374 117.726s-5.957 3.946-14.893.878c-5.853-2.025-12.42-2.516-13.686-1.221-1.266 1.296-.819 6.97-6.032 9.338 0 0 1.788 10.737-2.561 10.916-4.349.179-3.857-16.873-3.857-16.873l9.844-6.523 11.184-3.679 11.021.105 8.682 1.191.298 5.868z"/>
    <path fill="#FFBE9D" d="M288.573 134.078c-.194 0-7.446-1.743-6.791 5.51.655 7.253 7.804 5.108 7.804 4.9 0-.209-1.013-10.41-1.013-10.41z"/>
    <path fill="#EB996E" d="M287.116 141.941s-.12.104-.313.223c-.295.15-.636.182-.953.089-.493-.256-.909-.637-1.207-1.105-.298-.468-.467-1.006-.491-1.561-.065-.622 0-1.251.194-1.846.049-.233.153-.45.303-.634s.343-.329.56-.424c.142-.051.298-.051.439.001.142.051.261.152.336.282.119.194.089.343.134.358.044.015.134-.134 0-.432-.056-.178-.172-.33-.328-.432-.214-.131-.47-.173-.715-.119-.293.082-.56.24-.774.456-.214.217-.368.486-.447.78-.251.659-.343 1.369-.268 2.07.02.652.233 1.283.612 1.813.38.53.908.936 1.518 1.166.199.041.404.036.601-.016.196-.052.378-.148.531-.282.268-.209.297-.373.268-.387z"/>
    <path fill="#373C44" d="M318.777 128.91c.269.417 1.639 0 3.307-.164s3.082 0 3.261-.506c.179-.506-1.325-1.489-3.44-1.206-2.115.283-3.396 1.504-3.128 1.876zM302.469 129.878c.268.417 1.638 0 3.291-.164s3.097 0 3.261-.492c.164-.491-1.325-1.489-3.425-1.206-2.1.283-3.396 1.46-3.127 1.862zM294.19 119.051c-1.092 1.874-2.418 3.6-3.947 5.138-1.555 1.539-3.65 2.41-5.838 2.427-1.087-.017-2.141-.38-3.008-1.036-.868-.656-1.504-1.571-1.817-2.612-.105-.518-.098-1.053.018-1.568.117-.516.342-1.001.66-1.423.318-.422.722-.772 1.186-1.027.463-.254.975-.408 1.502-.45-.355.075-.722.063-1.071-.034-.349-.096-.67-.275-.936-.522-.265-.246-.468-.553-.59-.894-.123-.341-.161-.706-.113-1.065s.181-.702.389-.998c.208-.297.484-.54.805-.708.321-.168.677-.256 1.04-.258.362-.001.719.084 1.042.25-1.877 0-2.621-2.83-1.385-4.245.691-.627 1.533-1.065 2.444-1.271.911-.206 1.859-.173 2.753.095 1.786.548 3.614.947 5.466 1.191 2.978 0 5.599-1.638 7.818-3.559 2.058-2.094 4.375-3.916 6.896-5.421 3.33-1.44 7.044-1.733 10.559-.834 2.952.539 5.707 1.855 7.982 3.812 1.133.985 2.028 2.213 2.618 3.593.591 1.38.862 2.876.792 4.375-.112 1.493-.692 2.912-1.657 4.056-.965 1.145-2.266 1.956-3.719 2.318-4.196 1.069-8.629.691-12.584-1.072-6.121-2.979-17.335-.313-17.335-.313l.03 2.055z"/>
    <path fill="#CE8282" d="M264.225 190.297s10.424-9.725 17.335-12.674c3.556-1.505 7.323-2.449 11.169-2.8 9.017 2.315 18.528 1.795 27.238-1.489 1.564.119 3.932.179 7.074.432 5.298.409 10.461 1.876 15.183 4.314 4.721 2.437 8.907 5.796 12.309 9.878l21.624 25.988-21.803 21.803-4.899-8.042s7.267 62.221 7.565 71.037l-80.435 8.355-.446-71.335-11.914-45.467z"/>
    <path fill="#373C44" d="M272.58 259.339s.164-.193.506-.476l1.49-1.266 5.778-4.468c4.9-3.798 11.691-8.936 19.226-14.699l2.07-1.489-.074.536c-4.322-6.128-8.3-12.492-11.914-19.063-1.385-2.382-2.532-4.333-3.381-5.808-.46-.678-.858-1.396-1.191-2.144.155.145.29.31.402.491.238.343.596.834 1.028 1.49.878 1.31 2.099 3.246 3.589 5.688 2.978 4.826 6.85 11.751 12.092 18.869l.224.298-.298.238-2.085 1.49c-7.536 5.704-14.371 10.841-19.36 14.52l-5.957 4.334-1.624 1.146c-.162.122-.337.227-.521.313zM262.051 192.159c.322-.258.691-.45 1.087-.566 1.058-.392 2.178-.594 3.306-.596 3.762.078 7.358 1.56 10.082 4.155 2.616 2.599 4.723 5.665 6.211 9.04.711 1.336 1.28 2.744 1.697 4.199-.821-1.262-1.552-2.581-2.189-3.946-1.591-3.233-3.704-6.182-6.255-8.727-2.598-2.47-5.983-3.946-9.561-4.17-1.479.016-2.951.222-4.378.611zM318.464 174.913c-1.2.663-2.482 1.164-3.813 1.489-6.395 1.903-13.175 2.108-19.673.596-1.354-.25-2.667-.686-3.902-1.296 1.348.181 2.686.435 4.006.76 3.213.576 6.477.826 9.74.744 3.264-.113 6.508-.563 9.68-1.34 1.302-.389 2.625-.707 3.962-.953z"/>
    <path fill="#CE8282" d="M254.47 566.229l-2.531 10.172s-17.44 21.624-22.816 20.567c-3.529-.685.804-6.33 7.446-22.756l1.4-6.776 16.501-1.207z"/>
    <path fill="#373C44" d="M228.408 593.706c.026.11.077.212.149.298.178.282.43.509.73.655.459.237.973.35 1.489.328.703-.059 1.379-.294 1.966-.685 3.107-2.399 6.043-5.011 8.787-7.819 2.755-2.767 5.36-5.68 7.803-8.727.924-1.162 1.653-2.13 2.145-2.8l.551-.789.179-.283c-.087.078-.166.163-.239.253l-.61.745-2.219 2.74c-1.907 2.279-4.632 5.391-7.849 8.638-2.731 2.785-5.625 5.406-8.667 7.848-.469.359-1.023.59-1.609.668-.585.079-1.18.002-1.727-.221-.363-.2-.666-.493-.879-.849z"/>
    <path fill="#373C44" d="M230.881 586.751s.551 0 1.415.075c1.107.164 2.171.549 3.127 1.132.97.528 1.782 1.304 2.353 2.248.417.73.536 1.237.596 1.222-.015-.466-.143-.921-.372-1.326-.542-1.023-1.37-1.867-2.383-2.427-1.008-.603-2.138-.974-3.306-1.087-.483-.068-.975-.012-1.43.163zM247.382 581.673s-.179-.73-.313-1.906c-.185-1.543.117-3.105.864-4.468.753-1.391 1.919-2.514 3.336-3.217.612-.268 1.244-.487 1.891-.655-.183-.026-.368-.026-.551 0-.514.066-1.016.207-1.489.417-1.491.66-2.723 1.791-3.509 3.22-.786 1.428-1.081 3.075-.84 4.688.077.476.197.945.358 1.4.049.188.135.365.253.521z"/>
    <path fill="#373C44" d="M253.354 567.883c-.494 1.001-.816 2.079-.953 3.187-.328 1.802-.67 3.232-.596 3.262.483-1.009.795-2.091.924-3.202.327-1.802.714-3.217.625-3.247zM236.258 575.582c0 .089.983 0 2.159.328 1.177.327 2.041.685 2.085.61-.559-.51-1.26-.838-2.01-.938-.729-.216-1.505-.216-2.234 0zM235.9 577.325c0 .089.834 0 1.802.238.968.238 1.668.64 1.728.566-.459-.443-1.031-.752-1.653-.894-.622-.142-1.271-.111-1.877.09zM234.5 579.514c.624-.061 1.252-.061 1.876 0 .597.185 1.175.424 1.728.715-.183-.282-.426-.52-.712-.698-.286-.177-.607-.29-.941-.33-.328-.092-.673-.112-1.01-.058-.337.054-.658.181-.941.371zM237.447 574.852c.197.003.392-.022.581-.075.505-.092 1.003-.221 1.49-.387.749-.245 1.477-.554 2.174-.923.387-.209.789-.447 1.191-.715.24-.126.445-.309.598-.532.153-.223.249-.48.281-.749-.027-.145-.084-.283-.168-.404-.085-.121-.194-.222-.322-.297-.127-.075-.269-.122-.415-.137-.147-.015-.296.002-.435.049-.463.15-.878.417-1.207.774-.567.525-1.104 1.082-1.608 1.668-.417.492-.745.924-.953 1.222-.209.297-.313.476-.283.476.03 0 .536-.596 1.489-1.489.447-.477.998-1.028 1.638-1.594.288-.321.659-.558 1.072-.685.388-.104.894.105.909.492.015.387-.372.759-.73 1.012-.357.254-.774.492-1.161.7-.677.371-1.379.695-2.1.968-1.236.403-2.055.566-2.041.626z"/>
    <path fill="#373C44" d="M238.373 574.629c.026-.168.026-.339 0-.507 0-.327 0-.789-.104-1.385-.091-.692-.276-1.368-.551-2.01-.178-.383-.408-.739-.685-1.057-.154-.216-.374-.375-.627-.453-.253-.078-.525-.071-.773.021-.203.151-.357.359-.442.598-.085.238-.097.497-.035.742.075.411.2.811.372 1.191.314.64.737 1.22 1.251 1.713.341.33.709.629 1.102.894.283.193.462.283.477.253.015-.03-.596-.447-1.4-1.311-.464-.491-.847-1.054-1.132-1.668-.167-.353-.283-.73-.342-1.117 0-.372 0-.834.312-.997.313-.164.715 0 .983.342.259.299.479.629.656.983.278.613.478 1.258.595 1.921.072.623.186 1.24.343 1.847z"/>
    <path fill="#CE8282" d="M341.129 571.293l.075-13.567-26.628-.313-.328 19.867 1.638.119c7.342.477 37.38 1.921 42.31.551 5.495-1.519-17.067-6.657-17.067-6.657z"/>
    <path fill="#373C44" d="M313.818 576.654h.462l1.311.09 4.84.253c4.08.194 9.724.387 15.964.462 6.24.074 11.915 0 15.995 0l4.84-.134h1.772c-.153-.016-.308-.016-.461 0H336.41c-6.24 0-11.914-.239-15.979-.373l-4.84-.164h-1.311l-.462-.134zM341.933 573.914c.074 0 .447-.387.849-.953.402-.566.655-1.087.581-1.147-.075-.059-.447.387-.849.968-.402.581-.656 1.087-.581 1.132zM339.79 572.797s.477-.194.953-.581c.477-.387.79-.759.73-.819-.06-.06-.491.194-.953.596-.462.402-.789.744-.73.804zM338.465 570.385c.44.171.914.237 1.385.193.465.053.936.012 1.385-.119-.44-.173-.915-.24-1.385-.193-.465-.053-.936-.012-1.385.119zM338.018 568.687c.48.249 1.005.401 1.544.447.539.046 1.082-.015 1.598-.179-.522-.086-1.05-.126-1.579-.119-.516-.091-1.039-.141-1.563-.149z"/>
    <path fill="#373C44" d="M342.855 571.71c.568.091 1.146.091 1.713 0 .62-.066 1.233-.186 1.832-.357.36-.097.71-.232 1.042-.402.104-.05.196-.12.27-.207.074-.088.13-.19.162-.299.029-.122.019-.25-.026-.367-.045-.117-.124-.217-.227-.289-.648-.316-1.383-.406-2.088-.255-.705.151-1.338.535-1.799 1.089-.269.315-.462.687-.566 1.087-.033.142-.033.29 0 .432.19-.502.462-.97.804-1.385.405-.43.92-.739 1.49-.893.676-.208 1.406-.15 2.04.164.268.193.149.506-.149.67-.31.154-.634.279-.968.372-.578.188-1.171.327-1.772.417-1.102.179-1.758.179-1.758.223z"/>
    <path fill="#373C44" d="M343.304 571.799c.108-.165.183-.351.218-.545.036-.194.033-.394-.009-.587-.044-.433-.198-.849-.447-1.206-.147-.247-.354-.454-.6-.603-.247-.148-.527-.232-.815-.246-.17.033-.321.13-.421.272-.1.141-.141.316-.115.488.042.26.139.509.283.729.226.361.491.695.789.998.267.302.605.532.983.67 0 0-.342-.298-.804-.819-.271-.302-.511-.632-.715-.983-.223-.357-.372-.983 0-1.042.373-.06.849.372 1.117.7.229.32.386.686.462 1.072.056.365.081.733.074 1.102zM314.516 569.729s.759 0 1.965.089c1.548.199 3.016.8 4.26 1.743 1.206.948 2.12 2.218 2.636 3.663.387 1.088.417 1.817.491 1.817.031-.172.031-.349 0-.521-.046-.464-.136-.923-.268-1.37-.479-1.513-1.402-2.847-2.651-3.827-1.292-.991-2.844-1.586-4.468-1.713-.495-.049-.994-.049-1.489 0-.164.017-.324.057-.476.119zM317.406 559.185c-.306 3.466-.395 6.948-.268 10.425.207-1.735.307-3.481.298-5.228.098-1.731.088-3.467-.03-5.197zM327.221 574.748c1.274.295 2.579.435 3.887.417 1.306.072 2.616-.013 3.901-.253 0-.09-1.757 0-3.901 0-2.145 0-3.813-.253-3.887-.164z"/>
    <path fill="#373C44" d="M322.068 574.674c-.074 0 .134.357.313.745.179.387.268.714.357.714.09 0 .134-.402 0-.849-.134-.446-.61-.67-.67-.61zM320.133 572.321s.104.327.372.595c.268.269.551.432.611.373.059-.06-.105-.328-.373-.596-.268-.268-.551-.432-.61-.372zM317.332 571.219c0 .089.372.089.759.223s.67.328.745.283c.074-.045-.149-.417-.641-.581-.491-.164-.893-.015-.863.075zM315.307 570.697c0 .09.119.209.342.298.224.09.417.09.447 0 .03-.089-.119-.208-.328-.298-.208-.089-.461-.089-.461 0zM359.612 293.785l-12.793 271.67-41.461.819 6.881-220.812-46.629 222.51h-39.421l52.646-266.279"/>
    <path fill="#CE8282" d="M295.738 305.818c.095.349.125.713.09 1.073-.03 1.005-.17 2.003-.417 2.978-.799 3.196-2.576 6.062-5.083 8.198s-5.62 3.436-8.901 3.716c-.99.107-1.989.107-2.979 0-.365-.02-.723-.106-1.057-.253 0-.149 1.489.089 3.946-.238 3.129-.4 6.073-1.704 8.472-3.751 2.399-2.047 4.149-4.75 5.036-7.776.744-2.428.744-3.962.893-3.947zM324.332 303.093c.099.49.129.991.089 1.489v4.2c-.089 3.559-.253 8.459-.476 13.865.043 2.584-.252 5.162-.879 7.669-.366 1.018-.929 1.954-1.658 2.754-.728.8-1.607 1.448-2.587 1.908-1.274.646-2.618 1.145-4.006 1.489-.483.149-.983.239-1.489.268.471-.25.971-.44 1.489-.566 1.318-.418 2.594-.957 3.813-1.608 1.812-.931 3.186-2.535 3.827-4.468.57-2.44.836-4.941.79-7.446.223-5.406.476-10.306.7-13.85.119-1.773.223-3.202.312-4.2-.029-.503-.004-1.007.075-1.504zM316.186 306.652s.119-.208.477-.357c.534-.19 1.118-.19 1.653 0 .408.131.781.354 1.09.65.31.297.548.66.697 1.062.139.523.125 1.075-.04 1.59-.165.516-.475.973-.892 1.317-.417.345-.924.563-1.461.629-.537.065-1.081-.025-1.569-.259-.369-.225-.681-.531-.913-.895-.233-.364-.379-.776-.427-1.205-.092-.556.019-1.127.313-1.608.208-.343.417-.447.446-.417-.258.61-.336 1.282-.223 1.936.072.326.211.633.408.903.198.269.449.494.739.66.36.16.759.212 1.148.148.389-.063.75-.239 1.041-.505.31-.237.546-.558.681-.925.134-.366.162-.764.079-1.145-.101-.327-.27-.629-.496-.886-.226-.256-.503-.462-.815-.603-.625-.205-1.295-.236-1.936-.09zM247.023 532.527c-.134.164-1.31-.64-2.606-1.787-1.295-1.146-2.234-2.204-2.1-2.368.134-.163 1.311.641 2.607 1.788 1.295 1.146 2.248 2.204 2.099 2.367zM269.393 500.122c-.644 1.584-1.534 3.056-2.636 4.363-.894 1.46-1.998 2.78-3.277 3.917 1.564-3.041 3.571-5.831 5.957-8.28h-.044zM259.294 480.047c-1.099-2.413-1.711-5.02-1.802-7.67 1.099 2.413 1.712 5.02 1.802 7.67zM280.026 446.359c-2.014 2.368-4.41 4.381-7.088 5.957.911-1.265 2.028-2.367 3.306-3.261 1.104-1.1 2.382-2.011 3.782-2.696zM271.166 428.042c-.851-1.541-1.473-3.196-1.847-4.915-.621-1.648-.993-3.38-1.102-5.138.85 1.54 1.472 3.196 1.846 4.915.62 1.648.992 3.38 1.103 5.138zM291.82 391.987c-1.235 1.449-2.663 2.721-4.244 3.783-1.431 1.263-3.023 2.33-4.736 3.172 2.653-2.708 5.659-5.048 8.935-6.955h.045zM281.797 369.543c-1.058-1.86-1.698-3.928-1.876-6.061-.432-2.097-.397-4.263.104-6.344.238 0 .164 2.83.655 6.24.492 3.41 1.34 6.091 1.117 6.165zM297.166 339.997c-.516-2.133-.516-4.359 0-6.493.517 2.134.517 4.36 0 6.493zM333.623 353.772c-1.295-.948-2.291-2.247-2.872-3.743-.58-1.496-.721-3.127-.405-4.701.239 0 .209 2.085 1.132 4.468.923 2.383 2.308 3.813 2.145 3.976zM347.386 334.68c-.08-1.234.098-2.472.521-3.634.17-1.227.596-2.404 1.251-3.455-.075 2.463-.679 4.881-1.772 7.089zM333.178 393.193c-1.685-4.178-2.884-8.535-3.574-12.986.965 2.038 1.689 4.182 2.159 6.389.711 2.14 1.186 4.353 1.415 6.597zM350.422 369.648c.134.164-1.221 1.489-2.978 2.978-1.021.982-2.212 1.769-3.515 2.324-.134-.164 1.221-1.49 2.979-2.979 1.021-.98 2.212-1.768 3.514-2.323zM328.502 434.52c-1.638-.855-3.143-1.944-4.467-3.232-1.474-1.08-2.788-2.364-3.902-3.812 3.088 1.944 5.886 4.316 8.31 7.044h.059zM345.611 415.606c0 .238-2.01.596-4.125 1.921-2.115 1.326-3.351 2.979-3.545 2.83.697-1.437 1.788-2.647 3.146-3.488 1.358-.841 2.927-1.279 4.524-1.263zM340.162 465.824c-.008-2.212.247-4.416.759-6.568.248-2.195.748-4.353 1.49-6.433-.246 4.409-1.016 8.773-2.294 13.001h.045zM321.874 472.406c-.469-1.828-.694-3.711-.67-5.599-.223-1.872-.193-3.766.09-5.63.481 1.827.711 3.711.685 5.6.232 1.872.197 3.767-.105 5.629zM327.861 492.929c-2.79 1.488-5.81 2.495-8.935 2.978 1.326-.849 2.786-1.469 4.319-1.832 1.463-.64 3.024-1.028 4.616-1.146zM336.155 521.984c-.215-1.43-.053-2.89.469-4.238.523-1.347 1.387-2.536 2.509-3.447.164.149-.983 1.624-1.772 3.738-.789 2.115-.968 3.947-1.206 3.947zM325.477 543.28c-1.325-1.856-2.439-3.854-3.321-5.957-1.106-2.016-1.985-4.149-2.621-6.359 2.444 3.894 4.443 8.05 5.957 12.391l-.015-.075z"/>
    <path fill="#FFA62B" d="M470.097 188.598l-107.232 9.4 9.829 112.113 107.232-9.4-9.829-112.113z"/>
    <path fill="#FFA62B" d="M419.159 193.066l-88.821 7.787 9.828 112.113 88.821-7.787-9.828-112.113z"/>
    <path fill="#FAFAFA" d="M365.344 201.347l10.261 108.492 14.028-1.221-11.675-108.373-12.614 1.102zM335.829 262.421c0-.074.834 0 2.323-.253 2.076-.3 4.088-.939 5.957-1.891 2.786-1.402 5.161-3.5 6.895-6.091 2.079-3.202 3.014-7.012 2.651-10.812-.309-3.804-1.937-7.381-4.602-10.112-2.232-2.172-5.02-3.687-8.057-4.379-2.051-.474-4.173-.554-6.254-.238-1.49.238-2.264.536-2.294.462-.03-.075.179-.12.551-.254.546-.214 1.109-.383 1.683-.506 2.123-.433 4.311-.433 6.434 0 3.55.667 6.781 2.489 9.189 5.182 2.408 2.694 3.858 6.108 4.125 9.711.376 3.971-.623 7.951-2.83 11.273-1.831 2.658-4.326 4.789-7.238 6.181-1.95.937-4.054 1.512-6.21 1.697-.58.035-1.162.035-1.742 0-.373.03-.581.03-.581.03zM428.49 240.634c-.139-1.287-.353-2.565-.641-3.827-.912-3.41-2.941-6.414-5.763-8.534-2.071-1.554-4.498-2.566-7.06-2.943-2.562-.377-5.178-.108-7.609.784-1.402.499-2.718 1.213-3.902 2.115-1.259.906-2.361 2.013-3.261 3.276-1.944 2.644-2.993 5.84-2.993 9.122 0 3.281 1.049 6.477 2.993 9.121.896 1.271 1.998 2.384 3.261 3.292 1.184.901 2.5 1.615 3.902 2.114 2.432.894 5.049 1.163 7.612.783 2.562-.38 4.989-1.397 7.057-2.957 2.823-2.112 4.854-5.112 5.763-8.519.286-1.262.5-2.54.641-3.827.102 1.311-.014 2.629-.343 3.902-.716 2.977-2.276 5.685-4.492 7.798-2.216 2.113-4.995 3.542-8.003 4.116-2.837.547-5.769.321-8.488-.655-1.47-.515-2.851-1.254-4.096-2.19-1.321-.947-2.478-2.104-3.425-3.425-2.06-2.768-3.172-6.126-3.172-9.576s1.112-6.808 3.172-9.576c.947-1.321 2.104-2.478 3.425-3.425 1.245-.936 2.626-1.674 4.096-2.189 2.719-.976 5.651-1.203 8.488-.655 3.008.574 5.787 2.003 8.003 4.116 2.216 2.113 3.776 4.82 4.492 7.798.336 1.292.451 2.631.343 3.961zM474.852 223.433c-2.39.237-4.723.882-6.895 1.907-2.567 1.306-4.722 3.296-6.227 5.751-1.505 2.455-2.302 5.279-2.302 8.158 0 2.88.797 5.703 2.302 8.158 1.505 2.455 3.66 4.446 6.227 5.752 2.169 1.033 4.503 1.678 6.895 1.906h-.506c-.496.027-.993.027-1.49 0-1.799-.173-3.551-.678-5.167-1.489-2.443-1.153-4.546-2.918-6.106-5.123-.914-1.3-1.636-2.724-2.145-4.23-.525-1.632-.801-3.334-.819-5.048.019-3.325 1.059-6.564 2.979-9.278 1.56-2.205 3.663-3.969 6.106-5.123 1.621-.797 3.37-1.302 5.167-1.49.496-.036.994-.036 1.49 0 .297.105.491.12.491.149zM465.975 284.061c-.139-1.287-.353-2.565-.64-3.827-.913-3.413-2.949-6.419-5.778-8.534-2.069-1.554-4.493-2.566-7.053-2.943-2.56-.377-5.173-.108-7.602.784-1.405.502-2.726 1.215-3.916 2.114-1.251.911-2.348 2.018-3.247 3.277-1.948 2.642-3 5.839-3 9.121 0 3.283 1.052 6.48 3 9.122.904 1.264 2.006 2.375 3.261 3.291 1.191.9 2.512 1.613 3.917 2.115 2.04.738 4.21 1.043 6.374.897 2.164-.146 4.274-.741 6.195-1.747 1.922-1.006 3.613-2.4 4.967-4.094 1.354-1.695 2.34-3.652 2.897-5.749.286-1.262.5-2.54.64-3.827.092 1.31-.024 2.627-.342 3.902-.717 2.977-2.276 5.684-4.493 7.798-2.216 2.113-4.994 3.542-8.002 4.116-2.837.547-5.77.321-8.489-.655-1.471-.512-2.853-1.25-4.095-2.19-1.322-.951-2.483-2.107-3.441-3.425-2.05-2.771-3.157-6.128-3.157-9.576 0-3.448 1.107-6.804 3.157-9.576 1.907-2.57 4.528-4.523 7.536-5.614 2.719-.976 5.652-1.203 8.489-.656 3.008.574 5.786 2.004 8.002 4.117 2.217 2.113 3.776 4.82 4.493 7.798.32 1.294.43 2.631.327 3.961z"/>
    <path fill="#FAFAFA" d="M393.329 307.62c-.525-2.341-1.453-4.573-2.741-6.597-1.626-2.38-3.875-4.267-6.502-5.455-2.626-1.187-5.529-1.629-8.39-1.277-3.143.409-6.09 1.753-8.459 3.858-1.934 1.726-3.407 3.906-4.289 6.344-.743 2.282-1.091 4.674-1.028 7.074 0 0 0-.164-.119-.492-.082-.492-.132-.99-.149-1.489-.057-1.804.205-3.604.775-5.317.849-2.562 2.341-4.865 4.333-6.686 1.172-1.078 2.497-1.976 3.932-2.666 1.552-.732 3.203-1.234 4.9-1.489 3.299-.389 6.639.234 9.576 1.787 2.376 1.279 4.386 3.145 5.837 5.421.984 1.509 1.685 3.184 2.07 4.944.149.626.164 1.117.224 1.489.059.373.059.551.03.551zM448.266 193.022c-.13-1.288-.344-2.567-.641-3.827-.904-3.405-2.923-6.41-5.733-8.534-2.071-1.555-4.498-2.568-7.06-2.945-2.562-.377-5.178-.107-7.609.786-2.864 1.058-5.354 2.933-7.164 5.391-1.944 2.644-2.992 5.84-2.992 9.122 0 3.281 1.048 6.477 2.992 9.121.897 1.271 1.999 2.384 3.262 3.292 1.184.901 2.5 1.615 3.902 2.114 2.431.896 5.049 1.167 7.612.787 2.563-.38 4.99-1.398 7.057-2.961 2.823-2.112 4.853-5.112 5.763-8.519.295-1.26.509-2.539.641-3.827.101 1.311-.014 2.629-.343 3.902-.717 2.974-2.275 5.679-4.488 7.792-2.213 2.113-4.988 3.544-7.992 4.122-2.837.548-5.769.322-8.489-.655-3.014-1.082-5.637-3.036-7.535-5.615-2.051-2.771-3.158-6.128-3.158-9.576 0-3.447 1.107-6.804 3.158-9.576.952-1.317 2.108-2.473 3.425-3.425 1.254-.93 2.646-1.658 4.125-2.159 2.537-.913 5.262-1.172 7.925-.753 2.663.419 5.177 1.503 7.31 3.15 2.888 2.226 4.914 5.384 5.734 8.936.309 1.261.409 2.564.298 3.857zM380.281 196.656c-.139-1.287-.353-2.565-.64-3.827-.925-3.408-2.958-6.41-5.779-8.534-2.07-1.555-4.497-2.568-7.06-2.945-2.562-.377-5.178-.107-7.609.786-1.402.499-2.718 1.213-3.902 2.115-1.252.914-2.352 2.02-3.261 3.276-1.944 2.644-2.992 5.84-2.992 9.122 0 3.281 1.048 6.477 2.992 9.121 1.803 2.468 4.295 4.349 7.163 5.406 2.602.946 5.407 1.188 8.132.7 2.373-.434 4.613-1.418 6.537-2.874 2.822-2.116 4.856-5.114 5.779-8.519.286-1.262.499-2.54.64-3.827.091 1.311-.03 2.629-.357 3.902-.82 3.548-2.84 6.705-5.719 8.935-2.146 1.631-4.667 2.695-7.332 3.096-2.665.401-5.388.125-7.918-.802-1.476-.512-2.863-1.25-4.11-2.189-1.314-.956-2.47-2.112-3.426-3.426-2.05-2.771-3.157-6.128-3.157-9.576 0-3.447 1.107-6.804 3.157-9.575.952-1.317 2.109-2.474 3.426-3.426 1.247-.939 2.634-1.677 4.11-2.189 2.719-.977 5.652-1.203 8.489-.655 3.004.578 5.779 2.009 7.992 4.122 2.213 2.112 3.771 4.817 4.488 7.792.337 1.302.457 2.65.357 3.991z"/>
    <path fill="#E0E0E0" d="M442.682 194.556l10.692 108.463 15.131-1.326-11.139-108.417-14.684 1.28zM399.702 164.727c0-.537 1.489-1.117 4.169-1.728 2.681-.611 6.628-1.236 11.349-2.144 2.353-.462 4.899-.998 7.565-1.713 1.325-.372 2.696-.76 4.081-1.221 1.356-.423 2.689-.92 3.991-1.49.796-.275 1.485-.797 1.966-1.489.038-.176.038-.359 0-.536-.087-.56-.232-1.109-.432-1.638-1.074-3.251-2.378-6.421-3.902-9.487-.74-1.387-1.612-2.699-2.606-3.916-.477-.551-1.013-1.132-1.49-1.579-.459-.398-.958-.748-1.489-1.042-.308-.211-.655-.357-1.022-.429-.366-.071-.743-.068-1.108.012-1.067.387-2.038 1.002-2.844 1.802-4.084 3.541-7.636 7.654-10.544 12.211-4.974 7.893-6.329 13.88-7.446 13.687-.507 0-.834-1.683-.611-4.557.44-4.061 1.547-8.021 3.277-11.721 2.567-5.568 6.136-10.616 10.529-14.892 1.523-1.592 3.386-2.819 5.45-3.59 1.332-.444 2.745-.592 4.14-.431 1.323.165 2.604.569 3.783 1.191 1.071.553 2.071 1.233 2.979 2.025.812.721 1.578 1.492 2.293 2.309 1.375 1.622 2.568 3.39 3.559 5.272 1.733 3.467 3.158 7.08 4.26 10.797.375 1.128.605 2.299.685 3.485.109 1.547-.216 3.095-.939 4.467-.675 1.24-1.635 2.301-2.799 3.098-.902.598-1.866 1.097-2.875 1.489-1.622.609-3.284 1.106-4.974 1.49-1.578.402-3.112.7-4.602.953-6.647 1.069-13.405 1.269-20.104.595-2.726-.312-4.275-.744-4.289-1.28z"/>
    <path fill="#FAFAFA" d="M401.594 165.382c0 .536-1.772.923-4.9 1.132-4.4.251-8.813.216-13.209-.105-6.645-.419-13.228-1.527-19.644-3.306-2.12-.54-4.154-1.372-6.046-2.472-1.3-.763-2.414-1.806-3.261-3.053-.992-1.526-1.443-3.34-1.281-5.153.139-1.334.45-2.646.923-3.902.358-.968.715-1.95 1.087-2.978.776-2.109 1.701-4.16 2.77-6.136 1.146-2.12 2.568-4.078 4.23-5.823.842-.875 1.748-1.686 2.71-2.427 1.03-.79 2.15-1.455 3.336-1.981 2.524-1.151 5.358-1.429 8.057-.789 2.285.64 4.41 1.751 6.24 3.261 5.307 4.268 9.841 9.416 13.403 15.22 2.423 3.883 4.156 8.156 5.123 12.629.611 3.172.403 4.989-.089 5.094-1.161.282-2.978-6.345-9.546-14.61-3.823-4.779-8.277-9.018-13.24-12.599-1.081-.839-2.323-1.447-3.648-1.787-1.123-.206-2.282-.028-3.291.506-.633.302-1.228.677-1.773 1.117-.643.514-1.245 1.076-1.802 1.683-1.166 1.29-2.167 2.721-2.978 4.259-.905 1.673-1.696 3.404-2.368 5.183l-1.072 2.77c-.264.605-.454 1.24-.566 1.891v.477c.24.353.555.648.923.863 1.315.815 2.732 1.451 4.215 1.892 5.952 1.978 12.032 3.545 18.198 4.691 5.332 1.042 9.725 1.817 12.748 2.532 3.024.715 4.841 1.385 4.751 1.921z"/>
    <path fill="#FFA62B" d="M483.343 153.617l-130.554 11.445 3.253 37.104 130.553-11.445-3.252-37.104z"/>
    <path fill="#FFA62B" d="M435.322 157.827l-118.017 10.346 3.252 37.104 118.018-10.346-3.253-37.104z"/>
    <path fill="#FAFAFA" d="M353.521 164.98l3.813 37.246 13.746-1.385-3.917-37.052-13.642 1.191z"/>
    <path fill="#E0E0E0" d="M451.334 156.595l4.274 36.859 15.146-1.326-3.783-37.097-15.637 1.564z"/>
    <path fill="#FAFAFA" d="M379.493 163.788c.497 2.352 1.399 4.6 2.666 6.643 1.424 2.16 3.364 3.931 5.644 5.152 1.959 1.056 4.122 1.68 6.342 1.831 2.22.15 4.447-.176 6.531-.958 2.084-.781 3.976-2 5.55-3.573 1.573-1.574 2.792-3.466 3.574-5.55.775-2.277 1.158-4.669 1.131-7.074 0 0 0 .179.105.506.075.493.12.991.134 1.49.04 1.804-.247 3.6-.849 5.301-.891 2.563-2.43 4.851-4.468 6.642-1.194 1.054-2.533 1.932-3.976 2.607-1.563.692-3.219 1.154-4.915 1.37-3.307.359-6.644-.307-9.561-1.907-2.358-1.31-4.342-3.202-5.763-5.495-.961-1.524-1.637-3.209-1.996-4.974-.102-.491-.172-.989-.208-1.489.029-.343.029-.507.059-.522zM393.716 198.28c-.499-2.345-1.396-4.586-2.651-6.628-1.429-2.165-3.373-3.941-5.659-5.167-2.788-1.507-5.97-2.124-9.12-1.77-3.149.354-6.114 1.662-8.498 3.75-1.96 1.698-3.465 3.858-4.379 6.285-.784 2.269-1.162 4.659-1.117 7.059 0 0-.074-.164-.119-.491-.076-.493-.116-.991-.119-1.49-.038-1.802.244-3.598.834-5.301.897-2.556 2.435-4.838 4.468-6.628 1.187-1.056 2.521-1.934 3.961-2.606 1.564-.704 3.227-1.166 4.93-1.37 3.302-.365 6.637.301 9.546 1.906 2.362 1.311 4.351 3.202 5.778 5.496.953 1.527 1.629 3.211 1.996 4.974.099.491.163.989.193 1.489-.014.313-.014.492-.044.492zM457.516 176.045c-.142-1.282-.356-2.555-.641-3.813-.921-3.409-2.955-6.412-5.778-8.533-1.925-1.456-4.164-2.44-6.538-2.874-2.726-.483-5.531-.237-8.131.714-1.402.494-2.718 1.203-3.902 2.1-1.252.92-2.353 2.031-3.262 3.292-1.944 2.644-2.992 5.839-2.992 9.121s1.048 6.478 2.992 9.122c.909 1.256 2.01 2.362 3.262 3.276 1.18.908 2.497 1.622 3.902 2.115 2.599.954 5.407 1.196 8.131.7 2.375-.423 4.615-1.403 6.538-2.859 2.823-2.122 4.857-5.125 5.778-8.534.287-1.262.501-2.54.641-3.827.09 1.311-.031 2.629-.358 3.902-.811 3.552-2.833 6.711-5.719 8.935-2.131 1.657-4.649 2.745-7.316 3.165-2.666.419-5.396.155-7.934-.767-1.475-.512-2.862-1.25-4.11-2.189-1.317-.952-2.473-2.109-3.425-3.426-2.05-2.769-3.156-6.123-3.156-9.568 0-3.445 1.106-6.799 3.156-9.569.952-1.321 2.108-2.482 3.425-3.44 1.255-.928 2.64-1.665 4.11-2.189 2.721-.97 5.652-1.196 8.489-.655 2.459.477 4.771 1.528 6.747 3.068 2.892 2.22 4.92 5.38 5.733 8.935.318 1.239.439 2.521.358 3.798zM354.89 183.491c-.139-1.287-.353-2.565-.64-3.827-.762-2.871-2.324-5.467-4.505-7.484-2.18-2.017-4.889-3.373-7.811-3.909-2.72-.495-5.522-.253-8.117.7-1.402.5-2.718 1.213-3.902 2.115-1.258.906-2.36 2.013-3.261 3.276-1.944 2.644-2.992 5.84-2.992 9.122s1.048 6.477 2.992 9.121c.9 1.268 2.002 2.38 3.261 3.292 1.188.896 2.503 1.608 3.902 2.114 2.603.94 5.407 1.181 8.132.7 2.915-.547 5.617-1.906 7.793-3.922 2.177-2.016 3.739-4.605 4.508-7.47.285-1.263.498-2.541.64-3.828.102 1.306-.014 2.619-.342 3.887-.813 3.555-2.841 6.715-5.734 8.936-1.98 1.542-4.297 2.593-6.761 3.068-2.833.54-5.758.314-8.474-.656-1.473-.517-2.859-1.255-4.11-2.189-1.321-.953-2.478-2.115-3.426-3.44-2.058-2.765-3.17-6.121-3.17-9.569 0-3.447 1.112-6.803 3.17-9.568 1.899-2.579 4.522-4.533 7.536-5.614 2.715-.975 5.64-1.206 8.474-.671 2.464.475 4.781 1.526 6.761 3.068 2.893 2.221 4.921 5.381 5.734 8.936.319 1.244.434 2.531.342 3.812z"/>
    <path fill="#16697A" d="M470.428 192.129l-50.962 4.467-88.82 7.789 89.907 4.602 8.429 96.176 50.947-4.468-9.501-108.566z" opacity=".3"/>
    <path fill="#16697A" d="M483.338 153.629l-48.008 4.209 3.253 37.104 48.008-4.209-3.253-37.104z" opacity=".4"/>
    <path fill="#FFBE9D" d="M384.542 260.932c-.681 1.421-1.558 2.74-2.606 3.917-.803.977-1.764 1.813-2.844 2.472l-1.489.849c-2.139 1.194-4.568 1.767-7.015 1.653-10.767-.462-43.278-1.995-49.503-3.5-7.446-1.816-40.001-46.167-40.001-46.167l-20.85 14.67s23.069 40.641 42.176 54.238c12.137 8.638 75.639-1.012 75.684-1.027 4.878.87 9.8 1.477 14.744 1.817 6.954.178 6.969-.432 6.865-1.251-.313-2.19-12.212-.79-9.829-2.562 2.383-1.772 14.744 0 14.327-2.293-.551-2.979-12.972-1.266-14.044-1.192-1.072.075-1.191-1.489-.223-1.489 1.385 0 15.905-.491 15.384-3.395-.283-1.624-3.128-.834-3.128-.834s-13.552 1.489-13.746 0c-.193-1.49 7.73-2.517 10.425-2.711 2.696-.193 3.664-1.489 2.606-2.636-.729-.759-9.01-.387-11.675-.134-2.666.253-9.964 1.057-6.687-2.264 3.276-3.321 4.468-7.118 4.155-8.384-.137-.257-.346-.468-.601-.607-.255-.139-.545-.201-.835-.177-.29.023-.567.132-.796.311-.229.179-.4.421-.494.696z"/>
    <path fill="#CE8282" d="M264.225 190.297s-17.484 18.348-6.359 44.976l14.713 24.066 29.86-22.607-38.214-46.435z"/>
    <path fill="#FFBE9D" d="M477.368 193.782c-.878-1.713-2.531-2.77-4.021-1.698-.26.427-.409.913-.433 1.412-.023.5.08.998.299 1.447l7.581 16.01-6.598-11.08c-.864-1.713-2.651-2.562-3.634-1.415-.224.427-.341.902-.341 1.385 0 .482.117.958.341 1.385l6.479 13.269-4.885-8.176c-1.043-1.876-2.011-2.264-2.979-1.698-.968.566-.759 2.07-.402 2.815l4.557 9.829c-.357 2.055-1.727 8.608.954 11.78.148.164-.105.789 0 .983l-.864 1.34 2.07 12.346c5.346-3.068 9.859-23.962 10.142-29.01.245-2.863-.302-5.737-1.579-8.31l-6.687-12.614z"/>
    <path fill="#373C44" d="M597.325 126.586l-23.351-5.733h.179c-6.035 3.839-13.014 5.932-20.165 6.046-4.228.024-8.435-.588-12.48-1.817-7.108-2.283-13.416-6.549-18.184-12.295-4.767-5.746-7.794-12.733-8.727-20.14-.721-5.63-.196-11.35 1.539-16.755 1.734-5.404 4.636-10.361 8.499-14.52 2.027-2.229 4.295-4.227 6.761-5.957 1.266-.774 2.517-1.594 3.813-2.279l1.98-.953.998-.476 1.028-.373c4.892-1.918 10.121-2.827 15.374-2.671 5.253.156 10.419 1.373 15.189 3.578 4.77 2.206 9.044 5.353 12.565 9.254 3.521 3.901 6.216 8.474 7.923 13.444 1.386 4.058 2.115 8.311 2.16 12.6.028 7.132-1.909 14.135-5.6 20.238v-.223l10.499 18.943-10.856-18.735v-.208c3.592-6.049 5.456-12.967 5.391-20.001-.061-4.226-.8-8.414-2.189-12.406-1.521-4.393-3.833-8.471-6.821-12.033-5.17-6.134-12.129-10.5-19.902-12.483-7.774-1.984-15.973-1.489-23.45 1.418l-1.013.373-.968.461-1.951 1.043c-1.266.67-2.487 1.489-3.723 2.233-7.118 4.904-12.412 12.026-15.057 20.254-2.309 7.447-2.305 15.42.01 22.864 2.316 7.445 6.836 14.013 12.962 18.836 3.559 2.822 7.594 4.985 11.914 6.388 3.979 1.232 8.121 1.855 12.286 1.847 7.052-.079 13.946-2.099 19.926-5.838h.179l23.262 6.076z"/>
    <path fill="#FFA62B" d="M550.162 70.5l1.236 19.51c.043.776.37 1.51.92 2.059.549.55 1.282.877 2.058.92.81.05 1.608-.215 2.227-.74.619-.524 1.011-1.268 1.095-2.075l2.174-19.599c.038-.35.001-.703-.108-1.038-.109-.334-.287-.642-.524-.902-.236-.26-.525-.468-.847-.608-.323-.14-.671-.21-1.023-.207h-4.766c-.34.005-.675.08-.985.22-.309.14-.587.34-.816.592-.229.251-.404.547-.514.868-.11.322-.154.662-.127 1zM559.544 103.935c-.289.902-.84 1.698-1.583 2.285-.744.587-1.645.94-2.589 1.013-.945.072-1.89-.138-2.714-.605-.824-.467-1.491-1.168-1.915-2.016-.423-.847-.585-1.801-.464-2.741.122-.939.52-1.822 1.145-2.533.625-.712 1.448-1.222 2.364-1.464.915-.242 1.883-.206 2.778.104 1.173.41 2.141 1.262 2.697 2.374.556 1.113.657 2.398.281 3.583z"/>
</svg>
