<svg xmlns="http://www.w3.org/2000/svg" width="105" height="67" fill="none" viewBox="0 0 105 67">
    <path fill="#fff" d="M99 28.26H5.138C2.3 28.26 0 30.562 0 33.4s2.3 5.138 5.138 5.138H99c2.837 0 5.138-2.3 5.138-5.138S101.837 28.26 99 28.26zM92.15 0H11.99C9.152 0 6.852 2.3 6.852 5.138s2.3 5.139 5.138 5.139h80.16c2.837 0 5.138-2.301 5.138-5.139C97.288 2.301 94.987 0 92.149 0zM92.15 56.523H11.99c-2.838 0-5.138 2.3-5.138 5.138 0 2.837 2.3 5.138 5.138 5.138h80.16c2.837 0 5.138-2.301 5.138-5.138 0-2.838-2.301-5.139-5.139-5.139z"/>
</svg>
