<svg xmlns="http://www.w3.org/2000/svg" width="103" height="98" fill="none" viewBox="0 0 103 98">
    <path fill="#fff" d="M6.674 58.122C2.994 58.122 0 61.116 0 64.796v26.067c0 3.68 2.994 6.674 6.674 6.674h19.59V58.122H6.674zM96.275 70.156h-19.59v27.38h19.59c3.68 0 6.674-2.993 6.674-6.673V76.83c0-3.68-2.994-6.674-6.674-6.674zM63.971 43.01H38.977c-3.68 0-6.674 2.994-6.674 6.674v47.853h38.343V49.684c0-3.68-2.994-6.674-6.675-6.674zM52.078 74.124c-1.667 0-3.02-1.352-3.02-3.02v-6.132l-.027.02c-.543.408-1.18.605-1.81.605-.918 0-1.824-.417-2.418-1.208-1-1.334-.73-3.227.604-4.227l4.859-3.646c.018-.014.038-.025.056-.038.046-.033.094-.065.142-.096.037-.023.074-.046.112-.067.047-.027.096-.053.145-.078l.123-.06c.047-.02.095-.04.143-.058.045-.018.09-.035.136-.05.046-.015.093-.029.14-.042.05-.014.1-.027.15-.038.044-.01.089-.019.134-.027.054-.01.108-.018.162-.025.043-.005.086-.009.13-.012.057-.005.115-.008.172-.009.023 0 .045-.003.067-.003l.063.003c.055.001.11.004.165.008.047.004.095.008.142.014.047.005.095.013.142.021.052.009.104.018.155.03.042.01.084.02.126.032.053.015.106.03.157.046.042.014.083.03.124.046.049.018.098.037.146.058.044.02.088.041.131.063.042.021.084.042.125.065.047.026.093.055.139.084.036.022.071.045.106.069.046.032.09.066.135.1.033.026.066.052.098.08.041.034.08.07.12.108.034.032.067.064.1.098.033.035.066.07.098.108.035.04.07.082.104.125.013.017.028.032.04.049.014.018.025.038.038.056.034.046.066.094.096.142.024.037.047.074.068.112.028.047.053.096.078.144l.06.125c.02.046.04.094.058.142.018.045.035.09.05.137.015.045.029.092.042.139.014.05.027.1.038.15.01.043.019.088.027.134.01.054.018.108.024.162.006.043.01.086.013.13.004.057.008.115.009.172 0 .023.003.045.003.067v12.173c0 1.667-1.352 3.02-3.02 3.02zM68.338 12.252c-.415-1.278-1.5-2.193-2.83-2.386l-7.525-1.093-3.365-6.819C54.023.75 52.818 0 51.474 0s-2.548.749-3.144 1.954l-3.365 6.819-7.525 1.093c-1.33.193-2.414 1.108-2.83 2.386-.415 1.279-.075 2.656.887 3.594l5.445 5.308-1.285 7.494c-.227 1.325.307 2.64 1.395 3.43s2.502.891 3.692.266l6.73-3.538 6.73 3.538c.518.272 1.078.407 1.636.407.723 0 1.443-.227 2.057-.674 1.088-.79 1.622-2.104 1.395-3.429l-1.285-7.494 5.445-5.308c.962-.939 1.302-2.316.886-3.594z"/>
</svg>
