<svg xmlns="http://www.w3.org/2000/svg" width="711" height="698" fill="none" viewBox="0 0 711 698">
    <path fill="#FFA62B" d="M587.404 460.651l-2.606.895c-.617.196-1.177.548-1.628 1.024-.451.475-.779 1.059-.954 1.698l-.803 2.698-.977-2.674c-.191-.563-.506-1.073-.92-1.491-.413-.419-.915-.734-1.466-.922l-2.787-.956 2.891-1.141c.534-.213 1.015-.546 1.408-.975.393-.428.688-.941.863-1.501l.829-2.699.898 2.675c.189.541.491 1.033.885 1.441.394.408.871.722 1.396.92l2.971 1.008zM709.543 369.424l-2.605.922c-.622.188-1.187.537-1.639 1.013-.453.477-.778 1.066-.944 1.709l-.803 2.699-.976-2.674c-.197-.56-.513-1.068-.926-1.486-.413-.417-.912-.734-1.461-.928l-2.786-.956 2.865-1.114c.541-.214 1.028-.55 1.425-.983.398-.434.696-.953.872-1.52l.829-2.699.898 2.675c.183.541.479 1.033.869 1.441.39.408.863.723 1.386.921l2.996.98zM171.769 71.525l-2.606.896c-.622.187-1.187.536-1.639 1.013-.453.477-.777 1.065-.943 1.709l-.803 2.698-.977-2.674c-.196-.56-.513-1.067-.926-1.485-.413-.418-.912-.735-1.46-.928l-2.787-.93 2.865-1.14c.541-.215 1.028-.55 1.426-.984.397-.433.695-.953.871-1.52l.829-2.698.898 2.675c.187.545.488 1.041.882 1.454.395.412.872.731 1.399.933l2.971.981zM261.805 375.49l-2.606.922c-.622.188-1.186.537-1.639 1.013-.452.477-.777 1.066-.943 1.709l-.803 2.699-.976-2.674c-.197-.56-.513-1.068-.926-1.486-.413-.417-.912-.734-1.461-.928l-2.786-.956 2.864-1.114c.541-.214 1.029-.55 1.426-.983.398-.434.696-.953.872-1.52l.829-2.699.898 2.675c.182.541.479 1.033.869 1.441.39.408.863.722 1.386.92l2.996.981zM693.276 433.898l-11.024 3.696c-2.444.788-4.663 2.177-6.464 4.047-1.801 1.87-3.129 4.164-3.868 6.682l-3.308 11.467-3.968-11.422c-.797-2.313-2.097-4.408-3.802-6.127-1.705-1.719-3.769-3.015-6.036-3.791l-11.409-3.877 11.952-4.784c2.205-.87 4.19-2.239 5.808-4.006 1.618-1.767 2.826-3.886 3.536-6.199l3.471-11.038 3.697 10.699c.767 2.219 1.999 4.238 3.607 5.915 1.609 1.678 3.556 2.973 5.704 3.795l12.104 4.943zM52.206 179.919l-11.05 3.67c-2.423.809-4.617 2.21-6.394 4.083-1.777 1.874-3.084 4.163-3.807 6.67l-3.309 11.44-3.941-11.395c-.8-2.316-2.104-4.413-3.814-6.132-1.71-1.718-3.779-3.013-6.05-3.786l-11.41-3.876 11.797-4.675c2.207-.864 4.196-2.228 5.818-3.99 1.623-1.762 2.837-3.877 3.553-6.188l3.392-11.038 3.697 10.7c.765 2.223 1.994 4.248 3.603 5.93 1.61 1.682 3.558 2.982 5.71 3.807l12.205 4.78zM587.509 125.663l-4.562 1.513c-.997.339-1.899.919-2.632 1.691-.733.773-1.274 1.715-1.577 2.747l-1.353 4.721-1.631-4.707c-.336-.953-.878-1.816-1.586-2.523-.707-.707-1.56-1.241-2.497-1.561l-4.706-1.602 4.87-1.921c.91-.363 1.73-.93 2.4-1.66.67-.73 1.173-1.603 1.472-2.558l1.408-4.561 1.523 4.468c.319.914.829 1.746 1.493 2.438.664.692 1.467 1.227 2.353 1.568l5.025 1.947zM76.039 256.486l-4.561 1.513c-.995.336-1.896.915-2.625 1.688-.729.773-1.264 1.717-1.558 2.749l-1.38 4.722-1.631-4.789c-.333-.955-.874-1.819-1.582-2.526-.708-.708-1.563-1.24-2.502-1.557l-4.705-1.603 4.896-1.92c.907-.364 1.723-.931 2.389-1.661.666-.73 1.163-1.604 1.457-2.557l1.407-4.561 1.523 4.468c.32.914.83 1.746 1.493 2.438.665.692 1.468 1.227 2.354 1.568l5.025 2.028zM118.757 546.549l-.997-2.447c-.218-.58-.617-1.107-1.159-1.533-.542-.427-1.21-.739-1.944-.908l-3.099-.776 3.095-.89c.651-.175 1.243-.465 1.73-.849.488-.383.858-.85 1.082-1.365l1.138-2.6 1.277 2.716c.239.502.616.956 1.104 1.327.489.372 1.076.652 1.72.821l3.098.8-3.094.817c-.626.172-1.197.451-1.672.816-.475.366-.843.809-1.078 1.299l-1.201 2.772zM222.269 661.684l-1.028-2.448c-.208-.584-.603-1.115-1.146-1.543-.544-.428-1.218-.737-1.957-.898l-3.099-.775 3.094-.891c.648-.179 1.237-.471 1.724-.854.487-.383.859-.848 1.088-1.359l1.139-2.601 1.246 2.692c.24.508.621.967 1.115 1.343s1.088.66 1.74.829l3.098.8-3.094.818c-.625.166-1.196.439-1.671.801-.476.361-.844.802-1.079 1.289l-1.17 2.797zM572.582 160.843l-.998-2.447c-.207-.584-.602-1.116-1.146-1.543-.543-.428-1.217-.737-1.957-.898l-3.098-.776 3.094-.89c.648-.18 1.237-.471 1.723-.855.487-.383.859-.847 1.089-1.359l1.108-2.6 1.277 2.692c.239.508.62.967 1.114 1.343.494.376 1.089.659 1.74.829l3.099.8-3.094.817c-.631.171-1.207.448-1.688.814-.48.365-.854.809-1.094 1.301l-1.169 2.772zM221.153 242.479l-1.029-2.448c-.208-.584-.602-1.115-1.146-1.543-.544-.428-1.218-.737-1.957-.898l-3.099-.775 3.095-.891c.647-.179 1.237-.471 1.723-.854.487-.383.859-.848 1.089-1.359l1.138-2.601 1.246 2.692c.24.508.621.967 1.115 1.343s1.089.66 1.74.829l3.099.8-3.095.817c-.625.167-1.195.44-1.671.802-.476.361-.844.802-1.079 1.289l-1.169 2.797zM148.19 645.893l-4.115-10.353c-.876-2.294-2.447-4.384-4.579-6.086-2.131-1.702-4.756-2.966-7.648-3.68l-13.169-3.197 13.213-3.614c2.675-.726 5.107-1.925 7.11-3.506 2.002-1.581 3.523-3.503 4.447-5.618l4.617-10.647 5.356 11.231c.973 2.072 2.525 3.942 4.54 5.472 2.014 1.53 4.44 2.68 7.095 3.365l12.674 3.345-12.377 3.368c-2.566.699-4.909 1.834-6.863 3.326-1.954 1.491-3.472 3.302-4.448 5.306l-5.853 11.288zM449.25 47.97l-4.084-10.378c-.9-2.274-2.486-4.34-4.622-6.02-2.135-1.68-4.756-2.924-7.635-3.623l-13.139-3.197 13.182-3.59c2.679-.729 5.113-1.931 7.116-3.517 2.003-1.585 3.522-3.511 4.441-5.631l4.617-10.647 5.232 11.084c.966 2.074 2.512 3.947 4.521 5.482 2.009 1.534 4.43 2.69 7.084 3.38l12.673 3.271-12.377 3.368c-2.572.696-4.921 1.83-6.88 3.321-1.96 1.492-3.483 3.305-4.462 5.311L449.25 47.97zM504.747 549.569l-1.684-4.283c-.377-.936-1.033-1.786-1.913-2.479-.881-.693-1.959-1.207-3.145-1.5l-5.422-1.308 5.446-1.486c1.102-.306 2.103-.806 2.927-1.462.824-.656 1.45-1.451 1.832-2.324l1.908-4.392 2.149 4.576c.407.855 1.049 1.628 1.881 2.261.832.633 1.832 1.112 2.928 1.401l5.237 1.357-5.168 1.387c-1.058.291-2.023.761-2.829 1.376-.806.616-1.432 1.363-1.837 2.19l-2.31 4.686zM360.713 69.611l-1.684-4.283c-.374-.935-1.03-1.783-1.911-2.472-.881-.689-1.961-1.198-3.147-1.483l-5.422-1.332 5.539-1.486c1.104-.303 2.107-.802 2.932-1.459.824-.656 1.449-1.452 1.826-2.328l1.909-4.391 2.148 4.6c.407.853 1.05 1.622 1.883 2.251.832.63 1.832 1.103 2.927 1.386l5.237 1.358-5.168 1.386c-1.058.291-2.023.761-2.829 1.377s-1.433 1.363-1.837 2.19l-2.403 4.686z"/>
    <path fill="#FFDD4D" d="M403.41 677.724c-5.66-5.176-10.668-11.183-14.83-18.012-1.87-3.074-6.276-.133-4.385 2.974 4.421 7.245 9.608 13.7 15.625 19.209 2.537 2.318 6.154-1.82 3.59-4.171zM425.824 649.058c-6.905-2.813-13.608-6.118-20.123-9.89-3.282-1.899-6.191 3.583-2.909 5.483 6.955 4.031 14.128 7.533 21.497 10.525 3.485 1.424 4.988-4.712 1.535-6.118zM431.014 604.041c-6.565.297-13.123.594-19.688.899-3.503.159-3.526 5.295 0 5.136 6.565-.297 13.123-.594 19.688-.899 3.503-.159 3.526-5.295 0-5.136zM309.688 648.002c-9.393 3.13-18.16 7.726-26.029 13.795-2.95 2.272-.041 7.401 2.95 5.095 7.465-5.753 15.713-10.224 24.628-13.196 3.56-1.182 2.036-6.885-1.549-5.694zM293.989 617.68c-6.996-1.018-14.031-1.567-21.105-1.559-2.932 0-2.94 4.614 0 4.614 6.657-.008 13.299.438 19.886 1.401 2.877.413 4.119-4.034 1.219-4.456zM300.63 580.903c-2.675-2.603-6.089-4.31-9.225-6.218l-10.647-6.477c-3.144-1.916-5.978 3.214-2.842 5.122 3.239 1.975 6.478 3.941 9.718 5.916 2.969 1.808 6.486 3.389 9.011 5.849 2.66 2.595 6.653-1.598 3.985-4.192zM417.174 561.979c-7.601 3.42-14.91 7.465-21.88 12.238-2.973 2.04-.239 7.236 2.757 5.18 6.554-4.494 13.424-8.421 20.579-11.637 3.204-1.439 1.802-7.245-1.456-5.781zM371.956 693.87c-1.02-7.563-2.048-15.127-3.069-22.69-.518-3.85-6.191-2.208-5.673 1.61 1.02 7.563 2.048 15.127 3.068 22.69.518 3.858 6.192 2.216 5.674-1.61zM335.315 669.429c-1.454 6.266-2.907 12.54-4.361 18.805-.793 3.42 4.974 4.879 5.767 1.445l4.361-18.805c.794-3.412-4.966-4.878-5.767-1.445z"/>
    <path fill="#FABE2C" fill-rule="evenodd" d="M368.988 559.888v-70.551c0-4.065-3.22-7.391-7.155-7.391h-22.65c-3.935 0-7.155 3.326-7.155 7.391v35.553h-24.87v18.758h24.87v16.24c-18.169 7.564-30.999 25.931-30.999 47.407 0 28.224 22.154 51.107 49.479 51.107s49.479-22.883 49.479-51.107c0-21.476-12.83-39.843-30.999-47.407zm-52.562 47.613c0 19.34 15.303 35.065 34.104 35.065s34.095-15.725 34.104-35.065c0-19.34-15.303-35.065-34.104-35.065-18.81 0-34.104 15.734-34.104 35.065z" clip-rule="evenodd"/>
    <g clip-path="url(#clip0)">
        <path fill="#72716F" d="M282.277 176.453l-3.622 13.1-32.494-8.991 3.623-13.099c17.918-64.817 85.238-102.964 150.062-85.037 64.817 17.926 102.964 85.245 85.037 150.062l-29.72 107.451-32.493-8.99 29.72-107.443c12.968-46.906-14.636-95.611-61.534-108.587-46.898-12.976-95.611 14.636-108.579 61.534z"/>
        <path fill="#16697A" d="M178 489.724c0 7.222 5.854 13.076 13.076 13.076h321.002c7.222 0 13.076-5.854 13.076-13.076V281.155c0-7.221-5.854-13.076-13.076-13.076h-321.01c-7.221 0-13.076 5.855-13.076 13.076v208.569H178z"/>
        <path fill="#489FB5" fill-opacity=".7" d="M178 489.724V361.929c105.76 89.478 258.24 123.099 344.652 135.434-2.379 3.282-6.21 5.437-10.574 5.437h-321.01c-7.213 0-13.068-5.854-13.068-13.076z"/>
        <path fill="#489FB5" d="M512.48 292.817v44.913c-1.189-19.069-10.365-60.576-67.774-60.576h52.119c8.612 0 15.655 7.051 15.655 15.663z"/>
        <path fill="#FABE2C" d="M351.577 443.587c31.389 0 56.835-26.133 56.835-58.371 0-32.237-25.446-58.371-56.835-58.371s-56.835 26.134-56.835 58.371c0 32.238 25.446 58.371 56.835 58.371z"/>
        <path fill="#FFA62B" fill-rule="evenodd" d="M403.841 408.121c-10.372 11.386-25.132 18.501-41.511 18.501-31.389 0-56.835-26.133-56.835-58.371 0-8.157 1.629-15.922 4.571-22.973-9.505 10.434-15.324 24.454-15.324 39.87 0 32.237 25.446 58.371 56.835 58.371 23.447 0 43.578-14.582 52.264-35.398z" clip-rule="evenodd"/>
    </g>
    <defs>
        <clipPath id="clip0">
            <path fill="#fff" d="M0 0H347.154V424.8H0z" transform="matrix(-1 0 0 1 525.154 78)"/>
        </clipPath>
    </defs>
</svg>
