<svg width="65" height="65" viewBox="0 0 65 65" fill="none" xmlns="http://www.w3.org/2000/svg">
<path d="M58.1111 58.5405L50.2858 56.8182L47.8605 64.4748C47.686 65.0253 46.9405 65.1061 46.6524 64.6056L36.9717 47.7888C41.7403 46.7556 45.9832 44.3067 49.241 40.9033L58.8291 57.5611C59.1168 58.0608 58.6743 58.6645 58.1111 58.5405Z" fill="#FD646F"/>
<path d="M58.1111 58.5405L50.878 56.9485C50.5426 56.8746 50.2063 57.0689 50.1026 57.3962L47.8605 64.4747C47.6861 65.0252 46.9405 65.1059 46.6524 64.6054L38.359 50.1975L36.9717 47.7887C41.7403 46.7554 45.9832 44.3066 49.241 40.9031L50.6177 43.2933L58.8292 57.561C59.1166 58.061 58.6742 58.6645 58.1111 58.5405Z" fill="#FD646F"/>
<path d="M58.1109 58.5401L50.8783 56.9483C50.5425 56.8753 50.2066 57.0691 50.103 57.3957L50.8815 54.9766C50.9865 54.6503 51.3228 54.4577 51.6575 54.532L57.8812 55.9155L58.8291 57.5617C59.1172 58.0608 58.6738 58.6649 58.1109 58.5401Z" fill="#FC4755"/>
<path d="M28.1809 47.587L18.3471 64.6669C18.059 65.1674 17.3135 65.0867 17.139 64.5361L14.8968 57.4576C14.7931 57.1302 14.4567 56.936 14.1213 57.0098L6.88839 58.6017C6.32523 58.7257 5.88276 58.122 6.17044 57.6223L15.3164 41.7327C18.7309 44.9699 23.3366 46.7894 28.1809 47.587Z" fill="#FD646F"/>
<path d="M16.6105 44.0963L8.4606 58.2549L6.8885 58.6013C6.32535 58.7254 5.88274 58.1218 6.17042 57.6219L13.9555 44.0963L16.0608 40.4293C16.6276 40.9659 17.2197 41.476 17.837 41.9554L16.6105 44.0963Z" fill="#FC4755"/>
<path d="M19.3061 62.9994L18.3462 64.6668C18.0582 65.1673 17.3134 65.0876 17.1382 64.5367L14.8959 57.4581C14.7924 57.1302 14.4565 56.9364 14.1206 57.0094L16.6005 56.4639C16.9358 56.3901 17.2721 56.5843 17.3758 56.9116L19.3061 62.9994Z" fill="#FC4755"/>
<path d="M15.5376 41.3285L22.0054 44.2451L28.1808 47.587L26.5249 50.4612C21.9077 49.5238 17.6236 47.3746 14.083 44.2094C14.0405 44.1721 13.998 44.1348 13.9556 44.0962L15.5376 41.3285Z" fill="#FC4755"/>
<path d="M50.6172 43.2935L49.2405 40.9033L41.9557 44.1187L36.9712 47.7889L37.5314 48.7616L38.9072 51.1509L46.6519 64.6055C46.94 65.106 47.6855 65.0253 47.86 64.4747L48.3532 62.9178L40.6553 49.5093C44.3819 48.2125 47.7744 46.1027 50.6172 43.2935Z" fill="#FC4755"/>
<path d="M56.5936 24.1667C56.5936 30.6621 54.0381 36.561 49.8788 40.9033C46.621 44.3067 42.3781 46.7556 37.6095 47.7888C35.962 48.1457 34.2534 48.3334 32.4997 48.3334C31.1615 48.3334 29.8499 48.2241 28.5714 48.0138C23.9754 47.2575 19.8162 45.1962 16.4866 42.2215C16.3061 42.0617 16.1295 41.8993 15.9543 41.7329C15.333 41.1444 14.7435 40.5224 14.186 39.8714C13.6523 39.2455 13.1505 38.5917 12.6818 37.9127C11.2746 35.8767 10.1714 33.6116 9.43728 31.1855C8.76686 28.9645 8.40576 26.6089 8.40576 24.1668C8.40576 10.8203 19.1935 0 32.4997 0C34.9331 0 37.2829 0.362159 39.496 1.03603C41.9161 1.76977 44.173 2.8763 46.2041 4.28909C46.8812 4.75918 47.533 5.26246 48.1557 5.79906C48.9894 6.51276 49.7726 7.28381 50.5015 8.10398C54.2917 12.3743 56.5936 18.0015 56.5936 24.1667Z" fill="#FAA515"/>
<path d="M32.4999 41.476C42.0309 41.476 49.7572 33.7263 49.7572 24.1665C49.7572 14.6068 42.0309 6.85712 32.4999 6.85712C22.969 6.85712 15.2427 14.6068 15.2427 24.1665C15.2427 33.7263 22.969 41.476 32.4999 41.476Z" fill="#FAD207"/>
<path d="M49.7567 24.1667C49.7567 33.7261 42.0302 41.4759 32.4997 41.4759C22.9691 41.4759 15.2427 33.7261 15.2427 24.1667C15.2427 23.4449 15.2865 22.7339 15.3728 22.0363C16.4189 30.5916 23.6886 37.2148 32.4997 37.2148C41.3107 37.2148 48.5804 30.5916 49.6266 22.0363C49.7128 22.734 49.7567 23.4451 49.7567 24.1667Z" fill="#FAA515"/>
<path fill-rule="evenodd" clip-rule="evenodd" d="M32.4997 6.85767C22.9691 6.85767 15.2427 14.6074 15.2427 24.1668C15.2427 33.7262 22.9691 41.476 32.4997 41.476C42.0302 41.476 49.7567 33.7262 49.7567 24.1668C49.7567 14.6074 42.0302 6.85767 32.4997 6.85767ZM32.4997 39.4785C24.0816 39.4785 17.234 32.6103 17.234 24.1668C17.234 15.7234 24.0816 8.85512 32.4997 8.85512C40.9177 8.85512 47.7653 15.7234 47.7653 24.1668C47.7653 32.6103 40.9177 39.4785 32.4997 39.4785Z" fill="#FAF063"/>
<path d="M33.0959 14.5948L35.4666 19.4374C35.5631 19.6347 35.7509 19.7714 35.9684 19.8026L41.296 20.5681C41.8413 20.6464 42.0594 21.3164 41.6647 21.7006L37.8006 25.4633C37.6436 25.6161 37.5722 25.8364 37.6095 26.0521L38.5303 31.3723C38.6244 31.9158 38.0529 32.3303 37.5654 32.0721L32.8105 29.5523C32.6162 29.4493 32.3833 29.4493 32.1889 29.5523L27.434 32.0721C26.9465 32.3304 26.375 31.9159 26.4691 31.3723L27.3899 26.0521C27.4272 25.8364 27.3558 25.6161 27.1989 25.4633L23.3348 21.7006C22.9401 21.3163 23.1582 20.6464 23.7034 20.5681L29.0311 19.8026C29.2484 19.7714 29.4362 19.6347 29.5329 19.4374L31.9035 14.5948C32.1463 14.0988 32.8531 14.0988 33.0959 14.5948Z" fill="#FAA515"/>
</svg>
