<svg xmlns="http://www.w3.org/2000/svg" width="96" height="158" fill="none" viewBox="0 0 96 158">
    <path fill="#1A1B41" d="M6.4 85.96c4.375-26.787 6.857-53.839 8.22-80.972-2.136 1.24-4.293 2.482-6.43 3.702 23.932 15.784 47.254 32.3 69.62 50.218.691-2.603 1.363-5.186 2.055-7.79C53.104 58.99 28.765 72.271 7.6 90.434c2.523.672 5.047 1.343 7.57 1.994-3.622-10.943-2.238-22.882-1.994-34.252.264-12.041.509-24.062.773-36.103H5.463C6.521 41.6 7.498 61.105 8.475 80.631c.224 4.495 7 5.837 8.14 1.098 4.477-18.448 5.597-37.079 3.175-55.913-.651-5.065-8.486-5.41-8.222 0 .672 13.22 1.282 26.441 1.913 39.662h8.324c-1.567-14.34-1.323-28.475 1.017-42.733-2.584.345-5.19.67-7.774 1.017 4.152 8.664 6.655 17.471 7.611 27.03h8.629c-1.954-15.07-5.474-29.593-10.867-43.81-2.809.813-5.637 1.586-8.486 2.38 6.553 15.66 15.405 29.613 26.883 42.122l6.308-6.305c-9.381-7.566-22.67-14.807-32.56-3.885-2.178 2.42-1.425 6.61 1.973 7.465 9.89 2.481 19.76 3.6 29.956 3.295-1.058-2.543-2.116-5.085-3.154-7.628-9.809 9.174-19.638 18.347-29.447 27.52-2.95 2.766-.509 7.322 3.134 7.546 13.737.813 26.232-4.577 34.88-15.296 2.24-2.766.998-7.505-3.072-7.423-8.629.162-16.83 1.403-25.113 3.823 1.1 2.624 2.198 5.228 3.317 7.852 9.22-5.065 18.743-9.133 28.796-12.286 3.684-1.159 4.111-5.817 1.038-7.891-8.628-5.838-17.277-11.675-25.906-17.513v7.506c2.85-1.445 13.146 6.02 15.812 7.464 5.475 2.97 10.949 5.94 16.403 8.889 4.274 2.318 9.015-3.336 5.311-6.895-8.852-8.502-17.725-17.004-26.577-25.506l-6.228 6.224c8.12 6.732 16.22 13.464 24.32 20.197l4.334-7.444c-10.928-3.804-22-6.143-33.497-7.262-1.832-.183-4.05 1.526-4.396 3.336-.814 4.332.875 6.753 4.498 8.95 3.52 2.135 5.433.813 1.75 4.128-4.152 3.743-9.89 6.428-14.856 8.909l6.39 6.387c1.73-3.946 4.375-6.875 8.201-8.868-2.279-.936-4.558-1.851-6.837-2.787 7.733 19.445 15.547 38.828 23.28 58.293 1.812 4.576 8.568 4.129 8.812-1.2.936-20.482-4.05-40.13-14.57-57.723-2.097-3.499-8.874-2.36-8.324 2.257 2.401 19.71 6.838 38.991 14.103 57.5 4.233 10.76 9.788 29.635 24.156 29.879 14.55.244 14.266-13.607 9.015-23.167-10.887-19.79-22.12-39.438-33.15-59.168-2.524-4.535-9.301-1.403-8.182 3.438 6.044 25.994 12.556 52.11 27.351 74.686 2.788 4.251 9.26 1.567 8.16-3.437-5.738-26.116-14.265-51.337-25.417-75.663-2.157-4.719-9.3-1.302-8.14 3.438 5.78 23.634 15.426 45.824 28.776 66.164 2.849 4.353 8.974 1.485 8.12-3.417-4.437-25.547-11.6-50.36-21.389-74.361-2.076-5.065-9.585-3.295-8.364 2.298 2.503 11.614 6.634 22.699 12.007 33.275 2.747 5.41 5.8 10.618 8.995 15.764 1.485 2.359 3.093 4.657 4.436 7.118.773 1.607 1.547 3.214 2.3 4.821 2.849 5.797.285 8.502-7.652 8.095-.326-5.898-9.565-5.919-9.198 0 1.16 18.855 25.132 15.438 26.679-1.627.977-10.902-7.51-20.299-12.699-29.045-7.57-12.753-13.39-26.157-16.484-40.7-2.788.774-5.576 1.547-8.364 2.299 9.707 24.041 16.77 48.876 21.205 74.422l8.12-3.417c-12.942-19.749-22.243-41.126-27.86-64.049-2.706 1.14-5.413 2.278-8.14 3.438C51.984 87.81 60.104 112.4 65.66 137.763c2.727-1.139 5.434-2.298 8.16-3.437-14.387-21.967-20.574-47.29-26.435-72.571-2.727 1.139-5.454 2.298-8.18 3.437C45.512 76.482 51.8 87.75 58.11 99.038c3.154 5.634 6.288 11.288 9.422 16.943 1.303 2.339 5.21 7.546 5.637 10.17-.692 2.542-1.404 5.085-2.096 7.647-2.89-.61-5.026-2.115-6.37-4.474-7.407-8.868-11.07-23.147-14.469-34.008-4.05-12.936-6.878-26.197-8.506-39.662-2.768.752-5.536 1.505-8.324 2.258 9.789 16.393 14.205 34.15 13.31 53.208 2.93-.407 5.881-.793 8.811-1.2-7.692-19.445-15.283-38.93-22.955-58.375-1.14-2.867-3.948-4.271-6.838-2.786-5.515 2.847-9.056 6.508-11.58 12.183-1.871 4.21 1.995 8.624 6.39 6.387 6.493-3.295 22.142-9.987 22.509-18.977.183-4.475-9.24-11.96-9.85-8.665-1.465 1.12-2.93 2.217-4.396 3.336 10.725.976 20.961 3.275 31.136 6.753 4.091 1.403 7.774-4.617 4.335-7.445-8.14-6.691-16.26-13.424-24.38-20.136-4.294-3.539-10.399 2.238-6.227 6.224l26.598 25.486 5.312-6.895c-8.751-4.72-17.44-9.641-26.293-14.177-5.332-2.746-9.117-4.983-14.775-2.115-3.093 1.566-2.523 5.796 0 7.505 8.65 5.817 17.278 11.634 25.927 17.451l1.038-7.892c-10.745 3.397-20.961 7.77-30.831 13.221-4.254 2.34-1.384 9.194 3.317 7.851 7.53-2.176 14.978-3.295 22.833-3.396-1.017-2.482-2.055-4.963-3.073-7.424-7.326 8.97-17.196 13.342-28.735 12.63 1.038 2.523 2.076 5.024 3.134 7.546 9.85-9.152 19.68-18.305 29.529-27.438 2.828-2.623.651-7.729-3.175-7.627-9.443.244-18.397-.691-27.575-2.97.651 2.482 1.323 4.984 1.974 7.465 6.166-6.834 14.571-.468 19.923 3.865 4.396 3.539 10.257-1.994 6.309-6.306C34.402 33.565 26.139 20.507 19.973 5.985c-1.892-4.577-9.83-1.302-8.038 3.376 5.169 13.424 8.832 27.194 10.745 41.472.712 5.37 9.218 5.594 8.628 0-1.16-11.085-4.05-21.295-8.913-31.322-1.526-3.133-7.204-2.563-7.774 1.017-2.381 14.99-2.85 29.858-1.12 44.97.59 5.187 8.609 5.451 8.324 0-.692-13.22-1.384-26.441-2.035-39.662h-8.222c2.32 18.123 1.405 35.92-2.95 53.697l8.14 1.098c-.957-19.526-1.934-39.032-2.829-58.558-.244-5.45-8.323-5.491-8.486 0-.367 13.302-.774 26.605-1.16 39.907C3.957 73.043 2.98 84.15 6.44 94.828c1.099 3.397 4.945 4.23 7.57 1.993 20.025-17.044 43.082-29.39 68.317-36.733 3.073-.895 4.905-5.492 2.055-7.79C61.508 33.87 37.637 16.602 12.504 1.307c-2.828-1.73-6.39.508-6.45 3.681-.387 26.848-2.422 53.554-5.19 80.24-.326 3.112 5.006 3.864 5.535.732z"/>
    <path fill="#1A1B41" d="M31.9 67.126c5.677 22.658 15.71 44.706 23.83 66.591 2.462 6.651 4.497 16.434 10.745 20.848 5.76 4.068 12.963 2.583 19.028.203 4.517-1.769 9.971-4.332 10.46-9.824.651-7.424-7.326-20.176-10.257-26.644-9.382-20.747-20.127-40.822-31.99-60.246-1.69-2.766-5.679-2.766-7.368 0-6.471 10.577 4.396 25.099 8.832 34.597 3.887 8.319 7.774 16.659 11.64 24.977 3.908 8.401 11.967 19.994 7.632 29.493-1.567 3.457 1.791 7.83 5.556 5.552 1.486-.915 2.992-1.81 4.477-2.725 4.396-2.685.427-9.519-4.05-6.916-1.506.875-3.012 1.75-4.538 2.645l5.556 5.552c5.78-12-.57-23.207-5.698-34.272-3.867-8.339-7.733-16.658-11.6-24.997-2.89-6.204-14.368-23.187-10.44-29.594h-7.367c7.896 12.956 15.324 26.197 22.121 39.764 3.399 6.773 6.655 13.627 9.769 20.543 2.584 5.735 11.396 18.061 6.349 23.207-4.579 4.678-13.9 1.342-16.891-3.214-2.381-3.64-3.643-8.868-5.27-12.875-3.053-7.525-6.106-15.03-9.159-22.556-5.637-13.872-10.663-28.414-17.786-41.594-1.079-1.994-4.11-.63-3.582 1.484zM2.575 99.425C5.974 84.089 7.927 68.61 9.78 53.03c1.974-16.394 5.576-33.499 5.536-49.994 0-3.458-5.23-4.272-6.085-.814-3.765 15.031-4.294 31.425-5.942 46.822C1.497 65.722-.152 82.299.01 99.099c0 1.424 2.239 1.81 2.564.326z"/>
    <path fill="#1A1B41" d="M5.365 94.91c-.936-1.486-.855-2.767.325-4.13.875-1.017 2.36-1.85 3.48-.793.143-1.139.285-2.278.448-3.417-2.89 1.586-5.17 3.803-6.899 6.63-1.16 1.892 1.262 4.638 3.215 3.214 2.3-1.688 4.559-3.396 6.818-5.125l-3.338-3.336c-1.933 3.336-3.887 6.671-5.82 10.027-1.628 2.807 2.544 5.167 4.314 2.523 2.83-4.21 6.553-7.485 11.01-9.885-.875-1.485-1.73-2.97-2.605-4.455-3.073 2.299-6.146 4.577-9.219 6.855 1.079 1.383 2.137 2.766 3.196 4.149.773-.814 1.485-1.688 2.197-2.563 1.486-1.79-.427-4.983-2.686-3.478-1.12.753-2.198 1.485-3.256 2.298-2.32 1.851.814 5.96 3.195 4.15 3.053-2.299 6.105-4.617 9.178-6.916 2.585-1.952.387-6.102-2.605-4.454-5.19 2.847-9.463 6.875-12.719 11.817 1.445.834 2.87 1.688 4.314 2.522 1.913-3.356 3.806-6.712 5.719-10.088 1.465-2.583-1.75-4.556-3.826-2.95-2.238 1.75-4.497 3.479-6.716 5.248 1.221.956 2.463 1.892 3.684 2.848 1.241-2.238 2.829-3.926 5.026-5.248 1.405-.854 1.405-2.908 0-3.763-5.698-3.478-13.879 5.817-8.079 9.946 1.018.712 2.26-.65 1.649-1.627z"/>
</svg>
