<svg xmlns="http://www.w3.org/2000/svg" width="277" height="277" fill="none" viewBox="0 0 277 277">
    <path fill="#FFA62B" d="M138.5 276c75.939 0 137.5-61.561 137.5-137.5C276 62.56 214.439 1 138.5 1 62.56 1 1 62.56 1 138.5 1 214.439 62.56 276 138.5 276z"/>
    <path fill="#000" d="M214.134 23.79c6.354 15.952 9.619 32.966 9.622 50.138.052 24.844-6.632 49.238-19.342 70.586-12.71 21.347-30.97 38.849-52.836 50.644-21.866 11.795-46.521 17.441-71.341 16.337-24.82-1.103-48.877-8.915-69.61-22.604 7.888 20.116 20.408 38.088 36.544 52.457 16.136 14.37 35.434 24.731 56.325 30.245 20.892 5.513 42.789 6.021 63.915 1.485 21.125-4.537 40.883-13.991 57.669-27.596 16.786-13.604 30.128-30.975 38.941-50.703 8.814-19.727 12.852-41.255 11.785-62.836-1.066-21.58-7.206-42.605-17.922-61.368-10.715-18.762-25.705-34.733-43.75-46.617v-.168z" opacity=".2"/>
    <path stroke="#263238" stroke-linecap="round" stroke-linejoin="round" d="M138.5 276c75.939 0 137.5-61.561 137.5-137.5C276 62.56 214.439 1 138.5 1 62.56 1 1 62.56 1 138.5 1 214.439 62.56 276 138.5 276z"/>
    <path stroke="#263238" stroke-linecap="round" stroke-linejoin="round" d="M249.572 219.363c1.968-9.924 2.958-20.017 2.954-30.134-.026-25.499-6.287-50.604-18.236-73.13-11.948-22.526-29.223-41.788-50.32-56.11-21.096-14.323-45.374-23.27-70.719-26.063-25.346-2.793-50.99.653-74.698 10.038"/>
    <path stroke="#263238" stroke-linecap="round" stroke-linejoin="round" d="M29.785 221.726c73.519 42.203 173.036 6.837 222.33-78.921 7.771-13.555 14-27.938 18.57-42.88"/>
    <path stroke="#263238" stroke-linecap="round" stroke-linejoin="round" d="M3.537 155.888c27.18 14.687 58.579 14.265 94.03 12.576 28.952-1.266 129.735-26.25 138.007 22.622 4.726 27.263-30.894 60.098-67.02 80.947M138.494 1c15.731.708 31.039 5.313 44.55 13.401 13.51 8.089 24.799 19.407 32.852 32.939 17.388 26.926 32.159 77.064 57.313 110.743"/>
</svg>
