<svg xmlns="http://www.w3.org/2000/svg" width="464" height="413" fill="none" viewBox="0 0 464 413">
    <path fill="#489FB5" d="M463.554 0H.445v315.273h463.109V0z"/>
    <path fill="#fff" d="M443.916 295.605V19.668H20.143v275.937h423.773z"/>
    <path fill="#489FB5" d="M315.459 142.394v125.808H148.644V142.394h166.913-.098zm16.488-16.39H132.254v158.588h199.693V126.004z"/>
    <path fill="#489FB5" d="M310.417 241.497c-.408-.328-.926-.482-1.446-.431-.519.051-.998.305-1.333.706l-1.527 2.119c-.109.059-.193.157-.235.274-.117.134-.222.279-.313.432-2.388 1.216-5.636 2.904-9.59 5.18-2.348-2.63-4.697-5.259-7.045-7.848-.279-.218-.625-.329-.978-.313-.352.015-.688.155-.947.396-.259.241-.424.566-.465.917-.042.351.042.706.237 1.001 2.192 2.354 4.384 4.787 6.615 7.298-5.323 3.179-10.333 6.279-15.108 9.496-3.915-4.355-8.142-8.632-12.291-12.792 1.84-1.295 3.679-2.59 5.441-3.924.159-.113.295-.257.399-.423.104-.166.174-.35.207-.543.032-.194.027-.391-.017-.582-.043-.191-.124-.372-.237-.531-.109-.159-.249-.294-.411-.398-.162-.104-.343-.174-.533-.207-.189-.033-.383-.027-.571.016-.187.043-.364.123-.52.235l-5.911 3.924c-1.37-1.334-2.739-2.707-4.109-3.924-.133-.17-.301-.31-.492-.409-.192-.099-.403-.155-.618-.165-.216-.009-.43.029-.63.111-.199.082-.378.207-.525.365-.147.159-.257.347-.324.553-.066.205-.088.423-.062.638.025.214.097.421.21.605.113.184.265.341.444.461l3.719 3.57c-4.971 3.61-9.59 7.181-14.013 10.752-3.914-3.924-8.415-7.848-13.151-11.772l2.935-2.472c.151-.118.276-.266.368-.434.092-.168.149-.353.168-.544.018-.191-.003-.384-.061-.566-.059-.183-.153-.352-.279-.496-.251-.299-.609-.487-.997-.524-.388-.036-.775.081-1.078.327l-3.366 2.786-3.366-2.825c-.147-.151-.325-.268-.521-.345-.197-.077-.407-.111-.617-.1-.211.011-.416.067-.604.163-.187.097-.352.232-.483.397s-.226.357-.278.561c-.052.205-.06.418-.024.626.037.208.117.406.235.581.119.174.273.322.453.432l2.974 2.433c-4.514 3.872-8.885 7.796-13.112 11.772-4.462-3.61-9.12-7.142-14.052-10.752l3.719-3.57c.216-.28.327-.627.312-.981-.016-.353-.156-.69-.396-.949-.24-.259-.564-.425-.914-.467-.351-.042-.704.043-.999.238-1.37 1.256-2.74 2.629-4.109 3.924l-5.911-3.924c-.159-.113-.339-.194-.53-.238-.19-.043-.387-.049-.58-.016-.193.033-.377.103-.542.208-.166.104-.309.24-.422.4-.215.33-.294.731-.221 1.118.073.388.292.732.612.961 1.761 1.177 3.601 2.472 5.441 3.924-3.914 3.924-8.22 8.319-12.33 12.792-5.127-3.413-10.176-6.592-15.069-9.496 2.153-2.472 4.345-4.944 6.576-7.298.17-.133.309-.301.408-.493.099-.192.155-.404.164-.62.01-.216-.028-.431-.11-.631s-.206-.379-.364-.526c-.159-.147-.347-.258-.552-.325-.205-.067-.422-.088-.636-.063-.214.026-.42.098-.604.211-.183.113-.34.265-.459.446-2.349 2.511-4.697 5.14-7.006 7.848-3.249-1.845-6.459-3.532-9.512-5.102-.108-.164-.225-.321-.352-.471v-.196l-1.722-2.236c-.16-.202-.358-.37-.584-.493-.225-.124-.473-.2-.728-.226-.256-.026-.514.001-.759.077s-.473.201-.669.367c-.403.324-.663.794-.721 1.309-.059.514.088 1.031.408 1.438 0 0 .626.784 1.683 2.197 1.291 1.844 3.914 5.651 7.084 11.262 3.61 6.329 6.813 12.882 9.59 19.62.391.942.783 1.844 1.174 2.825 2.396 6.087 4.474 12.295 6.224 18.6v.196c.939 3.335 1.839 6.985 2.74 11.223.9 4.237 1.683 8.632 2.231 12.831.548 4.199 1.096 8.868 1.448 13.812.274 4.16.391 8.672.391 13.813 0 2.747 0 6.357-.313 10.006-.426 7.195-1.249 14.36-2.466 21.464-.235 1.373-.47 2.786-.744 4.199-.978 5.179-2.152 10.359-3.522 15.46-.783 2.865-1.605 5.768-2.544 8.711-.085.245-.12.504-.103.762.018.259.087.511.204.742.117.231.279.436.477.602.198.166.427.291.674.367.194.037.393.037.587 0 .419.002.827-.13 1.165-.377.338-.247.589-.597.714-.997.705-2.237 1.292-4.395 1.918-6.553 1.683 1.373 3.523 2.943 5.597 4.748l-.235.432c-.106.163-.179.347-.213.54-.034.192-.029.39.015.58.043.191.125.371.24.529.115.158.261.291.428.391.23.12.484.187.744.196.248.006.494-.052.713-.169.219-.117.405-.288.539-.498l.353.314c.273.232.62.358.978.353.209.005.417-.039.607-.127s.357-.219.489-.383c.27-.278.421-.651.421-1.04 0-.388-.151-.761-.421-1.039l-.705-.628c2.349-3.924 4.971-7.848 7.829-12.243 3.053 2.904 6.301 6.121 9.628 9.653l-1.878 2.668-.548.824c-.112.157-.192.334-.235.522-.043.188-.049.383-.016.573.033.189.103.371.207.533.103.163.238.303.396.413.237.178.526.274.822.274.238 0 .472-.056.683-.166.211-.109.393-.267.53-.461l.588-.824 1.487-2.159c.978 1.021 1.918 2.041 2.857 3.14.142.148.312.266.5.347.189.081.391.123.596.123.358.005.705-.121.979-.353.138-.135.248-.297.323-.475.075-.179.114-.371.114-.565 0-.193-.039-.385-.114-.564-.075-.179-.185-.34-.323-.475-1.096-1.256-2.192-2.433-3.288-3.611 2.975-4.237 5.91-8.161 8.376-11.379 2.857 3.218 5.832 6.71 8.963 10.516l-3.522 4.552c-.122.15-.211.323-.263.508-.053.186-.066.38-.04.572.025.191.09.375.189.54.099.165.231.308.388.42.115.108.25.191.398.245.148.054.306.078.463.069.228.005.455-.046.659-.148.205-.103.382-.254.515-.44 1.018-1.334 2.075-2.629 3.131-3.924l3.132 3.924c.135.171.308.31.504.405.197.095.412.144.631.144.338-.003.667-.112.939-.314.304-.246.499-.602.543-.991.044-.389-.067-.78-.308-1.088-1.213-1.492-2.388-3.022-3.562-4.513 3.131-3.924 6.106-7.299 9.003-10.516 3.17 4.12 5.871 7.848 8.376 11.34l-3.327 3.649c-.268.272-.418.639-.418 1.021 0 .381.15.748.418 1.02.277.271.65.422 1.037.422.388 0 .76-.151 1.037-.422.979-1.099 1.918-2.119 2.897-3.139l1.487 2.158.587.824c.134.189.31.344.513.453.204.109.431.169.662.175.309.005.611-.091.861-.275.158-.11.292-.25.396-.412.103-.163.174-.344.206-.534.033-.19.028-.385-.015-.573-.043-.188-.123-.365-.235-.522l-.548-.824-1.879-2.668c3.249-3.453 6.458-6.671 9.59-9.653 2.701 3.924 5.323 7.848 7.828 12.243l-.705.628c-.27.278-.421.651-.421 1.04 0 .388.151.761.421 1.04.132.163.299.294.489.382.19.089.398.132.607.128.358.004.706-.122.979-.354l.391-.353c.114.214.283.392.49.516.207.125.443.191.685.191.29-.005.573-.086.822-.236.326-.223.553-.565.633-.953.081-.387.008-.791-.203-1.127l-.235-.353c1.996-1.726 3.914-3.296 5.637-4.748.587 2.158 1.213 4.317 1.918 6.553.125.401.375.75.713.997.339.247.747.379 1.165.377.195.033.393.033.587 0 .493-.162.902-.513 1.137-.977.235-.463.277-1.001.116-1.495-.939-2.943-1.761-5.847-2.544-8.712-1.37-5.022-2.544-10.202-3.523-15.028.022-.143.022-.289 0-.432l-.744-4.238c-1.203-7.117-2.013-14.296-2.426-21.503-.235-3.61-.313-7.024-.353-9.889 0-5.179 0-9.692.431-13.851.352-4.945.822-9.575 1.448-13.852.626-4.277 1.292-8.319 2.231-12.792.744-3.493 1.605-7.063 2.74-11.262 1.683-6.082 3.914-12.282 6.145-18.482v-.353c.353-.903.705-1.805 1.135-2.747 2.762-6.745 5.966-13.299 9.59-19.62 2.857-5.023 5.362-8.79 7.006-11.144l.196-.235c1.018-1.413 1.605-2.159 1.644-2.198.32-.377.486-.862.464-1.357-.022-.495-.229-.963-.581-1.311zm-22.781 37.121c-.014.104-.014.209 0 .314v.235c-4.227 2.747-8.18 5.454-12.055 8.24-3.914-4.591-7.828-8.75-11.429-12.635 4.736-3.61 9.393-7.024 13.934-10.124 3.601 3.924 7.163 7.848 10.568 12.047-.509.746-.783 1.413-1.018 2.04v-.117zm-31 102.023c3.367-3.335 6.85-6.671 10.373-9.849 3.053 4.277 5.91 8.397 8.611 12.517-3.445 2.904-6.928 6.004-10.451 9.34-2.661-3.611-5.48-7.574-8.533-11.694v-.314zm-13.582 9.967c-3.014-3.924-6.067-7.495-9.081-11.026 3.249-3.924 6.498-7.377 9.708-10.713 3.053 3.924 6.067 7.534 9.08 11.497-3.131 3.493-6.419 6.907-9.707 10.556v-.314zm-31.782-10.202c2.857-3.924 5.871-7.613 9.08-11.537 3.132 3.257 6.38 6.828 9.747 10.673-2.858 3.297-5.872 6.946-9.16 11.066-3.17-3.178-6.262-6.631-9.667-9.888v-.314zm-12.252 12.517c-3.522-3.335-7.045-6.474-10.45-9.339 2.739-4.159 5.636-8.358 8.611-12.478 3.522 3.218 7.006 6.514 10.411 9.888-2.7 3.336-5.714 7.456-8.572 11.929zm-9.628 14.833c-2.349-2.08-4.423-3.924-6.302-5.337 1.291-4.944 2.466-9.967 3.444-15.029-.015-.3-.015-.601 0-.902l.274-.432c3.406 2.904 6.889 6.004 10.412 9.339-3.014 4.434-5.637 8.515-8.024 12.361h.196zm-12.643-128.667l-1.213-2.276c3.601-4.277 7.084-8.241 10.529-12.047 4.657 3.218 9.354 6.592 13.973 10.124-3.562 3.924-7.359 7.848-11.468 12.674-3.915-2.903-8.103-5.689-12.017-8.24.039-.078.039-.157 0-.235h.196zm99.458 43.909c-.626 4.238-1.135 8.868-1.448 13.734l-4.619 3.728c-3.523-4.591-7.006-8.829-9.864-12.282 3.915-3.493 7.829-6.828 12.095-10.046l3.836 4.866zm-17.731 31.666c3.679-3.453 7.437-6.788 11.234-9.966 1.526 2.04 3.092 3.923 4.579 6.16 0 2.865 0 6.239.352 9.771-2.192 1.805-4.501 3.924-6.967 5.925-3.248-4.002-6.301-8.044-9.394-11.89h.196zm-14.482 10.085c-3.171-3.924-6.459-7.573-9.786-11.223 3.366-3.61 6.85-7.259 10.49-10.83 3.171 3.61 6.459 7.534 9.825 11.772-3.562 3.022-7.085 6.514-10.725 10.281h.196zm-11.743 12.871c-3.366-3.924-6.654-7.456-9.746-10.752 3.249-3.924 6.537-7.613 9.746-11.144 3.288 3.61 6.576 7.377 9.747 11.144-3.445 3.375-6.694 6.985-9.982 10.752h.235zm-22.31-23.27c3.249-3.923 6.536-7.847 9.785-11.771 3.484 3.374 7.006 7.024 10.529 10.83-3.209 3.531-6.497 7.298-9.785 11.222-3.875-3.649-7.398-7.141-10.764-10.281h.235zm-13.191 12.4c-2.427-2.119-4.736-4.081-6.928-5.886.235-3.571.313-7.102.313-9.849l4.58-6.161c3.914 3.218 7.593 6.554 11.233 10.007-3.248 3.531-6.262 7.534-9.433 11.889h.235zm-4.619-48.579c3.915 3.022 7.829 6.357 12.056 10.007-3.366 3.924-6.693 8.161-9.903 12.282l-4.579-3.728c-.313-4.905-.822-9.535-1.409-13.734l3.835-4.827zm10.569-41.476c4.54 3.532 8.846 7.063 13.034 10.673-3.915 4.12-7.829 8.123-11.43 12.086-4.149-3.414-8.454-6.749-13.073-10.163 3.875-4.63 7.789-8.868 11.234-12.478l.235-.118zm29.551-1.099c3.914 3.532 8.024 7.417 12.173 11.576-4.149 3.649-8.219 7.377-12.173 11.105-3.914-3.924-8.063-7.495-12.212-11.066 4.227-4.434 8.259-8.279 11.977-11.615h.235zm25.638 25.702c-3.914 3.297-8.063 6.867-12.134 10.634-3.718-3.924-7.554-7.848-11.39-11.772 3.914-3.924 7.828-7.416 12.173-11.065 3.64 4.12 7.28 8.122 11.194 12.203h.157zm-13.034 37.121c-3.523-3.924-7.085-7.848-10.568-11.419 3.914-3.924 7.593-7.534 11.311-10.948 3.601 3.924 7.163 7.848 10.608 11.772-4.071 3.454-7.868 6.985-11.586 10.595h.235zm-12.604 12.949c-3.562-3.924-7.084-7.495-10.568-10.908 3.562-3.924 7.085-7.848 10.529-11.341 3.523 3.61 7.046 7.417 10.568 11.341-3.875 3.61-7.397 7.259-10.764 10.908h.235zm-23.954-23.544c3.366-3.924 6.85-7.848 10.568-11.772 3.718 3.414 7.515 7.064 11.312 10.948-3.484 3.61-7.046 7.417-10.568 11.419-3.875-3.531-7.672-7.063-11.547-10.595h.235zm23.915-25.505c3.888 3.767 7.685 7.612 11.39 11.536-3.718 3.414-7.554 7.102-11.39 11.026-3.914-3.924-7.632-7.612-11.351-11.026 3.484-3.885 7.281-7.73 11.116-11.497l.235-.039zm-2.113-2.041c-3.915 3.924-7.829 7.652-11.391 11.772-4.149-3.924-8.219-7.377-12.133-10.595 3.561-3.924 7.319-7.848 11.39-12.046 3.875 3.453 7.945 7.024 11.899 10.948l.235-.079zm-25.521 3.218c3.915 3.178 7.829 6.71 12.095 10.516-3.718 3.924-7.202 7.848-10.568 11.772-4.227-3.649-8.259-7.024-12.095-10.045 3.053-3.885 6.615-8.045 10.333-12.204l.235-.039zm-14.638 37.199l2.544 2.041c-.822 1.059-1.605 2.118-2.388 3.217-.274-1.805-.313-3.571-.391-5.219l.235-.039zm-.431 23.544c1.761 1.491 3.601 3.021 5.48 4.709-2.466 3.414-4.854 6.906-7.163 10.359.509-4.787 1.096-9.81 1.448-14.872l.235-.196zm7.006-22.092c3.21-3.924 6.498-8.201 9.864-12.204 3.914 3.414 7.632 6.946 11.273 10.477-3.327 3.924-6.615 7.848-9.864 11.772-3.914-3.257-7.672-6.631-11.508-9.849l.235-.196zm50.297-1.727c3.679-3.57 7.476-7.102 11.312-10.477 2.857 3.414 6.301 7.652 9.824 12.204-3.81 3.218-7.567 6.553-11.272 10.006-3.562-3.963-6.772-7.887-10.099-11.536l.235-.197zm27.595 5.415l-2.427-3.217 2.583-2.119c-.313 1.883-.352 3.688-.391 5.533l.235-.197zm.547 18.365c.392 5.062.94 10.124 1.684 15.146-2.271-3.414-4.658-6.867-7.163-10.398l5.479-4.748zm-16.556-38.455c-3.445-3.924-7.007-7.848-10.608-11.772 3.915-3.924 8.103-7.299 12.095-10.556 3.327 3.689 6.85 7.848 10.646 12.361-4.305 3.296-8.376 6.671-12.368 10.163l.235-.196zm1.761-26.526c-3.679-3.924-7.515-8.123-11.429-12.086 4.305-3.689 8.689-7.26 13.073-10.634 3.679 3.924 7.437 7.848 11.429 12.596-4.814 3.414-9.12 6.906-13.308 10.32l.235-.196zm1.918-26.644c-4.227-4.395-8.259-8.398-12.29-12.204 4.462-3.571 9.08-7.102 14.012-10.712 4.149 4.12 8.259 8.397 12.251 12.753-4.736 3.296-9.433 6.553-14.208 10.477l.235-.314zm-2.348 1.805c-4.384 3.414-8.768 6.985-13.074 10.673-4.201-4.159-8.272-8.083-12.212-11.772 4.149-3.728 8.416-7.416 13.073-11.183 3.758 4.12 7.79 8.122 11.978 12.478l.235-.196zm-27.399-2.904c-4.228-3.924-8.533-7.534-13.113-11.262 4.28-4.002 8.651-7.926 13.113-11.772 4.736 3.924 9.041 7.848 13.112 11.772-4.971 4.003-9.277 7.691-13.426 11.458l.314-.196zm-2.192 1.962c-3.719 3.335-7.829 7.181-12.252 11.772-4.188-3.649-8.532-7.181-13.034-10.712 3.914-3.924 7.829-8.084 12.212-12.125 4.267 3.767 8.572 7.455 12.761 11.261l.313-.196zm-27.634-.863c-4.658-3.571-9.355-6.946-14.013-10.163 3.914-4.434 8.22-8.712 12.291-12.753 4.932 3.61 9.55 7.141 14.012 10.712-4.579 4.277-8.728 8.358-12.603 12.518l.313-.314zm-13.112 18.756c4.579 3.375 8.885 6.71 12.994 10.124-3.914 4.199-7.319 8.358-10.607 12.439-1.996-1.53-3.914-2.982-5.754-4.355-.861-3.924-1.722-7.848-2.661-11.066 1.722-2.04 3.914-4.63 5.714-6.945l.314-.197zm-2.506 22.485l3.014 2.354-2.152 2.708c-.47-1.491-.861-3.179-1.175-4.866l.313-.196zm12.134 54.7c3.132-4.356 6.185-8.28 9.159-12.047 3.327 3.14 6.85 6.593 10.451 10.36-3.249 3.924-6.262 7.848-9.159 11.575l-10.764-9.692.313-.196zm33.31 13.42c3.014 3.532 6.027 7.22 9.041 10.987-2.896 3.257-5.91 6.749-9.081 10.595-3.131-3.924-6.145-7.338-9.041-10.595 2.935-3.885 5.949-7.495 8.767-10.791l.314-.196zm13.699-15.107c3.601-3.924 7.085-7.22 10.412-10.36 3.053 3.924 6.145 7.848 9.159 12.047-3.562 3.218-7.046 6.514-10.451 9.849-3.327-3.728-6.341-7.377-9.433-11.301l.313-.235zm31.509 19.07l.352.51v.864c.979 5.062 2.153 10.084 3.445 14.95-1.958 1.57-3.915 3.335-6.341 5.337-2.623-4.238-5.245-8.319-7.829-12.361 3.171-3.1 6.654-6.2 10.138-9.103l.235-.197zm-.626-67.06l-2.114-2.708 2.975-2.315c-.47 1.883-.94 3.571-1.175 5.219l.314-.196zm1.722-9.3c-1.84 1.334-3.914 2.786-5.715 4.316-3.914-4.63-7.319-8.711-10.685-12.439 4.149-3.414 8.454-6.749 12.994-10.085 2.036 2.316 3.915 4.709 6.028 7.142-1.37 4.316-2.231 7.848-2.935 11.262l.313-.196zm-116.798-59.723l4.227 2.354-.235.275-1.409 1.648c-.939-1.609-1.8-3.022-2.583-4.277zm4.11 6.984l2.074-2.432.627-.707c4.892 2.865 9.941 6.043 15.03 9.457-3.053 3.375-6.184 6.945-9.394 10.713-2.448-5.834-5.232-11.52-8.337-17.031zm12.408 27.194c2.74 1.844 5.519 3.924 8.337 5.807l-4.619 5.494c-1.135-3.846-2.387-7.613-3.718-11.301zm22.623 110.97c3.014-4.434 5.989-8.515 8.494-11.772 3.249 3.296 6.458 6.671 9.668 10.202-2.466 3.218-5.441 7.181-8.455 11.419-3.366-3.649-6.614-6.946-9.707-9.849zm52.372 9.731c-2.545-3.571-5.285-7.259-8.455-11.419 3.288-3.649 6.497-7.024 9.629-10.202 3.053 3.924 5.832 7.848 8.493 11.772-3.17 3.139-6.38 6.396-9.667 9.849zm28.612-109.361c-1.566-1.884-3.092-3.924-4.658-5.533 2.701-2.001 5.519-3.924 8.415-5.886-1.37 3.846-2.622 7.613-3.757 11.419zm7.828-21.543c-3.053-3.571-6.184-7.141-9.394-10.673 4.736-3.178 9.707-6.318 15.07-9.457l2.661 3.1c-3.116 5.517-5.925 11.202-8.415 17.03h.078zm9.903-19.62l-1.644-1.922 4.227-2.394-2.583 4.316z"/>
    <path fill="#1A1B41" d="M310.417 241.497c-.408-.328-.926-.482-1.446-.431-.519.051-.998.305-1.333.706l-1.527 2.119c-.109.059-.193.157-.235.274-.117.134-.222.279-.313.432-2.388 1.216-5.636 2.904-9.59 5.18-2.348-2.63-4.697-5.259-7.045-7.848-.279-.218-.625-.329-.978-.313-.352.015-.688.155-.947.396-.259.241-.424.566-.465.917-.042.351.042.706.237 1.001 2.192 2.354 4.384 4.787 6.615 7.298-5.323 3.179-10.333 6.279-15.108 9.496-3.915-4.355-8.142-8.632-12.291-12.792 1.84-1.295 3.679-2.59 5.441-3.924.159-.113.295-.257.399-.423.104-.166.174-.35.207-.543.032-.194.027-.391-.017-.582-.043-.191-.124-.372-.237-.531-.109-.159-.249-.294-.411-.398-.162-.104-.343-.174-.533-.207-.189-.033-.383-.027-.571.016-.187.043-.364.123-.52.235l-5.911 3.924c-1.37-1.334-2.739-2.707-4.109-3.924-.133-.17-.301-.31-.492-.409-.192-.099-.403-.155-.618-.165-.216-.009-.43.029-.63.111-.199.082-.378.207-.525.365-.147.159-.257.347-.324.553-.066.205-.088.423-.062.638.025.214.097.421.21.605.113.184.265.341.444.461l3.719 3.57c-4.971 3.61-9.59 7.181-14.013 10.752-3.914-3.924-8.415-7.848-13.151-11.772l2.935-2.472c.151-.118.276-.266.368-.434.092-.168.149-.353.168-.544.018-.191-.003-.384-.061-.566-.059-.183-.153-.352-.279-.496-.251-.299-.609-.487-.997-.524-.388-.036-.775.081-1.078.327l-3.366 2.786-3.366-2.825c-.147-.151-.325-.268-.521-.345-.197-.077-.407-.111-.617-.1-.211.011-.416.067-.604.163-.187.097-.352.232-.483.397s-.226.357-.278.561c-.052.205-.06.418-.024.626.037.208.117.406.235.581.119.174.273.322.453.432l2.974 2.433c-4.514 3.872-8.885 7.796-13.112 11.772-4.462-3.61-9.12-7.142-14.052-10.752l3.719-3.57c.216-.28.327-.627.312-.981-.016-.353-.156-.69-.396-.949-.24-.259-.564-.425-.914-.467-.351-.042-.704.043-.999.238-1.37 1.256-2.74 2.629-4.109 3.924l-5.911-3.924c-.159-.113-.339-.194-.53-.238-.19-.043-.387-.049-.58-.016-.193.033-.377.103-.542.208-.166.104-.309.24-.422.4-.215.33-.294.731-.221 1.118.073.388.292.732.612.961 1.761 1.177 3.601 2.472 5.441 3.924-3.914 3.924-8.22 8.319-12.33 12.792-5.127-3.413-10.176-6.592-15.069-9.496 2.153-2.472 4.345-4.944 6.576-7.298.17-.133.309-.301.408-.493.099-.192.155-.404.164-.62.01-.216-.028-.431-.11-.631s-.206-.379-.364-.526c-.159-.147-.347-.258-.552-.325-.205-.067-.422-.088-.636-.063-.214.026-.42.098-.604.211-.183.113-.34.265-.459.446-2.349 2.511-4.697 5.14-7.006 7.848-3.249-1.845-6.459-3.532-9.512-5.102-.108-.164-.225-.321-.352-.471v-.196l-1.722-2.236c-.16-.202-.358-.37-.584-.493-.225-.124-.473-.2-.728-.226-.256-.026-.514.001-.759.077s-.473.201-.669.367c-.403.324-.663.794-.721 1.309-.059.514.088 1.031.408 1.438 0 0 .626.784 1.683 2.197 1.291 1.844 3.914 5.651 7.084 11.262 3.61 6.329 6.813 12.882 9.59 19.62.391.942.783 1.844 1.174 2.825 2.396 6.087 4.474 12.295 6.224 18.6v.196c.939 3.335 1.839 6.985 2.74 11.223.9 4.237 1.683 8.632 2.231 12.831.548 4.199 1.096 8.868 1.448 13.812.274 4.16.391 8.672.391 13.813 0 2.747 0 6.357-.313 10.006-.426 7.195-1.249 14.36-2.466 21.464-.235 1.373-.47 2.786-.744 4.199-.978 5.179-2.152 10.359-3.522 15.46-.783 2.865-1.605 5.768-2.544 8.711-.085.245-.12.504-.103.762.018.259.087.511.204.742.117.231.279.436.477.602.198.166.427.291.674.367.194.037.393.037.587 0 .419.002.827-.13 1.165-.377.338-.247.589-.597.714-.997.705-2.237 1.292-4.395 1.918-6.553 1.683 1.373 3.523 2.943 5.597 4.748l-.235.432c-.106.163-.179.347-.213.54-.034.192-.029.39.015.58.043.191.125.371.24.529.115.158.261.291.428.391.23.12.484.187.744.196.248.006.494-.052.713-.169.219-.117.405-.288.539-.498l.353.314c.273.232.62.358.978.353.209.005.417-.039.607-.127s.357-.219.489-.383c.27-.278.421-.651.421-1.04 0-.388-.151-.761-.421-1.039l-.705-.628c2.349-3.924 4.971-7.848 7.829-12.243 3.053 2.904 6.301 6.121 9.628 9.653l-1.878 2.668-.548.824c-.112.157-.192.334-.235.522-.043.188-.049.383-.016.573.033.189.103.371.207.533.103.163.238.303.396.413.237.178.526.274.822.274.238 0 .472-.056.683-.166.211-.109.393-.267.53-.461l.588-.824 1.487-2.159c.978 1.021 1.918 2.041 2.857 3.14.142.148.312.266.5.347.189.081.391.123.596.123.358.005.705-.121.979-.353.138-.135.248-.297.323-.475.075-.179.114-.371.114-.565 0-.193-.039-.385-.114-.564-.075-.179-.185-.34-.323-.475-1.096-1.256-2.192-2.433-3.288-3.611 2.975-4.237 5.91-8.161 8.376-11.379 2.857 3.218 5.832 6.71 8.963 10.516l-3.522 4.552c-.122.15-.211.323-.263.508-.053.186-.066.38-.04.572.025.191.09.375.189.54.099.165.231.308.388.42.115.108.25.191.398.245.148.054.306.078.463.069.228.005.455-.046.659-.148.205-.103.382-.254.515-.44 1.018-1.334 2.075-2.629 3.131-3.924l3.132 3.924c.135.171.308.31.504.405.197.095.412.144.631.144.338-.003.667-.112.939-.314.304-.246.499-.602.543-.991.044-.389-.067-.78-.308-1.088-1.213-1.492-2.388-3.022-3.562-4.513 3.131-3.924 6.106-7.299 9.003-10.516 3.17 4.12 5.871 7.848 8.376 11.34l-3.327 3.649c-.268.272-.418.639-.418 1.021 0 .381.15.748.418 1.02.277.271.65.422 1.037.422.388 0 .76-.151 1.037-.422.979-1.099 1.918-2.119 2.897-3.139l1.487 2.158.587.824c.134.189.31.344.513.453.204.109.431.169.662.175.309.005.611-.091.861-.275.158-.11.292-.25.396-.412.103-.163.174-.344.206-.534.033-.19.028-.385-.015-.573-.043-.188-.123-.365-.235-.522l-.548-.824-1.879-2.668c3.249-3.453 6.458-6.671 9.59-9.653 2.701 3.924 5.323 7.848 7.828 12.243l-.705.628c-.27.278-.421.651-.421 1.04 0 .388.151.761.421 1.04.132.163.299.294.489.382.19.089.398.132.607.128.358.004.706-.122.979-.354l.391-.353c.114.214.283.392.49.516.207.125.443.191.685.191.29-.005.573-.086.822-.236.326-.223.553-.565.633-.953.081-.387.008-.791-.203-1.127l-.235-.353c1.996-1.726 3.914-3.296 5.637-4.748.587 2.158 1.213 4.317 1.918 6.553.125.401.375.75.713.997.339.247.747.379 1.165.377.195.033.393.033.587 0 .493-.162.902-.513 1.137-.977.235-.463.277-1.001.116-1.495-.939-2.943-1.761-5.847-2.544-8.712-1.37-5.022-2.544-10.202-3.523-15.028.022-.143.022-.289 0-.432l-.744-4.238c-1.203-7.117-2.013-14.296-2.426-21.503-.235-3.61-.313-7.024-.353-9.889 0-5.179 0-9.692.431-13.851.352-4.945.822-9.575 1.448-13.852.626-4.277 1.292-8.319 2.231-12.792.744-3.493 1.605-7.063 2.74-11.262 1.683-6.082 3.914-12.282 6.145-18.482v-.353c.353-.903.705-1.805 1.135-2.747 2.762-6.745 5.966-13.299 9.59-19.62 2.857-5.023 5.362-8.79 7.006-11.144l.196-.235c1.018-1.413 1.605-2.159 1.644-2.198.32-.377.486-.862.464-1.357-.022-.495-.229-.963-.581-1.311zm-22.781 37.121c-.014.104-.014.209 0 .314v.235c-4.227 2.747-8.18 5.454-12.055 8.24-3.914-4.591-7.828-8.75-11.429-12.635 4.736-3.61 9.393-7.024 13.934-10.124 3.601 3.924 7.163 7.848 10.568 12.047-.509.746-.783 1.413-1.018 2.04v-.117zm-31 102.023c3.367-3.335 6.85-6.671 10.373-9.849 3.053 4.277 5.91 8.397 8.611 12.517-3.445 2.904-6.928 6.004-10.451 9.34-2.661-3.611-5.48-7.574-8.533-11.694v-.314zm-13.582 9.967c-3.014-3.924-6.067-7.495-9.081-11.026 3.249-3.924 6.498-7.377 9.708-10.713 3.053 3.924 6.067 7.534 9.08 11.497-3.131 3.493-6.419 6.907-9.707 10.556v-.314zm-31.782-10.202c2.857-3.924 5.871-7.613 9.08-11.537 3.132 3.257 6.38 6.828 9.747 10.673-2.858 3.297-5.872 6.946-9.16 11.066-3.17-3.178-6.262-6.631-9.667-9.888v-.314zm-12.252 12.517c-3.522-3.335-7.045-6.474-10.45-9.339 2.739-4.159 5.636-8.358 8.611-12.478 3.522 3.218 7.006 6.514 10.411 9.888-2.7 3.336-5.714 7.456-8.572 11.929zm-9.628 14.833c-2.349-2.08-4.423-3.924-6.302-5.337 1.291-4.944 2.466-9.967 3.444-15.029-.015-.3-.015-.601 0-.902l.274-.432c3.406 2.904 6.889 6.004 10.412 9.339-3.014 4.434-5.637 8.515-8.024 12.361h.196zm-12.643-128.667l-1.213-2.276c3.601-4.277 7.084-8.241 10.529-12.047 4.657 3.218 9.354 6.592 13.973 10.124-3.562 3.924-7.359 7.848-11.468 12.674-3.915-2.903-8.103-5.689-12.017-8.24.039-.078.039-.157 0-.235h.196zm99.458 43.909c-.626 4.238-1.135 8.868-1.448 13.734l-4.619 3.728c-3.523-4.591-7.006-8.829-9.864-12.282 3.915-3.493 7.829-6.828 12.095-10.046l3.836 4.866zm-17.731 31.666c3.679-3.453 7.437-6.788 11.234-9.966 1.526 2.04 3.092 3.923 4.579 6.16 0 2.865 0 6.239.352 9.771-2.192 1.805-4.501 3.924-6.967 5.925-3.248-4.002-6.301-8.044-9.394-11.89h.196zm-14.482 10.085c-3.171-3.924-6.459-7.573-9.786-11.223 3.366-3.61 6.85-7.259 10.49-10.83 3.171 3.61 6.459 7.534 9.825 11.772-3.562 3.022-7.085 6.514-10.725 10.281h.196zm-11.743 12.871c-3.366-3.924-6.654-7.456-9.746-10.752 3.249-3.924 6.537-7.613 9.746-11.144 3.288 3.61 6.576 7.377 9.747 11.144-3.445 3.375-6.694 6.985-9.982 10.752h.235zm-22.31-23.27c3.249-3.923 6.536-7.847 9.785-11.771 3.484 3.374 7.006 7.024 10.529 10.83-3.209 3.531-6.497 7.298-9.785 11.222-3.875-3.649-7.398-7.141-10.764-10.281h.235zm-13.191 12.4c-2.427-2.119-4.736-4.081-6.928-5.886.235-3.571.313-7.102.313-9.849l4.58-6.161c3.914 3.218 7.593 6.554 11.233 10.007-3.248 3.531-6.262 7.534-9.433 11.889h.235zm-4.619-48.579c3.915 3.022 7.829 6.357 12.056 10.007-3.366 3.924-6.693 8.161-9.903 12.282l-4.579-3.728c-.313-4.905-.822-9.535-1.409-13.734l3.835-4.827zm10.569-41.476c4.54 3.532 8.846 7.063 13.034 10.673-3.915 4.12-7.829 8.123-11.43 12.086-4.149-3.414-8.454-6.749-13.073-10.163 3.875-4.63 7.789-8.868 11.234-12.478l.235-.118zm29.551-1.099c3.914 3.532 8.024 7.417 12.173 11.576-4.149 3.649-8.219 7.377-12.173 11.105-3.914-3.924-8.063-7.495-12.212-11.066 4.227-4.434 8.259-8.279 11.977-11.615h.235zm25.638 25.702c-3.914 3.297-8.063 6.867-12.134 10.634-3.718-3.924-7.554-7.848-11.39-11.772 3.914-3.924 7.828-7.416 12.173-11.065 3.64 4.12 7.28 8.122 11.194 12.203h.157zm-13.034 37.121c-3.523-3.924-7.085-7.848-10.568-11.419 3.914-3.924 7.593-7.534 11.311-10.948 3.601 3.924 7.163 7.848 10.608 11.772-4.071 3.454-7.868 6.985-11.586 10.595h.235zm-12.604 12.949c-3.562-3.924-7.084-7.495-10.568-10.908 3.562-3.924 7.085-7.848 10.529-11.341 3.523 3.61 7.046 7.417 10.568 11.341-3.875 3.61-7.397 7.259-10.764 10.908h.235zm-23.954-23.544c3.366-3.924 6.85-7.848 10.568-11.772 3.718 3.414 7.515 7.064 11.312 10.948-3.484 3.61-7.046 7.417-10.568 11.419-3.875-3.531-7.672-7.063-11.547-10.595h.235zm23.915-25.505c3.888 3.767 7.685 7.612 11.39 11.536-3.718 3.414-7.554 7.102-11.39 11.026-3.914-3.924-7.632-7.612-11.351-11.026 3.484-3.885 7.281-7.73 11.116-11.497l.235-.039zm-2.113-2.041c-3.915 3.924-7.829 7.652-11.391 11.772-4.149-3.924-8.219-7.377-12.133-10.595 3.561-3.924 7.319-7.848 11.39-12.046 3.875 3.453 7.945 7.024 11.899 10.948l.235-.079zm-25.521 3.218c3.915 3.178 7.829 6.71 12.095 10.516-3.718 3.924-7.202 7.848-10.568 11.772-4.227-3.649-8.259-7.024-12.095-10.045 3.053-3.885 6.615-8.045 10.333-12.204l.235-.039zm-14.638 37.199l2.544 2.041c-.822 1.059-1.605 2.118-2.388 3.217-.274-1.805-.313-3.571-.391-5.219l.235-.039zm-.431 23.544c1.761 1.491 3.601 3.021 5.48 4.709-2.466 3.414-4.854 6.906-7.163 10.359.509-4.787 1.096-9.81 1.448-14.872l.235-.196zm7.006-22.092c3.21-3.924 6.498-8.201 9.864-12.204 3.914 3.414 7.632 6.946 11.273 10.477-3.327 3.924-6.615 7.848-9.864 11.772-3.914-3.257-7.672-6.631-11.508-9.849l.235-.196zm50.297-1.727c3.679-3.57 7.476-7.102 11.312-10.477 2.857 3.414 6.301 7.652 9.824 12.204-3.81 3.218-7.567 6.553-11.272 10.006-3.562-3.963-6.772-7.887-10.099-11.536l.235-.197zm27.595 5.415l-2.427-3.217 2.583-2.119c-.313 1.883-.352 3.688-.391 5.533l.235-.197zm.547 18.365c.392 5.062.94 10.124 1.684 15.146-2.271-3.414-4.658-6.867-7.163-10.398l5.479-4.748zm-16.556-38.455c-3.445-3.924-7.007-7.848-10.608-11.772 3.915-3.924 8.103-7.299 12.095-10.556 3.327 3.689 6.85 7.848 10.646 12.361-4.305 3.296-8.376 6.671-12.368 10.163l.235-.196zm1.761-26.526c-3.679-3.924-7.515-8.123-11.429-12.086 4.305-3.689 8.689-7.26 13.073-10.634 3.679 3.924 7.437 7.848 11.429 12.596-4.814 3.414-9.12 6.906-13.308 10.32l.235-.196zm1.918-26.644c-4.227-4.395-8.259-8.398-12.29-12.204 4.462-3.571 9.08-7.102 14.012-10.712 4.149 4.12 8.259 8.397 12.251 12.753-4.736 3.296-9.433 6.553-14.208 10.477l.235-.314zm-2.348 1.805c-4.384 3.414-8.768 6.985-13.074 10.673-4.201-4.159-8.272-8.083-12.212-11.772 4.149-3.728 8.416-7.416 13.073-11.183 3.758 4.12 7.79 8.122 11.978 12.478l.235-.196zm-27.399-2.904c-4.228-3.924-8.533-7.534-13.113-11.262 4.28-4.002 8.651-7.926 13.113-11.772 4.736 3.924 9.041 7.848 13.112 11.772-4.971 4.003-9.277 7.691-13.426 11.458l.314-.196zm-2.192 1.962c-3.719 3.335-7.829 7.181-12.252 11.772-4.188-3.649-8.532-7.181-13.034-10.712 3.914-3.924 7.829-8.084 12.212-12.125 4.267 3.767 8.572 7.455 12.761 11.261l.313-.196zm-27.634-.863c-4.658-3.571-9.355-6.946-14.013-10.163 3.914-4.434 8.22-8.712 12.291-12.753 4.932 3.61 9.55 7.141 14.012 10.712-4.579 4.277-8.728 8.358-12.603 12.518l.313-.314zm-13.112 18.756c4.579 3.375 8.885 6.71 12.994 10.124-3.914 4.199-7.319 8.358-10.607 12.439-1.996-1.53-3.914-2.982-5.754-4.355-.861-3.924-1.722-7.848-2.661-11.066 1.722-2.04 3.914-4.63 5.714-6.945l.314-.197zm-2.506 22.485l3.014 2.354-2.152 2.708c-.47-1.491-.861-3.179-1.175-4.866l.313-.196zm12.134 54.7c3.132-4.356 6.185-8.28 9.159-12.047 3.327 3.14 6.85 6.593 10.451 10.36-3.249 3.924-6.262 7.848-9.159 11.575l-10.764-9.692.313-.196zm33.31 13.42c3.014 3.532 6.027 7.22 9.041 10.987-2.896 3.257-5.91 6.749-9.081 10.595-3.131-3.924-6.145-7.338-9.041-10.595 2.935-3.885 5.949-7.495 8.767-10.791l.314-.196zm13.699-15.107c3.601-3.924 7.085-7.22 10.412-10.36 3.053 3.924 6.145 7.848 9.159 12.047-3.562 3.218-7.046 6.514-10.451 9.849-3.327-3.728-6.341-7.377-9.433-11.301l.313-.235zm31.509 19.07l.352.51v.864c.979 5.062 2.153 10.084 3.445 14.95-1.958 1.57-3.915 3.335-6.341 5.337-2.623-4.238-5.245-8.319-7.829-12.361 3.171-3.1 6.654-6.2 10.138-9.103l.235-.197zm-.626-67.06l-2.114-2.708 2.975-2.315c-.47 1.883-.94 3.571-1.175 5.219l.314-.196zm1.722-9.3c-1.84 1.334-3.914 2.786-5.715 4.316-3.914-4.63-7.319-8.711-10.685-12.439 4.149-3.414 8.454-6.749 12.994-10.085 2.036 2.316 3.915 4.709 6.028 7.142-1.37 4.316-2.231 7.848-2.935 11.262l.313-.196zm-116.798-59.723l4.227 2.354-.235.275-1.409 1.648c-.939-1.609-1.8-3.022-2.583-4.277zm4.11 6.984l2.074-2.432.627-.707c4.892 2.865 9.941 6.043 15.03 9.457-3.053 3.375-6.184 6.945-9.394 10.713-2.448-5.834-5.232-11.52-8.337-17.031zm12.408 27.194c2.74 1.844 5.519 3.924 8.337 5.807l-4.619 5.494c-1.135-3.846-2.387-7.613-3.718-11.301zm22.623 110.97c3.014-4.434 5.989-8.515 8.494-11.772 3.249 3.296 6.458 6.671 9.668 10.202-2.466 3.218-5.441 7.181-8.455 11.419-3.366-3.649-6.614-6.946-9.707-9.849zm52.372 9.731c-2.545-3.571-5.285-7.259-8.455-11.419 3.288-3.649 6.497-7.024 9.629-10.202 3.053 3.924 5.832 7.848 8.493 11.772-3.17 3.139-6.38 6.396-9.667 9.849zm28.612-109.361c-1.566-1.884-3.092-3.924-4.658-5.533 2.701-2.001 5.519-3.924 8.415-5.886-1.37 3.846-2.622 7.613-3.757 11.419zm7.828-21.543c-3.053-3.571-6.184-7.141-9.394-10.673 4.736-3.178 9.707-6.318 15.07-9.457l2.661 3.1c-3.116 5.517-5.925 11.202-8.415 17.03h.078zm9.903-19.62l-1.644-1.922 4.227-2.394-2.583 4.316z" opacity=".6"/>
    <path fill="#263238" d="M306.598 252H157.402c-2.222-.021-4.347-.923-5.918-2.512-1.572-1.59-2.464-3.74-2.484-5.988.01-2.251.899-4.407 2.472-5.999 1.574-1.592 3.705-2.491 5.93-2.501h149.196c2.225.01 4.356.909 5.93 2.501 1.573 1.592 2.462 3.748 2.472 5.999-.02 2.248-.912 4.398-2.484 5.988-1.571 1.589-3.696 2.491-5.918 2.512z"/>
</svg>
